#N canvas 233 249 288 411 10;
#X obj 66 325 prepent;
#X obj 66 357 s PDOSC;
#X obj 135 81 r \$1popOut;
#X obj 180 112 r \$1channelSet;
#X obj 180 134 == \$5;
#X obj 66 48 r \$2\$3/Ch\$5;
#X msg 135 295 \$1\$2;
#X obj 135 271 list prepend \$4;
#X obj 135 176 spigot 0;
#X obj 66 176 spigot 1;
#X obj 79 112 r \$1omni;
#X obj 79 134 == 0;
#X connect 0 0 1 0;
#X connect 2 0 8 0;
#X connect 3 0 4 0;
#X connect 4 0 8 1;
#X connect 5 0 9 0;
#X connect 6 0 0 1;
#X connect 7 0 6 0;
#X connect 8 0 7 0;
#X connect 9 0 0 0;
#X connect 10 0 11 0;
#X connect 11 0 9 1;
