#N canvas 422 148 500 325 10;
#X obj 58 238 outlet;
#X obj 228 45 ggee/image @pd_extra/K12/objects/sarcduino_analog_off.png
1;
#X obj 228 -60 loadbang;
#X obj 58 -60 inlet;
#X obj 240 -15 preset_node k12;
#X text 206 62 pin:;
#N canvas 372 122 621 425 pin_parser 0;
#X obj 93 35 inlet;
#X obj 93 123 select 3 5 6 9 10 11, f 44;
#X obj 114 280 outlet;
#X obj 273 369 outlet;
#X msg 93 145 3;
#X msg 136 145 5;
#X msg 180 145 6;
#X msg 223 145 9;
#X msg 267 145 10;
#X msg 310 145 11;
#X obj 273 276 t b;
#X obj 354 276 t b;
#X msg 354 298 open @pd_extra/K12/objects/sarcduino_analog_off.png
;
#X msg 273 338 open @pd_extra/K12/objects/sarcduino_analog.png;
#X connect 0 0 1 0;
#X connect 1 0 4 0;
#X connect 1 1 5 0;
#X connect 1 2 6 0;
#X connect 1 3 7 0;
#X connect 1 4 8 0;
#X connect 1 5 9 0;
#X connect 1 6 11 0;
#X connect 4 0 2 0;
#X connect 4 0 10 0;
#X connect 5 0 2 0;
#X connect 5 0 10 0;
#X connect 6 0 2 0;
#X connect 6 0 10 0;
#X connect 7 0 2 0;
#X connect 7 0 10 0;
#X connect 8 0 2 0;
#X connect 8 0 10 0;
#X connect 9 0 2 0;
#X connect 9 0 10 0;
#X connect 10 0 13 0;
#X connect 11 0 12 0;
#X connect 12 0 3 0;
#X connect 13 0 3 0;
#X restore 277 104 pd pin_parser;
#X msg 304 153 pinMode \$1 pwm;
#X obj 277 126 t f f;
#X msg 58 184 pwm \$2 \$1;
#X obj 58 161 pack 0 0;
#X text 208 46 OUTPUT;
#X obj 230 65 nbx 3 14 -1e+37 1e+37 0 1 empty empty empty 0 -8 0 10
-262144 -1 -1 -1 256 3;
#X msg 228 -37 open @pd_extra/K12/objects/sarcduino_analog_off.png
;
#X connect 2 0 13 0;
#X connect 3 0 10 0;
#X connect 4 0 12 0;
#X connect 6 0 8 0;
#X connect 6 1 1 0;
#X connect 7 0 0 0;
#X connect 8 0 10 1;
#X connect 8 1 7 0;
#X connect 9 0 0 0;
#X connect 10 0 9 0;
#X connect 12 0 6 0;
#X connect 13 0 1 0;
#X coords 0 -1 1 1 89 89 2 183 13;
