#N canvas 318 89 509 484 10;
#X obj 233 -22 preset_hub k12 %hidden% %node% 2 4 14 %node% 2 4 28
%node% 2 7 10 %node% 2 7 15 %node% 2 8 7 %node% 2 11 7 %node% 2 10
8 %node% 2 11 7;
#X obj 9 148 cnv 15 483 148 empty empty empty 20 12 0 14 -228856 -66577
0;
#X obj 0 -2 cnv 3 501 3 empty empty empty 5 14 0 20 -260097 -191407
0;
#X obj 0 -30 cnv 15 501 28 empty empty FX/Filter 5 14 0 20 -139274
-262144 0;
#X obj 14 320 K12/output;
#N canvas 236 204 395 407 META 0;
#X text 7 118 OUTLET_0 Connect this to a sound object or sound output
;
#X text 7 44 INLET_0 Connect a sound input here (like an instrument
or sound generator);
#X text 7 7 DESCRIPTION This makes the sound more muffled or brighter
depending on which filter you select;
#X text 7 81 INLET_1 Connect a data control object here to control
the filter frequency (values -1 to 1 \, default 0);
#X restore 449 422 pd META;
#X obj 471 1 ggee/image @pd_extra/K12/icons/l2ork.png 0;
#X obj 14 153 K12/fx_filter;
#X obj 119 65 K12/math_number;
#X text 119 154 The filter is used to change the sound of the instrument
by filtering (subtracting or amplifying) certain portion of the sound.
You can use the bottom four boxes to specify one of the possible filters:
lowpass that muffles the sound \, highpass that removes low frequencies
\, bandpass that makes the sound appear as if it is coming from a phone
\, and notch \, that amplifies a narrow range of pitches. To adjust
the frequency change \, either move the line on the slider yourself
\, or you can control the frequency response by inputing a value between
-1 and 1 into the right inlet;
#X obj 14 36 K12/signal_noise;
#X connect 7 0 4 0;
#X connect 8 0 7 1;
#X connect 10 0 7 0;
