#N canvas 12 191 338 371 10;
#X obj 256 163 inlet~;
#X obj 323 208 outlet~;
#X obj 281 186 svf~;
#X obj 301 -129 inlet;
#X obj 301 -86 * 10000;
#X msg 301 118 \$1 100;
#X obj 338 36 ggee/image @pd_extra/K12/objects/fx_filter.png;
#X obj 338 -54 loadbang;
#X obj 301 41 hsl 68 29 50 10000 0 0 \$0-s-filt0 \$0-r-filt0 empty
-2 -8 0 10 -262144 -1 -1 0 1;
#X obj 301 141 line~ 0;
#X obj 391 4 preset_node k12;
#X obj 301 -108 abs;
#X msg 338 -33 open @pd_extra/K12/objects/fx_filter.png;
#X connect 0 0 2 0;
#X connect 2 3 1 0;
#X connect 3 0 11 0;
#X connect 4 0 8 0;
#X connect 5 0 9 0;
#X connect 7 0 12 0;
#X connect 7 0 8 0;
#X connect 8 0 5 0;
#X connect 8 0 10 0;
#X connect 9 0 2 1;
#X connect 10 0 8 0;
#X connect 11 0 4 0;
#X connect 12 0 6 0;
#X coords 0 -1 1 1 89 89 2 293 4;
