#N canvas 335 43 509 619 10;
#X obj 261 73 cnv 15 231 103 empty empty empty 20 12 0 14 -233017 -66577
0;
#X obj 233 -22 preset_hub k12 %hidden% %node% 2 5 14 %preset% 0 100
%preset% 1 100 %preset% 2 100 %node% 2 5 28 %preset% 0 0 %preset% 1
0 %preset% 2 0 %node% 2 11 10 %node% 2 9 5 %preset% 0 0 %preset% 1
7 %node% 2 9 7 %preset% 0 1 %preset% 1 1 %preset% 2 1 %node% 2 10 7
%preset% 0 60 %preset% 1 60 %preset% 2 60 %node% 2 11 7 %preset% 1
10 %preset% 0 0 %preset% 2 63 %node% 2 12 8 %node% 2 13 5 %preset%
0 0 %preset% 1 10 %preset% 2 63 %node% 2 13 15 %preset% 0 0 %preset%
1 83.5069 %preset% 2 127 %node% 2 13 14;
#X obj 11 318 cnv 15 481 108 empty empty empty 20 12 0 14 -228856 -66577
0;
#X obj 0 -2 cnv 3 501 3 empty empty empty 5 14 0 20 -260097 -191407
0;
#X obj 0 -30 cnv 15 501 28 empty empty FX/Phaser 5 14 0 20 -139274
-262144 0;
#X obj 19 470 K12/output;
#N canvas 415 278 392 172 META 0;
#X text 7 120 OUTLET_0 Connect this to a sound object or sound output
;
#X text 8 44 INLET_0 Connect a sound input here (like an instrument
or sound generator);
#X text 7 7 DESCRIPTION This applies flange-like (wah-wah) effect to
the incoming sound;
#X text 8 82 INLET_1 Connect a control object to adjust the frequency
(0 to 127 \, default 0);
#X restore 447 556 pd META;
#X obj 471 1 ggee/image @pd_extra/K12/icons/l2ork.png 0;
#X obj 19 208 K12/instr_sustained2;
#X obj 19 115 K12/math_number;
#X obj 117 115 K12/math_number;
#X obj 173 237 K12/math_number;
#X obj 396 79 K12/preset;
#X obj 19 327 K12/fx_phaser;
#X text 267 99 Use preset 0 to play original sound \, then recall presets
1 and 2 to hear processed sound., f 20;
#X text 121 324 Phaser is used to create a flange-like (wah-wah) sound
that sound. Use left inlet to connect sound you wish to process. Use
the right inlet to change the frequency (range 0 to 127 \, default
0). Each whole number corresponds to a 1/10 of Hz. Connect the outgoing
sound to output or other effects.;
#X connect 8 0 13 0;
#X connect 9 0 8 0;
#X connect 10 0 8 1;
#X connect 11 0 13 1;
#X connect 13 0 5 0;
