#N canvas 239 95 507 379 10;
#X obj 411 247 ggee/image @pd_extra/K12/objects/logic_sequencer.png
;
#X obj 273 58 inlet;
#X obj 408 390 outlet;
#X obj 274 100 select 1 2 3 4 5 6 7 8 9 10 11 12 13 14 15 16;
#X obj 235 159 K12/seq_channel 1;
#X obj 257 159 K12/seq_channel 2;
#X obj 279 159 K12/seq_channel 3;
#X obj 301 159 K12/seq_channel 4;
#X obj 323 159 K12/seq_channel 5;
#X obj 345 159 K12/seq_channel 6;
#X obj 367 159 K12/seq_channel 7;
#X obj 389 159 K12/seq_channel 8;
#X obj 411 159 K12/seq_channel 9;
#X obj 433 159 K12/seq_channel 10;
#X obj 455 159 K12/seq_channel 11;
#X obj 477 159 K12/seq_channel 12;
#X obj 499 159 K12/seq_channel 13;
#X obj 521 159 K12/seq_channel 14;
#X obj 543 159 K12/seq_channel 15;
#X obj 565 159 K12/seq_channel 16;
#X obj 273 78 int;
#X connect 1 0 20 0;
#X connect 3 0 4 0;
#X connect 3 1 5 0;
#X connect 3 2 6 0;
#X connect 3 3 7 0;
#X connect 3 4 8 0;
#X connect 3 5 9 0;
#X connect 3 6 10 0;
#X connect 3 7 11 0;
#X connect 3 8 12 0;
#X connect 3 9 13 0;
#X connect 3 10 14 0;
#X connect 3 11 15 0;
#X connect 3 12 16 0;
#X connect 3 13 17 0;
#X connect 3 14 18 0;
#X connect 3 15 19 0;
#X connect 4 0 2 0;
#X connect 5 0 2 0;
#X connect 6 0 2 0;
#X connect 7 0 2 0;
#X connect 8 0 2 0;
#X connect 9 0 2 0;
#X connect 10 0 2 0;
#X connect 11 0 2 0;
#X connect 12 0 2 0;
#X connect 13 0 2 0;
#X connect 14 0 2 0;
#X connect 15 0 2 0;
#X connect 16 0 2 0;
#X connect 17 0 2 0;
#X connect 18 0 2 0;
#X connect 19 0 2 0;
#X connect 20 0 3 0;
#X coords 0 -1 1 1 388 230 2 217 141;
