#N canvas 4 27 503 530 10;
#X obj 226 -10 preset_hub k12 %hidden% %node% 2 6 8 %preset% 0 %node%
2 7 3 %preset% 0 1 %node% 2 7 11 %preset% 0 120 %node% 2 8 3 %preset%
0 0 %node% 2 8 19 %preset% 0 15 %node% 3 9 4 0 %preset% 0 73 %node%
3 9 5 0 %preset% 0 69 %node% 3 9 6 0 %preset% 0 36 %node% 3 9 7 0 %preset%
0 45 %node% 3 9 8 0 %preset% 0 64 %node% 3 9 9 0 %preset% 0 81 %node%
3 9 10 0 %preset% 0 50 %node% 3 9 11 0 %preset% 0 39 %node% 3 9 12
0 %preset% 0 56 %node% 3 9 13 0 %preset% 0 69 %node% 3 9 14 0 %preset%
0 43 %node% 3 9 15 0 %preset% 0 48 %node% 3 9 16 0 %preset% 0 40 %node%
3 9 17 0 %preset% 0 45 %node% 3 9 18 0 %preset% 0 53 %node% 3 9 19
0 %preset% 0 38 %node% 2 11 14 %preset% 0 100 %node% 2 7 8 %node% 2
8 11 %node% 2 9 3 %node% 2 9 19 %node% 3 10 4 0 %node% 3 10 5 0 %node%
3 10 6 0 %node% 3 10 7 0 %node% 3 10 8 0 %node% 3 10 9 0 %node% 3 10
10 0 %node% 3 10 11 0 %node% 3 10 12 0 %node% 3 10 13 0 %node% 3 10
14 0 %node% 3 10 15 0 %node% 3 10 16 0 %node% 3 10 17 0 %node% 3 10
18 0 %node% 3 10 19 0 %node% 2 12 14 %node% 3 13 4 0 %node% 3 13 5
0 %node% 3 13 6 0 %node% 3 13 7 0 %node% 3 13 8 0 %node% 3 13 9 0 %node%
3 13 10 0 %node% 3 13 11 0 %node% 3 13 12 0 %node% 3 13 13 0 %node%
3 13 14 0 %node% 3 13 15 0 %node% 3 13 16 0 %node% 3 13 17 0 %node%
3 13 18 0 %node% 3 13 19 0;
#X obj 145 182 cnv 15 359 88 empty empty empty 20 12 0 14 -233017 -66577
0;
#X obj 36 268 cnv 15 395 238 empty empty empty 20 12 0 14 -233017 -66577
0;
#N canvas 534 24 450 530 META 0;
#X text 10 9 DESCRIPTION This is a 16-step sequencer;
#X text 9 39 INLET_0 Send the number here of the column you whose pitch
you wish to output;
#X text 8 73 OUTLET_0 This outputs a pitch between 0 and 127 Connect
this to the right inlet of an instrument object;
#X restore 454 707 pd META;
#X obj 8 9 cnv 3 501 3 empty empty empty 5 14 0 20 -260097 -191407
0;
#X obj 8 -19 cnv 15 501 28 empty empty Sequencer 5 14 0 20 -139274
-262144 0;
#X obj 479 12 ggee/image @pd_extra/K12/icons/l2ork.png;
#X obj 393 40 K12/preset;
#X obj 19 46 K12/logic_metronome;
#X obj 40 156 K12/logic_counter;
#X obj 40 273 K12/logic_sequencer;
#X obj 19 526 K12/instr_sustained2;
#X obj 18 644 K12/output;
#X text 145 180 The Sequencer object allows you to make a step-sequencer
of pitches. Send the inlet a number to cause the pitch to be selected
in the corresponding column. Select a pitch for each column using the
sliders. The output is the pitch (a number between 0 and 127). Send
this to right inlet of an instrument object.;
#X connect 8 0 9 0;
#X connect 8 0 11 0;
#X connect 9 0 10 0;
#X connect 10 0 11 1;
#X connect 11 0 12 0;
