#N canvas 540 50 416 255 10;
#X obj 42 111 inlet;
#X obj 42 276 outlet;
#X obj 141 205 ggee/image @pd_extra/K12/objects/math_average.png 1;
#X obj 141 72 loadbang;
#X obj 100 214 nbx 5 19 1 1e+37 0 1 \$0-s-null \$0-r-null empty 0 -8
0 16 -262144 -1 -1 5 256 1;
#X obj 42 252 average;
#X text 119 197 length;
#X msg 141 95 open @pd_extra/K12/objects/math_average.png;
#X obj 204 157 preset_node k12;
#X connect 0 0 5 0;
#X connect 3 0 7 0;
#X connect 4 0 5 1;
#X connect 4 0 8 0;
#X connect 5 0 1 0;
#X connect 8 0 4 0;
#X coords 0 -1 1 1 89 89 2 96 173;
