#N canvas 414 46 444 410 10;
#X obj 375 103 ggee/image @pd_extra/K12/objects/midi_note.png 1;
#X obj 368 6 loadbang;
#X obj 387 98 nbx 2 14 1 16 0 1 empty empty empty -7 -8 0 10 -262144
-1 -1 1 256 3;
#X obj 198 70 inlet;
#X obj 426 71 preset_node k12;
#X obj 427 97 preset_node k12;
#X text 340 97 Channel:;
#X obj 347 129 nbx 5 14 0 1e+37 0 1 empty empty empty -4 -8 0 10 -262144
-1 -1 250 256 1;
#X msg 368 28 open @pd_extra/K12/objects/midi_note.png;
#X text 347 112 Duration:;
#X obj 198 383 outlet;
#X obj 198 202 t l l, f 18;
#X msg 198 181 \$2 \$1;
#X obj 303 340 list append 0;
#X obj 285 70 inlet;
#X obj 303 292 pipe f f 250;
#X obj 303 316 pack 0 0, f 12;
#X obj 198 223 list append 127;
#X obj 198 160 pack f f;
#X obj 303 268 gate 1 1;
#X obj 372 200 t f f;
#X obj 399 223 > 0;
#X connect 1 0 8 0;
#X connect 2 0 18 1;
#X connect 3 0 18 0;
#X connect 4 0 2 0;
#X connect 5 0 7 0;
#X connect 7 0 20 0;
#X connect 8 0 0 0;
#X connect 11 0 17 0;
#X connect 11 1 19 1;
#X connect 12 0 11 0;
#X connect 13 0 10 0;
#X connect 14 0 17 1;
#X connect 15 0 16 0;
#X connect 15 1 16 1;
#X connect 16 0 13 0;
#X connect 17 0 10 0;
#X connect 18 0 12 0;
#X connect 19 0 15 0;
#X connect 20 0 15 2;
#X connect 20 1 21 0;
#X connect 21 0 19 0;
#X coords 0 -1 1 1 89 89 2 330 71;
