#N canvas 433 83 512 456 10;
#X obj 129 189 ggee/image @pd_extra/K12/objects/audio_off.png;
#X obj -53 26 inlet~;
#N canvas 316 207 286 259 dsp 0;
#X obj 178 43 route dsp;
#X msg 11 184 \; pd dsp \$1;
#X obj 178 131 float;
#X obj 178 22 receive pd;
#X obj 11 36 > 0;
#X obj 178 223 outlet;
#X obj 11 7 r pd-l2ork-k12_main_out;
#X obj 11 62 change -1;
#X connect 0 0 2 0;
#X connect 2 0 5 0;
#X connect 3 0 0 0;
#X connect 4 0 7 0;
#X connect 6 0 4 0;
#X connect 7 0 1 0;
#X connect 7 0 2 0;
#X restore 169 260 pd dsp logic;
#X obj -54 131 *~;
#X obj -53 97 z~ 64;
#X obj -7 97 limiter~;
#X msg 5 74 compress 98 88 0.5;
#X obj 178 350 loadbang;
#X obj -54 389 svf~ 200;
#X obj -31 346 sig~ 200;
#X obj -10 367 sig~ 0.01;
#X obj -54 458 dac~;
#X obj -11 416 *~ 0.5;
#X obj -54 416 *~ 0.5;
#X obj 31 120 preset_node k12;
#X obj 133 192 vsl 34 44 0 100 0 0 pd-l2ork-k12_main_out pd-l2ork-k12_main_out
empty 0 -9 0 10 -262144 -1 -1 43 1;
#N canvas 0 0 271 201 level 0;
#X obj 49 8 inlet~;
#X obj 48 140 *~;
#X obj 152 8 inlet;
#X obj 152 124 line~;
#X obj 48 163 outlet~;
#X obj 152 58 / 100;
#X msg 152 102 \$1 50;
#X obj 152 80 pow 2;
#X connect 0 0 1 0;
#X connect 1 0 4 0;
#X connect 2 0 5 0;
#X connect 3 0 1 1;
#X connect 5 0 7 0;
#X connect 6 0 3 0;
#X connect 7 0 6 0;
#X restore -52 50 pd level;
#X obj 5 50 loadbang;
#X obj 169 292 select 0 1;
#X msg 197 328 open @pd_extra/K12/objects/audio_on.png;
#X msg 169 374 open @pd_extra/K12/objects/audio_off.png;
#X obj 89 226 tgl 15 0 \$0-null-send \$0-null-receive empty 17 7 0
10 -262144 -1 -1 0 1;
#X text 86 209 mode;
#X text 86 200 stereo;
#X obj -53 322 *~;
#X obj 50 367 *~;
#X obj 65 346 line~;
#X obj -39 155 loadbang;
#X obj 50 97 preset_node k12;
#X obj -38 301 line~;
#X msg -38 177 1;
#X msg -9 177 0;
#X msg 65 324 \$1 10;
#X msg -31 277 \$1 10;
#X obj -31 255 expr 1-$f1;
#X obj 227 74 sig~ 1;
#X obj 227 119 snapshot~;
#X obj 273 74 loadbang;
#X obj 227 141 change;
#X obj 227 163 s pd-l2ork-k12_main_out;
#X text 163 53 logic for detecting dsp status on startup;
#X obj 273 96 delay 10;
#X connect 1 0 16 0;
#X connect 2 0 18 0;
#X connect 3 0 24 0;
#X connect 3 0 25 0;
#X connect 4 0 3 0;
#X connect 5 0 3 1;
#X connect 6 0 5 0;
#X connect 7 0 20 0;
#X connect 8 0 13 0;
#X connect 8 1 12 0;
#X connect 9 0 8 1;
#X connect 10 0 8 2;
#X connect 12 0 11 0;
#X connect 13 0 11 1;
#X connect 14 0 15 0;
#X connect 15 0 14 0;
#X connect 15 0 16 1;
#X connect 16 0 5 0;
#X connect 16 0 4 0;
#X connect 17 0 6 0;
#X connect 18 0 20 0;
#X connect 18 1 19 0;
#X connect 19 0 0 0;
#X connect 20 0 0 0;
#X connect 21 0 28 0;
#X connect 21 0 32 0;
#X connect 21 0 34 0;
#X connect 24 0 8 0;
#X connect 25 0 13 0;
#X connect 25 0 12 0;
#X connect 26 0 25 1;
#X connect 27 0 30 0;
#X connect 27 0 31 0;
#X connect 28 0 21 0;
#X connect 29 0 24 1;
#X connect 30 0 29 0;
#X connect 31 0 26 0;
#X connect 32 0 26 0;
#X connect 33 0 29 0;
#X connect 34 0 33 0;
#X connect 35 0 36 0;
#X connect 36 0 38 0;
#X connect 37 0 41 0;
#X connect 38 0 39 0;
#X connect 41 0 36 0;
#X coords 0 -1 1 1 89 89 2 84 157;
