#N canvas 425 50 539 317 10;
#X obj 33 -88 inlet;
#X obj 261 121 ggee/image @pd_extra/K12/objects/sarcduino_hit1.png
1;
#X obj 169 -9 select 0 1;
#X obj 197 17 delay 100;
#X obj 261 17 loadbang;
#X msg 261 40 open @pd_extra/K12/objects/sarcduino_hit1.png;
#X obj 33 206 outlet;
#N canvas 31 175 465 442 delays 0;
#X obj 51 406 outlet;
#X obj 51 16 inlet;
#X obj 339 16 inlet;
#X obj 339 74 delay 15;
#X obj 339 121 delay 15;
#X obj 339 174 delay 15;
#X obj 339 228 delay 15;
#X obj 339 279 delay 15;
#X obj 339 334 delay 15;
#X msg 60 38 stop;
#X msg 51 118 open @pd_extra/K12/objects/sarcduino_hit6.png;
#X msg 51 167 open @pd_extra/K12/objects/sarcduino_hit5.png;
#X msg 51 216 open @pd_extra/K12/objects/sarcduino_hit4.png;
#X msg 51 270 open @pd_extra/K12/objects/sarcduino_hit3.png;
#X msg 51 322 open @pd_extra/K12/objects/sarcduino_hit2.png;
#X msg 51 368 open @pd_extra/K12/objects/sarcduino_hit1.png;
#X connect 1 0 10 0;
#X connect 1 0 9 0;
#X connect 2 0 3 0;
#X connect 3 0 10 0;
#X connect 3 0 4 0;
#X connect 4 0 11 0;
#X connect 4 0 5 0;
#X connect 5 0 12 0;
#X connect 5 0 6 0;
#X connect 6 0 13 0;
#X connect 6 0 7 0;
#X connect 7 0 14 0;
#X connect 7 0 8 0;
#X connect 8 0 15 0;
#X connect 9 0 3 0;
#X connect 9 0 4 0;
#X connect 9 0 5 0;
#X connect 9 0 6 0;
#X connect 9 0 7 0;
#X connect 9 0 8 0;
#X connect 10 0 0 0;
#X connect 11 0 0 0;
#X connect 12 0 0 0;
#X connect 13 0 0 0;
#X connect 14 0 0 0;
#X connect 15 0 0 0;
#X restore 146 41 pd delays;
#X obj 217 120 nbx 4 14 0 1e+37 0 1 \$0-s-null \$0-r-null empty 0 -8
0 10 -262144 -1 -1 0.03 256 3;
#X obj 217 142 nbx 4 14 0 1e+37 0 1 \$0-s-null \$0-r-null empty 0 -8
0 10 -262144 -1 -1 0.01 256 3;
#X obj 311 89 preset_node k12;
#X obj 311 111 preset_node k12;
#X obj 33 -62 t f f;
#X obj 33 -28 -;
#X obj 84 47 sel 1;
#X msg 84 69 1;
#X obj 33 47 sel 1;
#X msg 33 69 0;
#X obj 33 123 change;
#X obj 33 11 < -0.01;
#X obj 84 11 > 0.03;
#X text 224 109 up;
#X text 224 131 down;
#X obj 217 183 * -1;
#X connect 0 0 12 0;
#X connect 2 1 3 0;
#X connect 2 1 7 0;
#X connect 3 0 7 1;
#X connect 4 0 5 0;
#X connect 5 0 1 0;
#X connect 7 0 1 0;
#X connect 8 0 10 0;
#X connect 8 0 20 1;
#X connect 9 0 11 0;
#X connect 9 0 23 0;
#X connect 10 0 8 0;
#X connect 11 0 9 0;
#X connect 12 0 13 1;
#X connect 12 1 13 0;
#X connect 13 0 19 0;
#X connect 13 0 20 0;
#X connect 14 0 15 0;
#X connect 15 0 18 0;
#X connect 16 0 17 0;
#X connect 17 0 18 0;
#X connect 18 0 6 0;
#X connect 18 0 2 0;
#X connect 19 0 16 0;
#X connect 20 0 14 0;
#X connect 23 0 19 1;
#X coords 0 -1 1 1 89 89 2 216 89;
