#N canvas 417 55 416 250 10;
#X obj 188 114 outlet;
#X obj 228 45 ggee/image @pd_extra/K12/objects/sarcduino_piezo.png
1;
#X obj 228 -60 loadbang;
#X obj 245 44 nbx 1 14 1 16 0 0 empty empty channel: -48 8 0 11 -262144
-1 -1 1 256 3;
#X obj 128 -111 inlet;
#X obj 245 -15 preset_node k12;
#X obj 128 -43 route a;
#X obj 128 -20 route 1;
#X obj 128 -66 route list;
#X obj 188 63 nbx 4 14 -1e+37 1e+37 0 0 empty empty empty 0 -8 0 20
-262144 -1 -1 0 256 3;
#X msg 228 -37 open @pd_extra/K12/objects/sarcduino_piezo.png;
#X obj 128 2 - 337;
#X obj 128 46 abs;
#X obj 128 24 / 337;
#X connect 2 0 10 0;
#X connect 3 0 5 0;
#X connect 3 0 7 1;
#X connect 4 0 8 0;
#X connect 5 0 3 0;
#X connect 6 0 7 0;
#X connect 7 0 11 0;
#X connect 8 0 6 0;
#X connect 9 0 0 0;
#X connect 11 0 13 0;
#X connect 12 0 9 0;
#X connect 13 0 12 0;
#X coords 0 -1 1 1 89 89 2 183 13;
