#N canvas 571 62 452 422 10;
#X obj 162 62 loadbang;
#X obj 162 159 ggee/image @pd_extra/K12/objects/signal_netsend.png
;
#X obj 59 54 preset_node k12;
#X obj 121 180 nbx 5 19 -1e+37 1e+37 0 0 \$0-s-null \$0-r-null empty
0 -8 0 16 -262144 -1 -1 4000 256 1;
#X text 178 194 port;
#X msg 52 338 disconnect \, connect \$1 \$2;
#X symbolatom 121 161 13 0 0 0 - - -;
#X text 118 145 address;
#X obj 215 110 loadbang;
#X msg 242 154 set localhost;
#X obj 34 373 mrpeach/udpsend~ 1 1024;
#X obj 34 128 inlet~;
#X msg 162 85 open @pd_extra/K12/objects/signal_netsend.png;
#X obj 59 75 preset_node k12;
#X obj 52 313 pack s f;
#X obj 163 224 t 1 b f 0;
#X obj 67 278 gate 1 1;
#X obj 52 224 t 1 s b 0;
#X obj 168 278 gate 1 1;
#X obj 215 132 t b b;
#X msg 215 175 4000;
#X connect 0 0 12 0;
#X connect 2 0 3 0;
#X connect 3 0 15 0;
#X connect 5 0 10 0;
#X connect 6 0 17 0;
#X connect 8 0 19 0;
#X connect 9 0 6 0;
#X connect 11 0 10 0;
#X connect 12 0 1 0;
#X connect 13 0 6 0;
#X connect 14 0 5 0;
#X connect 15 0 16 0;
#X connect 15 1 18 1;
#X connect 15 2 14 1;
#X connect 15 3 16 0;
#X connect 16 0 3 0;
#X connect 17 0 18 0;
#X connect 17 1 14 0;
#X connect 17 2 16 1;
#X connect 17 3 18 0;
#X connect 18 0 6 0;
#X connect 19 0 20 0;
#X connect 19 1 9 0;
#X connect 20 0 3 0;
#X coords 0 -1 1 1 89 89 2 117 127;
