#N canvas 519 50 431 363 10;
#X obj 120 132 bng 82 250 50 0 empty empty empty 17 7 0 10 -262144
-1 -1;
#X obj 3 198 inlet;
#N canvas 141 109 450 366 unpack_motionplus 0;
#X obj 14 12 inlet;
#X obj 14 40 route motionplus;
#X obj 14 105 unpack 0 0 0;
#X obj 14 63 route angle_rate;
#X obj 15 238 f;
#X obj 79 240 f;
#X obj 15 271 nbx 5 14 -1e+37 1e+37 0 0 empty empty empty 0 -8 0 11
-262144 -1 -1 0 256 0;
#X obj 79 271 nbx 5 14 -1e+37 1e+37 0 0 empty empty empty 0 -8 0 11
-262144 -1 -1 0 256 0;
#X obj 15 308 outlet;
#X obj 79 307 outlet;
#X obj 277 305 outlet;
#X obj 333 305 outlet;
#X text 274 331 Realtime motion plus data;
#X text 13 331 Initial Calibration;
#X obj 14 163 change;
#X obj 23 188 gate 1 1;
#X obj 14 140 t f f;
#X obj 204 118 inlet;
#X obj 238 195 counter 0 2;
#X obj 238 217 sel 2;
#X msg 238 239 0;
#X obj 23 211 t b b b;
#X obj 144 240 f;
#X obj 144 271 nbx 5 14 -1e+37 1e+37 0 0 empty empty empty 0 -8 0 11
-262144 -1 -1 0 256 0;
#X obj 144 307 outlet;
#X obj 386 305 outlet;
#X connect 0 0 1 0;
#X connect 1 0 3 0;
#X connect 2 0 10 0;
#X connect 2 0 16 0;
#X connect 2 1 5 1;
#X connect 2 1 11 0;
#X connect 2 2 25 0;
#X connect 2 2 22 1;
#X connect 3 0 2 0;
#X connect 4 0 6 0;
#X connect 5 0 7 0;
#X connect 6 0 8 0;
#X connect 7 0 9 0;
#X connect 14 0 15 1;
#X connect 15 0 21 0;
#X connect 16 0 14 0;
#X connect 16 1 4 1;
#X connect 17 0 21 0;
#X connect 18 0 19 0;
#X connect 19 0 20 0;
#X connect 20 0 15 0;
#X connect 21 0 5 0;
#X connect 21 0 4 0;
#X connect 21 1 18 0;
#X connect 21 2 22 0;
#X connect 22 0 23 0;
#X connect 23 0 24 0;
#X restore 3 223 pd unpack_motionplus;
#N canvas 18 50 730 320 motionplus_logic 0;
#X obj 45 30 inlet;
#X obj 87 30 inlet;
#X obj 219 30 inlet;
#X obj 266 30 inlet;
#X obj 72 75 -;
#X obj 251 80 -;
#X text 61 5 Y motion;
#X obj 264 282 outlet;
#X text 186 30 Live;
#X text 303 30 Calibrated;
#X text 230 5 roll motion;
#X obj 449 30 inlet;
#X obj 496 30 inlet;
#X obj 481 80 -;
#X text 416 30 Live;
#X text 533 30 Calibrated;
#X text 460 5 Y motion;
#X obj 648 30 inlet;
#X obj 264 215 switch 3 1;
#X obj 264 193 + 1;
#X connect 0 0 4 0;
#X connect 1 0 4 1;
#X connect 2 0 5 0;
#X connect 3 0 5 1;
#X connect 4 0 18 1;
#X connect 5 0 18 2;
#X connect 11 0 13 0;
#X connect 12 0 13 1;
#X connect 13 0 18 3;
#X connect 17 0 19 0;
#X connect 18 0 7 0;
#X connect 19 0 18 0;
#X restore 3 299 pd motionplus_logic;
#X obj 3 388 outlet;
#X obj 155 62 loadbang;
#X msg 3 322 \$1 50;
#X obj 162 159 ggee/image @pd_extra/K12/objects/wii_speed_xry.png 1
;
#X obj 3 345 line 0 25;
#X msg 155 85 open @pd_extra/K12/objects/wii_speed_xry.png;
#X obj 210 127 preset_node k12;
#X obj 134 154 cnv 13 14 13 empty \$0-compare x 20 12 0 18 -262144
-66577 0;
#X obj 137 223 select 0 1 2;
#X obj 137 267 tosymbol;
#X obj 137 312 s \$0-compare;
#X msg 137 289 label \$1;
#X msg 137 245 x;
#X msg 195 245 y;
#X msg 166 245 r;
#X obj 72 144 r blah;
#X obj 3 366 / 8000;
#X obj 137 177 hradio 15 1 0 3 empty empty empty 0 -8 0 10 -262144
-1 -1 0;
#X connect 0 0 2 1;
#X connect 1 0 2 0;
#X connect 2 0 3 5;
#X connect 2 1 3 3;
#X connect 2 2 3 1;
#X connect 2 3 3 4;
#X connect 2 4 3 2;
#X connect 2 5 3 0;
#X connect 3 0 6 0;
#X connect 5 0 9 0;
#X connect 6 0 8 0;
#X connect 8 0 20 0;
#X connect 10 0 21 0;
#X connect 12 0 16 0;
#X connect 12 1 18 0;
#X connect 12 2 17 0;
#X connect 13 0 15 0;
#X connect 15 0 14 0;
#X connect 16 0 13 0;
#X connect 17 0 13 0;
#X connect 18 0 13 0;
#X connect 19 0 2 0;
#X connect 20 0 4 0;
#X connect 21 0 12 0;
#X connect 21 0 3 6;
#X coords 0 -1 1 1 89 89 2 117 127;
