#N canvas 560 190 666 338 10;
#X obj 162 41 inlet;
#X obj 161 280 outlet;
#X obj 161 158 r \$2-in;
#X obj 161 208 route \$1;
#X text 22 312 Read \$2-OSC (== \$0-OSC) \, filter by argument \$1
;
#X obj 162 99 s \$2-RRADICAL-MEMENTO;
#X text 95 123 RRADICAL_MEMENTO is also in originator;
#X obj 49 183 r \$2-RRADICAL-OSC;
#X obj 299 164 r \$2/listParams;
#X obj 299 221 list append \$1;
#X obj 162 72 prepent \$1;
#X obj 161 233 list;
#X obj 299 194 spigot 1;
#X obj 429 106 loadbang;
#X obj 429 154 sel hide;
#X msg 429 177 0;
#X obj 429 129 list append \$3;
#X obj 49 207 deeprouteOSC \$1;
#X obj 299 251 s \$2/returnParams;
#X obj 161 253 route bang;
#X connect 0 0 10 0;
#X connect 2 0 3 0;
#X connect 3 0 11 0;
#X connect 7 0 17 0;
#X connect 8 0 12 0;
#X connect 9 0 18 0;
#X connect 10 0 5 0;
#X connect 11 0 19 0;
#X connect 12 0 9 0;
#X connect 13 0 16 0;
#X connect 14 0 15 0;
#X connect 15 0 12 1;
#X connect 16 0 14 0;
#X connect 17 0 11 0;
#X connect 19 1 1 0;
