#N canvas 392 139 633 538 10;
#X obj 191 425 outlet~;
#X obj 191 237 t3_bpe;
#X obj 191 138 t b b;
#X obj 191 294 t3_line~ 0;
#X obj 191 375 fade~ lin;
#X msg 342 344 set _lin;
#X msg 342 365 set _linsqrt;
#X msg 342 386 set _sqrt;
#X msg 342 407 set _sin;
#X msg 342 428 set _sinhann;
#X msg 342 449 set _hann;
#X obj 476 48 inlet;
#X obj 140 40 inlet;
#X msg 342 323 set \$1;
#X obj 476 132 symbol;
#X obj 522 190 symbol stop;
#X msg 140 198 0 0;
#X obj 140 138 t b b;
#X obj 140 105 select 0;
#X obj 191 198 f 0;
#X obj 476 69 route set stop;
#X obj 289 36 inlet;
#X obj 289 61 t b f;
#X obj 244 35 inlet;
#X obj 332 36 inlet;
#X obj 332 61 t b f;
#X obj 377 37 inlet;
#X obj 377 62 t b f;
#X obj 244 105 pack 0 0 0 0;
#X msg 244 133 set \$1 \$2 \$3 \$4;
#X msg 244 192 1 71 0 132;
#X connect 1 0 3 0;
#X connect 1 1 3 1;
#X connect 2 0 19 0;
#X connect 2 1 30 0;
#X connect 3 0 4 0;
#X connect 4 0 0 0;
#X connect 5 0 4 0;
#X connect 6 0 4 0;
#X connect 7 0 4 0;
#X connect 8 0 4 0;
#X connect 9 0 4 0;
#X connect 10 0 4 0;
#X connect 11 0 20 0;
#X connect 12 0 18 0;
#X connect 13 0 4 0;
#X connect 14 0 13 0;
#X connect 15 0 1 0;
#X connect 16 0 1 0;
#X connect 17 0 16 0;
#X connect 17 1 19 0;
#X connect 18 0 17 0;
#X connect 18 1 2 0;
#X connect 19 0 1 0;
#X connect 20 0 14 0;
#X connect 20 1 15 0;
#X connect 21 0 22 0;
#X connect 22 0 28 0;
#X connect 22 1 28 1;
#X connect 23 0 28 0;
#X connect 24 0 25 0;
#X connect 25 0 28 0;
#X connect 25 1 28 2;
#X connect 26 0 27 0;
#X connect 27 0 28 0;
#X connect 27 1 28 3;
#X connect 28 0 29 0;
#X connect 29 0 30 0;
#X connect 30 0 1 0;
