#N canvas 357 262 102 64 10;
#N canvas 652 443 450 300 pli 0;
#X obj 330 15 table \$0-s;
#X obj 148 70 xgroove~ \$0-s;
#X obj 163 198 symbol \$0-s;
#X obj 92 226 pack s s;
#X obj 164 39 inlet;
#X obj 211 38 inlet;
#X obj 270 37 inlet;
#X obj 28 155 r \$0-file;
#X obj 317 185 openpanel;
#X obj 317 210 s \$0-file;
#X obj 317 157 r \$0-open;
#X obj 148 112 outlet~;
#X msg 92 253 read -resize \$1 \$2;
#X obj 92 275 soundfiler;
#X obj 75 39 r \$0-speed;
#X obj 55 64 r \$0-loop;
#X msg 55 83 loop \$1;
#X obj 180 178 s \$0-speed;
#X msg 160 13 bang;
#X msg 180 153 1;
#X obj 101 153 t b b b;
#N canvas 534 237 450 300 settings 0;
#X obj 92 234 originator \$1 \$0;
#X obj 163 116 commun /file \$0;
#X obj 163 140 symbol;
#X obj 163 165 s \$0-file;
#X obj 163 93 r \$0-file-s;
#X obj 56 151 loadbang;
#X obj 56 179 t b b;
#X msg 85 199 substate 0;
#X msg 49 200 set;
#X obj 31 129 r \$0-reset;
#X symbolatom 271 164 10 0 0 0 - - -;
#X obj 316 64 r \$0-speed;
#X obj 314 107 s \$0-speed;
#X obj 315 87 commun /speed \$0;
#X connect 1 0 2 0;
#X connect 2 0 3 0;
#X connect 2 0 10 0;
#X connect 4 0 1 0;
#X connect 5 0 6 0;
#X connect 6 0 8 0;
#X connect 6 1 7 0;
#X connect 7 0 0 0;
#X connect 8 0 0 0;
#X connect 9 0 6 0;
#X connect 11 0 13 0;
#X connect 13 0 12 0;
#X restore 317 128 pd settings;
#X obj 11 226 s \$0-file-s;
#X obj 92 198 symbol;
#X msg 177 128 0;
#X obj 210 154 loadbang;
#X msg 44 121 reset;
#X obj 26 179 t b s;
#X obj 254 239 tabplay~;
#X obj 333 37 inlet;
#X obj 335 80 * 0.0078;
#X obj 335 60 select 0;
#X obj 249 100 vline~;
#X obj 148 93 *~;
#X msg 267 76 \$1 20;
#X connect 1 0 33 0;
#X connect 2 0 3 1;
#X connect 3 0 12 0;
#X connect 4 0 1 0;
#X connect 5 0 1 1;
#X connect 6 0 1 2;
#X connect 7 0 27 0;
#X connect 8 0 9 0;
#X connect 10 0 8 0;
#X connect 12 0 13 0;
#X connect 14 0 1 0;
#X connect 15 0 16 0;
#X connect 16 0 1 0;
#X connect 18 0 1 0;
#X connect 19 0 17 0;
#X connect 20 0 26 0;
#X connect 20 0 19 0;
#X connect 20 0 24 0;
#X connect 20 1 23 0;
#X connect 20 1 18 0;
#X connect 20 2 2 0;
#X connect 23 0 3 0;
#X connect 23 0 22 0;
#X connect 24 0 16 0;
#X connect 25 0 26 0;
#X connect 26 0 1 0;
#X connect 27 0 20 0;
#X connect 27 1 23 1;
#X connect 29 0 31 0;
#X connect 30 0 34 0;
#X connect 31 1 30 0;
#X connect 32 0 33 1;
#X connect 33 0 11 0;
#X connect 34 0 32 0;
#X restore 116 42 pd pli;
#X obj 116 20 inlet;
#X obj 1 20 cnv 15 100 40 empty empty empty 20 12 0 10 -262131 -66577
0;
#X obj 13 34 bng 16 250 50 0 \$0-open \$0-open-r op 3 -6 1728 8 -225271
-1 -1;
#X obj 39 35 nbx 3 12 0 3 0 0 \$0-speed \$0-speed spd 0 -6 1728 8 -225280
-1 -1 1 256;
#X obj 77 34 tgl 14 0 \$0-loop \$0-loop loop 0 -6 1728 8 -261681 -1
-1 0 1;
#X obj 117 64 outlet~;
#X obj 47 51 bng 8 250 50 0 \$0-reset empty empty 0 -6 1152 8 -258699
-1 -1;
#X obj 159 20 inlet;
#X connect 0 0 6 0;
#X connect 1 0 0 0;
#X connect 8 0 0 3;
#X coords 0 0 1 1 102 60 1;
