#N canvas 67 237 450 357 10;
#X obj 35 35 inlet;
#X obj 47 84 unpack f f;
#X obj 91 143 osc~ 0;
#X obj 21 139 t b b f;
#X obj 41 177 delay;
#X obj 62 253 *~ 0;
#X msg 40 204 0;
#X msg 10 206 1;
#X obj 61 287 outlet~;
#X obj 182 279 outlet;
#X text 97 24 takes a list that is a frequency and a duration;
#X obj 203 53 inlet;
#X connect 0 0 1 0;
#X connect 1 0 2 0;
#X connect 1 1 3 0;
#X connect 2 0 5 0;
#X connect 3 0 7 0;
#X connect 3 1 4 0;
#X connect 3 2 4 1;
#X connect 4 0 6 0;
#X connect 4 0 9 0;
#X connect 5 0 8 0;
#X connect 6 0 5 1;
#X connect 7 0 5 1;
