#N struct ball-and-bat float x float y;
#N canvas -9 19 624 562 10;
#X obj 132 -12 struct ball-and-bat float x float y;
#X scalar ball-and-bat -79 24 \;;
#X obj 132 9 route displace;
#X obj 132 30 unpack p f;
#X obj 189 82 t a b;
#X msg 216 109 clear;
#X obj 189 139 pipe 100;
#X obj 189 160 * 50;
#X msg 189 181 1000 \$1;
#X obj 189 202 -;
#X floatatom 127 226 5 0 0 0 - - -, f 5;
#X obj 189 244 line;
#X msg 188 223 0 \, 100 \$1;
#X obj 289 185 del;
#X obj 240 357 draw circle 0 20 20;
#X obj 65 297 loadbang;
#X msg 65 318 stroke-dasharray 5 5;
#X obj 289 227 f;
#X msg 289 248 0 \$1;
#X obj 293 163 + 250;
#X obj 150 56 moses 1;
#X obj 65 402 draw path m 22.9167 966.945 c -5.21812 0 -8.33333 3.13916
-8.33333 8.33333 0 4.16666 8.33333 10.4166 12.5 14.5833 8.33312 8.3334
22.0911 15.8413 35.4167 29.1667 l 12.5 12.5 -2.08334 2.0833 c 0 2.0833
2.08334 4.1667 4.16667 4.1667 l 4.16667 -4.1667 4.16666 -4.1667 c 0
-2.0833 -2.08333 -4.1666 -4.16666 -4.1666 l -2.08334 2.0833 -12.5 -12.5
c -11.9306 -11.9304 -20.8335 -27.0833 -29.1667 -35.4167 -4.16667 -4.16666
-10.4167 -12.5 -14.5833 -12.5 z;
#X msg 65 381 transform translate 590 -1800 rotate 0.57 65 1010 scale
2;
#X obj 65 360 loadbang;
#X obj 250 315 loadbang;
#X msg 250 336 stroke-width 2;
#X msg 240 294 transform translate \$1 0;
#X obj 65 339 draw rect -35 -35 225 205;
#X connect 0 0 2 0;
#X connect 2 0 3 0;
#X connect 3 1 20 0;
#X connect 4 0 6 0;
#X connect 4 1 5 0;
#X connect 5 0 6 0;
#X connect 6 0 7 0;
#X connect 7 0 8 0;
#X connect 8 0 9 0;
#X connect 9 0 12 0;
#X connect 9 0 10 0;
#X connect 9 0 17 1;
#X connect 9 0 19 0;
#X connect 11 0 26 0;
#X connect 12 0 11 0;
#X connect 13 0 17 0;
#X connect 15 0 16 0;
#X connect 16 0 27 0;
#X connect 17 0 18 0;
#X connect 18 0 11 0;
#X connect 19 0 13 0;
#X connect 20 1 4 0;
#X connect 22 0 21 0;
#X connect 23 0 22 0;
#X connect 24 0 25 0;
#X connect 25 0 14 0;
#X connect 26 0 14 0;
