#N struct bulb float x float y float r float g float b float a float
s;
#N canvas -9 19 650 529 10;
#N canvas 644 19 538 195 bulb 0;
#X obj 87 87 loadbang;
#X msg 87 107 transform scale 0.5;
#X obj 87 57 outlet;
#X obj 87 21 struct bulb float x float y float r float g float b float
a float s;
#N canvas 342 361 450 300 (subpatch) 0;
#X obj 34 79 loadbang;
#X obj 34 119 draw path M 100 100 m -43.3013 21.6987 a 50 50 0 1 1
86.6025 0 c -6 12 -23.3013 18.3013 -23.3013 33.3013 a 50 50 0 0 1 -40
0 c 0 -15 -17.3013 -21.3013 -23.3013 -33.3013 z;
#X obj 34 165 loadbang;
#X msg 34 185;
#X obj 34 205 draw path M 100 100 m -20 82 a 50 50 0 0 0 40 -2 l 0
3 -10 8 -20 0 -10 -8 z;
#X obj 34 238 loadbang;
#X msg 34 258;
#X obj 34 278 draw path M 100 100 m -20 55 a 50 50 0 0 0 40 -2 l 0
27 a -50 50 0 0 1 -40 2 z;
#X obj 34 311 loadbang;
#X msg 34 331;
#X obj 34 351 draw path M 100 100 m -20 53 a 50 50 0 0 0 40 0;
#X obj 34 371 loadbang;
#X msg 34 391;
#X obj 34 411 draw path M 100 100 m -20 82 a 50 50 0 0 0 40 0;
#X obj 34 431 loadbang;
#X msg 34 451;
#X obj 34 471 draw path M 100 100 m -20 61.75 a 50 50 0 0 0 40 -2;
#X obj 34 491 loadbang;
#X msg 34 511;
#X obj 34 531 draw path M 100 100 m -20 70.75 a 50 50 0 0 0 40 -2;
#X obj 34 551 loadbang;
#X msg 34 571;
#X obj 34 591 draw path M 100 100 m -20 79.75 a 50 50 0 0 0 40 -2;
#X obj 34 611 loadbang;
#X msg 34 631;
#X obj 34 651 draw path M 100 100 m -20 55 a 50 50 0 0 0 40 -2;
#X obj 34 671 loadbang;
#X msg 34 691;
#X obj 34 711 draw path M 100 100 m -20 64 a 50 50 0 0 0 40 -2;
#X obj 34 731 loadbang;
#X msg 34 751;
#X obj 34 771 draw path M 100 100 m -20 73 a 50 50 0 0 0 40 -2;
#X obj 34 791 loadbang;
#X msg 34 811;
#X obj 34 831 draw path M 100 100 m -20 82 a 50 50 0 0 0 40 -2;
#X obj 34 851 loadbang;
#X msg 34 871;
#X obj 34 891 draw path M 100 100 m -20 57.25 a 50 50 0 0 0 40 -2;
#X obj 34 911 loadbang;
#X msg 34 931;
#X obj 34 951 draw path M 100 100 m -20 66.25 a 50 50 0 0 0 40 -2;
#X obj 34 971 loadbang;
#X msg 34 991;
#X obj 34 1011 draw path M 100 100 m -20 75.25 a 50 50 0 0 0 40 -2
;
#X obj 34 1031 loadbang;
#X msg 34 1051;
#X obj 34 1071 draw path M 100 100 m -20 59.5 a 50 50 0 0 0 40 -2;
#X obj 34 1091 loadbang;
#X msg 34 1111;
#X obj 34 1131 draw path M 100 100 m -20 68.5 a 50 50 0 0 0 40 -2;
#X obj 34 1151 loadbang;
#X msg 34 1171;
#X obj 34 1191 draw path M 100 100 m -20 77.5 a 50 50 0 0 0 40 -2;
#X obj 34 1211 loadbang;
#X msg 34 1231;
#X obj 34 1251 draw path M 100 100 m -43.3013 21.6987 a 50 50 0 1 1
86.6025 0 c -6 12 -23.3013 18.3013 -23.3013 33.3013 l 0 28 -10 8 -20
0 -10 -8 0 -28 c 0 -15 -17.3013 -21.3013 -23.3013 -33.3013 z;
#X msg 34 99 fill r g b a \, stroke-width s \, stroke r g b;
#X connect 0 0 56 0;
#X connect 2 0 3 0;
#X connect 3 0 4 0;
#X connect 5 0 6 0;
#X connect 6 0 7 0;
#X connect 8 0 9 0;
#X connect 9 0 10 0;
#X connect 11 0 12 0;
#X connect 12 0 13 0;
#X connect 14 0 15 0;
#X connect 15 0 16 0;
#X connect 17 0 18 0;
#X connect 18 0 19 0;
#X connect 20 0 21 0;
#X connect 21 0 22 0;
#X connect 23 0 24 0;
#X connect 24 0 25 0;
#X connect 26 0 27 0;
#X connect 27 0 28 0;
#X connect 29 0 30 0;
#X connect 30 0 31 0;
#X connect 32 0 33 0;
#X connect 33 0 34 0;
#X connect 35 0 36 0;
#X connect 36 0 37 0;
#X connect 38 0 39 0;
#X connect 39 0 40 0;
#X connect 41 0 42 0;
#X connect 42 0 43 0;
#X connect 44 0 45 0;
#X connect 45 0 46 0;
#X connect 47 0 48 0;
#X connect 48 0 49 0;
#X connect 50 0 51 0;
#X connect 51 0 52 0;
#X connect 53 0 54 0;
#X connect 54 0 55 0;
#X connect 56 0 1 0;
#X restore 87 128 group;
#X connect 0 0 1 0;
#X connect 1 0 4 0;
#X connect 3 0 2 0;
#X restore 350 42 pd bulb;
#X obj 350 66 route enter leave;
#X obj 350 170 random 255;
#X obj 420 170 random 255;
#X obj 490 170 random 255;
#X obj 350 134 trigger bang bang bang anything;
#X obj 564 168 t a;
#X obj 350 240 set bulb r g b a s;
#X scalar bulb 37 89 185 249 86 1 2 \;;
#X scalar bulb 207 89 152 43 161 1 2 \;;
#X scalar bulb 117 89 247 79 102 1 2 \;;
#X scalar bulb 37 189 184 112 128 1 2 \;;
#X scalar bulb 204 187 247 50 138 1 2 \;;
#X scalar bulb 117 189 116 180 26 1 2 \;;
#X scalar bulb 37 289 230 65 224 1 2 \;;
#X scalar bulb 207 289 144 9 157 1 2 \;;
#X scalar bulb 117 289 146 49 216 0.3 5 \;;
#X scalar bulb 287 289 163 141 80 1 2 \;;
#X scalar bulb 467 289 104 210 156 1 2 \;;
#X scalar bulb 377 289 70 140 69 1 2 \;;
#X scalar bulb 37 -11 184 112 128 1 2 \;;
#X scalar bulb 207 -11 234 160 144 1 2 \;;
#X scalar bulb 117 -11 76 203 161 1 2 \;;
#X obj 399 112 set bulb s a;
#X obj 350 211 pack f f f 0.3 5;
#X msg 399 91 2 1 \$1;
#X text 76 426 Light Bulbs;
#X text 76 426 ___________;
#X text 76 446 This is just a quick demo to show enter/leave functionality
for scalars.;
#X connect 0 0 1 0;
#X connect 1 0 5 0;
#X connect 1 1 25 0;
#X connect 2 0 24 0;
#X connect 3 0 24 1;
#X connect 4 0 24 2;
#X connect 5 0 2 0;
#X connect 5 1 3 0;
#X connect 5 2 4 0;
#X connect 5 3 6 0;
#X connect 6 0 7 5;
#X connect 24 0 7 0;
#X connect 25 0 23 0;
