#N struct curvebbox float x float y;
#N canvas 0 19 619 300 10;
#X obj 151 34 struct curvebbox float x float y;
#X scalar curvebbox 71 53 \;;
#X text 197 181 Short demo showing that Pd should find the correct
bounding box for a transformed scalar in edit-mode.;
#X text 197 221 Unfortunately it doesn't quite get it right for curves.
You can see with rotation at some angles it doesn't include part of
the curve.;
#N canvas 433 184 450 300 (subpatch) 0;
#X floatatom 163 116 5 0 0 0 - - -, f 5;
#X obj 163 160 draw path M 20 120 C 20 30 40 50 60 70;
#X msg 163 137 transform rotate \$1;
#X connect 0 0 2 0;
#X connect 2 0 1 0;
#X restore 417 94 group;
#X floatatom 408 21 5 0 0 0 - - -, f 5;
#X msg 408 42 transform translate \$1 0;
#X connect 5 0 6 0;
#X connect 6 0 4 0;
