#N canvas 433 184 450 300 10;
#X obj 81 25 inlet;
#X obj 81 46 route drag;
#X obj 81 196 set \$1 \$2 \$3;
#X obj 134 110 get \$1 \$2 \$3;
#X obj 228 89 unpack p;
#X obj 81 67 trigger anything anything;
#X msg 81 89 \$2 \$3;
#X obj 81 110 unpack;
#X obj 81 157 +;
#X obj 125 156 +;
#X connect 0 0 1 0;
#X connect 1 0 5 0;
#X connect 3 0 8 1;
#X connect 3 1 9 1;
#X connect 4 0 3 0;
#X connect 4 0 2 2;
#X connect 5 0 6 0;
#X connect 5 1 4 0;
#X connect 6 0 7 0;
#X connect 7 0 8 0;
#X connect 7 1 9 0;
#X connect 8 0 2 0;
#X connect 9 0 2 1;
