#N struct mm float x float y float a;
#N canvas 0 19 844 666 10;
#X obj 180 590 cnv 15 317 17 empty empty empty 20 12 0 14 -204786 -66577
0;
#X obj 0 24 drawsprite ./megaman 0 0 a;
#X scalar mm 73 495.272 3 \;;
#X obj 333 -2 key;
#X obj 510 348 pointer;
#X obj 333 21 select 115;
#X obj 412 153 f;
#X obj 454 153 + 1;
#X obj 454 178 % 4;
#X obj 454 212 sel 0 1 2 3;
#X msg 454 243 6;
#X msg 484 243 7;
#X msg 514 243 8;
#X msg 544 243 7;
#X obj 258 0 keyup;
#X obj 258 21 select 115;
#X msg 258 42 0;
#X obj 453 300 t a b;
#X obj 333 62 metro 90;
#X obj 481 417 + 5;
#X obj 525 270 t a b;
#X obj 569 269 t a b;
#X msg 561 378 4;
#X msg 617 373 6;
#X text 181 590 Click the "s" key to make megaman run to the right!
;
#X msg 510 327 traverse pd-megaman.pd \, next;
#X obj 0 0 struct mm float x float y float a;
#X obj 481 378 get mm x;
#X obj 453 446 set mm a x;
#X obj 226 295 canvasinfo;
#X msg 226 152 traverse pd-megaman.pd \, next;
#X obj 226 173 pointer;
#X obj 226 194 get mm x y;
#X obj 292 221 + 20;
#X obj 226 253 pack;
#X msg 226 274 hitbox \$1 \$2;
#X obj 226 316 route bang;
#X msg 263 466 traverse pd-megaman.pd \, next;
#X obj 263 487 pointer;
#X obj 224 380 t b b b;
#X obj 52 318 t b b;
#X obj 52 360 line;
#X obj 385 93 spigot 1;
#X msg 430 46 0;
#X msg 460 67 1;
#X obj 283 341 t a b;
#X obj 461 17 b;
#X obj 52 381 t a a;
#X obj 147 488 * 6.28319;
#X obj 117 508 sin;
#X obj 177 466 * 0.437;
#X obj 52 595 +;
#X obj 263 513 get mm x y;
#X msg 228 466 9;
#X obj 385 114 t b b;
#X msg 52 339 0 \, 1 750;
#X obj 461 46 del 751;
#X obj 310 364 s stop;
#X obj 226 215 + 40;
#X obj 52 411 * 30;
#X obj 77 528 * -52;
#X obj 77 595 +;
#X obj 52 624 set mm x y a;
#N canvas 416 58 460 233 stand-and-blink 0;
#X msg 391 114 traverse pd-megaman.pd \, next;
#X obj 391 135 pointer;
#X obj 354 178 set mm a;
#X obj 354 89 t b b;
#X msg 354 141 3;
#X msg 243 130 4;
#X obj 266 106 del 200;
#X obj 209 97 b;
#X obj 243 33 r stop;
#X msg 243 54 stop;
#X obj 243 81 del 3500;
#X obj 354 38 inlet;
#X obj 354 67 del 752;
#X connect 0 0 1 0;
#X connect 1 0 2 1;
#X connect 3 0 4 0;
#X connect 3 1 0 0;
#X connect 4 0 2 0;
#X connect 5 0 2 0;
#X connect 6 0 4 0;
#X connect 6 0 7 0;
#X connect 7 0 10 0;
#X connect 8 0 9 0;
#X connect 9 0 10 0;
#X connect 10 0 5 0;
#X connect 10 0 6 0;
#X connect 11 0 12 0;
#X connect 12 0 3 0;
#X connect 12 0 10 0;
#X restore 260 94 pd stand-and-blink;
#X text 527 443 ---------- 2014 Jonathan Wilkes ----------;
#X connect 3 0 5 0;
#X connect 4 0 27 0;
#X connect 4 0 28 2;
#X connect 5 0 18 0;
#X connect 6 0 7 0;
#X connect 7 0 8 0;
#X connect 8 0 6 1;
#X connect 8 0 9 0;
#X connect 9 0 10 0;
#X connect 9 1 11 0;
#X connect 9 2 12 0;
#X connect 9 3 13 0;
#X connect 10 0 17 0;
#X connect 11 0 17 0;
#X connect 12 0 20 0;
#X connect 13 0 21 0;
#X connect 14 0 15 0;
#X connect 15 0 16 0;
#X connect 16 0 18 0;
#X connect 17 0 28 0;
#X connect 17 1 25 0;
#X connect 18 0 42 0;
#X connect 18 0 63 0;
#X connect 19 0 28 1;
#X connect 20 0 17 0;
#X connect 20 1 22 0;
#X connect 21 0 17 0;
#X connect 21 1 23 0;
#X connect 22 0 19 1;
#X connect 23 0 19 1;
#X connect 25 0 4 0;
#X connect 27 0 19 0;
#X connect 29 0 36 0;
#X connect 30 0 31 0;
#X connect 31 0 32 0;
#X connect 32 0 58 0;
#X connect 32 1 33 0;
#X connect 33 0 34 1;
#X connect 34 0 35 0;
#X connect 35 0 29 0;
#X connect 36 1 45 0;
#X connect 37 0 38 0;
#X connect 38 0 52 0;
#X connect 38 0 62 3;
#X connect 39 0 40 0;
#X connect 39 1 53 0;
#X connect 39 2 37 0;
#X connect 40 0 55 0;
#X connect 41 0 47 0;
#X connect 42 0 54 0;
#X connect 43 0 42 1;
#X connect 44 0 42 1;
#X connect 45 0 39 0;
#X connect 45 1 46 0;
#X connect 45 1 57 0;
#X connect 46 0 43 0;
#X connect 46 0 56 0;
#X connect 47 0 59 0;
#X connect 47 1 50 0;
#X connect 48 0 49 0;
#X connect 49 0 60 0;
#X connect 50 0 48 0;
#X connect 51 0 62 0;
#X connect 52 0 51 1;
#X connect 52 1 61 1;
#X connect 53 0 62 2;
#X connect 54 0 30 0;
#X connect 54 1 6 0;
#X connect 55 0 41 0;
#X connect 56 0 44 0;
#X connect 58 0 34 0;
#X connect 59 0 51 0;
#X connect 60 0 61 0;
#X connect 61 0 62 1;
