#N canvas 186 212 462 290 10;
#X obj 35 25 vsl 15 128 0 127 0 0 empty empty empty 0 -8 0 8 -262144
-1 -1 3800 1;
#X obj 62 108 commun /volume \$0;
#X obj 220 145 originator /mypatch \$0;
#X obj 21 174 careGUI;
#X obj 108 64 hsl 128 15 0 127 0 0 empty empty empty -2 -6 0 8 -262144
-1 -1 9200 1;
#X obj 140 35 commun /pan \$0;
#X floatatom 220 98 5 0 0 1 substate_selector - -;
#X msg 220 121 substate \$1;
#X connect 0 0 1 0;
#X connect 1 0 0 0;
#X connect 4 0 5 0;
#X connect 5 0 4 0;
#X connect 6 0 7 0;
#X connect 7 0 2 0;
