#N canvas 393 272 611 495 10;
#X obj 9 7 cnv 15 100 20 empty empty Multiple_Abstractions 20 12 1
14 -262144 -66577 0;
#X obj 378 34 s part;
#X text 406 8 click here \, to go on;
#X text 100 461 First select a FILE \, then SAVE or RESTORE!!!;
#X obj 53 91 anAbstraction oneState;
#X obj 54 233 anAbstraction anotherState;
#X msg 378 10 9;
#X obj 98 377 careGUI MoreStates.dat;
#X text 52 56 By using different arguments \, you can even reuse an
abstraction several times \, each with its own state.;
#X connect 6 0 1 0;
