#N struct 17848.ds-array float x float y float l-width float l-color
float x-spacing array ds-array 17848.ds-element;
#N struct 17848.ds-element float x float y;
#N canvas 347 22 800 765 10;
#N canvas 0 22 450 300 (subpatch) 0;
#X array \$0.soundfile 500000 float 2;
#X coords 0 1 500000 -1 200 140 1;
#X restore 29 34 graph;
#N canvas 893 26 450 300 \$0.ds-array 0;
#X obj 59 73 struct \$0.ds-array float x float y float l-width float
l-color float x-spacing array ds-array \$0.ds-element;
#X obj 88 195 plot ds-array l-color l-width 0 0;
#X restore 538 276 pd \$0.ds-array;
#N canvas 890 355 450 300 \$0.element 0;
#X obj 98 59 struct \$0.ds-element float x float y;
#X restore 538 302 pd \$0.element;
#N canvas 81 253 212 108 \$0.data 1;
#X scalar 17848.ds-array 0 50 1 338 0 \; 0 -0 \; 0 0.445557 \; 0 6.15845
\; 0 0.134277 \; 0 0.408936 \; 0 -0.134277 \; 0 -0.0183105 \; 0 0.0793457
\; 0 -0.32959 \; 0 0.268555 \; 0 -0.149536 \; 0 -0.158691 \; 0 -0.274658
\; 0 0.0701904 \; 0 0.0335693 \; 0 -0.00915527 \; 1 -0 \; 1 -0.170898
\; 1 0.0579834 \; 1 -0.00305176 \; 1 0.00915527 \; 1 0.0946045 \; 1
0.0671387 \; 1 0.0762939 \; 1 -0.0579834 \; 1 0.0549316 \; 1 0.0640869
\; 1 0.00610352 \; 1 -0.0152588 \; 1 -0.012207 \; 1 -0.0854492 \; 1
0.100708 \; 2 0.0335693 \; 2 -0.00610352 \; 2 0.0305176 \; 2 0.0762939
\; 2 -0.0518799 \; 2 -0.0396729 \; 2 -1.70593 \; 2 0.161743 \; 2 -1.651
\; 2 0.723267 \; 2 -0.0518799 \; 2 -0.396729 \; 2 0.283813 \; 2 -0.17395
\; 2 -0.088501 \; 2 -0.134277 \; 3 -0.0915527 \; 3 -0.12207 \; 3 -0.146484
\; 3 0.0335693 \; 3 -0.250244 \; 3 0.0823975 \; 3 -0.100708 \; 3 -0.10376
\; 3 0.0152588 \; 3 0.161743 \; 3 -0.0427246 \; 3 0.0640869 \; 3 0.131226
\; 3 0.0244141 \; 3 -0.0946045 \; 3 -0.0762939 \; 4 -0.012207 \; 4
0.0854492 \; 4 0.012207 \; 4 0.0488281 \; 4 0.0396729 \; 4 -0.012207
\; 4 -0.0274658 \; 4 0.0854492 \; 4 -0.0152588 \; 4 -0.0518799 \; 4
0.0518799 \; 4 0.0366211 \; 4 0.0152588 \; 4 0.0152588 \; 4 0.0549316
\; 4 0.0549316 \; 5 -0.0488281 \; 5 0.0305176 \; 5 -0.088501 \; 5 -0.0213623
\; 5 0.00915527 \; 5 0.125122 \; 5 0.149536 \; 5 0.112915 \; 5 -0.305176
\; 5 0.0274658 \; 5 0.125122 \; 5 -0.161743 \; 5 -0.15564 \; 5 -0.177002
\; 5 0.140381 \; 5 -0.00610352 \; 6 0.0823975 \; 6 0.0244141 \; 6 -0.0396729
\; 6 0.0244141 \; 6 -0.0671387 \; 6 -0.0457764 \; 6 -0.0366211 \; 6
-0.0793457 \; 6 -0.0335693 \; 6 0.0610352 \; 6 0.0762939 \; 6 0.0732422
\; 6 0.0488281 \; 6 -0.0213623 \; 6 -0.0335693 \; 6 0.0427246 \; 7
-0.00610352 \; 7 0.00610352 \; 7 0.0366211 \; 7 0.0305176 \; 7 -0.0213623
\; 7 -0.00610352 \; 7 0.0152588 \; 7 0.00610352 \; 7 0.0396729 \; 7
-0 \; 7 -0.00610352 \; 7 -0.0305176 \; 7 0.0427246 \; 7 -0 \; 7 -0.0610352
\; 7 -0.0488281 \; 8 -0.0183105 \; 8 0.0183105 \; 8 0.00915527 \; 8
0.0793457 \; 8 0.00610352 \; 8 -0.0335693 \; 8 0.0213623 \; 8 0.0274658
\; 8 0.00305176 \; 8 -0.0183105 \; 8 0.0274658 \; 8 0.0457764 \; 8
0.012207 \; 8 -0.00610352 \; 8 -0.0335693 \; 8 -0.0305176 \; 9 -0.0305176
\; 9 0.012207 \; 9 0.0152588 \; 9 -0 \; 9 -0.0366211 \; 9 -0.0305176
\; 9 -0.00610352 \; 9 -0.0488281 \; 9 0.00305176 \; 9 -0.0579834 \;
9 0.0457764 \; 9 -0.0305176 \; 9 -0.00305176 \; 9 0.0366211 \; 9 0.00610352
\; 9 0.00305176 \; 10 0.0152588 \; 10 -0.0305176 \; 10 0.0762939 \;
10 0.231934 \; 10 -1.0376 \; 10 0.662231 \; 10 2.27966 \; 10 -6.10962
\; 10 8.26721 \; 10 -9.90601 \; 10 9.13696 \; 10 -8.92029 \; 10 5.62439
\; 10 -4.24194 \; 10 1.94397 \; 10 2.49023 \; 11 -8.13293 \; 11 11.9476
\; 11 -14.5874 \; 11 17.3279 \; 11 -17.0746 \; 11 11.8439 \; 11 -4.58069
\; 11 -1.60828 \; 11 11.1908 \; 11 -18 \; 11 13.4918 \; 11 -9.74731
\; 11 0.946045 \; 11 5.78918 \; 11 -8.31299 \; 11 8.72803 \; 12 -8.56323
\; 12 6.9397 \; 12 -4.69666 \; 12 3.49426 \; 12 0.717163 \; 12 -1.91956
\; 12 4.54712 \; 12 -4 \; 12 7.69043 \; 12 -5.92346 \; 12 4.2572 \;
12 -1.31226 \; 12 -0.0274658 \; 12 1.40991 \; 12 -3.17993 \; 12 3.94592
\; 13 -3.60107 \; 13 3.24707 \; 13 -2.46582 \; 13 1.82495 \; 13 -2.72217
\; 13 2.63977 \; 13 -1.78223 \; 13 0.387573 \; 13 -0.631714 \; 13 -1.01929
\; 13 1.6449 \; 13 -1.98669 \; 13 -0.857544 \; 13 3.00293 \; 13 -4.84009
\; 13 7.95593 \; 14 -10.2112 \; 14 9.29871 \; 14 -7.58667 \; 14 4.06494
\; 14 2.6886 \; 14 -5.70374 \; 14 8.12683 \; 14 -10.7422 \; 14 8.34961
\; 14 -4.13208 \; 14 0.631714 \; 14 4.50745 \; 14 -8.45947 \; 14 8.63953
\; 14 -8.5907 \; 14 6.65588 \; 15 -1.24512 \; 15 -1.37024 \; 15 5.18799
\; 15 -7.25708 \; 15 10.2356 \; 15 -11.496 \; 15 10.8704 \; 15 -10.7666
\; 15 7.5531 \; 15 -5.41382 \; 15 3.3783 \; 15 -2.06299 \; 15 -1.09253
\; 15 3.24402 \; 15 -4.31824 \; 15 5.76782 \; 16 -7.08008 \; 16 7.39441
\; 16 -7.41577 \; 16 6.67114 \; 16 -5.84412 \; 16 4.58984 \; 16 -2.45972
\; 16 0.0610352 \; 16 4.46472 \; 16 -6.90308 \; 16 7.36694 \; 16 -6.73828
\; 16 4.57153 \; 16 -2.21863 \; 16 -0.72937 \; 16 4.12292 \; 17 -7.25708
\; 17 7.75757 \; 17 -7.07397 \; 17 4.85535 \; 17 0.460815 \; 17 -3.57666
\; 17 6.63452 \; 17 -8.3252 \; 17 10.0525 \; 17 -9.9823 \; 17 7.77588
\; 17 -6.25 \; 17 2.93579 \; 17 -0.460815 \; 17 -1.90125 \; 17 4.22668
\; 18 -6.28967 \; 18 6.9519 \; 18 -6.98853 \; 18 7.14722 \; 18 -6.94275
\; 18 6.6864 \; 18 -6.5094 \; 18 6.54907 \; 18 -6.26526 \; 18 5.96008
\; 18 -6.30798 \; 18 6.82068 \; 18 -6.58264 \; 18 6.79932 \; 18 -6.48499
\; 18 5.57556 \; 19 -3.8208 \; 19 2.08435 \; 19 -0.22583 \; 19 -2.24609
\; 19 7.92236 \; 19 -10.6079 \; 19 9.64355 \; 19 -5.71594 \; 19 -2.26746
\; 19 8.64563 \; 19 -10.2814 \; 19 4.75159 \; 19 5.93872 \; 19 -10.3119
\; 19 9.021 \; 19 -4.2511 \; 20 -4.15955 \; 20 8.35876 \; 20 -9.09424
\; 20 7.41882 \; 20 -4.38843 \; 20 2.16675 \; 20 -2.11182 \; 20 2.77405
\; 20 -1.96228 \; 20 2.04468 \; 20 -1.78223 \; 20 1.39771 \; 20 -0.268555
\; 20 0.213623 \; 20 0.192261 \; 20 -0.592041 \; 21 0.354004 \; 21
0.134277 \; 21 -0.637817 \; 21 0.311279 \; 21 0.320435 \; 21 -1.2207
\; 21 1.86768 \; 21 -1.91956 \; 21 1.70288 \; 21 -1.11694 \; 21 0.338745
\; 21 -0.842285 \; 21 3.44543 \; 21 -5.59692 \; 21 8.70972 \; 21 -10.8734
\; 22 10.5072 \; 22 -9.03625 \; 22 7.00073 \; 22 -3.83606 \; 22 0.15564
\; 22 1.19934 \; 22 -1.44348 \; 22 1.43433 \; 22 -2.78625 \; 22 2.39868
\; 22 -1.80664 \; 22 1.48926 \; 22 -1.26953 \; 22 0.204468 \; 22 0.601196
\; 22 -1.09558 \; 23 1.24207 \; 23 -0.888062 \; 23 0.335693 \; 23 0.0183105
\; 23 -0.152588 \; 23 0.140381 \; 23 0.0823975 \; 23 -0.22583 \; 23
0.436401 \; 23 -0.549316 \; 23 0.588989 \; 23 -0.39978 \; 23 0.228882
\; 23 -0.234985 \; 23 0.247192 \; 23 -0.183105 \; 24 -0.00610352 \;
24 0.213623 \; 24 -0.320435 \; 24 0.286865 \; 24 -0.137329 \; 24 -0.0579834
\; 24 0.186157 \; 24 -0.158691 \; 24 0.161743 \; 24 -0.100708 \; 24
-0.0244141 \; 24 0.109863 \; 24 -0.0823975 \; 24 0.0610352 \; 24 -0.143433
\; 24 0.0946045 \; 25 -0.149536 \; 25 0.17395 \; 25 -0.131226 \; 25
0.17395 \; 25 -0.143433 \; 25 0.0579834 \; 25 -0.0732422 \; 25 0.100708
\; 25 -0.109863 \; 25 -0.00610352 \; 25 -0.0335693 \; 25 0.265503 \;
25 0.0213623 \; 25 -0.22583 \; 25 -1.57166 \; 25 -1.98059 \; 26 -1.42517
\; 26 3.46375 \; 26 6.18591 \; 26 -0.958252 \; 26 -9.39636 \; 26 -2.15454
\; 26 11.2122 \; 26 1.89514 \; 26 -13.2599 \; 26 -0.994873 \; 26 13.0188
\; 26 -1.33972 \; 26 -12.7808 \; 26 3.07922 \; 26 12.6129 \; 26 -5.78003
\; 27 -13.6505 \; 27 6.09436 \; 27 13.1958 \; 27 -5.05066 \; 27 -14.2975
\; 27 2.2644 \; 27 12.1796 \; 27 2.05994 \; 27 -8.82874 \; 27 -8.65479
\; 27 3.09448 \; 27 9.61609 \; 27 4.40979 \; 27 -3.57971 \; 27 -8.45642
\; 27 -4.52881 \; 28 3.23792 \; 28 7.73926 \; 28 4.97437 \; 28 -3.79944
\; 28 -9.25903 \; 28 -4.05579 \; 28 8.34961 \; 28 8.8562 \; 28 -3.89404
\; 28 -11.8683 \; 28 3.4668 \; 28 9.77173 \; 28 -3.44849 \; 28 -6.82983
\; 28 9.0332 \; 28 0.241089 \; 29 -9.94568 \; 29 3.18909 \; 29 5.53894
\; 29 -4.66614 \; 29 -1.80969 \; 29 3.42102 \; 29 -0.479126 \; 29 -1.66626
\; 29 0.521851 \; 29 1.38245 \; 29 -0.714111 \; 29 -0.970459 \; 29
0.836182 \; 29 0.67749 \; 29 -0.561523 \; 29 -0.262451 \; 30 0.183105
\; 30 -0.164795 \; 30 0.0976562 \; 30 -0.286865 \; 30 -0.393677 \;
30 0.665283 \; 30 0.265503 \; 30 -0.67749 \; 30 -0.814819 \; 30 -0.119019
\; 30 -0.427246 \; 30 1.77002 \; 30 -2.16675 \; 30 1.74866 \; 30 -1.39771
\; 30 0.891113 \; 31 0.149536 \; 31 0.274658 \; 31 -4.11072 \; 31 8.48694
\; 31 -12.8845 \; 31 15.5334 \; 31 -12.9578 \; 31 6.79932 \; 31 0.463867
\; 31 -9.27734 \; 31 14.1907 \; 31 -14.2975 \; 31 8.92639 \; 31 3.64685
\; 31 -14.4165 \; 31 16.9495 \; 32 -14.1541 \; 32 4.97131 \; 32 5.55115
\; 32 -14.8041 \; 32 16.5222 \; 32 -11.3556 \; 32 2.0752 \; 32 8.39844
\; 32 -13.0463 \; 32 13.8641 \; 32 -6.82373 \; 32 -4.23279 \; 32 11.0229
\; 32 -13.3575 \; 32 6.00281 \; 32 5.42908 \; 33 -11.4349 \; 33 9.31091
\; 33 2.49634 \; 33 -11.4838 \; 33 9.552 \; 33 1.93787 \; 33 -10.1562
\; 33 6.45752 \; 33 3.08838 \; 33 -11.5906 \; 33 7.28149 \; 33 4.9469
\; 33 -12.381 \; 33 11.7432 \; 33 -26 \; 33 -11.0474 \; 34 15.4083
\; 34 -13.1378 \; 34 3.85132 \; 34 6.6864 \; 34 -12.0453 \; 34 12.4237
\; 34 -5.82275 \; 34 -1.33362 \; 34 4.05273 \; 34 -5.43518 \; 34 3.9978
\; 34 -0.421143 \; 34 -1.77002 \; 34 2.92664 \; 34 -2.46277 \; 34 0.67749
\; 35 0.646973 \; 35 -1.14746 \; 35 0.506592 \; 35 0.579834 \; 35 -0.900269
\; 35 -0.112915 \; 35 1.42212 \; 35 -1.66931 \; 35 1.11694 \; 35 0.268555
\; 35 -1.26648 \; 35 1.55945 \; 35 -0.744629 \; 35 -1.44653 \; 35 1.27869
\; 35 0.302124 \; 36 -0.469971 \; 36 -0.866699 \; 36 0.680542 \; 36
1.58997 \; 36 -1.18713 \; 36 -4.3396 \; 36 0.872803 \; 36 6.64368 \;
36 3.35388 \; 36 -2.82898 \; 36 -7.91321 \; 36 -7.31812 \; 36 -4.07104
\; 36 -2.43225 \; 36 1.2146 \; 36 1.84937 \; 37 3.77197 \; 37 3.10364
\; 37 5.04456 \; 37 6.71387 \; 37 7.55005 \; 37 6.45752 \; 37 7.14722
\; 37 7.48901 \; 37 4.776 \; 37 2.60925 \; 37 -0.552368 \; 37 -3.44238
\; 37 -4.02222 \; 37 -3.63159 \; 37 -1.73035 \; 37 0.680542 \; 38 2.14844
\; 38 2.5238 \; 38 3.22571 \; 38 3.80554 \; 38 2.6947 \; 38 1.92566
\; 38 2.75879 \; 38 3.4668 \; 38 3.00293 \; 38 3.25317 \; 38 4.94995
\; 38 4.27856 \; 38 3.125 \; 38 2.39868 \; 38 2.26746 \; 38 1.00098
\; 39 -1.22986 \; 39 -0.906372 \; 39 -1.3916 \; 39 -3.02734 \; 39 -3.479
\; 39 -3.69568 \; 39 -3.19214 \; 39 -2.23999 \; 39 -1.10474 \; 39 -0.302124
\; 39 -0.90332 \; 39 -1.39771 \; 39 -0.921631 \; 39 -0.418091 \; 39
-1.07422 \; 39 -1.1322 \; 40 -0.476074 \; 40 0.640869 \; 40 1.07727
\; 40 0.964355 \; 40 0.650024 \; 40 0.448608 \; 40 0.228882 \; 40 0.12207
\; 40 0.0457764 \; 40 0.186157 \; 40 0.308228 \; 40 0.317383 \; 40
0.430298 \; 40 0.109863 \; 40 -0.0213623 \; 40 -0.0762939 \; 41 -0.195312
\; 41 -0.0732422 \; 41 -0.0427246 \; 41 -0.0335693 \; 41 -0.012207
\; 41 0.119019 \; 41 0.10376 \; 41 0.0549316 \; 41 -0.12207 \; 41 -0.247192
\; 41 -0.0274658 \; 41 0.323486 \; 41 0.387573 \; 41 -0.219727 \; 41
-0.949097 \; 41 -0.927734 \; 42 0.45166 \; 42 1.66626 \; 42 0.0396729
\; 42 -2.61536 \; 42 -0.201416 \; 42 4.45251 \; 42 -0.942993 \; 42
-4.04663 \; 42 4.66919 \; 42 1.17188 \; 42 -5.45654 \; 42 5.04761 \;
42 -0.38147 \; 42 -4.34265 \; 42 5.88684 \; 42 -1.3092 \; 43 -4.83704
\; 43 5.13 \; 43 -0.274658 \; 43 -5.42297 \; 43 4.75159 \; 43 2.18201
\; 43 -5.75562 \; 43 2.89307 \; 43 2.70386 \; 43 -5.25208 \; 43 2.90527
\; 43 1.21155 \; 43 -3.87268 \; 43 4.4342 \; 43 -2.771 \; 43 0.0854492
\; 44 4.80347 \; 44 -6.25916 \; 44 3.75366 \; 44 1.37329 \; 44 -4.97742
\; 44 5.3772 \; 44 -4.422 \; 44 1.14441 \; 44 3.59192 \; 44 -6.18286
\; 44 4.39148 \; 44 0.726318 \; 44 -5.50537 \; 44 5.05371 \; 44 -0.271606
\; 44 -3.95203 \; 45 4.03442 \; 45 -0.146484 \; 45 -3.91235 \; 45 4.81567
\; 45 -2.23694 \; 45 -3.05481 \; 45 3.92456 \; 45 -0.27771 \; 45 -2.23694
\; 45 0.408936 \; 45 2.05994 \; 45 -2.11182 \; 45 -0.00610352 \; 45
1.31226 \; 45 -1.69983 \; 45 2.09961 \; 46 -1.49536 \; 46 0.317383
\; 46 2.75574 \; 46 -4.16565 \; 46 1.78528 \; 46 0.686646 \; 46 -2.2583
\; 46 2.63367 \; 46 -1.57471 \; 46 -0.378418 \; 46 1.87988 \; 46 -1.5686
\; 46 -0.311279 \; 46 1.41296 \; 46 -0.292969 \; 46 -1.68762 \; 47
1.88904 \; 47 0.0762939 \; 47 -1.84326 \; 47 1.43433 \; 47 0.784302
\; 47 -1.67236 \; 47 -0.43335 \; 47 2.33154 \; 47 -1.474 \; 47 -1.04675
\; 47 3.15552 \; 47 -2.93579 \; 47 -0.265503 \; 47 2.66418 \; 47 -3.73535
\; 47 2.49023 \; 48 0.564575 \; 48 -2.63062 \; 48 3.47595 \; 48 -3.27148
\; 48 1.0498 \; 48 0.714111 \; 48 -1.30005 \; 48 1.7334 \; 48 -2.35596
\; 48 1.79749 \; 48 -0.961304 \; 48 -0.662231 \; 48 2.46887 \; 48 -3.45459
\; 48 3.48206 \; 48 -2.56653 \; 49 -0.354004 \; 49 3.78113 \; 49 -5.31311
\; 49 4.27551 \; 49 -0.128174 \; 49 -3.14026 \; 49 5.17883 \; 49 -5.26123
\; 49 1.64185 \; 49 2.61841 \; 49 -4.50745 \; 49 4.19922 \; 49 -0.78125
\; 49 -1.98059 \; 49 3.9856 \; 49 -4.69055 \; 50 2.17896 \; 50 1.47095
\; 50 -4.11987 \; 50 4.19617 \; 50 -2.02332 \; 50 -0.939941 \; 50 2.97546
\; 50 -4.22668 \; 50 2.4353 \; 50 0.469971 \; 50 -2.42615 \; 50 4.03748
\; 50 -3.59497 \; 50 0.979614 \; 50 2.71301 \; 50 -5.36499 \; 51 4.10156
\; 51 -0.314331 \; 51 -3.39355 \; 51 5.13 \; 51 -3.3844 \; 51 -1.06812
\; 51 4.67224 \; 51 -5.57251 \; 51 1.27258 \; 51 2.92969 \; 51 -5.25208
\; 51 4.29077 \; 51 0.00915527 \; 51 -4.15344 \; 51 6.02112 \; 51 -3.91235
\; 52 -1.96838 \; 52 5.94177 \; 52 -5.84412 \; 52 2.1637 \; 52 3.28369
\; 52 -5.26428 \; 52 5.0415 \; 52 -1.3031 \; 52 -3.68958 \; 52 5.34058
\; 52 -4.08325 \; 52 0.222778 \; 52 4.06189 \; 52 -5.17273 \; 52 3.35083
\; 52 0.222778 \; 53 -4.01917 \; 53 4.57764 \; 53 -2.25525 \; 53 -1.33667
\; 53 4.39758 \; 53 -4.23279 \; 53 1.11084 \; 53 2.5177 \; 53 -4.20227
\; 53 2.50549 \; 53 1.0498 \; 53 -3.05481 \; 53 1.57776 \; 53 1.14136
\; 53 -1.76392 \; 53 0.180054 \; 54 0.195312 \; 54 0.271606 \; 54 -0.12207
\; 54 -0.842285 \; 54 0.71106 \; 54 0.222778 \; 54 -0.616455 \; 54
0.436401 \; 54 -0.0305176 \; 54 -0.109863 \; 54 0.0244141 \; 54 -0.119019
\; 54 0.271606 \; 54 -0.140381 \; 54 -0.128174 \; 54 0.311279 \; 55
-0.250244 \; 55 0.0396729 \; 55 0.158691 \; 55 -0.186157 \; 55 0.222778
\; 55 0.0671387 \; 55 -0.0610352 \; 55 0.192261 \; 55 -0.0488281 \;
55 -0.0396729 \; 55 0.0946045 \; 55 -0.0366211 \; 55 -0.0579834 \;
55 -0.00915527 \; 55 -0.106812 \; 55 0.0274658 \; 56 0.0854492 \; 56
0.146484 \; 56 0.167847 \; 56 -0.823975 \; 56 -2.30408 \; 56 -3.16772
\; 56 -1.76086 \; 56 1.15662 \; 56 4.89807 \; 56 6.80542 \; 56 5.42908
\; 56 1.30005 \; 56 -5.68542 \; 56 -9.30481 \; 56 -10.2509 \; 56 -5.48706
\; 57 3.10364 \; 57 8.91418 \; 57 12.0117 \; 57 9.96094 \; 57 0.897217
\; 57 -6.37512 \; 57 -12.558 \; 57 -13.208 \; 57 -5.83801 \; 57 3.05786
\; 57 10.5774 \; 57 13.4277 \; 57 10.9955 \; 57 4.74548 \; 57 -3.89404
\; 57 -10.9192 \; 58 -13.6353 \; 58 -10.5408 \; 58 -3.17078 \; 58 4.76379
\; 58 -10 \; 58 12.7045 \; 58 9.85413 \; 58 4.30298 \; 58 -4.57153
\; 58 -9.50012 \; 58 -4 \; 58 -10.3119 \; 58 -4.06799 \; 58 2.771 \;
58 8.1665 \; 58 11.4105 \; 59 8.10242 \; 59 1.71204 \; 59 -4.48608
\; 59 -8.3374 \; 59 -7.39441 \; 59 -2.88696 \; 59 1.93787 \; 59 5.08423
\; 59 4.80042 \; 59 2.37122 \; 59 -0.62561 \; 59 -2.37732 \; 59 -2.72522
\; 59 -1.81274 \; 59 -0.601196 \; 59 0.616455 \; 60 0.976562 \; 60
0.445557 \; 60 -0.12207 \; 60 -0.476074 \; 60 -0.250244 \; 60 0.192261
\; 60 0.497437 \; 60 0.442505 \; 60 0.180054 \; 60 -0 \; 60 -0.119019
\; 60 -0.292969 \; 60 -0.418091 \; 60 -0.411987 \; 60 -0.3479 \; 60
-0.0946045 \; 61 0.180054 \; 61 0.421143 \; 61 0.564575 \; 61 -0.152588
\; 61 1.95923 \; 61 -3.64685 \; 61 3.71704 \; 61 -4.26025 \; 61 0.405884
\; 61 0.875854 \; 61 -1.34888 \; 61 3.00903 \; 61 -3.26233 \; 61 2.55432
\; 61 -1.95618 \; 61 -0.186157 \; 62 0.253296 \; 62 -2.73743 \; 62
3.69568 \; 62 -42 \; 62 6.11572 \; 62 -6.75964 \; 62 7.47986 \; 62
22 \; 62 -5 \; 62 -8.28857 \; 62 8.20312 \; 62 -8.92029 \; 62 7.52869
\; 62 -7.39441 \; 62 7.10754 \; 62 -2 \; 63 7.27234 \; 63 -6.14929
\; 63 5.78918 \; 63 -4.81567 \; 63 1.87073 \; 63 -1.19934 \; 63 -0.567627
\; 63 1.53198 \; 63 -5.26733 \; 63 7.23572 \; 63 -7.32727 \; 63 8.26721
\; 63 -8.61816 \; 63 8.38928 \; 63 -8.05359 \; 63 7.28455 \; 64 -6.32019
\; 64 5.38025 \; 64 -4.00391 \; 64 3.33862 \; 64 -1.60828 \; 64 0.900269
\; 64 -0.692749 \; 64 0.497437 \; 64 -0.491333 \; 64 0.62561 \; 64
-0.582886 \; 64 0.436401 \; 64 -0.244141 \; 64 0.238037 \; 64 -0.0793457
\; 64 0.0762939 \; 65 -0.0946045 \; 65 0.0427246 \; 65 -0.213623 \;
65 0.396729 \; 65 -0.357056 \; 65 0.445557 \; 65 -0.656128 \; 65 0.662231
\; 65 -0.756836 \; 65 0.723267 \; 65 -0.71106 \; 65 0.765991 \; 65
-0.390625 \; 65 0.491333 \; 65 -1.21765 \; 65 0.927734 \; 66 -0.494385
\; 66 -0.912476 \; 66 2.30713 \; 66 -2.771 \; 66 1.26648 \; 66 0.778198
\; 66 -2.47498 \; 66 3.66211 \; 66 -4.04053 \; 66 3.00293 \; 66 -2.25525
\; 66 2.52075 \; 66 -1.38245 \; 66 1.71204 \; 66 -1.26953 \; 66 -0.308228
\; 67 1.3031 \; 67 -0.820923 \; 67 0.131226 \; 67 1.26343 \; 67 -1.96533
\; 67 3.24707 \; 67 -3.49121 \; 67 4.59595 \; 67 -4.47083 \; 67 5.36194
\; 67 -5.85632 \; 67 4.78821 \; 67 -3.8208 \; 67 2.7832 \; 67 -2.39563
\; 67 1.46179 \; 68 -0.741577 \; 68 1.28784 \; 68 -0.3479 \; 68 1.19934
\; 68 -1.87378 \; 68 2.19421 \; 68 -2.90222 \; 68 4.21448 \; 68 -4.38843
\; 68 4.30603 \; 68 -3.53394 \; 68 3.35388 \; 68 -2.89612 \; 68 2.6062
\; 68 -2.38037 \; 68 1.69983 \; 69 -1.77612 \; 69 1.3092 \; 69 -0.369263
\; 69 -0.137329 \; 69 -0.012207 \; 69 -0.137329 \; 69 0.210571 \; 69
-0.231934 \; 69 0.167847 \; 69 -0.354004 \; 69 0.39978 \; 69 -0.289917
\; 69 0.238037 \; 69 -0.296021 \; 69 0.256348 \; 69 -0.241089 \; 70
0.140381 \; 70 -0.177002 \; 70 0.10376 \; 70 -0.119019 \; 70 0.0976562
\; 70 -0.0305176 \; 70 0.0274658 \; 70 -0.0823975 \; 70 0.0183105 \;
70 -0.100708 \; 70 0.115967 \; 70 -0.0915527 \; 70 0.152588 \; 70 -0.0671387
\; 70 0.0427246 \; 70 -0.0854492 \; 71 0.012207 \; 71 0.0305176 \;
71 0.00610352 \; 71 0.0274658 \; 71 -0.463867 \; 71 -0.088501 \; 71
1.42212 \; 71 1.21155 \; 71 -0.958252 \; 71 -3.40271 \; 71 -2.58179
\; 71 0.88501 \; 71 4.55017 \; 71 3.84216 \; 71 0.244141 \; 71 -3.35999
\; 72 -2.15149 \; 72 2.37732 \; 72 1.61743 \; 72 -2.90527 \; 72 -3.37219
\; 72 3.23792 \; 72 5.40771 \; 72 0.00915527 \; 72 -5.34668 \; 72 -0.997925
\; 72 3.76282 \; 72 1.72729 \; 72 -3.00903 \; 72 -3.22571 \; 72 0.543213
\; 72 2.53601 \; 73 2.18506 \; 73 0.143433 \; 73 -2.95105 \; 73 -5.41687
\; 73 -1.95007 \; 73 3.35083 \; 73 6.11877 \; 73 3.79028 \; 73 -2.48108
\; 73 -4.99268 \; 73 -3.88489 \; 73 -1.32141 \; 73 1.59302 \; 73 2.33459
\; 73 1.55029 \; 73 -0.646973 \; 74 0.219727 \; 74 2.04468 \; 74 0.204468
\; 74 -5.09033 \; 74 -3.38135 \; 74 5.89905 \; 74 3.46069 \; 74 -5.61829
\; 74 0.396729 \; 74 5.35278 \; 74 -1.36719 \; 74 -5.60303 \; 74 5.31616
\; 74 2.65808 \; 74 -6.48193 \; 74 -3.14331 \; 75 5.3894 \; 75 2.86865
\; 75 -5.17883 \; 75 -2.3407 \; 75 4.4281 \; 75 4.62952 \; 75 -2.19116
\; 75 -5.6488 \; 75 -1.23901 \; 75 3.18909 \; 75 3.37219 \; 75 0.839233
\; 75 -1.72119 \; 75 -3.40271 \; 75 -1.6571 \; 75 1.37939 \; 76 3.08228
\; 76 0.585938 \; 76 -2.59705 \; 76 -2.17896 \; 76 2.14233 \; 76 2.79846
\; 76 -1.84937 \; 76 -4.30298 \; 76 2.19727 \; 76 3.20435 \; 76 -1.48621
\; 76 -1.66321 \; 76 2.64587 \; 76 -2.01721 \; 76 -3.89099 \; 76 3.74756
\; 77 3.31116 \; 77 -5.26123 \; 77 -3.07312 \; 77 5.15747 \; 77 1.07422
\; 77 -5.03235 \; 77 0.689697 \; 77 3.68042 \; 77 -1.37634 \; 77 -3.79639
\; 77 2.15759 \; 77 3.79333 \; 77 -2.98767 \; 77 -3.94287 \; 77 2.53601
\; 77 4.78516 \; 78 -1.14136 \; 78 -4.29077 \; 78 -1.68152 \; 78 2.04468
\; 78 2.05383 \; 78 0.0762939 \; 78 -0.643921 \; 78 -0.311279 \; 78
-0.527954 \; 78 -0.567627 \; 78 0.610352 \; 78 0.994873 \; 78 -0.0152588
\; 78 -1.26038 \; 78 -0.305176 \; 78 1.70898 \; 79 0.827026 \; 79 -1.7334
\; 79 -1.69373 \; 79 0.939941 \; 79 1.79749 \; 79 -0.994873 \; 79 -1.24207
\; 79 1.00098 \; 79 1.0498 \; 79 -1.45569 \; 79 -0.967407 \; 79 1.57166
\; 79 0.750732 \; 79 -1.94702 \; 79 -1.32446 \; 79 1.84021 \; 80 2.71606
\; 80 -0.964355 \; 80 -3.41492 \; 80 -1.15051 \; 80 2.53906 \; 80 1.75781
\; 80 -0.915527 \; 80 -1.3916 \; 80 -0.424194 \; 80 -0.0640869 \; 80
0.0976562 \; 80 0.753784 \; 80 0.866699 \; 80 0.186157 \; 80 -0.570679
\; 80 -0.485229 \; 81 0.106812 \; 81 -0.0762939 \; 81 -0.790405 \;
81 -0.775146 \; 81 0.515747 \; 81 1.23596 \; 81 0.485229 \; 81 -0.637817
\; 81 -0.588989 \; 81 0.152588 \; 81 0.326538 \; 81 0.0244141 \; 81
-0.238037 \; 81 -0.170898 \; 81 0.0488281 \; 81 0.250244 \; 82 0.259399
\; 82 0.0183105 \; 82 -0.274658 \; 82 -0.106812 \; 82 0.106812 \; 82
0.0976562 \; 82 -0.17395 \; 82 -0.140381 \; 82 0.164795 \; 82 0.115967
\; 82 -0.0335693 \; 82 -0.0915527 \; 82 0.0183105 \; 82 0.0823975 \;
82 0.0488281 \; 82 -0 \; 83 0.088501 \; 83 -0.0549316 \; 83 -0.0183105
\; 83 -0.0396729 \; 83 0.0366211 \; 83 -0.012207 \; 83 -0.012207 \;
83 0.00610352 \; 83 0.0488281 \; 83 0.00610352 \; 83 -0.0640869 \;
83 -0.0183105 \; 83 0.00915527 \; 83 -0.00915527 \; 83 0.0488281 \;
83 -0 \; 84 0.00305176 \; 84 0.00610352 \; 84 -0.0427246 \; 84 -0.0762939
\; 84 -0.0518799 \; 84 0.0152588 \; 84 0.0457764 \; 84 0.0305176 \;
84 0.0183105 \; 84 0.0366211 \; 84 -0.0213623 \; 84 -0.0732422 \; 84
-0.0518799 \; 84 0.0183105 \; 84 0.0396729 \; 84 0.0518799 \; 85 -0.0427246
\; 85 -0 \; 85 -0.0274658 \; 85 0.0152588 \; 85 0.0335693 \; 85 0.0701904
\; 85 -0.00305176 \; 85 0.0396729 \; 85 0.0793457 \; 85 0.0152588 \;
85 -0.0488281 \; 85 0.0183105 \; 85 -0.0488281 \; 85 -0.012207 \; 85
-0.0274658 \; 85 0.0823975 \; 86 -0.137329 \; 86 0.167847 \; 86 0.363159
\; 86 -0.714111 \; 86 -0.656128 \; 86 2.07825 \; 86 0.842285 \; 86
-3.52478 \; 86 -2.92969 \; 86 3.63464 \; 86 4.69971 \; 86 -3.54919
\; 86 -6.23169 \; 86 2.40173 \; 86 6.35376 \; 86 -4.38538 \; 87 -5.98145
\; 87 5.47791 \; 87 4.10767 \; 87 -8.12683 \; 87 -1.94397 \; 87 9.43604
\; 87 -2.89307 \; 87 -9.05151 \; 87 4.98352 \; 87 8.22754 \; 87 -7.34558
\; 87 -7.52869 \; 87 6.46057 \; 87 9.3689 \; 87 -4.98047 \; 87 -10.0555
\; 88 -1.59607 \; 88 7.80334 \; 88 6.29578 \; 88 0.463867 \; 88 -3.60718
\; 88 -5.9906 \; 88 -3.92456 \; 88 0.717163 \; 88 4.22668 \; 88 6.17676
\; 88 2.99683 \; 88 -4.422 \; 88 -8.31909 \; 88 -0.463867 \; 88 8.17566
\; 88 3.82385 \; 89 -5.95398 \; 89 -4.20837 \; 89 4.21143 \; 89 0.143433
\; 89 -2.4231 \; 89 1.87683 \; 89 1.45569 \; 89 -1.91956 \; 89 -0.900269
\; 89 0.323486 \; 89 0.387573 \; 89 0.244141 \; 89 0.274658 \; 89 -0.106812
\; 89 -0.643921 \; 89 -0.0152588 \; 90 0.695801 \; 90 -0.128174 \;
90 -0.39978 \; 90 0.180054 \; 90 -0.0946045 \; 90 -0.250244 \; 90 0.357056
\; 90 0.640869 \; 90 0.0396729 \; 90 -0.714111 \; 90 -0.463867 \; 90
0.280762 \; 90 0.543213 \; 90 0.241089 \; 90 0.436401 \; 90 -1.6571
\; 91 2.05383 \; 91 -3.92761 \; 91 5.85938 \; 91 -7.39136 \; 91 8.46863
\; 91 -8.40759 \; 91 7.99255 \; 91 -3.62244 \; 91 -5.78003 \; 91 10.614
\; 91 -15.5518 \; 91 17.6941 \; 91 -19.8212 \; 91 21.0907 \; 91 -19.1864
\; 91 17.5751 \; 92 -15.7074 \; 92 15.8203 \; 92 -14.8895 \; 92 15.0818
\; 92 -14.6027 \; 92 13.2233 \; 92 -12.5 \; 92 12.3535 \; 92 -13.8336
\; 92 11.2213 \; 92 -11.9446 \; 92 8.52051 \; 92 -7.30591 \; 92 1.32446
\; 92 2.83203 \; 92 -6.53687 \; 93 9.43604 \; 93 -10.26 \; 93 9.35059
\; 93 -5.57556 \; 93 3.11584 \; 93 1.00403 \; 93 -4.69055 \; 93 6.61926
\; 93 -6.52771 \; 93 6.21338 \; 93 -4.34265 \; 93 2.4231 \; 93 -1.0498
\; 93 -0.268555 \; 93 1.31226 \; 93 -1.87683 \; 94 2.91138 \; 94 -2.81372
\; 94 1.12915 \; 94 -0.857544 \; 94 0.164795 \; 94 0.695801 \; 94 -1.37634
\; 94 1.78223 \; 94 -1.78528 \; 94 1.75171 \; 94 -1.44653 \; 94 1.32446
\; 94 -0.811768 \; 94 0.646973 \; 94 -0.616455 \; 94 0.369263 \; 95
-0.271606 \; 95 0.222778 \; 95 -0.0915527 \; 95 -0.0274658 \; 95 0.201416
\; 95 -0.396729 \; 95 0.564575 \; 95 -0.457764 \; 95 0.686646 \; 95
-0.71106 \; 95 0.259399 \; 95 0.088501 \; 95 0.0854492 \; 95 0.283813
\; 95 0.604248 \; 95 -0.421143 \; 96 0.500488 \; 96 0.180054 \; 96
0.0854492 \; 96 -0.402832 \; 96 -0.830078 \; 96 0.579834 \; 96 0.0305176
\; 96 0.0335693 \; 96 0.888062 \; 96 -1.45874 \; 96 1.0376 \; 96 0.149536
\; 96 1.42517 \; 96 -4.36096 \; 96 3.34473 \; 96 -2.32544 \; 97 1.01624
\; 97 -1.46484 \; 97 -0.512695 \; 97 2.85034 \; 97 -2.83508 \; 97 1.08032
\; 97 0.0854492 \; 97 -2.1698 \; 97 3.71399 \; 97 -3.74451 \; 97 3.94592
\; 97 -3.3783 \; 97 2.83813 \; 97 -0.909424 \; 97 -1.77002 \; 97 6.25916
\; 98 -7.93457 \; 98 4.58374 \; 98 2.97852 \; 98 -6.75964 \; 98 3.45764
\; 98 4.66614 \; 98 -5.74646 \; 98 -2.36511 \; 98 7.62329 \; 98 -3.51257
\; 98 -4.57153 \; 98 6.12793 \; 98 -2.81372 \; 98 -1.39771 \; 98 3.45459
\; 98 -2.70081 \; 99 1.48621 \; 99 -0.360107 \; 99 -0.326538 \; 99
0.100708 \; 99 -0.12207 \; 99 0.134277 \; 99 -0.497437 \; 99 0.421143
\; 99 -0.152588 \; 99 -0.146484 \; 99 -0.0488281 \; 99 0.0823975 \;
99 -0.12207 \; 99 0.0549316 \; 99 -0.164795 \; 99 0.0793457 \; 100
-0.0457764 \; 100 -0.00915527 \; 100 -0.0976562 \; 100 0.411987 \;
100 -0.372314 \; 100 0.0701904 \; 100 0.131226 \; 100 -0.0244141 \;
100 -0.213623 \; 100 0.424194 \; 100 -0.27771 \; 100 0.140381 \; 100
-0.109863 \; 100 0.0152588 \; 100 0.109863 \; 100 -0.0549316 \; 101
-0.0976562 \; 101 0.0640869 \; 101 0.125122 \; 101 -0.323486 \; 101
0.192261 \; 101 -0.115967 \; 101 -0.128174 \; 101 0.234985 \; 101 -0.305176
\; 101 0.012207 \; 101 0.576782 \; 101 -0.741577 \; 101 0.186157 \;
101 0.811768 \; 101 -1.61438 \; 101 1.62048 \; 102 -1.33057 \; 102
0.198364 \; 102 1.47705 \; 102 -2.30408 \; 102 2.3407 \; 102 -1.11694
\; 102 -0.708008 \; 102 2.00806 \; 102 -2.04468 \; 102 0.650024 \;
102 1.01318 \; 102 -1.42822 \; 102 0.683594 \; 102 0.482178 \; 102
-1.23596 \; 102 0.500488 \; 103 0.549316 \; 103 -1.86157 \; 103 2.47498
\; 103 -1.97449 \; 103 1.26038 \; 103 0.610352 \; 103 -2.56042 \; 103
4.57153 \; 103 -4.95911 \; 103 6.16455 \; 103 -6.36902 \; 103 6.23474
\; 103 -5.75562 \; 103 3.65295 \; 103 -1.63879 \; 103 -0.848389 \;
104 1.75476 \; 104 -2.24609 \; 104 1.88293 \; 104 -0.512695 \; 104
-0.476074 \; 104 1.23901 \; 104 -1.23596 \; 104 0.701904 \; 104 -0.228882
\; 104 -0.216675 \; 104 0.463867 \; 104 -0.457764 \; 104 0.320435 \;
104 -0.308228 \; 104 0.363159 \; 104 -0.45166 \; 105 0.369263 \; 105
-0.299072 \; 105 0.0946045 \; 105 -0.0518799 \; 105 0.146484 \; 105
-0.20752 \; 105 0.274658 \; 105 -0.299072 \; 105 0.274658 \; 105 -0.183105
\; 105 0.177002 \; 105 0.0732422 \; 105 -0.00305176 \; 105 0.088501
\; 105 -0.164795 \; 105 0.402832 \; 106 -0.164795 \; 106 0.439453 \;
106 -0.0518799 \; 106 0.186157 \; 106 -0.0915527 \; 106 -0.0610352
\; 106 0.201416 \; 106 0.238037 \; 106 0.198364 \; 106 0.0671387 \;
106 0.231934 \; 106 -0.531006 \; 106 0.0823975 \; 106 3.43323 \; 106
-6.19507 \; 106 0.790405 \; 107 6.32935 \; 107 -4.73633 \; 107 -8.30383
\; 107 0.601196 \; 107 8.21533 \; 107 5.50842 \; 107 1.52893 \; 107
-1.92871 \; 107 -6.93665 \; 107 -6.27747 \; 107 -5.23376 \; 107 -6.76575
\; 107 -2.05383 \; 107 1.18713 \; 107 1.98669 \; 107 3.23181 \; 108
6.38733 \; 108 5.68237 \; 108 4.13208 \; 108 -1.38245 \; 108 -6.72302
\; 108 -6.21338 \; 108 -3.38745 \; 108 1.93787 \; 108 8.77075 \; 108
7.64465 \; 108 0.152588 \; 108 -6.51855 \; 108 -3.58887 \; 108 4.03442
\; 108 6.31714 \; 108 -0.445557 \; 109 -7.07397 \; 109 -1.474 \; 109
4.10767 \; 109 3.30811 \; 109 -2.23694 \; 109 -2.85645 \; 109 -0.775146
\; 109 0.897217 \; 109 0.20752 \; 109 0.012207 \; 109 1.29395 \; 109
1.5625 \; 109 -0.183105 \; 109 -0.961304 \; 109 -0.430298 \; 109 0.415039
\; 110 0.20752 \; 110 -0.112915 \; 110 0.341797 \; 110 0.534058 \;
110 0.0610352 \; 110 -0.482178 \; 110 -0.317383 \; 110 0.0976562 \;
110 0.231934 \; 110 0.119019 \; 110 -0.0579834 \; 110 -0 \; 110 0.0335693
\; 110 -0.012207 \; 110 -0.088501 \; 110 0.134277 \; 111 0.262451 \;
111 -0.0183105 \; 111 -0.256348 \; 111 -0.631714 \; 111 0.268555 \;
111 0.448608 \; 111 0.256348 \; 111 -0.20752 \; 111 -0.115967 \; 111
-0.0823975 \; 111 -0.289917 \; 111 -0.57373 \; 111 -0.0274658 \; 111
0.531006 \; 111 0.72937 \; 111 -0.439453 \; 112 -1.23291 \; 112 0.189209
\; 112 2.49023 \; 112 -0.454712 \; 112 -3.11279 \; 112 2.67639 \; 112
2.97241 \; 112 -5.16052 \; 112 0.601196 \; 112 5.27649 \; 112 -2.47498
\; 112 -5.80444 \; 112 4.45251 \; 112 2.85339 \; 112 -4.23889 \; 112
-4.30298 \; 113 4.38232 \; 113 5.33142 \; 113 -0.219727 \; 113 -3.29895
\; 113 -3.29895 \; 113 -1.87073 \; 113 -0.405884 \; 113 3.67126 \;
113 4.66614 \; 113 0.942993 \; 113 -3.23486 \; 113 -3.98865 \; 113
-1.34888 \; 113 1.35803 \; 113 2.3407 \; 113 2.23694 \; 114 1.40076
\; 114 0.570679 \; 114 -1.44348 \; 114 -2.32849 \; 114 -1.95923 \;
114 -1.2146 \; 114 -0.0518799 \; 114 1.5686 \; 114 2.78931 \; 114 2.5177
\; 114 0.866699 \; 114 -0.71106 \; 114 -1.56555 \; 114 -1.30005 \;
114 -0.341797 \; 114 0.976562 \; 115 1.20239 \; 115 -0.463867 \; 115
-0.817871 \; 115 0.299072 \; 115 -0.305176 \; 115 -0.32959 \; 115 -0.137329
\; 115 -0.112915 \; 115 -0.0823975 \; 115 0.411987 \; 115 0.762939
\; 115 0.344849 \; 115 -0.500488 \; 115 -0.543213 \; 115 -0.204468
\; 115 -0.00610352 \; 116 0.0793457 \; 116 0.0274658 \; 116 0.0701904
\; 116 0.192261 \; 116 0.253296 \; 116 0.213623 \; 116 0.00610352 \;
116 -0.00915527 \; 116 -0.17395 \; 116 0.476074 \; 116 -0.695801 \;
116 -0.210571 \; 116 0.238037 \; 116 1.27258 \; 116 1.82495 \; 116
2.66418 \; 117 3.72009 \; 117 4.7821 \; 117 5.42297 \; 117 6.49414
\; 117 5.9082 \; 117 4.58069 \; 117 3.6377 \; 117 2.1637 \; 117 -1.9104
\; 117 -3.42712 \; 117 -4.87366 \; 117 -5.39551 \; 117 -6.29578 \;
117 -6.72607 \; 117 -7.06482 \; 117 -7.15637 \; 118 -6.17981 \; 118
-5.0354 \; 118 -3.44849 \; 118 -1.39771 \; 118 0.0793457 \; 118 1.63574
\; 118 2.91443 \; 118 1.9928 \; 118 1.44958 \; 118 0.78125 \; 118 -0.280762
\; 118 -0.915527 \; 118 -0.473022 \; 118 -0.747681 \; 118 0.115967
\; 118 1.52893 \; 119 3.82385 \; 119 4.5105 \; 119 3.51868 \; 119 0.787354
\; 119 -4.1626 \; 119 -3.98254 \; 119 0.244141 \; 119 4.4281 \; 119
2.53296 \; 119 -2.73438 \; 119 -3.47595 \; 119 0.192261 \; 119 1.67542
\; 119 0.0976562 \; 119 -0.714111 \; 119 -0.665283 \; 120 -0.494385
\; 120 0.177002 \; 120 0.204468 \; 120 -0.15564 \; 120 -0.469971 \;
120 -0.22583 \; 120 0.234985 \; 120 0.393677 \; 120 0.149536 \; 120
0.146484 \; 120 0.222778 \; 120 0.265503 \; 120 0.088501 \; 120 0.201416
\; 120 0.15564 \; 120 -0.0549316 \; 121 -0.0854492 \; 121 -0.0579834
\; 121 -0.137329 \; 121 -0.183105 \; 121 0.112915 \; 121 0.128174 \;
121 0.115967 \; 121 0.189209 \; 121 0.125122 \; 121 0.274658 \; 121
0.411987 \; 121 0.363159 \; 121 0.332642 \; 121 0.509644 \; 121 -0.680542
\; 121 -2.53601 \; 122 -0.592041 \; 122 3.07007 \; 122 -3.60718 \;
122 2.19116 \; 122 2.82593 \; 122 -5.52673 \; 122 5.9967 \; 122 -6.27136
\; 122 5.82886 \; 122 -6.073 \; 122 5.59998 \; 122 -4.1687 \; 122 1.52893
\; 122 1.04675 \; 122 -4.56543 \; 122 6.30188 \; 123 -7.43408 \; 123
7.85217 \; 123 -7.75452 \; 123 6.87256 \; 123 -4.82178 \; 123 2.61536
\; 123 -0.71106 \; 123 -2.06299 \; 123 6.67725 \; 123 -8.3313 \; 123
8.60291 \; 123 -8.15125 \; 123 2.29492 \; 123 3.00598 \; 123 -7.68433
\; 123 10.022 \; 124 -7.24182 \; 124 2.70691 \; 124 3.45764 \; 124
-7.32727 \; 124 10.0922 \; 124 -10.1105 \; 124 9.08508 \; 124 -7.62329
\; 124 2.5177 \; 124 1.11084 \; 124 -4.84619 \; 124 8.38013 \; 124
-10.5896 \; 124 7.15942 \; 124 -0.680542 \; 124 -5.61218 \; 125 6.26831
\; 125 1.69067 \; 125 -2.72827 \; 125 -3.18298 \; 125 -4.38232 \; 125
-2.90222 \; 125 -2.19727 \; 125 1.34277 \; 125 -1.16272 \; 125 4.15344
\; 125 -0.494385 \; 125 -1.41907 \; 125 3.50647 \; 125 -0.802612 \;
125 0.0183105 \; 125 0.427246 \; 126 0.808716 \; 126 0.778198 \; 126
-1.1322 \; 126 1.06506 \; 126 -0.45166 \; 126 0.17395 \; 126 -0.247192
\; 126 -0.177002 \; 126 0.692749 \; 126 -1.21155 \; 126 0.445557 \;
126 -0.216675 \; 126 -0.131226 \; 126 -0.131226 \; 126 -0.354004 \;
126 -0.115967 \; 127 0.616455 \; 127 -0.524902 \; 127 -1.3092 \; 127
1.07117 \; 127 2.50244 \; 127 3.48206 \; 127 1.93787 \; 127 1.91956
\; 127 3.37524 \; 127 4.0741 \; 127 5.14526 \; 127 4.10156 \; 127 -0.0732422
\; 127 -2.93274 \; 127 -4.22058 \; 127 -5.15442 \; 128 -5.68848 \;
128 -5.50232 \; 128 -5.78003 \; 128 -5.52673 \; 128 -5.24902 \; 128
-6.78101 \; 128 -4.48303 \; 128 -0.192261 \; 128 4.15955 \; 128 6.19812
\; 128 0.253296 \; 128 -5.66711 \; 128 -3.18909 \; 128 3.56445 \; 128
0.115967 \; 128 -3.53699 \; 129 1.43127 \; 129 2.61841 \; 129 -2.81067
\; 129 1.74561 \; 129 1.4801 \; 129 -3.60413 \; 129 2.55127 \; 129
1.3092 \; 129 -5.02625 \; 129 -0.366211 \; 129 6.14929 \; 129 -0.00610352
\; 129 -5.47485 \; 129 -7.08313 \; 129 -0.738525 \; 129 5.32227 \;
130 6.22559 \; 130 5.03845 \; 130 4.47083 \; 130 3.6499 \; 130 3.72314
\; 130 2.64282 \; 130 3.33557 \; 130 3.91846 \; 130 4.86755 \; 130
5.13916 \; 130 4.52881 \; 130 4.29382 \; 130 1.49841 \; 130 -0.741577
\; 130 -2.4292 \; 130 -2.28577 \; 131 -3.88489 \; 131 -2.67029 \; 131
-0.238037 \; 131 2.12097 \; 131 2.92664 \; 131 4.16565 \; 131 1.44043
\; 131 -1.69373 \; 131 -1.0437 \; 131 0.552368 \; 131 0.454712 \; 131
0.369263 \; 131 0.506592 \; 131 0.222778 \; 131 0.210571 \; 131 0.0396729
\; 132 -0.146484 \; 132 0.0549316 \; 132 0.457764 \; 132 0.244141 \;
132 0.146484 \; 132 0.115967 \; 132 0.146484 \; 132 -0 \; 132 -0.0854492
\; 132 -0.0579834 \; 132 -0.0244141 \; 132 -0.0366211 \; 132 -0.213623
\; 132 -0.0579834 \; 132 0.0854492 \; 132 0.12207 \; 133 0.0579834
\; 133 0.0518799 \; 133 0.0946045 \; 133 0.149536 \; 133 0.170898 \;
133 0.0640869 \; 133 0.106812 \; 133 -0.0213623 \; 133 0.0946045 \;
133 0.0701904 \; 133 -0.0152588 \; 133 0.0274658 \; 133 0.0549316 \;
133 -0.0213623 \; 133 0.00915527 \; 133 0.0549316 \; 134 0.0457764
\; 134 -0.00610352 \; 134 0.0152588 \; 134 -0.0396729 \; 134 -0.0640869
\; 134 0.0183105 \; 134 0.0183105 \; 134 0.0457764 \; 134 0.0488281
\; 134 -0.0244141 \; 134 -0 \; 134 -0.00915527 \; 134 0.00305176 \;
134 -0.0305176 \; 134 0.0213623 \; 134 -0.00610352 \; 135 -0.00305176
\; 135 -0.0244141 \; 135 0.00305176 \; 135 0.0244141 \; 135 0.0671387
\; 135 0.0457764 \; 135 -0.00610352 \; 135 0.0671387 \; 135 -0.0396729
\; 135 -0.0305176 \; 135 -0.0183105 \; 135 0.0366211 \; 135 0.012207
\; 135 -0.0152588 \; 135 -0 \; 135 -0.0183105 \; 136 -0.0335693 \;
136 -0.012207 \; 136 0.0823975 \; 136 -0.0457764 \; 136 -0.00305176
\; 136 -0.0183105 \; 136 -0.00610352 \; 136 -0 \; 136 -0.012207 \;
136 0.00305176 \; 136 -0.0244141 \; 136 -0.0335693 \; 136 -0.0274658
\; 136 0.00915527 \; 136 -0.00305176 \; 136 0.00305176 \; 137 -0.00610352
\; 137 -0.012207 \; 137 0.0183105 \; 137 0.0183105 \; 137 0.00305176
\; 137 0.0793457 \; 137 0.00915527 \; 137 -0.012207 \; 137 -0.012207
\; 137 -0.00305176 \; 137 0.00610352 \; 137 0.0183105 \; 137 0.0274658
\; 137 -0.0183105 \; 137 -0.0213623 \; 137 -0.0305176 \; 138 -0.0213623
\; 138 -0.00915527 \; 138 0.00305176 \; 138 0.00305176 \; 138 -0.00305176
\; 138 -0.00305176 \; 138 0.012207 \; 138 -0.0152588 \; 138 0.0427246
\; 138 0.00915527 \; 138 -0.0366211 \; 138 -0.0610352 \; 138 0.0335693
\; 138 -0.00305176 \; 138 -0.0335693 \; 138 0.0335693 \; 139 0.00610352
\; 139 0.0701904 \; 139 -0.00305176 \; 139 -0.0305176 \; 139 0.0152588
\; 139 0.0152588 \; 139 -0.0152588 \; 139 0.0518799 \; 139 0.0457764
\; 139 0.00915527 \; 139 -0.0396729 \; 139 -0.0244141 \; 139 -0.00305176
\; 139 0.00610352 \; 139 0.0457764 \; 139 0.0671387 \; 140 0.0305176
\; 140 -0.00610352 \; 140 0.00305176 \; 140 -0.00610352 \; 140 0.00610352
\; 140 0.012207 \; 140 -0.0274658 \; 140 0.0366211 \; 140 0.00915527
\; 140 -0.00305176 \; 140 0.0183105 \; 140 -0.00305176 \; 140 -0 \;
140 -0.00305176 \; 140 0.0183105 \; 140 0.00305176 \; 141 -0.012207
\; 141 -0.012207 \; 141 0.00610352 \; 141 -0.0213623 \; 141 -0.012207
\; 141 0.012207 \; 141 -0.0274658 \; 141 0.0274658 \; 141 0.00305176
\; 141 -0.00610352 \; 141 -0.0213623 \; 141 0.0183105 \; 141 -0.0213623
\; 141 -0.0152588 \; 141 -0.0183105 \; 141 0.00915527 \; 142 -0.00915527
\; 142 0.0152588 \; 142 -0.012207 \; 142 0.0244141 \; 142 0.0488281
\; 142 -0.0274658 \; 142 0.0335693 \; 142 -0.012207 \; 142 0.012207
\; 142 0.00915527 \; 142 -0.0244141 \; 142 0.0244141 \; 142 0.0152588
\; 142 -0.00915527 \; 142 0.0213623 \; 142 -0.0274658 \; 143 -0.00610352
\; 143 -0.0305176 \; 143 0.0305176 \; 143 0.0732422 \; 143 0.00915527
\; 143 -0.0579834 \; 143 -0.012207 \; 143 -0.0640869 \; 143 -0.0244141
\; 143 -0.00305176 \; 143 0.0335693 \; 143 -0.0274658 \; 143 -0.0244141
\; 143 0.00305176 \; 143 -0.00305176 \; 143 -0.00305176 \; 144 -0.00915527
\; 144 0.012207 \; 144 -0.0152588 \; 144 0.0274658 \; 144 -0.00915527
\; 144 -0.0274658 \; 144 0.0244141 \; 144 -0.012207 \; 144 0.0335693
\; 144 -0.0427246 \; 144 0.012207 \; 144 0.00610352 \; 144 0.00305176
\; 144 -0.0183105 \; 144 -0.0183105 \; 144 0.0305176 \; 145 -0.00610352
\; 145 -0.012207 \; 145 -0.0396729 \; 145 0.00610352 \; 145 0.00915527
\; 145 -0.00610352 \; 145 -0.0152588 \; 145 -0.0183105 \; 145 -0.0274658
\; 145 -0.00305176 \; 145 -0.00305176 \; 145 0.00305176 \; 145 0.012207
\; 145 0.012207 \; 145 0.00305176 \; 145 0.00610352 \; 146 0.00610352
\; 146 -0.00915527 \; 146 0.0305176 \; 146 0.00305176 \; 146 -0.00610352
\; 146 -0.00610352 \; 146 -0.012207 \; 146 -0.00305176 \; 146 -0 \;
146 0.0427246 \; 146 0.0274658 \; 146 -0.012207 \; 146 -0.0213623 \;
146 -0.0305176 \; 146 0.00915527 \; 146 0.0335693 \; 147 0.00305176
\; 147 -0.0152588 \; 147 0.0274658 \; 147 0.00305176 \; 147 0.00305176
\; 147 0.00915527 \; 147 -0 \; 147 -0.00915527 \; 147 0.00610352 \;
147 -0.012207 \; 147 -0.012207 \; 147 -0.012207 \; 147 0.00305176 \;
147 -0.0152588 \; 147 -0.0183105 \; 147 0.0213623 \; 148 -0.00305176
\; 148 0.00915527 \; 148 -0.00305176 \; 148 0.0183105 \; 148 0.0366211
\; 148 0.00610352 \; 148 -0.0244141 \; 148 -0.0366211 \; 148 -0.0244141
\; 148 0.012207 \; 148 0.0244141 \; 148 0.0152588 \; 148 -0.00610352
\; 148 0.00610352 \; 148 0.00915527 \; 148 -0.0213623 \; 149 0.00915527
\; 149 0.0213623 \; 149 0.012207 \; 149 0.00305176 \; 149 0.0152588
\; 149 -0.00610352 \; 149 -0.0152588 \; 149 -0.012207 \; 149 0.00610352
\; 149 0.00915527 \; 149 -0.00915527 \; 149 -0.0427246 \; 149 0.00305176
\; 149 0.0183105 \; 149 0.0213623 \; 149 -0.0152588 \; 150 0.00305176
\; 150 0.0244141 \; 150 -0.0152588 \; 150 -0.0152588 \; 150 0.00305176
\; 150 0.0244141 \; 150 0.012207 \; 150 -0.00915527 \; 150 0.00610352
\; 150 0.0244141 \; 150 -0.00915527 \; 150 -0.0274658 \; 150 0.0305176
\; 150 0.0488281 \; 150 -0.00610352 \; 150 -0.0152588 \; 151 0.0183105
\; 151 -0.00610352 \; 151 -0.00305176 \; 151 0.00305176 \; 151 -0.00610352
\; 151 0.0152588 \; 151 -0 \; 151 -0.0152588 \; 151 -0.00610352 \;
151 0.0183105 \; 151 0.00915527 \; 151 0.00305176 \; 151 0.0152588
\; 151 -0.00915527 \; 151 -0.012207 \; 151 -0.00305176 \; 152 0.0244141
\; 152 -0.00305176 \; 152 -0.0396729 \; 152 -0.0183105 \; 152 -0.00305176
\; 152 0.00305176 \; 152 0.00305176 \; 152 0.0244141 \; 152 -0 \; 152
-0.0274658 \; 152 -0.0274658 \; 152 0.012207 \; 152 -0.00305176 \;
152 0.00915527 \; 152 -0.00305176 \; 152 0.0183105 \; 153 0.0305176
\; 153 -0 \; 153 -0.0213623 \; 153 -0.00610352 \; 153 0.012207 \; 153
-0.0274658 \; 153 -0.0274658 \; 153 -0.012207 \; 153 0.0183105 \; 153
0.0152588 \; 153 0.0152588 \; 153 0.00610352 \; 153 0.0183105 \; 153
-0.012207 \; 153 -0.00305176 \; 153 0.00610352 \; 154 0.00305176 \;
154 0.0244141 \; 154 0.00610352 \; 154 0.00305176 \; 154 -0.0183105
\; 154 -0.0274658 \; 154 0.00915527 \; 154 -0.00610352 \; 154 0.00305176
\; 154 -0.0213623 \; 154 0.0152588 \; 154 -0 \; 154 0.00305176 \; 154
-0.0213623 \; 154 -0.0183105 \; 154 0.0427246 \; 155 0.00610352 \;
155 -0.00610352 \; 155 -0.0183105 \; 155 -0 \; 155 -0.0152588 \; 155
0.012207 \; 155 0.0213623 \; 155 0.0366211 \; 155 -0.0213623 \; 155
-0.0213623 \; 155 0.00610352 \; 155 -0 \; 155 0.0213623 \; 155 0.012207
\; 155 -0.00915527 \; 155 0.00305176 \; 156 -0.00305176 \; 156 -0.00610352
\; 156 -0 \; 156 0.0305176 \; 156 -0.00305176 \; 156 -0.012207 \; 156
-0.00915527 \; 156 0.00305176 \; 156 -0.012207 \; 156 -0.0183105 \;
156 -0.00610352 \; 156 0.0183105 \; 156 -0.0335693 \; 156 -0.0335693
\; 156 0.0213623 \; 156 0.0152588 \; 157 -0.00610352 \; 157 0.00915527
\; 157 0.00915527 \; 157 -0.0335693 \; 157 -0.0457764 \; 157 -0.012207
\; 157 0.0152588 \; 157 0.0335693 \; 157 -0.00305176 \; 157 0.00610352
\; 157 0.00610352 \; 157 -0.012207 \; 157 -0.0366211 \; 157 -0.00305176
\; 157 0.0274658 \; 157 0.00915527 \; 158 -0.00305176 \; 158 0.012207
\; 158 0.00610352 \; 158 0.00305176 \; 158 -0 \; 158 0.00305176 \;
158 0.0274658 \; 158 -0.00610352 \; 158 -0.00915527 \; 158 0.00305176
\; 158 0.0305176 \; 158 0.00305176 \; 158 -0.0152588 \; 158 0.00610352
\; 158 -0.012207 \; 158 -0.0213623 \; 159 0.012207 \; 159 0.0488281
\; 159 0.0213623 \; 159 -0.00915527 \; 159 -0.0366211 \; 159 -0.012207
\; 159 -0.00610352 \; 159 -0.00915527 \; 159 0.0213623 \; 159 -0.00305176
\; 159 0.0335693 \; 159 -0 \; 159 -0.00305176 \; 159 -0.00610352 \;
159 -0.0152588 \; 159 -0.00610352 \; 160 -0.00305176 \; 160 0.0244141
\; 160 0.012207 \; 160 -0.0152588 \; 160 -0.012207 \; 160 0.012207
\; 160 0.0152588 \; 160 -0.0366211 \; 160 0.00915527 \; 160 0.00305176
\; 160 -0.00915527 \; 160 -0.0152588 \; 160 -0 \; 160 0.0274658 \;
160 0.0152588 \; 160 -0.0366211 \; 161 -0.00915527 \; 161 0.012207
\; 161 -0 \; 161 0.0183105 \; 161 0.00915527 \; 161 -0 \; 161 -0.0244141
\; 161 -0.00915527 \; 161 0.0183105 \; 161 0.00915527 \; 161 -0.00915527
\; 161 -0.00610352 \; 161 0.0305176 \; 161 0.0274658 \; 161 -0.00915527
\; 161 -0.0305176 \; 162 0.012207 \; 162 0.0274658 \; 162 -0.00305176
\; 162 -0.0183105 \; 162 -0.0183105 \; 162 -0.012207 \; 162 -0.0152588
\; 162 0.0183105 \; 162 0.0213623 \; 162 -0 \; 162 -0.0152588 \; 162
-0.00610352 \; 162 -0 \; 162 0.00915527 \; 162 -0.0183105 \; 162 -0.0152588
\; 163 0.012207 \; 163 -0.00305176 \; 163 0.00305176 \; 163 0.00915527
\; 163 0.0152588 \; 163 -0.00305176 \; 163 -0.00305176 \; 163 0.00610352
\; 163 -0.457764 \; 163 0.0335693 \; 163 -0 \; 163 0.00305176 \; 163
0.0152588 \; 163 -0.0305176 \; 163 -0.0213623 \; 163 0.0183105 \; 164
-0 \; 164 -0.00915527 \; 164 0.00305176 \; 164 0.0305176 \; 164 0.0305176
\; 164 -0.0335693 \; 164 -0.0274658 \; 164 0.0152588 \; 164 0.00915527
\; 164 0.00915527 \; 164 0.00305176 \; 164 0.00305176 \; 164 -0.0183105
\; 164 -0.0396729 \; 164 -0.0244141 \; 164 0.012207 \; 165 0.00610352
\; 165 -0.00610352 \; 165 0.0244141 \; 165 0.00610352 \; 165 -0.00305176
\; 165 -0.0305176 \; 165 -0.0183105 \; 165 -0.012207 \; 165 -0.00915527
\; 165 -0.012207 \; 165 0.012207 \; 165 0.0152588 \; 165 0.00305176
\; 165 -0.00305176 \; 165 -0.00915527 \; 165 -0.0152588 \; 166 -0.00915527
\; 166 -0.00915527 \; 166 -0.00305176 \; 166 0.0274658 \; 166 0.0305176
\; 166 0.0183105 \; 166 0.00610352 \; 166 -0.012207 \; 166 -0.0213623
\; 166 0.00610352 \; 166 0.00915527 \; 166 0.012207 \; 166 0.0183105
\; 166 0.0305176 \; 166 0.0244141 \; 166 0.00610352 \; 167 0.00915527
\; 167 0.012207 \; 167 -0 \; 167 0.00305176 \; 167 0.00915527 \; 167
0.00305176 \; 167 0.0183105 \; 167 0.00915527 \; 167 0.0213623 \; 167
0.00915527 \; 167 -0.00915527 \; 167 -0.0213623 \; 167 -0.0213623 \;
167 -0.012207 \; 167 0.0274658 \; 167 0.0213623 \; 168 0.0152588 \;
168 -0.0305176 \; 168 -0.0213623 \; 168 0.0152588 \; 168 0.012207 \;
168 0.00915527 \; 168 0.0152588 \; 168 0.012207 \; 168 -0.00915527
\; 168 -0.00915527 \; 168 -0.00610352 \; 168 0.0152588 \; 168 -0.00610352
\; 168 -0 \; 168 0.0244141 \; 168 0.0213623 \; 169 -0.00610352 \; 169
0.00915527 \; 169 0.012207 \; 169 -0 \; 169 -0.0213623 \; 169 -0.00915527
\; 169 -0.00305176 \; 169 -0.0335693 \; 169 0.012207 \; 169 -0 \; 169
0.0152588 \; 169 -0.012207 \; 169 -0.00610352 \; 169 -0.0213623 \;
169 -0 \; 169 0.0183105 \; 170 -0.012207 \; 170 -0.00915527 \; 170
0.00610352 \; 170 0.00610352 \; 170 -0.012207 \; 170 0.012207 \; 170
0.00305176 \; 170 0.012207 \; 170 -0.00305176 \; 170 0.0152588 \; 170
0.0244141 \; 170 -0 \; 170 -0.0152588 \; 170 0.012207 \; 170 0.0244141
\; 170 -0.0183105 \; 171 -0.0274658 \; 171 -0.0183105 \; 171 -0.00305176
\; 171 -0.00305176 \; 171 -0.00305176 \; 171 0.0396729 \; 171 0.00610352
\; 171 -0.0213623 \; 171 0.00610352 \; 171 0.012207 \; 171 0.0183105
\; 171 -0.0183105 \; 171 -0.0152588 \; 171 0.0244141 \; 171 -0.00915527
\; 171 -0.00915527 \; 172 0.0152588 \; 172 0.0152588 \; 172 -0.00305176
\; 172 -0.0152588 \; 172 -0.00305176 \; 172 0.00305176 \; 172 -0.00610352
\; 172 -0.00915527 \; 172 0.012207 \; 172 0.00915527 \; 172 -0.00915527
\; 172 -0.0244141 \; 172 -0.00915527 \; 172 0.012207 \; 172 0.00915527
\; 172 -0.00305176 \; 173 0.0152588 \; 173 0.0244141 \; 173 -0.0152588
\; 173 -0.012207 \; 173 -0.0244141 \; 173 0.00610352 \; 173 0.0335693
\; 173 0.0183105 \; 173 0.0183105 \; 173 -0 \; 173 -0.0244141 \; 173
-0.00305176 \; 173 0.0152588 \; 173 0.0152588 \; 173 -0.00915527 \;
173 0.00305176 \; 174 0.0183105 \; 174 -0.0152588 \; 174 -0.00915527
\; 174 0.00305176 \; 174 -0 \; 174 -0.00915527 \; 174 -0.0183105 \;
174 -0.00915527 \; 174 0.012207 \; 174 -0 \; 174 -0 \; 174 -0.00915527
\; 174 -0 \; 174 0.00305176 \; 174 -0.012207 \; 174 0.0152588 \; 175
0.0183105 \; 175 0.0366211 \; 175 -0.012207 \; 175 -0 \; 175 -0 \;
175 -0.00915527 \; 175 -0 \; 175 -0.00305176 \; 175 0.0183105 \; 175
0.00610352 \; 175 0.0152588 \; 175 -0.00305176 \; 175 -0.00610352 \;
175 -0.012207 \; 175 0.0183105 \; 175 -0 \; 176 0.012207 \; 176 -0.00610352
\; 176 -0.00305176 \; 176 0.00915527 \; 176 0.0244141 \; 176 0.00305176
\; 176 -0.00610352 \; 176 0.00305176 \; 176 -0.00610352 \; 176 -0.0274658
\; 176 -0 \; 176 0.0457764 \; 176 0.0274658 \; 176 -0.012207 \; 176
-0.0274658 \; 176 -0.0183105 \; 177 -0.00610352 \; 177 -0.00305176
\; 177 0.0213623 \; 177 0.0274658 \; 177 -0.0213623 \; 177 -0.0335693
\; 177 -0 \; 177 -0 \; 177 -0 \; 177 -0.0152588 \; 177 -0.00305176
\; 177 0.0274658 \; 177 0.00305176 \; 177 -0.0274658 \; 177 0.00610352
\; 177 -0 \; 178 -0.00305176 \; 178 -0.0152588 \; 178 0.0152588 \;
178 0.00610352 \; 178 0.00915527 \; 178 -0.00305176 \; 178 0.0213623
\; 178 0.0244141 \; 178 -0.00610352 \; 178 -0.0396729 \; 178 -0.00915527
\; 178 0.0152588 \; 178 0.00915527 \; 178 -0.00305176 \; 178 -0.00305176
\; 178 -0.00305176 \; 179 -0.0274658 \; 179 -0.0244141 \; 179 -0.00305176
\; 179 -0.00915527 \; 179 -0.00305176 \; 179 0.00305176 \; 179 0.00915527
\; 179 -0 \; 179 -0.00305176 \; 179 -0.00305176 \; 179 0.0457764 \;
179 -0.012207 \; 179 -0.0183105 \; 179 0.0213623 \; 179 0.00305176
\; 179 0.0152588 \; 180 -0.012207 \; 180 0.0183105 \; 180 0.0213623
\; 180 -0.0213623 \; 180 -0 \; 180 -0 \; 180 0.0183105 \; 180 0.00915527
\; 180 -0 \; 180 -0.00610352 \; 180 0.00610352 \; 180 -0.00610352 \;
180 -0.012207 \; 180 -0.00305176 \; 180 0.012207 \; 180 -0.00305176
\; 181 -0 \; 181 -0 \; 181 -0.0183105 \; 181 -0.00610352 \; 181 -0.00915527
\; 181 -0 \; 181 -0 \; 181 0.00915527 \; 181 -0.0244141 \; 181 0.00305176
\; 181 0.00305176 \; 181 0.00610352 \; 181 -0.00915527 \; 181 0.0183105
\; 181 -0.0152588 \; 181 -0.0518799 \; 182 -0.0213623 \; 182 0.0152588
\; 182 0.0274658 \; 182 0.012207 \; 182 0.00305176 \; 182 0.00610352
\; 182 -0.00915527 \; 182 -0.0274658 \; 182 -0.0152588 \; 182 0.0152588
\; 182 0.0152588 \; 182 0.012207 \; 182 -0.0183105 \; 182 0.00305176
\; 182 0.0183105 \; 182 0.00610352 \; 183 0.00305176 \; 183 0.00915527
\; 183 0.00915527 \; 183 -0.0213623 \; 183 0.00305176 \; 183 0.0213623
\; 183 -0.00305176 \; 183 -0.00610352 \; 183 -0 \; 183 -0.012207 \;
183 -0.0244141 \; 183 -0.0213623 \; 183 0.0152588 \; 183 0.0213623
\; 183 0.00915527 \; 183 -0.0183105 \; 184 -0 \; 184 -0.00915527 \;
184 -0.00305176 \; 184 0.00915527 \; 184 0.0274658 \; 184 0.00610352
\; 184 -0.012207 \; 184 -0.00915527 \; 184 -0.00915527 \; 184 -0.00610352
\; 184 0.00305176 \; 184 0.00915527 \; 184 0.0244141 \; 184 -0 \; 184
-0 \; 184 0.0274658 \; 185 0.00610352 \; 185 -0 \; 185 -0.012207 \;
185 0.00915527 \; 185 0.012207 \; 185 -0.00610352 \; 185 -0.00305176
\; 185 0.00915527 \; 185 0.0244141 \; 185 -0.0244141 \; 185 -0.0244141
\; 185 -0.0183105 \; 185 0.0152588 \; 185 -0.00915527 \; 185 -0.00305176
\; 185 0.0152588 \; 186 0.00610352 \; 186 -0.00915527 \; 186 -0.0183105
\; 186 0.00915527 \; 186 0.00305176 \; 186 0.0152588 \; 186 -0.00915527
\; 186 0.00305176 \; 186 0.0213623 \; 186 -0.00305176 \; 186 -0.012207
\; 186 0.0152588 \; 186 0.0152588 \; 186 -0.00610352 \; 186 0.00305176
\; 186 0.0183105 \; 187 0.00915527 \; 187 0.00305176 \; 187 0.0152588
\; 187 0.0213623 \; 187 0.0152588 \; 187 -0 \; 187 -0.00915527 \; 187
0.0152588 \; 187 -0 \; 187 -0.012207 \; 187 -0.0183105 \; 187 -0.00915527
\; 187 -0.0213623 \; 187 -0 \; 187 0.00915527 \; 187 -0.00610352 \;
188 -0.00305176 \; 188 -0 \; 188 -0.00305176 \; 188 -0.00915527 \;
188 -0.00610352 \; 188 0.012207 \; 188 -0.0213623 \; 188 0.0274658
\; 188 -0.00915527 \; 188 -0.0183105 \; 188 0.00305176 \; 188 0.012207
\; 188 0.00915527 \; 188 0.00305176 \; 188 0.0366211 \; 188 -0.00305176
\; 189 -0.00915527 \; 189 -0.0335693 \; 189 0.00610352 \; 189 0.00305176
\; 189 0.0274658 \; 189 0.012207 \; 189 0.012207 \; 189 0.00915527
\; 189 -0.0183105 \; 189 -0.0213623 \; 189 0.0244141 \; 189 0.0244141
\; 189 -0.00915527 \; 189 0.00915527 \; 189 0.012207 \; 189 -0.00610352
\; 190 -0.0244141 \; 190 0.00305176 \; 190 -0 \; 190 -0 \; 190 -0.012207
\; 190 -0 \; 190 -0 \; 190 0.0152588 \; 190 0.00610352 \; 190 -0.00305176
\; 190 0.00915527 \; 190 -0.0152588 \; 190 -0.0213623 \; 190 -0.012207
\; 190 0.00610352 \; 190 0.0366211 \; 191 -0.00305176 \; 191 0.00305176
\; 191 0.0183105 \; 191 -0.00915527 \; 191 0.0213623 \; 191 0.012207
\; 191 0.0213623 \; 191 0.00610352 \; 191 -0.00610352 \; 191 0.00305176
\; 191 0.0274658 \; 191 -0.0183105 \; 191 0.012207 \; 191 0.00305176
\; 191 0.0152588 \; 191 -0.0213623 \; 192 -0.0335693 \; 192 -0.00915527
\; 192 0.012207 \; 192 0.00305176 \; 192 0.00915527 \; 192 -0.00610352
\; 192 -0.0366211 \; 192 -0.0152588 \; 192 -0.0183105 \; 192 0.0305176
\; 192 0.0213623 \; 192 0.00610352 \; 192 -0.00610352 \; 192 -0.00915527
\; 192 -0.012207 \; 192 -0.012207 \; 193 0.0152588 \; 193 0.0274658
\; 193 0.012207 \; 193 -0.00305176 \; 193 -0.00915527 \; 193 -0.012207
\; 193 -0.012207 \; 193 0.00305176 \; 193 -0.012207 \; 193 0.0305176
\; 193 -0 \; 193 -0.0152588 \; 193 -0.012207 \; 193 -0.00915527 \;
193 -0.00915527 \; 193 -0.0152588 \; 194 0.0183105 \; 194 -0.00610352
\; 194 -0 \; 194 -0.00915527 \; 194 -0 \; 194 0.00610352 \; 194 -0.0152588
\; 194 -0.0183105 \; 194 -0.0152588 \; 194 0.00610352 \; 194 0.00915527
\; 194 0.012207 \; 194 0.0183105 \; 194 0.00610352 \; 194 -0.0305176
\; 194 -0.0366211 \; 195 0.00915527 \; 195 0.0152588 \; 195 0.00915527
\; 195 -0 \; 195 -0.00610352 \; 195 0.012207 \; 195 -0.00915527 \;
195 -0.0152588 \; 195 0.0183105 \; 195 0.00915527 \; 195 -0.012207
\; 195 -0.0183105 \; 195 -0.00305176 \; 195 0.00610352 \; 195 0.00915527
\; 195 0.0213623 \; 196 0.00915527 \; 196 0.0183105 \; 196 -0.00305176
\; 196 -0.012207 \; 196 -0.00305176 \; 196 -0 \; 196 0.00305176 \;
196 -0.0152588 \; 196 0.00305176 \; 196 0.00305176 \; 196 -0.0152588
\; 196 0.00915527 \; 196 0.0183105 \; 196 -0 \; 196 0.00610352 \; 196
-0 \; 197 0.012207 \; 197 0.00305176 \; 197 -0.00610352 \; 197 -0.00305176
\; 197 0.0305176 \; 197 0.0213623 \; 197 -0.0366211 \; 197 -0 \; 197
0.012207 \; 197 0.012207 \; 197 -0.00915527 \; 197 0.00915527 \; 197
0.0152588 \; 197 -0.00915527 \; 197 -0.0244141 \; 197 -0.00610352 \;
198 0.0183105 \; 198 0.0213623 \; 198 -0 \; 198 -0.00610352 \; 198
0.00915527 \; 198 0.00305176 \; 198 -0.0152588 \; 198 0.0244141 \;
198 0.0152588 \; 198 -0.0152588 \; 198 -0.012207 \; 198 0.012207 \;
198 -0.00610352 \; 198 -0.0152588 \; 198 -0.00305176 \; 198 0.00610352
\; 199 0.00915527 \; 199 -0.0274658 \; 199 -0.00610352 \; 199 0.0213623
\; 199 0.00915527 \; 199 0.00610352 \; 199 0.0213623 \; 199 0.00305176
\; 199 -0.00915527 \; 199 -0.0244141 \; 199 -0.00915527 \; 199 0.0244141
\; 199 0.0274658 \; 199 0.0213623 \; 199 -0 \; 199 -7 \; \;;
#X restore 540 233 pd \$0.data;
#X obj 399 337 ds-begin pd-\$0.data;
#X obj 216 327 list length;
#X obj 174 505 list;
#X obj 327 632 element \$0.ds-array ds-array;
#X obj 201 431 f;
#X obj 201 410 t b a;
#X obj 174 388 t a a;
#X obj 200 453 setsize \$0.ds-array ds-array;
#X obj 174 532 list-enumerate;
#X obj 174 480 t b a;
#X obj 174 555 list-rev;
#X obj 174 581 unpack f f;
#X msg 174 304 0 50 1 0;
#X text 56 372 middle of y-height;
#X text 47 633 half y-height \, flip;
#X obj 174 280 t b a a b b b;
#X msg 262 281 clear;
#X obj 306 281 s pd-\$0.data;
#X obj 435 131 soundfiler;
#X obj 436 80 list append \$0;
#X obj 436 55 openpanel;
#X obj 436 30 bng 15 250 50 0 empty empty empty 17 7 0 10 -262144 -1
-1;
#X msg 435 102 read -resize \$1 \$2.soundfile;
#N canvas 0 22 452 378 tabdump-resample 0;
#X obj 159 63 inlet;
#X obj 159 310 list-extendq;
#X obj 199 268 tabread \$0.soundfile;
#X obj 199 119 /;
#X obj 199 145 t b a;
#X obj 199 186 f;
#X obj 199 213 until;
#X obj 199 240 f;
#X obj 227 240 +;
#X obj 199 91 t a b;
#X msg 243 91 0;
#X obj 159 86 t b a;
#X obj 159 340 outlet;
#X obj 159 268 t b b;
#X obj 228 119 r \$0.samples;
#X obj 229 186 r \$0.samples;
#X connect 0 0 11 0;
#X connect 1 0 12 0;
#X connect 2 0 1 0;
#X connect 3 0 4 0;
#X connect 4 0 5 0;
#X connect 4 1 8 1;
#X connect 5 0 6 0;
#X connect 6 0 7 0;
#X connect 7 0 8 0;
#X connect 7 0 2 0;
#X connect 8 0 7 1;
#X connect 9 0 3 0;
#X connect 9 1 10 0;
#X connect 10 0 7 1;
#X connect 11 0 13 0;
#X connect 11 1 9 0;
#X connect 13 0 1 1;
#X connect 13 1 1 0;
#X connect 14 0 3 1;
#X connect 15 0 5 1;
#X restore 174 254 pd tabdump-resample;
#X obj 435 170 s \$0.arraysize;
#X obj 174 211 r \$0.arraysize;
#X obj 635 290 loadbang;
#X obj 100 254 list length;
#X floatatom 100 277 5 0 0 0 - - -;
#X obj 174 634 * -100;
#X obj 474 547 set \$0.ds-array l-width;
#X obj 474 567 set \$0.ds-array l-color;
#X obj 214 385 s \$0.array-pointer;
#X obj 626 538 r \$0.array-pointer;
#X floatatom 474 517 5 0 0 0 - - -;
#X floatatom 530 507 5 0 0 0 - - -;
#X obj 174 234 f;
#X obj 147 217 bng 15 250 50 0 empty empty empty 17 7 0 10 -262144
-1 -1;
#X obj 259 584 t a a;
#X obj 174 663 set \$0.ds-element y x;
#X floatatom 235 691 5 0 0 0 - - -;
#X obj 262 610 r \$0.oversampling;
#X obj 174 363 append \$0.ds-array x y l-width l-color;
#X text 239 3 this array samples more than the width of its graph so
the display can be denser;
#X obj 235 634 div 1;
#X obj 635 425 s \$0.samples;
#X msg 635 312 200;
#X msg 653 459 16;
#X obj 666 404 r \$0.oversampling;
#X obj 635 333 s \$0.display-width;
#X obj 635 353 r \$0.display-width;
#X obj 635 404 * 16;
#X obj 653 478 s \$0.oversampling;
#X floatatom 261 407 5 0 0 0 - - -;
#X floatatom 320 582 5 0 0 0 - - -;
#X floatatom 104 601 5 0 0 0 - - -;
#X floatatom 271 559 5 0 0 0 - - -;
#X connect 4 0 46 4;
#X connect 5 0 8 1;
#X connect 5 0 57 0;
#X connect 6 0 12 0;
#X connect 7 0 43 2;
#X connect 8 0 11 0;
#X connect 9 0 8 0;
#X connect 9 1 11 1;
#X connect 10 0 13 0;
#X connect 10 1 9 0;
#X connect 12 0 14 0;
#X connect 13 0 6 0;
#X connect 13 1 7 1;
#X connect 14 0 15 0;
#X connect 15 0 33 0;
#X connect 15 1 42 0;
#X connect 16 0 46 0;
#X connect 19 0 16 0;
#X connect 19 1 5 0;
#X connect 19 2 6 1;
#X connect 19 4 4 0;
#X connect 19 5 20 0;
#X connect 20 0 21 0;
#X connect 22 0 28 0;
#X connect 23 0 26 0;
#X connect 24 0 23 0;
#X connect 25 0 24 0;
#X connect 26 0 22 0;
#X connect 27 0 19 0;
#X connect 27 0 31 0;
#X connect 29 0 40 0;
#X connect 30 0 50 0;
#X connect 31 0 32 0;
#X connect 33 0 43 0;
#X connect 37 0 34 1;
#X connect 37 0 35 1;
#X connect 38 0 34 0;
#X connect 39 0 35 0;
#X connect 40 0 27 0;
#X connect 41 0 40 0;
#X connect 42 0 48 0;
#X connect 42 1 7 0;
#X connect 42 1 58 0;
#X connect 45 0 48 1;
#X connect 46 0 10 0;
#X connect 46 0 36 0;
#X connect 48 0 43 1;
#X connect 48 0 44 0;
#X connect 50 0 53 0;
#X connect 51 0 56 0;
#X connect 52 0 55 1;
#X connect 54 0 55 0;
#X connect 55 0 49 0;
#X connect 59 0 33 0;
#X connect 60 0 42 0;
