#N canvas 283 408 540 387 10;
#X obj 74 259 careGUI;
#X obj 333 97 originator test 10;
#X floatatom 117 60 5 0 0 0 - - -;
#X symbolatom 156 86 10 0 0 0 - - -;
#X obj 107 85 symbol;
#X msg 333 66 set;
#X msg 378 70 substate \$1;
#X obj 343 20 tgl 15 0 empty empty empty 0 -6 0 8 -262144 -1 -1 0 1
;
#X obj 343 46 t b f;
#X obj 151 118 unpack 0 0 0;
#X floatatom 152 142 5 0 0 0 - - -;
#X floatatom 198 142 5 0 0 0 - - -;
#X floatatom 246 143 5 0 0 0 - - -;
#X obj 152 184 pack 0 0 0;
#X obj 142 17 hradio 15 1 0 8 empty empty empty 0 -6 0 8 -262144 -1
-1 3;
#X obj 20 17 commun /radio 10;
#X obj 224 162 t b f;
#X obj 174 162 t b f;
#X obj 18 60 commun /a 10;
#X obj 19 85 commun /b 10;
#X obj 20 141 commun /lister 10;
#X connect 2 0 18 0;
#X connect 3 0 19 0;
#X connect 4 0 3 0;
#X connect 5 0 1 0;
#X connect 6 0 1 0;
#X connect 7 0 8 0;
#X connect 8 0 5 0;
#X connect 8 1 6 0;
#X connect 9 0 10 0;
#X connect 9 1 11 0;
#X connect 9 2 12 0;
#X connect 10 0 13 0;
#X connect 11 0 17 0;
#X connect 12 0 16 0;
#X connect 13 0 20 0;
#X connect 14 0 15 0;
#X connect 15 0 14 0;
#X connect 16 0 13 0;
#X connect 16 1 13 2;
#X connect 17 0 13 0;
#X connect 17 1 13 1;
#X connect 18 0 2 0;
#X connect 19 0 4 0;
#X connect 20 0 9 0;
