#N canvas 50 250 521 286 10;
#X obj 196 8 inlet;
#X obj 399 104 outlet;
#X obj 237 8 r \$1-in;
#X obj 423 64 s \$1-out;
#X text 406 137 dh20020316;
#X text 22 8 The CANVAS object;
#X obj 69 111 make4seg_ss */ add_canvas \$1;
#X obj 121 134 make4seg_ss */ del_canvas \$1;
#X obj 399 32 receive \$1;
#X obj 202 231 send to_node;
#X obj 399 9 receive \$1/;
#X obj 303 132 concat do;
#X obj 196 33 route show hide;
#X obj 303 107 concat \$1;
#X connect 0 0 12 0;
#X connect 2 0 12 0;
#X connect 6 0 9 0;
#X connect 7 0 9 0;
#X connect 8 0 3 0;
#X connect 8 0 1 0;
#X connect 10 0 1 0;
#X connect 10 0 3 0;
#X connect 11 0 9 0;
#X connect 12 0 6 0;
#X connect 12 1 7 0;
#X connect 12 2 13 0;
#X connect 13 0 11 0;
