#N canvas 353 333 341 355 12;
#X obj 21 34 inlet;
#X obj 21 294 outlet;
#X obj 43 130 symbol \$1;
#X obj 80 157 symbol \$2;
#X obj 118 182 symbol \$3;
#X obj 21 60 bang;
#X obj 110 103 inlet;
#X obj 147 130 inlet;
#X obj 184 157 inlet;
#X obj 43 208 pack s s s;
#X obj 21 86 t b b b b;
#X text 205 299 dh20020316;
#X text 25 4 make easy to concatenate 3 symbols.;
#X msg 43 234 set do \$1 \$2 \$3;
#X msg 21 268 do */ add_canvas */my_first_canvas;
#X connect 0 0 5 0;
#X connect 2 0 9 0;
#X connect 3 0 9 1;
#X connect 4 0 9 2;
#X connect 5 0 10 0;
#X connect 6 0 2 1;
#X connect 7 0 3 1;
#X connect 8 0 4 1;
#X connect 9 0 13 0;
#X connect 10 0 14 0;
#X connect 10 1 2 0;
#X connect 10 2 3 0;
#X connect 10 3 4 0;
#X connect 13 0 14 0;
#X connect 14 0 1 0;
