#N canvas 343 358 450 300 12;
#X text 18 10 convert truc machin;
#X obj 19 43 inlet;
#X obj 19 71 route \$1;
#X obj 19 122 outlet;
#X obj 19 96 concat \$2;
#X text 173 127 dh20020401;
#X connect 1 0 2 0;
#X connect 2 0 4 0;
#X connect 4 0 3 0;
