#N canvas 959 494 450 300 10;
#X obj 142 135 until;
#X msg 142 156 next;
#X obj 26 110 list append \$1;
#X obj 26 133 prepent traverse;
#X obj 26 73 loadbang;
#X obj 142 22 inlet;
#X obj 142 242 outlet;
#X obj 296 242 outlet;
#X obj 202 242 outlet;
#X obj 142 179 pointer \$2;
#X obj 278 18 import-disabled list-abs;
#X obj 142 49 t a b;
#X obj 296 159 t b b;
#X connect 0 0 1 0;
#X connect 1 0 9 0;
#X connect 2 0 3 0;
#X connect 3 0 9 0;
#X connect 4 0 2 0;
#X connect 5 0 11 0;
#X connect 9 0 6 0;
#X connect 9 1 8 0;
#X connect 9 2 12 0;
#X connect 11 0 0 0;
#X connect 11 1 2 0;
#X connect 12 0 7 0;
#X connect 12 1 0 1;
