#N canvas 1267 733 517 343 10;
#X obj 230 205 bng 15 250 50 0 empty empty sort_is_done 17 7 0 10 -262144
-1 -1;
#X obj 95 257 set \$0-element x y z;
#X obj 248 79 ds-dump-array \$0-mything array1;
#X obj 248 114 get \$0-element x y z;
#X obj 248 137 pack f f f;
#X obj 249 26 ds-first pd-\$0-data \$0-mything;
#X msg 15 100 direction -1;
#X msg 25 120 direction 1;
#X text 96 99 reverse;
#X text 100 119 normal;
#X obj 177 123 hradio 15 1 0 3 empty empty sort_index 0 -8 0 10 -262144
-1 -1 0;
#X obj 431 124 t b;
#X text 456 123 do sort;
#X obj 95 187 ds-sort-array;
#X obj 212 227 element \$0-mything array1;
#X obj 248 50 t p p;
#X connect 2 0 3 0;
#X connect 2 1 11 0;
#X connect 3 0 4 0;
#X connect 3 1 4 1;
#X connect 3 2 4 2;
#X connect 4 0 13 2;
#X connect 5 0 15 0;
#X connect 6 0 13 0;
#X connect 7 0 13 0;
#X connect 10 0 13 1;
#X connect 11 0 13 0;
#X connect 13 0 1 0;
#X connect 13 1 14 0;
#X connect 13 2 0 0;
#X connect 14 0 1 3;
#X connect 15 0 2 0;
#X connect 15 1 14 1;
