#N canvas 0 0 555 438 10;
#X obj 177 15 inlet control;
#X obj 177 40 t a b;
#X text 277 14 duration peak peak_time;
#X obj 177 65 unpack f f f;
#X obj 55 288 sinx~;
#X obj 19 338 *~ 0;
#X obj 20 315 *~;
#X obj 365 268 1;
#X obj 323 226 delay;
#X obj 323 247 0;
#X obj 323 204 + 10;
#X obj 365 138 t b b;
#X obj 395 159 zl reg stop;
#X obj 323 290 pre_switch 10;
#X obj 55 268 _env_lookup~ 1.5708;
#X obj 177 92 t f f;
#X obj 19 11 inlet~;
#X obj 19 359 outlet~;
#X text 19 405 (c) Tim Blechmann 2005 \, $Id: sine.pd 221 2005-12-17 18:31:17Z tim $;
#X obj 323 375 switch~;
#X obj 323 310 t f f;
#X obj 353 331 sel 0;
#X obj 353 352 s \$1-done;
#X connect 0 0 1 0;
#X connect 1 0 3 0;
#X connect 1 1 11 0;
#X connect 3 0 15 0;
#X connect 3 1 5 1;
#X connect 3 2 14 1;
#X connect 4 0 6 1;
#X connect 5 0 17 0;
#X connect 6 0 5 0;
#X connect 7 0 13 0;
#X connect 8 0 9 0;
#X connect 9 0 13 0;
#X connect 10 0 8 0;
#X connect 11 0 7 0;
#X connect 11 1 12 0;
#X connect 12 0 8 0;
#X connect 13 0 20 0;
#X connect 14 0 4 0;
#X connect 15 0 14 0;
#X connect 15 1 10 0;
#X connect 16 0 6 0;
#X connect 20 0 19 0;
#X connect 20 1 21 0;
#X connect 21 0 22 0;
