#N canvas 277 55 250 404 10;
#X obj 35 76 dbtorms;
#X obj 35 46 r gain;
#X obj 118 138 *~;
#X obj 35 162 line~;
#X obj 36 235 *~;
#X obj 37 354 dac~;
#X obj 35 138 pack 0 50;
#X obj 160 237 *~;
#X obj 50 212 hip~ 3;
#X obj 174 213 hip~ 3;
#X obj 117 45 inlet~;
#X obj 173 138 *~;
#X obj 172 45 inlet~;
#X obj 117 326 pack 0 0;
#X obj 117 270 env~;
#X obj 160 270 env~;
#X obj 117 297 - 100;
#X obj 160 297 - 100;
#X obj 117 354 s out_level;
#X text 51 8 volume and gain control;
#X connect 0 0 2 1;
#X connect 0 0 6 0;
#X connect 0 0 11 1;
#X connect 1 0 0 0;
#X connect 2 0 8 0;
#X connect 3 0 7 0;
#X connect 3 0 4 0;
#X connect 4 0 5 0;
#X connect 4 0 14 0;
#X connect 6 0 3 0;
#X connect 7 0 5 1;
#X connect 7 0 15 0;
#X connect 8 0 4 1;
#X connect 9 0 7 1;
#X connect 10 0 2 0;
#X connect 11 0 9 0;
#X connect 12 0 11 0;
#X connect 13 0 18 0;
#X connect 14 0 16 0;
#X connect 15 0 17 0;
#X connect 16 0 13 0;
#X connect 17 0 13 1;
