#N canvas 0 0 446 436 10;
#X obj 1 19 cnv 15 450 410 empty \$0-background-cnv empty 20 12 1 14
-245564 -66577 0;
#X obj 510 87 inlet;
#X obj 689 87 inlet OSC;
#N canvas 183 51 981 424 saves 0;
#X obj 45 160 originator \$1 \$0;
#X obj 152 132 inlet OSC;
#X obj 507 86 r \$0-s1;
#X obj 507 110 commun /s1 \$0;
#X obj 606 86 r \$0-s2;
#X obj 606 110 commun /s2 \$0;
#X obj 507 135 s \$0-s1-r;
#X obj 606 135 s \$0-s2-r;
#X obj 47 55 r \$0-substate;
#X obj 15 13 inlet substate;
#X obj 15 35 route substate;
#X obj 159 55 r \$0-copy;
#X msg 159 76 copy;
#X obj 243 50 r \$0-paste;
#X msg 241 71 paste;
#X text 154 15 This is the originator \, including some ready to use
standard functionality.;
#X text 507 56 Put your commun sends here \, if you like.;
#X msg 15 91 setsub \$1;
#X msg 249 184 svdir \$1;
#X obj 250 139 bng 15 250 50 0 empty empty empty 0 -6 0 8 -262144 -1
-1;
#X obj 250 163 savepanel;
#X obj 152 189 outlet OSC;
#X msg 108 214 svxdir /tmp/svdir.xml;
#X msg 78 241 ldxdir /tmp/svdir.xml;
#X connect 0 2 21 0;
#X connect 1 0 0 1;
#X connect 2 0 3 0;
#X connect 3 0 6 0;
#X connect 4 0 5 0;
#X connect 5 0 7 0;
#X connect 8 0 17 0;
#X connect 9 0 10 0;
#X connect 10 0 17 0;
#X connect 10 1 0 0;
#X connect 11 0 12 0;
#X connect 12 0 0 0;
#X connect 13 0 14 0;
#X connect 14 0 0 0;
#X connect 17 0 0 0;
#X connect 18 0 0 0;
#X connect 19 0 20 0;
#X connect 20 0 18 0;
#X connect 22 0 0 0;
#X connect 23 0 0 0;
#X restore 627 86 pd saves;
#N canvas 569 61 450 300 cnv.ctl 0;
#X obj 90 188 s \$0-background-cnv;
#X floatatom 108 59 5 100 1000 0 width - -;
#X floatatom 112 83 4 50 500 0 height - -;
#X obj 92 132 pack 0 0;
#X msg 92 159 vis_size \$1 \$2;
#X obj 110 106 t b f;
#X connect 1 0 3 0;
#X connect 2 0 5 0;
#X connect 3 0 4 0;
#X connect 4 0 0 0;
#X connect 5 0 3 0;
#X connect 5 1 3 1;
#X restore 552 86 pd cnv.ctl;
#X obj 627 107 outlet OSC;
#X obj 585 115 inlet;
#X obj 2 26 rrad.nseq \$1-n1;
#X obj 2 410 outlet;
#X obj 51 -1 r \$0-OSC;
#X obj 17 432 s \$0-OSC-out;
#X obj 654 132 r \$0-OSC-out;
#X obj 710 111 s \$0-OSC;
#X obj 113 411 outlet;
#X obj 162 1 r \$0-OSC;
#X obj 128 433 s \$0-OSC-out;
#X obj 113 27 rrad.nseq \$1-n2;
#X obj 224 411 outlet;
#X obj 274 2 r \$0-OSC;
#X obj 239 433 s \$0-OSC-out;
#X obj 338 411 outlet;
#X obj 386 2 r \$0-OSC;
#X obj 353 433 s \$0-OSC-out;
#X obj 224 27 rrad.nseq \$1-n3;
#X obj 338 27 rrad.nseq \$1-n4;
#X obj 8 5 r \$0-s;
#X obj 114 1 r \$0-s;
#X obj 225 1 r \$0-s;
#X obj 339 1 r \$0-s;
#X obj 501 121 s \$0-s;
#X connect 1 0 29 0;
#X connect 2 0 3 1;
#X connect 2 0 12 0;
#X connect 3 0 5 0;
#X connect 6 0 3 0;
#X connect 7 0 8 0;
#X connect 7 1 10 0;
#X connect 9 0 7 2;
#X connect 11 0 5 0;
#X connect 14 0 16 2;
#X connect 16 0 13 0;
#X connect 16 1 15 0;
#X connect 18 0 23 2;
#X connect 21 0 24 2;
#X connect 23 0 17 0;
#X connect 23 1 19 0;
#X connect 24 0 20 0;
#X connect 24 1 22 0;
#X connect 25 0 7 0;
#X connect 26 0 16 0;
#X connect 27 0 23 0;
#X connect 28 0 24 0;
#X coords 0 0 1 1 452 430 1;
