#N canvas 627 445 167 72 10;
#X obj 2 20 cnv 15 166 44 empty \$0-background-cnv empty 20 12 1 14
-233017 -66577 0;
#X obj 287 -1 inlet OSC;
#N canvas 183 51 981 424 saves 0;
#X obj 45 160 originator \$1 \$0;
#X obj 152 132 inlet OSC;
#X obj 47 55 r \$0-substate;
#X obj 15 13 inlet substate;
#X obj 15 35 route substate;
#X obj 159 55 r \$0-copy;
#X msg 159 76 copy;
#X obj 243 50 r \$0-paste;
#X msg 241 71 paste;
#X text 154 15 This is the originator \, including some ready to use
standard functionality.;
#X text 507 56 Put your commun sends here \, if you like.;
#X msg 15 91 setsub \$1;
#X msg 17 281 svdir \$1;
#X obj 18 236 bng 15 250 50 0 empty empty empty 0 -6 0 8 -262144 -1
-1;
#X obj 18 260 savepanel;
#X obj 152 189 outlet OSC;
#X msg 108 214 svxdir /tmp/svdir.xml;
#X msg 78 241 ldxdir /tmp/svdir.xml;
#X obj 281 204 s \$0-substate-r;
#X obj 281 151 OSCroute \$1;
#X obj 281 177 OSCroute /preset;
#X obj 507 110 commun /b \$0;
#X obj 644 209 ctlearn 0 127;
#X msg 643 189 learn;
#X obj 642 164 r \$0-learn;
#X obj 753 210 commun /b \$0;
#X obj 644 234 s \$0-b;
#X obj 507 84 r \$0-b;
#X obj 467 217 symbol;
#X obj 467 247 s \$0-sb-r;
#X obj 467 173 r \$0-sb;
#X obj 467 194 commun /sb \$0;
#X connect 0 2 15 0;
#X connect 1 0 0 1;
#X connect 2 0 11 0;
#X connect 3 0 4 0;
#X connect 4 0 11 0;
#X connect 4 1 0 0;
#X connect 5 0 6 0;
#X connect 6 0 0 0;
#X connect 7 0 8 0;
#X connect 8 0 0 0;
#X connect 11 0 0 0;
#X connect 12 0 0 0;
#X connect 13 0 14 0;
#X connect 14 0 12 0;
#X connect 16 0 0 0;
#X connect 17 0 0 0;
#X connect 20 0 18 0;
#X connect 22 0 26 0;
#X connect 22 2 25 0;
#X connect 23 0 22 0;
#X connect 24 0 23 0;
#X connect 25 0 22 1;
#X connect 27 0 21 0;
#X connect 28 0 29 0;
#X connect 30 0 31 0;
#X connect 31 0 28 0;
#X restore 225 -2 pd saves;
#N canvas 776 214 450 300 cnv.ctl 0;
#X obj 90 188 s \$0-background-cnv;
#X floatatom 108 59 5 100 1000 0 width - -;
#X floatatom 112 83 4 50 500 0 height - -;
#X obj 92 132 pack 0 0;
#X msg 92 159 vis_size \$1 \$2;
#X obj 110 106 t b f;
#X connect 1 0 3 0;
#X connect 2 0 5 0;
#X connect 3 0 4 0;
#X connect 4 0 0 0;
#X connect 5 0 3 0;
#X connect 5 1 3 1;
#X restore 150 -2 pd cnv.ctl;
#X text 26 -1 look! ==>;
#X obj 225 19 outlet OSC;
#X obj 53 45 bng 15 250 50 0 \$0-learn \$0-learn empty 0 -6 0 8 -260818
-1 -1;
#X obj 12 26 tgl 32 0 \$0-b \$0-b b -7 18 0 8 -24198 -1 -1 127 127
;
#X obj 175 54 outlet;
#N canvas 0 0 829 493 osc 0;
#X obj 295 471 outlet;
#X obj 56 198 pack 0 s;
#X msg 56 229 \$2 \$1;
#X obj 66 261 s \$0-out;
#X obj 295 449 r \$0-out;
#X obj 126 36 loadbang;
#X obj 126 60 symbol \$1;
#X obj 50 315 change;
#X msg 116 389 color 10;
#X obj 50 336 t b;
#X obj 116 368 del 100;
#X obj 50 427 s \$0-c1;
#X msg 50 374 color 46;
#X obj 127 92 makefilename %s/b;
#X obj 107 126 r \$0-sb;
#X obj 125 158 r \$0-sb-r;
#X obj 56 148 r \$0-b;
#X connect 1 0 2 0;
#X connect 2 0 3 0;
#X connect 4 0 0 0;
#X connect 5 0 6 0;
#X connect 6 0 13 0;
#X connect 7 0 9 0;
#X connect 8 0 11 0;
#X connect 9 0 12 0;
#X connect 9 0 10 0;
#X connect 10 0 8 0;
#X connect 12 0 11 0;
#X connect 13 0 1 1;
#X connect 14 0 1 1;
#X connect 15 0 1 1;
#X connect 16 0 1 0;
#X connect 16 0 7 0;
#X restore 175 25 pd osc;
#X obj 50 26 cnv 15 114 16 empty \$0-c1 empty 20 12 0 14 -233017 -262144
0;
#X symbolatom 51 26 16 0 0 0 - #0-sb-r #0-sb;
#X connect 1 0 2 1;
#X connect 2 0 5 0;
#X connect 9 0 8 0;
#X coords 0 0 1 1 170 65 1;
