#N canvas 102 336 999 337 10;
#X obj 51 103 vsl 8 64 0 127 0 0 \$0-s1 \$0-s1 empty 0 -8 1728 8 -233017
-1 -1 2100 1;
#X obj 100 103 vsl 8 64 0 127 0 0 \$0-s2 \$0-s2 empty 0 -8 1728 8 -262144
-1 -1 1300 1;
#X obj 150 103 vsl 8 64 0 127 0 0 \$0-s3 \$0-s3 empty 0 -8 1728 8 -262144
-1 -1 600 1;
#X obj 200 103 vsl 8 64 0 127 0 0 \$0-s4 \$0-s4 empty 0 -8 1728 8 -262144
-1 -1 400 1;
#X obj 252 103 vsl 8 64 0 127 0 0 \$0-s5 \$0-s5 empty 0 -8 1728 8 -233017
-1 -1 0 1;
#X obj 303 102 vsl 8 64 0 127 0 0 \$0-s6 \$0-s6 empty 0 -8 1728 8 -262144
-1 -1 0 1;
#X obj 353 103 vsl 8 64 0 127 0 0 \$0-s7 \$0-s7 empty 0 -8 1728 8 -262144
-1 -1 0 1;
#X obj 404 103 vsl 8 64 0 127 0 0 \$0-s8 \$0-s8 empty 0 -8 1728 8 -262144
-1 -1 0 1;
#X obj 837 32 inlet;
#N canvas 56 21 801 470 settings 0;
#X obj 250 22 s \$0-s1;
#X obj 150 22 r \$0-s1;
#X obj 250 44 s \$0-s2;
#X obj 150 44 r \$0-s2;
#X obj 250 66 s \$0-s3;
#X obj 150 66 r \$0-s3;
#X obj 250 88 s \$0-s4;
#X obj 150 88 r \$0-s4;
#X obj 250 110 s \$0-s5;
#X obj 150 110 r \$0-s5;
#X obj 250 132 s \$0-s6;
#X obj 150 132 r \$0-s6;
#X obj 250 154 s \$0-s7;
#X obj 150 154 r \$0-s7;
#X obj 250 176 s \$0-s8;
#X obj 150 176 r \$0-s8;
#X obj 250 198 s \$0-s9;
#X obj 150 198 r \$0-s9;
#X obj 250 220 s \$0-s10;
#X obj 150 220 r \$0-s10;
#X obj 250 242 s \$0-s11;
#X obj 150 242 r \$0-s11;
#X obj 250 264 s \$0-s12;
#X obj 150 264 r \$0-s12;
#X obj 250 286 s \$0-s13;
#X obj 150 286 r \$0-s13;
#X obj 250 308 s \$0-s14;
#X obj 150 308 r \$0-s14;
#X obj 0 330 commun /s15 \$0;
#X obj 250 330 s \$0-s15;
#X obj 150 330 r \$0-s15;
#X obj 402 256 originator \$1 \$0;
#X obj 509 146 inlet;
#X obj 389 171 inlet;
#X obj 389 210 t b f;
#X msg 419 232 substate \$1;
#X msg 387 233 set;
#X obj 167 398 r \$0-svol;
#X obj 267 398 s \$0-svol;
#X obj 0 22 commun /s1 \$0;
#X obj 0 44 commun /s2 \$0;
#X obj 0 66 commun /s3 \$0;
#X obj 0 88 commun /s4 \$0;
#X obj 0 110 commun /s5 \$0;
#X obj 0 132 commun /s6 \$0;
#X obj 0 154 commun /s7 \$0;
#X obj 0 176 commun /s8 \$0;
#X obj 0 198 commun /s9 \$0;
#X obj 0 220 commun /s10 \$0;
#X obj 0 242 commun /s11 \$0;
#X obj 0 264 commun /s12 \$0;
#X obj 0 286 commun /s13 \$0;
#X obj 0 308 commun /s14 \$0;
#X obj 17 398 commun /svol \$0;
#X obj 345 100 OSCroute /preset;
#X obj 345 130 s \$0-preset;
#X obj 345 76 r \$0-RRADICAL-OSC;
#X obj 253 352 s \$0-s16;
#X obj 152 352 r \$0-s16;
#X obj 2 352 commun /s16 \$0;
#X obj 592 64 inlet;
#X obj 592 113 makefilename /s%d;
#X obj 592 90 f;
#X obj 406 291 outlet;
#X obj 593 138 prepend get;
#X connect 1 0 39 0;
#X connect 3 0 40 0;
#X connect 5 0 41 0;
#X connect 7 0 42 0;
#X connect 9 0 43 0;
#X connect 11 0 44 0;
#X connect 13 0 45 0;
#X connect 15 0 46 0;
#X connect 17 0 47 0;
#X connect 19 0 48 0;
#X connect 21 0 49 0;
#X connect 23 0 50 0;
#X connect 25 0 51 0;
#X connect 27 0 52 0;
#X connect 28 0 29 0;
#X connect 30 0 28 0;
#X connect 31 0 63 0;
#X connect 32 0 31 1;
#X connect 33 0 34 0;
#X connect 34 0 36 0;
#X connect 34 1 35 0;
#X connect 35 0 31 0;
#X connect 36 0 31 0;
#X connect 37 0 53 0;
#X connect 39 0 0 0;
#X connect 40 0 2 0;
#X connect 41 0 4 0;
#X connect 42 0 6 0;
#X connect 43 0 8 0;
#X connect 44 0 10 0;
#X connect 45 0 12 0;
#X connect 46 0 14 0;
#X connect 47 0 16 0;
#X connect 48 0 18 0;
#X connect 49 0 20 0;
#X connect 50 0 22 0;
#X connect 51 0 24 0;
#X connect 52 0 26 0;
#X connect 53 0 38 0;
#X connect 54 0 55 0;
#X connect 54 0 34 0;
#X connect 56 0 54 0;
#X connect 58 0 59 0;
#X connect 59 0 57 0;
#X connect 60 0 62 0;
#X connect 61 0 64 0;
#X connect 62 0 61 0;
#X connect 64 0 31 0;
#X restore 810 73 pd settings;
#X obj 903 34 inlet;
#X text 811 10 Direct load/save;
#X obj 59 62 hsl 64 8 0 127 0 0 \$0-svol \$0-svol volume 4 4 1729 6
-262144 -123526 -1 6300 1;
#X obj 867 166 outlet;
#X obj 895 92 r \$0-svol;
#X obj 454 103 vsl 8 64 0 127 0 0 \$0-s9 \$0-s9 empty 0 -8 1728 8 -233017
-1 -1 0 1;
#X obj 506 104 vsl 8 64 0 127 0 0 \$0-s10 \$0-s10 empty 0 -8 1728 8
-262144 -1 -1 0 1;
#X obj 559 103 vsl 8 64 0 127 0 0 \$0-s11 \$0-s11 empty 0 -8 1728 8
-262144 -1 -1 0 1;
#X obj 612 103 vsl 8 64 0 127 0 0 \$0-s12 \$0-s12 empty 0 -8 1728 8
-262144 -1 -1 0 1;
#X obj 663 103 vsl 8 64 0 127 0 0 \$0-s13 \$0-s13 empty 0 -8 1728 8
-233017 -1 -1 0 1;
#X obj 713 103 vsl 8 64 0 127 0 0 \$0-s14 \$0-s14 empty 0 -8 1728 8
-262144 -1 -1 0 1;
#X obj 764 103 vsl 8 64 0 127 0 0 \$0-s15 \$0-s15 empty 0 -8 1728 8
-262144 -1 -1 0 1;
#X obj 814 103 vsl 8 64 0 127 0 0 \$0-s16 \$0-s16 empty 0 -8 1728 8
-262144 -1 -1 0 1;
#X obj 673 57 nbx 3 10 -1e+37 1e+37 0 0 \$0-preset \$0-preset preset
0 -6 1729 8 -233017 -1 -1 0 256;
#X obj 888 115 * 0.007874;
#X obj 871 140 * 1;
#X obj 833 192 print rreq;
#X connect 8 0 9 2;
#X connect 9 0 25 0;
#X connect 10 0 9 1;
#X connect 14 0 24 0;
#X connect 23 0 9 0;
#X connect 24 0 25 1;
#X connect 25 0 13 0;
#X coords 0 0 1 1 200 110 1;
