#N canvas 19 424 609 373 10;
#X obj 1 1 cnv 5 128 110 empty empty List_Files 5 6 1 9 -249661 -66577
0;
#N canvas 544 188 619 605 interna 0;
#X obj 115 20 cnv 15 350 500 empty empty empty 5 8 1 10 -260390 -1
0;
#X obj 326 474 prepend file;
#X obj 236 29 inlet;
#X obj 420 503 outlet;
#X obj 8 20 cnv 15 100 340 empty empty empty 5 8 1 10 -3121 -1 0;
#X obj 21 34 inlet;
#X obj 21 334 outlet;
#X obj 326 454 prepend open;
#X text 9 4 Facility to glob directories of files;
#X obj 304 202 r \$0-dir;
#X obj 133 211 r \$0-pattern;
#X obj 236 50 mementoSetup pt.filelist \$0;
#X obj 132 481 s \$0-files;
#X obj 326 434 r \$0-file;
#X obj 304 243 s \$0-dir-in;
#X obj 177 240 r \$0-reload;
#X obj 303 265 r \$0-dir-out;
#X text 21 533 if the directory is the same then don't send back to
symbol;
#X obj 304 222 dirpanel;
#X obj 132 440 folder_list;
#X msg 132 460 append \$1;
#X text 210 482 2popup;
#X obj 134 310 symbol;
#X obj 185 334 symbol;
#X text 187 312 pattern;
#X text 234 335 directory;
#X obj 133 397 makesymbol %s/%s;
#X obj 133 355 pack s s;
#X obj 266 123 getdir;
#X msg 134 376 list \$2 \$1;
#X obj 133 417 t s b;
#X msg 225 440 options;
#X obj 236 71 delay 250;
#X obj 133 189 s \$0-set-pattern;
#X obj 236 94 t b b;
#X msg 133 169 symbol *;
#X connect 1 0 3 0;
#X connect 2 0 11 0;
#X connect 5 0 6 0;
#X connect 7 0 1 0;
#X connect 9 0 18 0;
#X connect 10 0 22 0;
#X connect 11 0 32 0;
#X connect 11 1 3 0;
#X connect 13 0 7 0;
#X connect 15 0 22 0;
#X connect 16 0 23 0;
#X connect 18 0 14 0;
#X connect 19 0 20 0;
#X connect 20 0 12 0;
#X connect 22 0 27 0;
#X connect 23 0 27 1;
#X connect 26 0 30 0;
#X connect 27 0 29 0;
#X connect 28 0 14 0;
#X connect 29 0 26 0;
#X connect 30 0 19 0;
#X connect 30 1 31 0;
#X connect 31 0 12 0;
#X connect 32 0 34 0;
#X connect 34 0 35 0;
#X connect 34 1 28 0;
#X connect 35 0 33 0;
#X restore 10 295 pd interna;
#X obj 10 273 inlet;
#X obj 75 274 inlet;
#X obj 10 317 outlet;
#X obj 75 318 outlet;
#X obj 7 18 bng 15 250 50 0 \$0-dir \$0 Dir 20 8 1 9 -262144 -1 -1
;
#X symbolatom 7 60 10 0 0 1 - #0-set-pattern #0-pattern;
#X obj 83 62 cnv 5 15 10 empty empty Pattern 5 6 1 9 -249661 -1 0;
#X obj 120 119 s \$0-file;
#X text 9 249 Facility to glob directories of files;
#X obj 386 30 commun /directory \$0;
#X obj 245 122 s \$0-set-pattern;
#X obj 245 30 commun /pattern \$0;
#X text 118 291 Only pattern and directory are state-saved.;
#X obj 245 10 r \$0-pattern;
#X obj 106 18 bng 15 250 50 0 \$0-reload \$0 Update -38 8 1 9 -262144
-1 -1;
#X symbolatom 7 40 16 0 0 1 - #0-dir-in #0-dir-out;
#X obj 386 51 prepend set;
#X obj 245 51 prepend set;
#X obj 301 76 r \$0-reload;
#X obj 386 9 r \$0-dir-out;
#X obj 386 122 s \$0-dir-in;
#X obj 301 97 t b b;
#X obj 3 81 popup 124 25 grey95 files;
#X obj 147 22 r \$0-files;
#X connect 1 0 4 0;
#X connect 1 1 5 0;
#X connect 2 0 1 0;
#X connect 3 0 1 1;
#X connect 11 0 18 0;
#X connect 13 0 19 0;
#X connect 15 0 13 0;
#X connect 18 0 22 0;
#X connect 19 0 12 0;
#X connect 20 0 23 0;
#X connect 21 0 11 0;
#X connect 23 0 12 0;
#X connect 23 1 22 0;
#X connect 24 1 9 0;
#X connect 25 0 24 0;
#X coords 0 0 1 1 130 112 1 0 0;
