#N canvas 219 138 473 435 10;
#X obj 34 54 inlet;
#X obj 29 368 pool register;
#X text 25 8 This abstraction is used to access the unique \$0 ID from
the instance number of a particular abstraction on a particular layer.
;
#X obj 29 393 outlet;
#X msg 29 314 chdir \$1 \$2;
#X obj 149 314 prepend get;
#X obj 61 107 route dir;
#X text 117 286 \$1 layerNum \, \$2 Abstraction Name;
#X obj 29 144 prepend list;
#X obj 119 188 oneshot;
#X obj 119 144 t b f;
#X obj 39 288 pack \$1 s;
#X obj 97 265 symbol \$2;
#X obj 97 243 loadbang;
#X connect 0 0 6 0;
#X connect 1 0 3 0;
#X connect 4 0 1 0;
#X connect 5 0 1 0;
#X connect 6 0 8 0;
#X connect 6 1 10 0;
#X connect 8 0 4 0;
#X connect 9 0 11 0;
#X connect 10 0 9 0;
#X connect 10 1 5 0;
#X connect 11 0 4 0;
#X connect 12 0 11 1;
#X connect 13 0 12 0;
