#N canvas 470 232 489 423 10;
#X obj 86 33 inlet;
#X obj 300 34 inlet;
#X obj 151 352 outlet;
#X obj 169 269 outlet;
#X obj 151 317 list;
#X obj 300 215 list prepend;
#X obj 379 185 t a;
#X obj 86 58 route bang;
#X obj 86 83 b;
#X obj 151 84 t b a;
#X obj 151 124 list;
#X obj 169 215 list-drip2;
#X obj 169 243 list;
#X obj 258 33 inlet;
#X obj 234 192 list;
#X obj 151 155 t b a a b b;
#X connect 0 0 7 0;
#X connect 1 0 5 0;
#X connect 4 0 2 0;
#X connect 5 0 6 0;
#X connect 5 0 4 1;
#X connect 6 0 5 1;
#X connect 7 0 8 0;
#X connect 7 1 9 0;
#X connect 8 0 10 0;
#X connect 9 0 10 0;
#X connect 9 1 10 1;
#X connect 10 0 15 0;
#X connect 11 0 12 0;
#X connect 11 1 12 1;
#X connect 12 0 3 0;
#X connect 13 0 14 1;
#X connect 14 0 11 1;
#X connect 15 0 4 0;
#X connect 15 1 11 0;
#X connect 15 2 4 1;
#X connect 15 3 14 0;
#X connect 15 4 5 1;
