#N canvas 471 527 566 348 10;
#X floatatom 132 121 5 0 10 0 - - -;
#X obj 132 174 list-sieve;
#X obj 197 209 print MISS;
#X obj 132 233 print FOUND;
#X text 61 30 list-sieve;
#X text 73 55 Look up occurence of incoming floats in a list. If found
\, pass them along \, if not \, signal the miss in second outlet.;
#X obj 306 157 tgl 15 0 empty empty try_me! 0 -6 0 8 -262144 -1 -1
0 1;
#N canvas 637 373 524 502 gameboy-player 0;
#X obj 173 50 tgl 15 0 empty empty empty 0 -6 0 8 -262144 -1 -1 0 1
;
#X obj 173 105 random 12;
#X obj 173 144 list-sieve;
#X obj 269 61 loadbang;
#X obj 173 176 + 48;
#X obj 260 143 t b;
#N canvas 0 0 597 521 gameboy 0;
#X obj 136 165 mtof;
#X obj 137 291 *~;
#X obj 224 255 vline~;
#X obj 275 130 / 127;
#X obj 136 84 inlet;
#X obj 224 53 inlet;
#X obj 135 326 dac~;
#X obj 224 96 select 0;
#X obj 274 152 t f f;
#X obj 274 180 pack 0 0;
#X obj 225 285 *~;
#X obj 224 312 *~;
#X obj 325 156 * 0.8;
#X obj 136 223 phasor~;
#X obj 137 257 lop~ 18000;
#X msg 224 118 0 80;
#X msg 274 202 \$1 30 \, \$2 100 30;
#X connect 0 0 13 0;
#X connect 1 0 6 0;
#X connect 1 0 6 1;
#X connect 2 0 10 0;
#X connect 2 0 10 1;
#X connect 3 0 8 0;
#X connect 4 0 0 0;
#X connect 5 0 7 0;
#X connect 7 0 15 0;
#X connect 7 1 3 0;
#X connect 8 0 9 0;
#X connect 8 1 12 0;
#X connect 9 0 16 0;
#X connect 10 0 11 0;
#X connect 10 0 11 1;
#X connect 11 0 1 1;
#X connect 12 0 9 1;
#X connect 13 0 14 0;
#X connect 14 0 1 0;
#X connect 15 0 2 0;
#X connect 16 0 2 0;
#X restore 173 274 pd gameboy;
#X obj 75 104 select 1;
#X msg 75 134 \; pd dsp 1;
#X msg 269 84 0 2 4 5 7 9 11;
#X msg 269 105 0 2 3 5 7 9 10;
#X obj 173 27 inlet;
#X obj 173 72 metro 200;
#X obj 173 210 makenote 100 100;
#X text 296 144 careful with stack overflows!!;
#X connect 0 0 7 0;
#X connect 0 0 12 0;
#X connect 1 0 2 0;
#X connect 2 0 4 0;
#X connect 2 1 5 0;
#X connect 3 0 9 0;
#X connect 4 0 13 0;
#X connect 5 0 1 0;
#X connect 7 0 8 0;
#X connect 9 0 2 1;
#X connect 10 0 2 1;
#X connect 11 0 0 0;
#X connect 12 0 1 0;
#X connect 13 0 6 0;
#X connect 13 1 6 1;
#X restore 306 178 pd gameboy-player;
#X obj 197 119 loadbang;
#X msg 197 143 0 2 3 5 7 10;
#X connect 0 0 1 0;
#X connect 1 0 3 0;
#X connect 1 1 2 0;
#X connect 6 0 7 0;
#X connect 8 0 9 0;
#X connect 9 0 1 1;
