#N canvas 356 400 543 329 10;
#X msg 208 152 1 2 3 4;
#X obj 122 229 print element;
#X obj 208 202 print EOL;
#X msg 122 146 bang;
#X text 60 30 list-dripslow: Serialize a list on demand.;
#X text 56 69 First set list through right inlet \, then on each bang
into left inlet \, one element will be output through left outlet.
Right outlet bangs at list's end.;
#N canvas 401 196 593 450 drip-many-example 0;
#X obj 122 171 list-drip;
#X obj 122 194 t a b;
#X obj 122 323 print L1;
#X obj 207 324 print L2;
#X obj 297 326 print L3;
#X obj 207 249 t a b;
#X obj 122 121 t b b b;
#X text 160 39 Drip many lists in sync;
#X msg 122 92 bang;
#X msg 383 187 A B C;
#X msg 293 187 1 2 3;
#X msg 122 149 x y z;
#X obj 207 225 list-dripslow;
#X obj 297 283 list-dripslow;
#X connect 0 0 1 0;
#X connect 1 0 2 0;
#X connect 1 1 12 0;
#X connect 5 0 3 0;
#X connect 5 1 13 0;
#X connect 6 0 11 0;
#X connect 6 1 10 0;
#X connect 6 2 9 0;
#X connect 8 0 6 0;
#X connect 9 0 13 1;
#X connect 10 0 12 1;
#X connect 11 0 0 0;
#X connect 12 0 5 0;
#X connect 13 0 4 0;
#X restore 332 185 pd drip-many-example;
#N canvas 606 157 450 300 drip-emulation 0;
#X obj 140 194 list-dripslow;
#X obj 140 117 t b l;
#X obj 140 167 until;
#X obj 140 224 print;
#X msg 140 82 1 2 3 4 5 6 7 achtung;
#X text 135 49 drip fast with dripslow;
#X connect 0 0 3 0;
#X connect 0 1 2 1;
#X connect 1 0 2 0;
#X connect 1 1 0 1;
#X connect 2 0 0 0;
#X connect 4 0 1 0;
#X restore 332 219 pd drip-emulation;
#X obj 122 180 list-dripslow;
#X connect 0 0 8 1;
#X connect 3 0 8 0;
#X connect 8 0 1 0;
#X connect 8 1 2 0;
