#N canvas 728 203 519 432 10;
#X obj 86 33 inlet;
#X obj 275 52 inlet;
#X obj 151 352 outlet;
#X obj 169 268 outlet;
#X obj 169 215 list-drip;
#X obj 326 250 list prepend;
#X obj 405 220 t a;
#X obj 86 58 route bang;
#X obj 86 83 b;
#X obj 151 84 t b a;
#X obj 151 124 list;
#X obj 275 111 select 0;
#X obj 326 133 b;
#X obj 326 209 list;
#X obj 169 244 t a a;
#X obj 151 317 list;
#X obj 151 155 t b a b b b;
#X connect 0 0 7 0;
#X connect 1 0 11 0;
#X connect 4 0 14 0;
#X connect 5 0 6 0;
#X connect 5 0 15 1;
#X connect 6 0 5 1;
#X connect 7 0 8 0;
#X connect 7 1 9 0;
#X connect 8 0 10 0;
#X connect 9 0 10 0;
#X connect 9 1 10 1;
#X connect 10 0 16 0;
#X connect 11 1 12 0;
#X connect 12 0 13 0;
#X connect 13 0 5 0;
#X connect 14 0 3 0;
#X connect 14 1 13 1;
#X connect 15 0 2 0;
#X connect 16 0 15 0;
#X connect 16 1 4 0;
#X connect 16 2 15 1;
#X connect 16 3 5 1;
#X connect 16 4 13 1;
