#N canvas 363 400 647 296 10;
#X symbolatom 12 39 10 0 0 2 whereTo? - -;
#X obj 54 179 pack s 0;
#X floatatom 105 39 5 0 0 2 what? - -;
#X msg 54 203 send \$1 \$2;
#X obj 105 76 t b f;
#X obj 54 229 outlet;
#X obj 264 64 loadbang;
#X obj 264 132 route float;
#X msg 264 157 bang;
#X obj 301 189 symbol unknown;
#X obj 13 7 inlet;
#X obj 105 6 inlet;
#X obj 54 149 symbol;
#X obj 264 90 list append \$2;
#X obj 91 122 makefilename \$1/%s;
#X connect 0 0 14 0;
#X connect 1 0 3 0;
#X connect 2 0 4 0;
#X connect 3 0 5 0;
#X connect 4 0 12 0;
#X connect 4 1 1 1;
#X connect 6 0 13 0;
#X connect 7 0 8 0;
#X connect 7 1 9 0;
#X connect 8 0 9 0;
#X connect 9 0 0 0;
#X connect 10 0 0 0;
#X connect 11 0 2 0;
#X connect 12 0 1 0;
#X connect 13 0 7 0;
#X connect 14 0 12 1;
#X coords 0 -1 1 1 200 50 1 0 10;
