#N canvas -24 396 609 411 10;
#X obj 84 62 keyname;
#X obj 121 138 sel %s;
#X obj 258 58 inlet;
#X msg 233 299 \; \$1 color \$2 \$3;
#X obj 232 257 unpack s 0 0;
#X obj 233 277 pack s 0 0;
#X obj 196 203 symbol;
#X obj 314 204 symbol;
#X obj 120 181 bng 15 250 50 0 empty empty bang 20 7 1 7 -262144 -1
-1;
#X obj 120 215 outlet;
#X obj 224 169 sel 0 1;
#X obj 224 146 tgl 15 0 empty empty empty 0 -6 0 8 -262144 -1 -1 0
1;
#X obj 272 131 makefilename keyc%s;
#X obj 196 134 bng 15 250 50 0 empty empty empty 0 -6 0 8 -262144 -1
-1;
#X msg 195 229 \$1 -1.44745e+007 0;
#X msg 317 229 \$1 18 0;
#X obj 258 88 pack s;
#X msg 220 125 0;
#X connect 0 1 1 0;
#X connect 1 0 8 0;
#X connect 2 0 13 0;
#X connect 2 0 16 0;
#X connect 4 0 5 0;
#X connect 4 1 5 1;
#X connect 4 2 5 2;
#X connect 5 0 3 0;
#X connect 6 0 14 0;
#X connect 7 0 15 0;
#X connect 8 0 9 0;
#X connect 8 0 11 0;
#X connect 10 0 6 0;
#X connect 10 1 7 0;
#X connect 11 0 10 0;
#X connect 12 0 6 1;
#X connect 12 0 7 1;
#X connect 13 0 6 0;
#X connect 13 0 17 0;
#X connect 14 0 4 0;
#X connect 15 0 4 0;
#X connect 16 0 12 0;
#X connect 16 0 1 1;
#X connect 17 0 11 0;
#X coords 0 0 0.0012837 0.0015674 65 55 0;
