#N canvas 464 189 669 483 10;
#X obj 144 25 inlet;
#X obj 77 276 outlet;
#X obj 223 28 inlet;
#X obj 43 158 t b f;
#X obj 68 183 bng 15 250 50 0 empty empty empty 0 -6 0 8 -262144 -1
-1;
#X obj 68 204 f;
#X obj 96 204 + 1;
#X obj 122 157 t b f;
#X obj 173 204 - 1;
#X floatatom 75 232 5 0 0 0 - - -;
#X obj 147 205 f;
#X obj 77 250 moses 100;
#X msg 91 182 100;
#X msg 150 248 0;
#X obj 149 228 moses 0;
#X obj 147 183 bng 15 250 50 0 empty empty empty 0 -6 0 8 -262144 -1
-1;
#X obj 43 107 sel %s;
#X obj 121 105 sel %s;
#X obj 46 30 keyname;
#X obj 130 60 pack s;
#X obj 196 62 pack s;
#X msg 129 494 \; \$1 color \$2 \$3;
#X obj 128 452 unpack s 0 0;
#X obj 129 472 pack s 0 0;
#X obj 92 398 symbol;
#X obj 210 399 symbol;
#X obj 120 364 sel 0 1;
#X obj 120 341 tgl 15 0 empty empty empty 0 -6 0 8 -262144 -1 -1 1
1;
#X obj 168 326 makefilename keyc%s;
#X obj 92 329 bng 15 250 50 0 empty empty empty 0 -6 0 8 -262144 -1
-1;
#X msg 91 424 \$1 -1.44745e+007 0;
#X msg 385 504 \; \$1 color \$2 \$3;
#X obj 384 462 unpack s 0 0;
#X obj 385 482 pack s 0 0;
#X obj 348 408 symbol;
#X obj 466 409 symbol;
#X obj 348 374 sel 0 1;
#X obj 348 351 tgl 15 0 empty empty empty 0 -6 0 8 -262144 -1 -1 1
1;
#X obj 396 336 makefilename keyc%s;
#X msg 347 434 \$1 -1.44745e+007 0;
#X msg 213 424 \$1 16 0;
#X msg 469 434 \$1 16 0;
#X obj 40 402 del 400;
#X obj 305 461 del 400;
#X connect 0 0 19 0;
#X connect 0 0 29 0;
#X connect 2 0 20 0;
#X connect 3 1 4 0;
#X connect 4 0 5 0;
#X connect 4 0 27 0;
#X connect 4 0 42 0;
#X connect 5 0 6 0;
#X connect 5 0 9 0;
#X connect 5 0 10 1;
#X connect 6 0 5 1;
#X connect 7 1 15 0;
#X connect 8 0 10 1;
#X connect 9 0 11 0;
#X connect 10 0 8 0;
#X connect 10 0 14 0;
#X connect 10 0 5 1;
#X connect 11 0 1 0;
#X connect 11 1 12 0;
#X connect 12 0 5 1;
#X connect 13 0 10 1;
#X connect 14 0 13 0;
#X connect 14 1 9 0;
#X connect 15 0 10 0;
#X connect 15 0 37 0;
#X connect 15 0 43 0;
#X connect 16 0 3 0;
#X connect 17 0 7 0;
#X connect 18 1 16 0;
#X connect 18 1 17 0;
#X connect 19 0 16 1;
#X connect 19 0 28 0;
#X connect 20 0 17 1;
#X connect 20 0 38 0;
#X connect 22 0 23 0;
#X connect 22 1 23 1;
#X connect 22 2 23 2;
#X connect 23 0 21 0;
#X connect 24 0 30 0;
#X connect 25 0 40 0;
#X connect 26 0 24 0;
#X connect 26 1 25 0;
#X connect 27 0 26 0;
#X connect 28 0 24 1;
#X connect 28 0 25 1;
#X connect 29 0 24 0;
#X connect 30 0 22 0;
#X connect 32 0 33 0;
#X connect 32 1 33 1;
#X connect 32 2 33 2;
#X connect 33 0 31 0;
#X connect 34 0 39 0;
#X connect 35 0 41 0;
#X connect 36 0 34 0;
#X connect 36 1 35 0;
#X connect 37 0 36 0;
#X connect 38 0 34 1;
#X connect 38 0 35 1;
#X connect 39 0 32 0;
#X connect 40 0 22 0;
#X connect 41 0 32 0;
#X connect 42 0 24 0;
#X connect 43 0 34 0;
