#N canvas 449 368 336 140 10;
#X obj 165 235 plugin~ tap_reverb;
#X msg 43 78 control #1 \$1;
#X msg 83 99 control #2 \$1;
#X msg 125 139 control #3 \$1;
#X msg 166 161 control #8 \$1;
#X floatatom 170 59 5 0 37 2 preset - -;
#X floatatom 21 59 5 0 10000 2 decay - -;
#X floatatom 69 59 5 -70 10 2 dry - -;
#X floatatom 118 59 5 -70 10 2 wet - -;
#X msg 218 80 control #4 \$1;
#X msg 235 100 control #5 \$1;
#X msg 252 121 control #6 \$1;
#X msg 269 141 control #7 \$1;
#X obj 217 57 tgl 15 0 empty empty c 0 -6 0 8 -262144 -1 -1 1 1;
#X obj 243 57 tgl 15 0 empty empty a 0 -6 0 8 -262144 -1 -1 1 1;
#X obj 268 57 tgl 15 0 empty empty b 0 -6 0 8 -262144 -1 -1 1 1;
#X obj 295 57 tgl 15 0 empty empty stereo 0 -6 0 8 -262144 -1 -1 0
1;
#X msg 116 31 8;
#X text 216 28 aet these to on:;
#X symbolatom 105 113 25 0 0 0 preset #0-reverb-preset -;
#N canvas 0 0 450 300 names 0;
#X obj 32 176 pool tap_reverb;
#X msg 65 154 get \$1;
#X obj 32 205 l2s;
#X obj 65 130 r \$0-p;
#X msg 32 94 load tap_reverb.dat;
#X obj 32 70 loadbang;
#X obj 32 231 s \$0-reverb-preset;
#X text 162 173 Pool is in the externals cvs.;
#X text 66 206 list2symbol is from zexy. you can bypass it.;
#X connect 0 0 2 0;
#X connect 1 0 0 0;
#X connect 2 0 6 0;
#X connect 3 0 1 0;
#X connect 4 0 0 0;
#X connect 5 0 4 0;
#X restore 161 263 pd names;
#X obj 169 80 s \$0-p;
#X msg 84 31 10;
#X msg 43 23 10000;
#X msg 47 144 print;
#X obj 226 204 inlet~;
#X obj 287 265 outlet~;
#X obj 225 263 outlet~;
#X obj 287 203 inlet~;
#X obj 401 24 inlet OSC;
#N canvas 0 0 981 424 saves 0;
#X msg 15 103 set;
#X msg 45 104 substate \$1;
#X obj 15 78 t b f;
#X obj 45 160 originator \$1 \$0;
#X obj 152 132 inlet OSC;
#X obj 507 86 r \$0-s1;
#X obj 507 110 commun /s1 \$0;
#X obj 606 86 r \$0-s2;
#X obj 606 110 commun /s2 \$0;
#X obj 507 135 s \$0-s1-r;
#X obj 606 135 s \$0-s2-r;
#X obj 47 55 r \$0-substate;
#X obj 15 13 inlet substate;
#X obj 15 35 route substate;
#X obj 159 55 r \$0-copy;
#X msg 159 76 copy;
#X obj 243 50 r \$0-paste;
#X msg 241 71 paste;
#X text 154 15 This is the originator \, including some ready to use
standard functionality.;
#X text 507 56 Put your commun sends here \, if you like.;
#X connect 0 0 3 0;
#X connect 1 0 3 0;
#X connect 2 0 0 0;
#X connect 2 1 1 0;
#X connect 4 0 3 1;
#X connect 5 0 6 0;
#X connect 6 0 9 0;
#X connect 7 0 8 0;
#X connect 8 0 10 0;
#X connect 11 0 2 0;
#X connect 12 0 13 0;
#X connect 13 0 2 0;
#X connect 13 1 3 0;
#X connect 14 0 15 0;
#X connect 15 0 3 0;
#X connect 16 0 17 0;
#X connect 17 0 3 0;
#X restore 339 23 pd saves;
#X connect 0 1 27 0;
#X connect 0 2 26 0;
#X connect 1 0 0 0;
#X connect 2 0 0 0;
#X connect 3 0 0 0;
#X connect 4 0 0 0;
#X connect 5 0 4 0;
#X connect 5 0 21 0;
#X connect 6 0 1 0;
#X connect 7 0 2 0;
#X connect 8 0 3 0;
#X connect 9 0 0 0;
#X connect 10 0 0 0;
#X connect 11 0 0 0;
#X connect 12 0 0 0;
#X connect 13 0 9 0;
#X connect 14 0 10 0;
#X connect 15 0 11 0;
#X connect 16 0 12 0;
#X connect 17 0 8 0;
#X connect 22 0 7 0;
#X connect 23 0 6 0;
#X connect 24 0 0 0;
#X connect 25 0 0 1;
#X connect 28 0 0 2;
#X connect 29 0 30 1;
#X coords 0 0 1 1 300 90 1;
