#N canvas 226 22 559 602 10;
#X obj 30 173 cnv 15 18 15 empty \$0dispcol1 empty 20 12 0 14 -128992
-262144 0;
#X obj 218 73 * -65536;
#X obj 281 73 * -256;
#X obj 351 73 * -1;
#X obj 351 98 t b f;
#X obj 281 130 +;
#X obj 281 161 t b f;
#X obj 282 194 +;
#X obj 282 221 - 1;
#X obj 282 252 list prepend;
#X obj 282 276 list trim;
#X obj 282 301 route 0 1 2;
#X obj 282 388 f;
#X obj 310 388 f;
#X obj 338 388 f;
#X obj 351 336 t b b f;
#X obj 287 336 t b f b;
#X obj 225 337 t f b b;
#X obj 279 473 pack f f f;
#X obj 279 500 list prepend color;
#X obj 30 106 vsl 15 60 0 255 0 0 \$0red \$0redR empty 0 -8 0 8 -258049
-1 -1 2938 1;
#X obj 50 106 vsl 15 60 0 255 0 0 \$0green \$0greenR empty 0 -8 0 8
-4033 -1 -1 2938 1;
#X obj 70 106 vsl 15 60 0 255 0 0 \$0blue \$0blueR empty 0 -8 0 8 -64
-1 -1 2938 1;
#X obj 279 526 list trim;
#X obj 52 90 hradio 10 1 0 3 \$0layer \$0layerr label 0 -4 0 8 -1 -262144
-1 2;
#X obj 361 224 r \$0layer;
#X obj 218 47 int;
#X obj 281 47 int;
#X obj 351 48 int;
#X obj 218 21 r \$0red;
#X obj 281 21 r \$0green;
#X obj 351 21 r \$0blue;
#X obj 41 96 bng 8 250 50 0 \$0nullS \$0nullR empty 0 -6 0 8 -260033
-1 -1;
#X obj 35 288 r \$0layer;
#X obj 35 313 sel 0 1 2;
#X msg 35 396 back;
#X msg 55 376 front;
#X msg 73 356 label;
#X obj 36 434 list prepend label;
#X obj 36 478 s \$0layerr;
#X obj 36 457 list trim;
#X obj 279 552 outlet;
#X msg 205 421 color \$1;
#X msg 294 422 color \$1;
#X obj 205 442 s \$0dispcol1;
#X obj 295 442 s \$0dispcol2;
#X msg 384 422 color \$1;
#X obj 385 442 s \$0dispcol3;
#X obj 49 173 cnv 15 18 15 empty \$0dispcol2 empty 20 12 0 14 -1 -262144
0;
#X obj 68 173 cnv 15 18 15 empty \$0dispcol3 empty 20 12 0 14 -1 -262144
0;
#X obj 421 500 list prepend set;
#X obj 421 526 list trim;
#X obj 421 552 outlet;
#N canvas 1016 679 458 308 init 0;
#X obj 130 260 s \$0layer;
#X msg 100 207 0;
#X msg 130 207 1;
#X msg 161 207 2;
#X msg 232 191 0;
#X obj 232 226 s \$0redR;
#X obj 232 244 s \$0greenR;
#X obj 232 262 s \$0blueR;
#X msg 202 191 127;
#X obj 89 57 t b b b b b b;
#X obj 89 33 loadbang;
#X connect 1 0 0 0;
#X connect 2 0 0 0;
#X connect 3 0 0 0;
#X connect 4 0 5 0;
#X connect 4 0 6 0;
#X connect 4 0 7 0;
#X connect 8 0 5 0;
#X connect 8 0 6 0;
#X connect 8 0 7 0;
#X connect 9 0 8 0;
#X connect 9 1 1 0;
#X connect 9 2 4 0;
#X connect 9 3 2 0;
#X connect 9 4 4 0;
#X connect 9 5 3 0;
#X connect 10 0 9 0;
#X restore 81 536 pd init;
#X obj 30 26 inlet;
#X obj 30 51 unpack f f f;
#X obj 133 150 colorpanel;
#X obj 133 171 list-map;
#X obj 187 171 * 255;
#X obj 32 82 bng 12 250 50 0 \$0.colorpanel.s \$0.colorpanel.r C 3
7 0 8 -212800 -1 -1;
#X obj 133 126 r \$0.colorpanel.s;
#X connect 1 0 7 0;
#X connect 2 0 5 0;
#X connect 3 0 4 0;
#X connect 4 0 5 0;
#X connect 4 1 5 1;
#X connect 5 0 6 0;
#X connect 6 0 7 0;
#X connect 6 1 7 1;
#X connect 7 0 8 0;
#X connect 8 0 9 0;
#X connect 9 0 10 0;
#X connect 10 0 11 0;
#X connect 11 0 17 0;
#X connect 11 1 16 0;
#X connect 11 2 15 0;
#X connect 12 0 18 0;
#X connect 12 0 42 0;
#X connect 13 0 18 1;
#X connect 13 0 43 0;
#X connect 14 0 18 2;
#X connect 14 0 46 0;
#X connect 15 0 12 0;
#X connect 15 1 13 0;
#X connect 15 2 14 0;
#X connect 16 0 12 0;
#X connect 16 1 13 0;
#X connect 16 2 14 0;
#X connect 17 0 12 0;
#X connect 17 1 13 0;
#X connect 17 2 14 0;
#X connect 18 0 19 0;
#X connect 19 0 23 0;
#X connect 19 0 50 0;
#X connect 23 0 41 0;
#X connect 25 0 9 1;
#X connect 26 0 1 0;
#X connect 27 0 2 0;
#X connect 28 0 3 0;
#X connect 29 0 26 0;
#X connect 30 0 27 0;
#X connect 31 0 28 0;
#X connect 32 0 20 0;
#X connect 32 0 21 0;
#X connect 32 0 22 0;
#X connect 33 0 34 0;
#X connect 34 0 35 0;
#X connect 34 1 36 0;
#X connect 34 2 37 0;
#X connect 35 0 38 0;
#X connect 36 0 38 0;
#X connect 37 0 38 0;
#X connect 38 0 40 0;
#X connect 40 0 39 0;
#X connect 42 0 44 0;
#X connect 43 0 45 0;
#X connect 46 0 47 0;
#X connect 50 0 51 0;
#X connect 51 0 52 0;
#X connect 54 0 55 0;
#X connect 55 0 20 0;
#X connect 55 1 21 0;
#X connect 55 2 22 0;
#X connect 56 0 57 0;
#X connect 57 0 55 0;
#X connect 57 1 58 0;
#X connect 58 0 57 1;
#X connect 60 0 56 0;
#X coords 0 -1 1 1 56 109 2 30 80;
