#N canvas 662 22 695 753 10;

#X obj 121 143 moses 0.5;
#X obj 190 79 v \$0h;
#X obj 224 79 v \$0s;
#X obj 259 79 v \$0l;
#X obj 190 40 unpack f f f;
#X obj 121 110 v \$0l;
#X obj 181 293 v \$0q;
#X obj 121 229 *;
#X obj 148 212 + 1;
#X obj 148 188 v \$0s;
#X obj 121 166 t f b;
#X obj 251 214 *;
#X obj 256 184 v \$0s;
#X obj 216 251 -;
#X obj 216 215 +;
#X obj 217 160 t f f b;
#X obj 51 119 v \$0l;
#X obj 51 144 * 2;
#X obj 51 168 t f b;
#X obj 66 194 v \$0q;
#X obj 51 221 -;
#X obj 51 244 v \$0p;
#X obj 34 17 inlet;
#X obj 34 274 v \$0h;
#X obj 34 332 + 0.33333;
#X obj 34 305 t f f f;
#X obj 73 361 - 0.33333;
#X obj 34 76 t b b b a;
#X obj 34 395 pack f f f;
#X obj 34 424 list-map;
#X obj 34 505 list-map;
#X obj 315 482 moses 0.5;
#X obj 315 515 t b;
#X obj 315 546 v \$0q;
#X obj 167 657 +;
#X obj 182 635 v \$0p;
#X obj 167 606 t f b;
#X obj 222 562 v \$0q;
#X obj 261 562 v \$0p;
#X obj 167 505 * 6;
#X obj 167 529 t f b b;
#X obj 167 482 moses 0.166667;
#X obj 222 589 -;
#X obj 167 572 *;
#X obj 167 683 s \$0colorCalced;
#X obj 315 571 s \$0colorCalced;
#X obj 437 482 moses 0.666667;
#X obj 437 687 +;
#X obj 452 665 v \$0p;
#X obj 437 636 t f b;
#X obj 492 592 v \$0q;
#X obj 531 592 v \$0p;
#X obj 437 535 * 6;
#X obj 437 559 t f b b;
#X obj 492 619 -;
#X obj 437 602 *;
#X obj 437 713 s \$0colorCalced;
#X obj 437 509 expr 0.666667 - $f1;
#X obj 582 481 t b;
#X obj 582 537 s \$0colorCalced;
#X obj 582 512 v \$0p;
#X obj 79 459 r \$0colorCalced;
#X obj 34 717 outlet;
#N canvas 0 22 182 204 restrict 0;
#X obj 25 26 inlet;
#X obj 25 162 outlet;
#X obj 91 98 div 1;
#X obj 64 119 -;
#X obj 64 74 t f f;
#X obj 25 48 moses 0;
#X obj 25 97 + 1;
#X connect 0 0 5 0;
#X connect 2 0 3 1;
#X connect 3 0 1 0;
#X connect 4 0 3 0;
#X connect 4 1 2 0;
#X connect 5 0 6 0;
#X connect 5 1 4 0;
#X connect 6 0 1 0;
#X restore 97 424 pd restrict;
#X obj 372 52 import-disabled list-abs;
#X connect 0 0 10 0;
#X connect 0 1 15 0;
#X connect 4 0 1 0;
#X connect 4 1 2 0;
#X connect 4 2 3 0;
#X connect 5 0 0 0;
#X connect 7 0 6 0;
#X connect 8 0 7 1;
#X connect 9 0 8 0;
#X connect 10 0 7 0;
#X connect 10 1 9 0;
#X connect 11 0 13 1;
#X connect 12 0 11 1;
#X connect 12 0 14 1;
#X connect 13 0 6 0;
#X connect 14 0 13 0;
#X connect 15 0 14 0;
#X connect 15 1 11 0;
#X connect 15 2 12 0;
#X connect 16 0 17 0;
#X connect 17 0 18 0;
#X connect 18 0 20 0;
#X connect 18 1 19 0;
#X connect 19 0 20 1;
#X connect 20 0 21 0;
#X connect 22 0 27 0;
#X connect 23 0 25 0;
#X connect 24 0 28 0;
#X connect 25 0 24 0;
#X connect 25 1 28 1;
#X connect 25 2 26 0;
#X connect 26 0 28 2;
#X connect 27 0 23 0;
#X connect 27 1 16 0;
#X connect 27 2 5 0;
#X connect 27 3 4 0;
#X connect 28 0 29 0;
#X connect 29 0 30 0;
#X connect 29 1 63 0;
#X connect 30 0 62 0;
#X connect 30 1 41 0;
#X connect 31 0 32 0;
#X connect 31 1 46 0;
#X connect 32 0 33 0;
#X connect 33 0 45 0;
#X connect 34 0 44 0;
#X connect 35 0 34 1;
#X connect 36 0 34 0;
#X connect 36 1 35 0;
#X connect 37 0 42 0;
#X connect 38 0 42 1;
#X connect 39 0 40 0;
#X connect 40 0 43 0;
#X connect 40 1 37 0;
#X connect 40 2 38 0;
#X connect 41 0 39 0;
#X connect 41 1 31 0;
#X connect 42 0 43 1;
#X connect 43 0 36 0;
#X connect 46 0 57 0;
#X connect 46 1 58 0;
#X connect 47 0 56 0;
#X connect 48 0 47 1;
#X connect 49 0 47 0;
#X connect 49 1 48 0;
#X connect 50 0 54 0;
#X connect 51 0 54 1;
#X connect 52 0 53 0;
#X connect 53 0 55 0;
#X connect 53 1 50 0;
#X connect 53 2 51 0;
#X connect 54 0 55 1;
#X connect 55 0 49 0;
#X connect 57 0 52 0;
#X connect 58 0 60 0;
#X connect 60 0 59 0;
#X connect 61 0 30 1;
#X connect 63 0 29 1;
