#N canvas 142 461 444 327 10;
#X obj 167 34 inlet;
#X obj 286 189 list split 1;
#X obj 286 215 swap-any;
#X msg 331 243 will_set_\$1;
#X obj 286 272 delegate \$1;
#X obj 186 299 outlet;
#X obj 167 97 t a a a;
#X obj 46 189 list split 1;
#X obj 46 215 swap-any;
#X obj 46 272 delegate \$1;
#X msg 91 243 did_set_\$1;
#X obj 286 150 list prepend;
#X obj 46 150 list prepend;
#X obj 232 76 loadbang;
#X obj 232 98 list-onearg \$2;
#X text 18 11 [delegate_setter unique *name];
#X text 201 10 *optional;
#X connect 0 0 6 0;
#X connect 1 0 2 0;
#X connect 1 1 2 1;
#X connect 2 0 4 0;
#X connect 2 1 3 0;
#X connect 3 0 4 1;
#X connect 6 0 12 0;
#X connect 6 1 5 0;
#X connect 6 2 11 0;
#X connect 7 0 8 0;
#X connect 7 1 8 1;
#X connect 8 0 9 0;
#X connect 8 1 10 0;
#X connect 10 0 9 1;
#X connect 11 0 1 0;
#X connect 12 0 7 0;
#X connect 13 0 14 0;
#X connect 14 0 11 1;
#X connect 14 0 12 1;
