#N canvas 285 439 450 300 10;
#X obj 151 211 sendmany;
#X obj 196 150 list-map;
#X obj 265 144 list prepend \$1;
#X obj 196 112 inlet;
#X obj 151 112 inlet;
#X msg 265 170 \$1*\$2-dispatcher;
#X connect 1 0 0 1;
#X connect 1 1 2 0;
#X connect 2 0 5 0;
#X connect 3 0 1 0;
#X connect 4 0 0 0;
#X connect 5 0 1 1;
