#N canvas 0 22 293 288 10;
#X obj 29 37 inlet;
#X obj 29 243 outlet;
#X obj 80 88 r \$1;
#X obj 80 125 == 1;
#X obj 152 38 loadbang;
#X obj 152 59 list append \$2;
#X msg 152 108 0;
#X obj 152 84 sel false;
#X obj 29 156 spigot \$3;
#X obj 151 243 outlet;
#X connect 0 0 8 0;
#X connect 2 0 3 0;
#X connect 3 0 8 1;
#X connect 3 0 9 0;
#X connect 4 0 5 0;
#X connect 5 0 7 0;
#X connect 6 0 3 1;
#X connect 7 0 6 0;
#X connect 8 0 1 0;
