#N canvas 11 461 208 158 10;
#X obj 77 28 keynameonly \$1;
#X obj 32 27 inlet;
#X obj 32 51 t a a;
#X obj 102 92 spigot;
#X obj 77 51 == 0;
#X obj 32 91 spigot 1;
#X obj 32 115 outlet;
#X obj 102 115 outlet;
#X connect 0 0 4 0;
#X connect 0 0 3 1;
#X connect 1 0 2 0;
#X connect 2 0 5 0;
#X connect 2 1 3 0;
#X connect 3 0 7 0;
#X connect 4 0 5 1;
#X connect 5 0 6 0;
