#N canvas 42 170 239 311 10;
#X obj 72 131 list split 1;
#X obj 72 181 t b a;
#X msg 129 155 0;
#X obj 25 247 outlet;
#X obj 105 87 inlet learn?;
#X obj 144 249 outlet;
#X obj 72 155 spigot;
#X obj 25 58 r OSCIN;
#X obj 144 183 inlet;
#X obj 25 218 sdeeprouteOSC \$1;
#X connect 0 0 6 0;
#X connect 1 0 2 0;
#X connect 1 1 5 0;
#X connect 1 1 9 1;
#X connect 2 0 6 1;
#X connect 4 0 6 1;
#X connect 6 0 1 0;
#X connect 7 0 0 0;
#X connect 7 0 9 0;
#X connect 8 0 9 1;
#X connect 9 0 3 0;
