#N canvas 611 258 453 367 10;
#X obj 69 177 list split \$1;
#X obj 173 178 list split;
#X obj 238 125 \$1;
#X obj 238 151 + \$2;
#X obj 263 125 loadbang;
#X obj 238 69 inlet;
#X obj 357 16 inlet;
#X obj 357 72 t b f;
#X obj 69 18 inlet;
#X obj 69 48 t a a;
#X obj 69 237 list append;
#X obj 69 280 outlet;
#X obj 238 221 b;
#X connect 0 0 10 0;
#X connect 1 1 10 1;
#X connect 1 2 12 0;
#X connect 2 0 3 0;
#X connect 3 0 1 1;
#X connect 4 0 2 0;
#X connect 5 0 2 0;
#X connect 5 0 0 1;
#X connect 6 0 7 0;
#X connect 7 0 2 0;
#X connect 7 1 3 1;
#X connect 8 0 9 0;
#X connect 9 0 0 0;
#X connect 9 1 1 0;
#X connect 10 0 11 0;
#X connect 12 0 10 1;
