#N canvas 740 324 394 353 10;
#X obj 19 168 osc~ 440;
#X obj 89 168 osc~ 550;
#X obj 159 168 osc~ 660;
#X obj 163 322 outlet~;
#X obj 113 322 outlet~;
#X obj 34 322 outlet;
#X obj 249 181 inlet~;
#X obj 309 181 inlet~;
#X obj 113 255 *~;
#X obj 89 114 * 1.25;
#X obj 159 114 * 1.5;
#X obj 163 255 *~;
#X obj 113 207 +~;
#X obj 20 27 inlet;
#X obj 59 27 loadbang;
#X obj 20 57 f \$1;
#X connect 0 0 12 0;
#X connect 1 0 12 0;
#X connect 2 0 12 0;
#X connect 6 0 8 1;
#X connect 7 0 11 1;
#X connect 8 0 4 0;
#X connect 9 0 1 0;
#X connect 10 0 2 0;
#X connect 11 0 3 0;
#X connect 12 0 8 0;
#X connect 12 0 11 0;
#X connect 13 0 15 0;
#X connect 14 0 15 0;
#X connect 15 0 0 0;
#X connect 15 0 9 0;
#X connect 15 0 10 0;
