#N canvas 1010 279 259 224 10;
#X obj 39 42 inlet;
#X obj 120 42 inlet;
#X obj 39 72 t b a;
#X obj 178 167 outlet;
#X obj 39 164 outlet;
#X obj 39 137 list append \$1;
#X connect 0 0 2 0;
#X connect 1 0 5 1;
#X connect 2 0 5 0;
#X connect 2 1 3 0;
#X connect 5 0 4 0;
