#N canvas 804 104 455 638 10;
#X obj 133 328 textfile;
#X obj 133 376 route #X;
#X obj 133 397 route connect;
#X obj 80 281 until;
#X obj 80 155 t b b;
#X obj 30 26 loadbang;
#X obj 133 445 unpack f f f f;
#X obj 133 529 pack f f f f;
#X obj 133 591 sendcanvas 1;
#X obj 179 489 +;
#X obj 133 489 +;
#X msg 133 561 connect \$1 \$2 \$3 \$4;
#X obj 99 108 canvasindex;
#X obj 229 419 sendcanvas 1;
#X obj 322 372 canvasposition;
#X obj 80 84 t b b b;
#X obj 132 184 list append \$1;
#X obj 132 208 route float;
#X msg 133 245 read \$1-template.pd \, rewind;
#X obj 322 349 sel 0;
#X text 304 16 *optional;
#X obj 322 326 list append \$2;
#X text 86 16 [templater templatename absolute?*];
#X text 316 612 2008 Luke Iannini;
#X obj 143 85 s \$0-get_position;
#X obj 322 302 r \$0-get_position;
#N canvas 342 115 467 373 offset_coords 0;
#X obj 47 3 inlet;
#X obj 46 334 outlet;
#X obj 47 78 list split 1;
#X obj 96 113 list split 2;
#X obj 110 256 list append;
#X obj 47 282 list append;
#X obj 194 181 +;
#X obj 194 152 unpack f f;
#X obj 209 94 unpack f f;
#X obj 251 182 +;
#X obj 194 211 pack f f;
#X obj 208 62 inlet;
#X obj 46 309 list trim;
#X connect 0 0 2 0;
#X connect 2 0 5 0;
#X connect 2 1 3 0;
#X connect 3 0 7 0;
#X connect 3 1 4 1;
#X connect 4 0 5 1;
#X connect 5 0 12 0;
#X connect 6 0 10 0;
#X connect 7 0 6 0;
#X connect 7 1 9 0;
#X connect 8 0 6 1;
#X connect 8 1 9 1;
#X connect 9 0 10 1;
#X connect 10 0 4 0;
#X connect 11 0 8 0;
#X connect 12 0 1 0;
#X restore 229 397 pd offset_coords;
#X obj 238 453 r \$0-index_offset;
#X obj 162 135 s \$0-index_offset;
#X obj 30 51 t b b;
#X obj 30 369 canvasdelete 1;
#X connect 0 0 1 0;
#X connect 0 1 3 1;
#X connect 1 0 2 0;
#X connect 2 0 6 0;
#X connect 2 1 26 0;
#X connect 3 0 0 0;
#X connect 4 0 3 0;
#X connect 4 1 16 0;
#X connect 5 0 29 0;
#X connect 6 0 10 0;
#X connect 6 1 7 1;
#X connect 6 2 9 0;
#X connect 6 3 7 3;
#X connect 7 0 11 0;
#X connect 9 0 7 2;
#X connect 10 0 7 0;
#X connect 11 0 8 0;
#X connect 12 1 28 0;
#X connect 14 0 26 1;
#X connect 15 0 4 0;
#X connect 15 1 12 0;
#X connect 15 2 24 0;
#X connect 16 0 17 0;
#X connect 17 1 18 0;
#X connect 18 0 0 0;
#X connect 19 0 14 0;
#X connect 21 0 19 0;
#X connect 25 0 21 0;
#X connect 26 0 13 0;
#X connect 27 0 10 1;
#X connect 27 0 9 1;
#X connect 29 0 30 0;
#X connect 29 1 15 0;
