#N canvas 0 22 450 300 10;
#X obj 185 160 / 2;
#X obj 123 33 inlet;
#X obj 123 249 outlet;
#X obj 123 189 sel 0 1;
#X obj 123 124 t a a;
#X obj 123 216 f;
#X obj 123 159 >;
#X obj 188 249 outlet;
#X obj 123 84 time-last_measure_was;
#X obj 188 219 time-next_measure;
#X obj 185 129 get_delegate time-clock next_measure_in;
#X connect 0 0 6 1;
#X connect 1 0 8 0;
#X connect 3 0 5 0;
#X connect 3 1 9 0;
#X connect 4 0 6 0;
#X connect 4 1 5 1;
#X connect 5 0 2 0;
#X connect 6 0 3 0;
#X connect 8 0 4 0;
#X connect 9 0 7 0;
#X connect 10 0 0 0;
