#N canvas 563 103 450 300 10;
#X obj 129 107 inlet;
#X obj 102 159 timer;
#X obj 129 129 t b;
#X obj 102 193 outlet;
#X obj 102 82 get_delegate time-clock tick;
#X connect 0 0 2 0;
#X connect 1 0 3 0;
#X connect 2 0 1 1;
#X connect 4 0 1 0;
