#N canvas 897 174 497 445 10;
#N canvas 0 22 450 300 (subpatch) 0;
#X array \$0-ch0 64 float 2;
#X coords 0 1 63 -1 50 100 1;
#X restore 59 187 graph;
#N canvas 0 22 450 300 (subpatch) 0;
#X array \$0-ch1 64 float 2;
#X coords 0 1 63 -1 50 100 1;
#X restore 109 187 graph;
#X obj 150 177 tgl 10 0 \$0-on?-s \$0-on?-r empty 17 7 0 10 -191407
-4032 -1 1 1;
#X obj 150 155 loadbang;
#X obj 261 95 inlet~;
#X obj 409 340 metro 50;
#X obj 332 396 tabwrite~ \$0-ch0;
#X obj 377 416 tabwrite~ \$0-ch1;
#X obj 409 317 r \$0-on?-s;
#X obj 302 266 *~;
#X obj 347 266 *~;
#X obj 361 95 inlet~;
#X obj 381 123 expr~ $v1 == 0;
#X obj 281 123 expr~ $v1 == 0;
#X obj 281 150 expr~ $v1 != 0;
#X obj 381 150 expr~ $v1 != 0;
#X obj 262 266 *~;
#X obj 392 266 *~;
#X obj 302 208 adc~ 1 2;
#X connect 3 0 2 0;
#X connect 4 0 13 0;
#X connect 4 0 14 0;
#X connect 4 0 16 0;
#X connect 5 0 6 0;
#X connect 5 0 7 0;
#X connect 8 0 5 0;
#X connect 9 0 6 0;
#X connect 10 0 7 0;
#X connect 11 0 12 0;
#X connect 11 0 15 0;
#X connect 11 0 17 0;
#X connect 12 0 10 1;
#X connect 13 0 9 1;
#X connect 14 0 16 1;
#X connect 15 0 17 1;
#X connect 16 0 6 0;
#X connect 17 0 7 0;
#X connect 18 0 9 0;
#X connect 18 1 10 0;
#X coords 0 -1 1 1 110 119 2 54 173;
