#N canvas 0 22 462 312 10;
#X text 64 47 Gemchain;
#X obj 37 170 pix_invert;
#X text 19 10 colour Negative;
#X obj 24 81 arrayRouterIn \$1 \$2;
#X obj 37 215 arrayRouterOut \$1 \$2;
#X obj 49 194 outlet;
#X connect 1 0 4 0;
#X connect 1 0 5 0;
#X connect 3 0 1 0;
