#N canvas 0 22 478 328 10;
#X obj 130 147 inlet;
#X obj 54 191 inlet;
#X text 33 53 Gemchain;
#X text 106 53 fxAmount 0-1;
#X obj 38 221 pix_scanline;
#X obj 118 196 * 500;
#X obj 24 81 arrayRouterIn \$1 \$2;
#X obj 38 285 arrayRouterOut \$1 \$2;
#X obj 117 173 interp1;
#X obj 53 253 outlet;
#X connect 0 0 8 0;
#X connect 1 0 4 0;
#X connect 4 0 7 0;
#X connect 4 0 9 0;
#X connect 5 0 4 1;
#X connect 6 0 4 0;
#X connect 6 1 8 0;
#X connect 8 0 5 0;
