#N canvas 1633 31 874 441 10;
#X msg 432 88 load medias/sounds/loop1.wav;
#X obj 432 56 loadbang;
#X obj 432 142 sampler.sample \$0s;
#X obj 106 238 sampler.sample.dump;
#X obj 106 186 f \$0;
#X msg 106 209 \$1s;
#X obj 106 160 bng 15 250 50 0 empty empty empty 17 7 0 10 -262144
-1 -1;
#X obj 46 282 print TABLEL;
#X text 32 23 Description: Dumps the format and tables of a sample
stored in a sampler.sample.;
#X obj 128 282 print TABLER;
#X obj 216 284 print FRAMES;
#X obj 298 284 print SAMPLERATE;
#X obj 407 284 print CHANNELS;
#X text 26 103 Inlet 1 messages: The name of the sampler.sample;
#X connect 0 0 2 0;
#X connect 1 0 0 0;
#X connect 3 0 7 0;
#X connect 3 1 9 0;
#X connect 3 2 10 0;
#X connect 3 3 11 0;
#X connect 3 4 12 0;
#X connect 4 0 5 0;
#X connect 5 0 3 0;
#X connect 6 0 4 0;
