#N canvas 372 103 208 379 12;
#X obj 16 15 inlet;
#X obj 106 16 inlet;
#X obj 105 78 gate;
#X msg 16 77 0;
#X msg 50 77 1023;
#X obj 143 153 f;
#X obj 54 154 f;
#X obj 106 153 min;
#X obj 16 153 max;
#X obj 80 349 outlet;
#X obj 16 44 select 1;
#X obj 106 112 t f f;
#X obj 16 114 t f f;
#X obj 80 259 range;
#X msg 106 226 0;
#X msg 141 226 1023;
#X obj 106 196 loadbang;
#X obj 80 287 min 1023;
#X obj 80 317 max 0;
#X connect 0 0 2 1;
#X connect 0 0 10 0;
#X connect 1 0 2 0;
#X connect 1 0 13 0;
#X connect 2 0 7 0;
#X connect 2 0 8 0;
#X connect 3 0 12 0;
#X connect 4 0 11 0;
#X connect 5 0 7 1;
#X connect 6 0 8 1;
#X connect 7 0 5 0;
#X connect 7 0 13 1;
#X connect 8 0 6 0;
#X connect 8 0 13 2;
#X connect 10 0 3 0;
#X connect 10 0 4 0;
#X connect 11 0 7 0;
#X connect 11 1 7 1;
#X connect 12 0 8 0;
#X connect 12 1 8 1;
#X connect 13 0 17 0;
#X connect 14 0 13 3;
#X connect 15 0 13 4;
#X connect 16 0 14 0;
#X connect 16 0 15 0;
#X connect 17 0 18 0;
#X connect 18 0 9 0;
