#N canvas 13 121 882 333 16;
#X obj 443 18 vsl 50 256 0 1023 0 0 empty S09 empty 20 8 64 8 -260818
-1 -1 0 1;
#X obj 496 18 vsl 50 256 0 1023 0 0 empty S10 empty 20 8 64 8 -260818
-1 -1 0 1;
#X obj 549 18 vsl 50 256 0 1023 0 0 empty S11 empty 20 8 64 8 -260818
-1 -1 0 1;
#X obj 602 18 vsl 50 256 0 1023 0 0 empty S12 empty 20 8 64 8 -260818
-1 -1 0 1;
#X obj 655 18 vsl 50 256 0 1023 0 0 empty S13 empty 20 8 64 8 -260818
-1 -1 0 1;
#X obj 708 18 vsl 50 256 0 1023 0 0 empty S14 empty 20 8 64 8 -260818
-1 -1 0 1;
#X obj 761 18 vsl 50 256 0 1023 0 0 empty S15 empty 20 8 64 8 -260818
-1 -1 0 1;
#X obj 814 18 vsl 50 256 0 1023 0 0 empty S16 empty 20 8 64 8 -260818
-1 -1 0 1;
#X text 504 299 S10;
#X text 27 301 S01;
#X text 78 301 S02;
#X text 132 300 S03;
#X text 190 300 S04;
#X text 242 299 S05;
#X text 293 299 S06;
#X text 347 298 S07;
#X text 398 298 S08;
#X text 450 298 S09;
#X text 556 299 S11;
#X text 611 300 S12;
#X text 662 300 S13;
#X text 719 300 S14;
#X text 769 299 S15;
#X text 820 300 S16;
#X obj 19 18 vsl 50 256 0 1023 0 0 empty S01 empty 20 8 64 8 -260818
-1 -1 0 1;
#X obj 72 18 vsl 50 256 0 1023 0 0 empty S02 empty 20 8 64 8 -260818
-1 -1 0 1;
#X obj 125 18 vsl 50 256 0 1023 0 0 empty S03 empty 20 8 64 8 -260818
-1 -1 0 1;
#X obj 178 18 vsl 50 256 0 1023 0 0 empty S04 empty 20 8 64 8 -260818
-1 -1 0 1;
#X obj 231 18 vsl 50 256 0 1023 0 0 empty S05 empty 20 8 64 8 -260818
-1 -1 0 1;
#X obj 284 18 vsl 50 256 0 1023 0 0 empty S06 empty 20 8 64 8 -260818
-1 -1 0 1;
#X obj 337 18 vsl 50 256 0 1023 0 0 empty S07 empty 20 8 64 8 -260818
-1 -1 0 1;
#X obj 390 18 vsl 50 256 0 1023 0 0 empty S08 empty 20 8 64 8 -260818
-1 -1 0 1;
#X obj 20 282 nbx 4 14 -1e+037 1e+037 0 0 empty S01 empty 0 -6 64 10
-262144 -1 -1 1094 256;
#X obj 73 282 nbx 4 14 -1e+037 1e+037 0 0 empty S02 empty 0 -6 64 10
-262144 -1 -1 0 256;
#X obj 127 282 nbx 4 14 -1e+037 1e+037 0 0 empty S03 empty 0 -6 64
10 -262144 -1 -1 0 256;
#X obj 180 282 nbx 4 14 -1e+037 1e+037 0 0 empty S04 empty 0 -6 64
10 -262144 -1 -1 0 256;
#X obj 232 282 nbx 4 14 -1e+037 1e+037 0 0 empty S05 empty 0 -6 64
10 -262144 -1 -1 0 256;
#X obj 285 282 nbx 4 14 -1e+037 1e+037 0 0 empty S06 empty 0 -6 64
10 -262144 -1 -1 0 256;
#X obj 339 282 nbx 4 14 -1e+037 1e+037 0 0 empty S07 empty 0 -6 64
10 -262144 -1 -1 0 256;
#X obj 392 282 nbx 4 14 -1e+037 1e+037 0 0 empty S08 empty 0 -6 64
10 -262144 -1 -1 0 256;
#X obj 444 282 nbx 4 14 -1e+037 1e+037 0 0 empty S09 empty 0 -6 64
10 -262144 -1 -1 0 256;
#X obj 497 282 nbx 4 14 -1e+037 1e+037 0 0 empty S10 empty 0 -6 64
10 -262144 -1 -1 0 256;
#X obj 551 282 nbx 4 14 -1e+037 1e+037 0 0 empty S11 empty 0 -6 64
10 -262144 -1 -1 0 256;
#X obj 604 282 nbx 4 14 -1e+037 1e+037 0 0 empty S12 empty 0 -6 64
10 -262144 -1 -1 0 256;
#X obj 656 282 nbx 4 14 -1e+037 1e+037 0 0 empty S13 empty 0 -6 64
10 -262144 -1 -1 0 256;
#X obj 709 282 nbx 4 14 -1e+037 1e+037 0 0 empty S14 empty 0 -6 64
10 -262144 -1 -1 0 256;
#X obj 763 282 nbx 4 14 -1e+037 1e+037 0 0 empty S15 empty 0 -6 64
10 -262144 -1 -1 0 256;
#X obj 816 282 nbx 4 14 -1e+037 1e+037 0 0 empty S16 empty 0 -6 64
10 -262144 -1 -1 0 256;
