#N canvas 334 70 578 383 12;
#X obj 404 197 outlet;
#X obj 283 197 outlet;
#X obj 170 197 outlet;
#X obj 49 197 outlet;
#X obj 404 169 +;
#X obj 422 110 << 4;
#X obj 422 138 t b f;
#X obj 283 169 +;
#X obj 302 138 t b f;
#X obj 170 169 +;
#X obj 189 138 t b f;
#X obj 49 169 +;
#X obj 68 138 t b f;
#X obj 68 110 << 4;
#X obj 189 110 << 4;
#X obj 302 110 << 4;
#X obj 49 55 ctlin 56 11;
#X obj 68 82 ctlin 57 11;
#X obj 170 55 ctlin 54 11;
#X obj 189 82 ctlin 55 11;
#X obj 283 55 ctlin 52 11;
#X obj 302 82 ctlin 53 11;
#X obj 404 55 ctlin 50 11;
#X obj 422 82 ctlin 51 11;
#X connect 4 0 0 0;
#X connect 5 0 6 0;
#X connect 6 0 4 0;
#X connect 6 1 4 1;
#X connect 7 0 1 0;
#X connect 8 0 7 0;
#X connect 8 1 7 1;
#X connect 9 0 2 0;
#X connect 10 0 9 0;
#X connect 10 1 9 1;
#X connect 11 0 3 0;
#X connect 12 0 11 0;
#X connect 12 1 11 1;
#X connect 13 0 12 0;
#X connect 14 0 10 0;
#X connect 15 0 8 0;
#X connect 16 0 11 0;
#X connect 17 0 13 0;
#X connect 18 0 9 0;
#X connect 19 0 14 0;
#X connect 20 0 7 0;
#X connect 21 0 15 0;
#X connect 22 0 4 0;
#X connect 23 0 5 0;
