#N canvas 331 197 775 574 10;
#X obj 441 339 pluck~;
#X obj 45 71 sseq16;
#X obj 262 71 sseq;
#X obj 438 397 ezdac~;
#X obj 429 363 gpan~;
#X obj 204 254 multipack;
#X obj 206 298 ctlearn 0 1;
#X obj 204 358 ctlearn_gop 0 127;
#X msg 291 297 10 1;
#X obj 438 34 sseq16n;
#X obj 505 34 sseq16n;
#X obj 439 292 stripnote;
#X obj 441 315 pack 0 0;
#X obj 482 9 r beat;
#X obj 645 117 metro 120;
#X obj 645 93 tgl 15 0 empty empty empty 0 -6 0 8 -262144 -1 -1 1 1
;
#X obj 645 177 mod 16;
#X obj 645 145 f 0;
#X obj 671 145 + 1;
#X obj 640 200 s beat;
#X obj 389 329 print;
#X obj 439 271 makenote 0 200;
#X obj 359 253 select 0;
#X obj 500 255 select 0;
#X connect 0 0 4 0;
#X connect 0 0 4 1;
#X connect 4 0 3 0;
#X connect 4 1 3 1;
#X connect 6 1 8 0;
#X connect 8 0 6 1;
#X connect 9 0 22 0;
#X connect 10 0 23 0;
#X connect 11 0 12 0;
#X connect 11 1 12 1;
#X connect 12 0 0 0;
#X connect 13 0 9 0;
#X connect 13 0 10 0;
#X connect 14 0 17 0;
#X connect 15 0 14 0;
#X connect 16 0 19 0;
#X connect 17 0 18 0;
#X connect 17 0 16 0;
#X connect 18 0 17 1;
#X connect 21 0 11 0;
#X connect 21 0 20 0;
#X connect 21 1 11 1;
#X connect 22 1 21 0;
#X connect 23 1 21 1;
