#N canvas 296 365 450 300 10;
#X obj 209 155 makefilename s%d;
#X obj 208 210 outlet;
#X text 56 92 1 arg: midi channel;
#X text 72 228 note;
#X obj 354 36 inlet;
#X obj 209 181 pack s 0;
#X obj 229 107 f;
#X obj 260 109 + 1;
#X obj 330 103 t b f;
#X msg 187 43 1;
#X msg 229 43 15;
#X obj 229 68 until;
#X connect 0 0 5 0;
#X connect 4 0 8 0;
#X connect 5 0 1 0;
#X connect 6 0 7 0;
#X connect 6 0 0 0;
#X connect 7 0 6 1;
#X connect 8 0 9 0;
#X connect 8 0 10 0;
#X connect 8 1 5 1;
#X connect 9 0 6 0;
#X connect 10 0 11 0;
#X connect 11 0 6 0;
