#N struct drawtut-attr-cont float x float y;
#N canvas 2 25 638 671 10;
#X msg 93 112 fill red;
#X text 0 1 New Drawing Commands: attributes (continued);
#X text 0 1 ____________________________________________;
#X text 53 23 There are quite a few attributes we can control to change
the appearance of a shape:;
#X obj 53 57 struct drawtut-attr-cont float x float y;
#X scalar drawtut-attr-cont 24 283 \;;
#X text 200 112 fill color. 1 symbol \, 3 floats (rgb) \, or 4 floats
(rgba);
#X text 200 170 opacity for fill color. float in range 0-1;
#X msg 100 169 fill-opacity \$1;
#X text 200 196 fill-rule for overlapping polygons. 0 = nonzero \,
1 = evenodd;
#X floatatom 113 221 5 0 0 0 - - -, f 5;
#X floatatom 120 266 5 0 0 0 - - -, f 5;
#X msg 113 243 rx \$1;
#X msg 120 290 ry \$1;
#X text 160 243 x value for rounded rectangle corner;
#X text 164 291 y value for rounded rectangle corner;
#X text 214 317 stroke color. 1 symbol \, 3 floats (rgb) \, or 4 floats
(rgba);
#X text 278 374 list of numbers to specify dash lengths;
#X msg 144 401 stroke-linecap 0;
#X text 258 401 for ends of open subpaths. 0 = butt \, 1 = round \,
2 = square;
#X text 268 429 shape of path corners. 0 = miter \, 1 = round \, 2
= bevel;
#X text 290 455 limit miter length;
#X text 290 482 opacity for the stroke. float in range 0-1;
#X text 261 343 width of the stroke.;
#X msg 150 428 stroke-linejoin 0;
#X msg 155 455 stroke-miterlimit 0;
#X msg 159 482 stroke-opacity 0.4;
#X text 286 556 affine transformation on the object.;
#X msg 133 344 stroke-width 10;
#X floatatom 161 511 5 0 0 0 - - -, f 5;
#X msg 161 556 transform skewx \$1;
#X text 275 600 Read more about svg attributes here:;
#X obj 275 621 pddp/pddplink http://www.w3.org/TR/SVG11/painting.html
;
#X msg 107 196 fill-rule 0;
#X msg 138 374 stroke-dasharray 5 10;
#X msg 127 317 stroke purple;
#X obj 127 141 hsl 128 15 0 1 0 0 empty empty empty -2 -8 0 10 -262144
-1 -1 6600 1;
#X text 107 141 0;
#X text 268 141 1;
#X text 25 348 (scalar);
#X obj 93 85 loadbang;
#X obj 161 533 * 0.5;
#X obj 93 583 draw rect 50 50 0 0;
#N canvas 290 275 450 300 META 0;
#X text 16 26 LICENSE SIBSD;
#X text 16 76 AUTHOR Jonathan Wilkes;
#X text 16 96 HELP_PATCH_AUTHORS Jonathan Wilkes;
#X text 16 6 KEYWORDS tutorial data_structure draw gui;
#X text 16 46 DESCRIPTION more detail about display attributes with
the [draw] command;
#X restore 573 640 pd META;
#X connect 0 0 42 0;
#X connect 8 0 42 0;
#X connect 10 0 12 0;
#X connect 11 0 13 0;
#X connect 12 0 42 0;
#X connect 13 0 42 0;
#X connect 18 0 42 0;
#X connect 24 0 42 0;
#X connect 25 0 42 0;
#X connect 26 0 42 0;
#X connect 28 0 42 0;
#X connect 29 0 41 0;
#X connect 30 0 42 0;
#X connect 33 0 42 0;
#X connect 34 0 42 0;
#X connect 35 0 42 0;
#X connect 36 0 8 0;
#X connect 40 0 0 0;
#X connect 41 0 30 0;
