#N canvas 624 259 359 369 10;
#X obj 49 84 zl join;
#X obj 52 213 zl join;
#X obj 59 160 t b a;
#X obj 52 245 mtx_check;
#X text 210 69 taille registre;
#X msg 154 110 set matrix 1 \$1;
#X text 72 45 flux donnees;
#X obj 154 75 \$1;
#X obj 154 49 inlet;
#X obj 194 49 loadbang;
#X obj 107 300 outlet;
#X obj 49 21 inlet;
#X obj 49 126 zl slice;
#X msg 52 185 matrix 1 2;
#X obj 52 276 zl slice 3;
#X connect 0 0 12 0;
#X connect 1 0 3 0;
#X connect 2 0 13 0;
#X connect 2 1 1 1;
#X connect 3 0 14 0;
#X connect 5 0 13 0;
#X connect 7 0 5 0;
#X connect 7 0 12 1;
#X connect 8 0 7 0;
#X connect 9 0 7 0;
#X connect 11 0 0 0;
#X connect 12 0 0 1;
#X connect 12 0 2 0;
#X connect 13 0 1 0;
#X connect 14 1 10 0;
