#N canvas 624 259 371 381 10;
#X obj 79 112 zl join;
#X obj 79 227 zl join;
#X obj 79 174 t b a;
#X obj 79 259 mtx_check;
#X text 167 31 taille registre;
#X text 70 31 flux donnees;
#X obj 169 99 \$1;
#X obj 169 49 inlet;
#X obj 178 74 loadbang;
#X obj 79 288 outlet;
#X obj 79 49 inlet;
#X obj 79 144 zl slice;
#X msg 79 199 matrix 1 5;
#X msg 169 134 set matrix \$1 1;
#X connect 0 0 11 0;
#X connect 1 0 3 0;
#X connect 2 0 12 0;
#X connect 2 1 1 1;
#X connect 3 0 9 0;
#X connect 6 0 13 0;
#X connect 6 0 11 1;
#X connect 7 0 6 0;
#X connect 8 0 6 0;
#X connect 10 0 0 0;
#X connect 11 0 0 1;
#X connect 11 0 2 0;
#X connect 12 0 1 0;
#X connect 13 0 12 0;
