#N canvas 43 89 962 524 12;
#X obj 94 24 inlet;
#X obj 355 123 unpost;
#X obj 424 227 float;
#X obj 280 93 trigger bang bang bang;
#X obj 330 188 list;
#X obj 94 53 trigger bang bang;
#X obj 330 217 list length;
#X obj 238 258 symbol;
#X obj 169 193 unpost;
#X obj 238 297 float;
#X obj 94 163 trigger bang bang bang;
#X obj 144 258 list;
#X obj 144 287 list length;
#X obj 424 188 makefilename %d;
#X msg 424 158 42;
#X obj 330 279 list append sending a symbol message with a numeric
payload to [float] should trigger a conversion to float;
#X obj 144 329 list append sending a symbol message with a non-numeric
payload to [float] should cause an error;
#X obj 144 444 outlet;
#X obj 330 246 == 0;
#X connect 0 0 5 0;
#X connect 1 0 4 1;
#X connect 1 1 14 0;
#X connect 3 0 4 0;
#X connect 3 1 1 0;
#X connect 3 2 4 1;
#X connect 4 0 6 0;
#X connect 5 0 10 0;
#X connect 5 1 3 0;
#X connect 6 0 18 0;
#X connect 7 0 9 0;
#X connect 8 0 11 1;
#X connect 8 1 7 0;
#X connect 10 0 11 0;
#X connect 10 1 8 0;
#X connect 10 2 11 1;
#X connect 11 0 12 0;
#X connect 12 0 16 0;
#X connect 13 0 2 0;
#X connect 14 0 13 0;
#X connect 15 0 17 0;
#X connect 16 0 17 0;
#X connect 18 0 15 0;
