#N canvas 3 60 843 633 12;
#X msg 126 72 bang;
#X obj 126 101 t b b;
#X msg 159 139 0;
#X msg 221 139 clear;
#X obj 127 169 f;
#X obj 187 169 + 1;
#X obj 127 198 t a a;
#X obj 30 120 bang;
#X obj 127 281 list cat;
#X obj 127 305 t a a;
#X obj 213 341 list;
#X obj 213 282 bang;
#X obj 127 228 moses 4;
#X msg 406 72 bang;
#X obj 406 101 t b b;
#X msg 439 139 0;
#X msg 501 139 clear;
#X obj 407 169 f;
#X obj 467 169 + 1;
#X obj 407 198 t a a;
#X obj 310 120 bang;
#X obj 407 281 list cat;
#X obj 407 305 t a a;
#X obj 493 341 list;
#X obj 493 282 bang;
#X obj 407 228 moses 4;
#X obj 213 365 list trim;
#X obj 213 394 route 0;
#X obj 213 418 route 1;
#X obj 213 442 route 2;
#X obj 213 466 route 3;
#X obj 126 7 inlet;
#X obj 126 36 trigger bang bang;
#X obj 493 365 list trim;
#X obj 493 394 route a;
#X obj 493 418 route b;
#X obj 493 442 route c;
#X obj 493 466 route d;
#N canvas 0 0 450 300 anything 0;
#X obj 92 30 inlet;
#X obj 92 59 + 97;
#X obj 92 88 makefilename %c;
#X msg 92 117 \$1;
#X obj 92 146 outlet;
#X connect 0 0 1 0;
#X connect 1 0 2 0;
#X connect 2 0 3 0;
#X connect 3 0 4 0;
#X restore 407 253 pd anything;
#X obj 213 490 route bang;
#X obj 493 490 route bang;
#X msg 213 519 1;
#X msg 493 519 1;
#X obj 346 475 bang;
#X msg 346 504 0;
#X obj 612 478 bang;
#X msg 612 507 0;
#X obj 23 548 list append recursive list concatenation should produce
correct element order;
#X obj 433 548 list append recursive anything concatenation should
produce correct element order;
#X obj 23 593 outlet;
#X connect 0 0 1 0;
#X connect 1 0 4 0;
#X connect 1 1 2 0;
#X connect 1 1 3 0;
#X connect 2 0 4 1;
#X connect 3 0 8 1;
#X connect 4 0 6 0;
#X connect 5 0 4 1;
#X connect 6 0 12 0;
#X connect 6 1 5 0;
#X connect 7 0 4 0;
#X connect 8 0 9 0;
#X connect 9 0 7 0;
#X connect 9 1 10 1;
#X connect 10 0 26 0;
#X connect 11 0 10 0;
#X connect 12 0 8 0;
#X connect 12 1 11 0;
#X connect 13 0 14 0;
#X connect 14 0 17 0;
#X connect 14 1 15 0;
#X connect 14 1 16 0;
#X connect 15 0 17 1;
#X connect 16 0 21 1;
#X connect 17 0 19 0;
#X connect 18 0 17 1;
#X connect 19 0 25 0;
#X connect 19 1 18 0;
#X connect 20 0 17 0;
#X connect 21 0 22 0;
#X connect 22 0 20 0;
#X connect 22 1 23 1;
#X connect 23 0 33 0;
#X connect 24 0 23 0;
#X connect 25 0 38 0;
#X connect 25 1 24 0;
#X connect 26 0 27 0;
#X connect 27 0 28 0;
#X connect 27 1 43 0;
#X connect 28 0 29 0;
#X connect 28 1 43 0;
#X connect 29 0 30 0;
#X connect 29 1 43 0;
#X connect 30 0 39 0;
#X connect 30 1 43 0;
#X connect 31 0 32 0;
#X connect 32 0 0 0;
#X connect 32 1 13 0;
#X connect 33 0 34 0;
#X connect 34 0 35 0;
#X connect 34 1 45 0;
#X connect 35 0 36 0;
#X connect 35 1 45 0;
#X connect 36 0 37 0;
#X connect 36 1 45 0;
#X connect 37 0 40 0;
#X connect 37 1 45 0;
#X connect 38 0 21 0;
#X connect 39 0 41 0;
#X connect 39 1 43 0;
#X connect 40 0 42 0;
#X connect 40 1 45 0;
#X connect 41 0 47 0;
#X connect 42 0 48 0;
#X connect 43 0 44 0;
#X connect 44 0 47 0;
#X connect 45 0 46 0;
#X connect 46 0 48 0;
#X connect 47 0 49 0;
#X connect 48 0 49 0;
