#N canvas 12 147 582 396 12;
#X obj 36 25 inlet;
#X obj 36 54 t b b;
#X obj 36 90 f \$0;
#X msg 93 90 \$0;
#X obj 36 324 outlet;
#X obj 36 197 ==;
#X obj 36 292 list append;
#X obj 68 197 list;
#X obj 36 115 t a a;
#X obj 93 115 t a a;
#X msg 68 224 dollarzero should have the same value in a message box
as it does in an object box. In this test object box dollarzero was
\$1 and msg box dollarzero was \$2;
#X connect 0 0 1 0;
#X connect 1 0 2 0;
#X connect 1 1 3 0;
#X connect 2 0 8 0;
#X connect 3 0 9 0;
#X connect 5 0 6 0;
#X connect 6 0 4 0;
#X connect 7 0 10 0;
#X connect 8 0 5 0;
#X connect 8 1 7 0;
#X connect 9 0 5 1;
#X connect 9 1 7 1;
#X connect 10 0 6 1;
