#N canvas 641 120 1067 916 12;
#X obj 53 669 ../utils/method-error soundfiler;
#X obj 168 744 route bang;
#X obj 168 773 f 0;
#X obj 235 773 b;
#X obj 235 802 f 1;
#X obj 53 833 list prepend;
#X obj 53 698 list prepend this message should trigger an error:;
#X obj 53 10 inlet;
#X msg 53 89 bang;
#X obj 53 641 receive \$0-;
#N canvas 771 542 450 425 \$0-too-many-channels 1;
#X obj 80 31 inlet;
#X obj 80 60 f \$0;
#X msg 80 110 \; \$1- write z z z z z z z z z z z z z z z z z z z z
z z z z z z z z z z z z z z z z z z z z z z z z z z z z z z z z z z
z z z z z z z z z z z z z z z z z z z z z z z z z z z z z z z z z z
z z z z z z z z z z z z z z z z z z z z z z z z z z z z z z z z z z
z z z z z z z z z z z z z z z z z z z z z z z z z z z z z z z z z z
z z z z z z z z z z z z z z z z z z z z z z z z z z z z z z z z z z
z z z z z z z z z z z z z z z z z z z z z z z z z z z z z z z z z z
z z z z z z z z z z z z z z z z z z z z z z z z z z z z z z z z;
#X connect 0 0 1 0;
#X connect 1 0 2 0;
#X restore 169 128 pd \$0-too-many-channels;
#X msg 169 97 bang;
#X obj 53 39 trigger bang bang;
#X text 182 24 This just covers the flags. We probably need to add
file-loading tests at some point.;
#X obj 53 862 outlet;
#X obj 53 118 list \$0 write;
#X msg 53 158 \; \$1- \$2 -skip \; \$1- \$2 -skip rope \; \$1- \$2
-skip -1 \; \$1- \$2 -nframes \; \$1- \$2 -nframes dope \; \$1- \$2
-nframes -1 \; \$1- \$2 -normalize 12 \; \$1- \$2 -bytes \; \$1- \$2
-bytes 1 \; \$1- \$2 -bytes 5 \; \$1- \$2 -resize 12 \; \$1- \$2 -wave
1 \; \$1- \$2 -nextstep 1 \; \$1- \$2 -aiff 1 \; \$1- \$2 -big 1 \;
\$1- \$2 -little 1 \; \$1- \$2 -r \; \$1- \$2 -rate \; \$1- \$2 -r
0 \; \$1- \$2 -rate 0 \; \$1- \$2 -reginald \; \$1- \$2 \; \$1- \$2
12 \; \$1- \$2 foo 12 \; \$1- \$2 -bytes 4 -aiff foo \; \$1- \$2 foo
no_table \;;
#X connect 0 0 6 0;
#X connect 0 1 1 0;
#X connect 1 0 2 0;
#X connect 1 1 3 0;
#X connect 2 0 5 1;
#X connect 3 0 4 0;
#X connect 4 0 5 1;
#X connect 5 0 14 0;
#X connect 6 0 5 0;
#X connect 7 0 12 0;
#X connect 8 0 15 0;
#X connect 9 0 0 0;
#X connect 11 0 10 0;
#X connect 12 0 8 0;
#X connect 12 1 11 0;
#X connect 15 0 16 0;
