#N canvas 2 79 1230 587 12;
#X obj 128 68 inlet;
#X obj 244 127 unpost;
#X text 230 26 trigger as many branches as we can from the patch for
the type hints that come with certain errors. Just looking for crashers
here \, but we can later expand these if we wish.;
#X obj 128 486 list append triggered type hints and nothing crashed.
Hooray!;
#X obj 128 97 trigger bang bang;
#X obj 128 127 f 1;
#X obj 728 288 list trim;
#X msg 696 218 symbol;
#X obj 696 247 t a a;
#X text 755 219 empty symbol message;
#X text 805 289 empty symbol atom as selector;
#X msg 574 218 1;
#X obj 574 247 makefilename %d;
#X text 580 278 symbol message;
#X text 580 298 with "floatlike";
#X text 580 318 symbol atom;
#X text 580 338 payload;
#X obj 424 247 makefilename 1e+%d;
#X msg 424 218 2048;
#X msg 284 218 2048;
#X obj 284 247 makefilename 1e-%d;
#X obj 424 346 t a a;
#X obj 424 385 list trim;
#X obj 283 154 trigger bang bang bang bang;
#X text 283 286 symbol atoms with "floatlike" payload;
#X text 283 306 tht is out of range;
#X obj 128 531 outlet;
#X obj 696 430 trigger anything anything;
#X obj 696 499 int;
#X text 735 471 run through the inlet class \, too;
#X connect 0 0 4 0;
#X connect 1 1 23 0;
#X connect 3 0 26 0;
#X connect 4 0 5 0;
#X connect 4 1 1 0;
#X connect 5 0 3 0;
#X connect 6 0 27 0;
#X connect 7 0 8 0;
#X connect 8 0 27 0;
#X connect 8 1 6 0;
#X connect 11 0 12 0;
#X connect 12 0 27 0;
#X connect 17 0 21 0;
#X connect 18 0 17 0;
#X connect 19 0 20 0;
#X connect 20 0 21 0;
#X connect 21 0 22 0;
#X connect 21 1 27 0;
#X connect 22 0 27 0;
#X connect 23 0 19 0;
#X connect 23 1 18 0;
#X connect 23 2 11 0;
#X connect 23 3 7 0;
#X connect 27 0 28 0;
#X connect 27 1 28 1;
