#N canvas 528 314 372 265 10;
#X text 267 228 dh20020106;
#X text 10 6 coord : convert x1 y1 x2 y2 to a coord command;
#X obj 164 36 inlet;
#X obj 35 179 pack f f f f;
#X msg 35 202 coord \$1 \$2 \$3 \$4;
#X obj 178 133 f;
#X obj 135 133 f;
#X obj 92 133 f;
#X obj 164 60 t b f;
#X obj 121 36 inlet;
#X obj 121 60 t b f;
#X obj 78 36 inlet;
#X obj 78 60 t b f;
#X obj 35 36 inlet;
#X obj 35 134 f;
#X obj 78 98 t b b b b;
#X obj 35 227 outlet;
#X connect 2 0 8 0;
#X connect 3 0 4 0;
#X connect 4 0 16 0;
#X connect 5 0 3 3;
#X connect 6 0 3 2;
#X connect 7 0 3 1;
#X connect 8 0 15 0;
#X connect 8 1 5 1;
#X connect 9 0 10 0;
#X connect 10 0 15 0;
#X connect 10 1 6 1;
#X connect 11 0 12 0;
#X connect 12 0 15 0;
#X connect 12 1 7 1;
#X connect 13 0 14 0;
#X connect 14 0 3 0;
#X connect 15 0 14 0;
#X connect 15 1 7 0;
#X connect 15 2 6 0;
#X connect 15 3 5 0;
