#N canvas 540 374 413 171 10;
#X obj 78 36 inlet;
#X obj 35 36 inlet;
#X obj 35 136 outlet;
#X obj 35 88 pack f f;
#X obj 78 58 t b f;
#X msg 35 111 xy1 \$1 \$2;
#X text 91 138 dh20020108;
#X text 10 6 xy2xy1;
#X connect 0 0 4 0;
#X connect 1 0 3 0;
#X connect 3 0 5 0;
#X connect 4 0 3 0;
#X connect 4 1 3 1;
#X connect 5 0 2 0;
