#N canvas 0 81 1004 682 12;
#X obj 20 -14 inlet;
#N canvas 0 16 1004 682 show-sym 0;
#X obj -361 12 inlet;
#X obj -79 62 get \$2 id;
#X obj -140 192 metro 750;
#X msg -140 264 \; \$1\$2 bang;
#X msg -140 168 stop;
#X obj -140 119 r \$2-lock;
#X obj -140 143 sel 0;
#X obj -140 240 pack s f;
#X obj -140 216 symbol \$2;
#X obj -361 42 showsym \$1 \$2 SET-BANG-COLOR;
#X connect 0 0 9 0;
#X connect 1 0 7 1;
#X connect 2 0 8 0;
#X connect 4 0 2 0;
#X connect 5 0 6 0;
#X connect 6 0 4 0;
#X connect 7 0 3 0;
#X connect 8 0 7 0;
#X connect 9 0 4 0;
#X connect 9 1 2 0;
#X connect 9 2 4 0;
#X connect 9 3 1 0;
#X restore 933 168 pd show-sym;
#N canvas 0 0 296 250 label-tgl 0;
#X obj 122 94 sel 0 1;
#X obj 122 66 tgl 15 0 empty empty empty 17 7 0 10 -262144 -1 -1 0
1;
#X obj 11 20 loadbang;
#X msg 11 46 0;
#X obj 122 194 outlet;
#X msg 122 119 symbol empty;
#X msg 148 148 symbol LABEL;
#X obj 122 28 r \$1-label-tgl;
#X connect 0 0 5 0;
#X connect 0 1 6 0;
#X connect 1 0 0 0;
#X connect 2 0 3 0;
#X connect 3 0 1 0;
#X connect 5 0 4 0;
#X connect 6 0 4 0;
#X connect 7 0 1 0;
#X restore 122 531 pd label-tgl;
#X obj 148 507 r \$1-patchname;
#X obj 45 507 loadbang;
#X obj 45 531 symbol \$2;
#X obj 537 31 lock \$1 \$2;
#X obj 574 306 constrain \$1 \$2;
#X obj 574 334 getGUIsize \$3 \$4 \$5 \$6;
#X obj 217 205 pack;
#X obj 36 338 t b a;
#X obj 217 175 +;
#X obj 258 175 +;
#X obj 36 313 unpack f f f f;
#N canvas 0 0 700 277 swap 0;
#X obj 23 241 outlet;
#X obj 123 238 outlet;
#X obj 23 166 spigot 1;
#X obj 123 166 spigot 0;
#X obj 23 11 inlet;
#X obj 196 11 r \$2-color-swap;
#X obj 214 166 spigot 0;
#X obj 196 37 t a b;
#X obj 196 63 pack f 1;
#X msg 275 63 0;
#X obj 196 89 route 0 1 2;
#X obj 214 238 outlet;
#X connect 2 0 0 0;
#X connect 3 0 1 0;
#X connect 4 0 2 0;
#X connect 4 0 3 0;
#X connect 4 0 6 0;
#X connect 5 0 7 0;
#X connect 6 0 11 0;
#X connect 7 0 8 0;
#X connect 7 1 9 0;
#X connect 8 0 10 0;
#X connect 9 0 2 1;
#X connect 9 0 3 1;
#X connect 9 0 6 1;
#X connect 10 0 2 1;
#X connect 10 1 3 1;
#X connect 10 2 6 1;
#X restore 202 313 pd swap;
#X obj 36 289 spigot;
#X obj 202 289 spigot;
#X obj 202 266 r \$1-rgb-value;
#X obj 36 266 r \$1-label-posNsize;
#X obj 93 290 r \$2-lock;
#X obj 266 381 loadbang;
#X obj 266 405 symbol \$2;
#X obj 217 234 s \$1-helper-xy;
#X obj 537 341 t a;
#X msg 352 460 \; \$3\$2 label \$1;
#X obj 352 435 pack s f s;
#X obj 450 405 loadbang;
#X obj 450 435 symbol \$2;
#X obj 833 371 t b a;
#X obj 833 402 set \$2 xsize ysize;
#X obj 442 223 symbol \$2;
#X obj 442 198 loadbang;
#X obj 337 223 pack f f f s;
#X obj 537 120 t a a a;
#X obj 563 280 if-numscroll \$1 \$2 \$3 \$4 \$5 \$6;
#X obj 36 405 pack 0 22 22 f 20 12 10 0 s;
#X msg 36 430 \; \$9\$4 color \$1 \$2 \$3 \; \$9\$4 label_pos \$5 \$6
\; \$9\$4 label_font \$8 \$7;
#X obj 273 337 t b a;
#X obj 219 337 t b a;
#X obj 268 507 loadbang;
#X obj 268 534 symbol \$9;
#X obj 352 405 label \$1 \$2;
#X obj 831 6 clean \$1 \$2;
#X obj 704 108 get \$2 id;
#X obj 20 11 pappend \$1 \$2 \$3 \$4 \$5 \$6;
#X obj 390 329 t a;
#X obj 217 121 get \$2 x0 y0 x y;
#X obj 717 407 loadbang;
#X obj 717 430 symbol \$2;
#X obj 933 140 t a;
#X obj 20 164 t a;
#N canvas 0 0 461 325 quantize 0;
#X obj 14 20 inlet;
#X obj 195 22 inlet;
#X obj 14 213 outlet;
#X obj 195 184 outlet;
#X connect 0 0 2 0;
#X connect 1 0 3 0;
#X restore 574 374 pd quantize;
#X obj 20 558 pack f s \$3 \$4 s s \$7 \$8 s;
#X msg 20 607 \; \$6 obj 10 10 \$9 \$3 \$8 \$7 0 \$9 \$2\$1 empty 17
7 0 10 -262144 -1 -1;
#X obj 575 430 pack f f f f f s;
#X obj 63 58 t b b a;
#X obj 63 87 \$7;
#X obj 95 87 \$8;
#X msg 575 460 \; \$6\$1 size \$2 \; \$6\$1 flashtime \$4 \$3 \; \$6\$1
init \$5;
#X msg 337 250 \; \$4\$3 pos \$1 \$2;
#X obj 360 121 get \$2 x y id;
#X obj 360 146 + 10;
#X obj 410 146 + 10;
#X obj 537 168 get \$2 id x0 y0 x y intr hld init;
#X obj 51 121 set \$2 intr hld;
#X obj 537 6 pstruct \$1 \$2 intr hld init n/a n/a;
#X obj 815 168 shownum \$1 \$2;
#X obj 537 57 route change displace pappend select click deselect;
#X text 670 373 <--UPDATE THIS;
#X connect 0 0 44 0;
#X connect 2 0 52 4;
#X connect 3 0 52 5;
#X connect 4 0 5 0;
#X connect 5 0 52 1;
#X connect 6 0 67 0;
#X connect 7 0 8 0;
#X connect 7 1 8 1;
#X connect 8 0 29 0;
#X connect 8 0 34 1;
#X connect 8 0 51 0;
#X connect 8 1 28 0;
#X connect 8 1 34 2;
#X connect 8 1 51 1;
#X connect 9 0 22 0;
#X connect 10 0 35 0;
#X connect 10 1 35 4;
#X connect 11 0 9 0;
#X connect 12 0 9 1;
#X connect 13 0 10 0;
#X connect 13 1 35 5;
#X connect 13 2 35 6;
#X connect 13 3 35 7;
#X connect 14 0 35 0;
#X connect 14 1 38 0;
#X connect 14 2 37 0;
#X connect 15 0 13 0;
#X connect 16 0 14 0;
#X connect 17 0 16 0;
#X connect 18 0 15 0;
#X connect 19 0 15 1;
#X connect 19 0 16 1;
#X connect 20 0 21 0;
#X connect 21 0 35 8;
#X connect 23 0 25 1;
#X connect 23 0 35 3;
#X connect 23 0 54 0;
#X connect 25 0 24 0;
#X connect 26 0 27 0;
#X connect 27 0 25 2;
#X connect 28 0 29 0;
#X connect 28 1 29 1;
#X connect 30 0 32 3;
#X connect 31 0 30 0;
#X connect 32 0 59 0;
#X connect 33 0 63 0;
#X connect 33 1 34 0;
#X connect 33 2 49 0;
#X connect 35 0 36 0;
#X connect 37 0 35 0;
#X connect 37 1 35 2;
#X connect 38 0 35 0;
#X connect 38 1 35 1;
#X connect 39 0 40 0;
#X connect 40 0 52 8;
#X connect 41 0 25 0;
#X connect 43 0 45 0;
#X connect 44 0 50 0;
#X connect 44 1 46 0;
#X connect 44 1 55 0;
#X connect 45 0 25 1;
#X connect 45 0 35 3;
#X connect 46 0 11 0;
#X connect 46 1 12 0;
#X connect 46 2 11 1;
#X connect 46 3 12 1;
#X connect 47 0 48 0;
#X connect 48 0 54 5;
#X connect 49 0 29 2;
#X connect 49 0 1 0;
#X connect 50 0 35 3;
#X connect 50 0 25 1;
#X connect 50 0 52 0;
#X connect 51 0 54 1;
#X connect 52 0 53 0;
#X connect 54 0 58 0;
#X connect 55 0 56 0;
#X connect 55 1 57 0;
#X connect 55 2 64 2;
#X connect 56 0 64 0;
#X connect 57 0 64 1;
#X connect 60 0 61 0;
#X connect 60 1 62 0;
#X connect 60 2 32 2;
#X connect 61 0 32 0;
#X connect 62 0 32 1;
#X connect 63 0 23 0;
#X connect 63 1 7 0;
#X connect 63 2 7 1;
#X connect 63 5 54 2;
#X connect 63 6 54 3;
#X connect 63 7 54 4;
#X connect 65 0 6 0;
#X connect 67 0 33 0;
#X connect 67 0 46 0;
#X connect 67 0 66 0;
#X connect 67 1 46 0;
#X connect 67 1 60 0;
#X connect 67 2 33 0;
#X connect 67 3 43 0;
#X connect 67 3 46 0;
#X connect 67 3 49 0;
#X connect 67 3 66 1;
#X connect 67 4 33 0;
#X connect 67 4 66 1;
#X connect 67 4 46 0;
