#N canvas 416 250 458 308 12;
#X obj 216 222 receive bla;
#X obj 321 222 receive foo;
#X obj 216 250 print bla;
#X obj 321 250 print foo;
#X msg 32 104 bla 17.3 23;
#X msg 76 183 foo 13 \, bla 4;
#X text 148 75 use message: <name> <data>;
#X text 253 91 with data of any type;
#X text 89 26 written by Olaf Matthes <olaf.matthes@gmx.de>;
#X msg 61 147 foo five is 2 more than 3;
#X text 9 9 send2 :: send data to any receive object;
#X obj 32 224 send2;
#X connect 0 0 2 0;
#X connect 1 0 3 0;
#X connect 4 0 11 0;
#X connect 5 0 11 0;
#X connect 9 0 11 0;
