#N canvas 129 132 726 510 10;
#X msg 357 111 width \$1;
#X msg 357 88 raise;
#X obj 26 73 move;
#X obj 172 73 move;
#X obj 207 97 coord2xy;
#X obj 62 96 coord2xy;
#X obj 107 294 inlet;
#X obj 110 247 outlet;
#X msg 18 371 coord \$1 \$2 \$3 \$4;
#X msg 18 348 coord \$1 \$2 \$1 \$2;
#X msg 18 394 coord \$3 \$4 \$3 \$4;
#X msg 155 354 xy1 \$1 \$2;
#X msg 156 381 xy2 \$1 \$2;
#X msg 237 376 xy1 \$1 \$2;
#X msg 237 355 xy2 \$1 \$2;
#X obj 63 195 xy2xy1;
#X obj 201 190 xy2xy2;
#X obj 240 32 light_over;
#X obj 63 50 light_over;
#X obj 357 43 bang;
#X obj 154 463 alias \$0-p2;
#X obj 153 438 alias \$0-l1;
#X obj 156 410 alias \$0-p1;
#X obj 357 180 alias \$0-p2;
#X text 352 23 default values;
#X text 169 292 methodes;
#X text 25 26 two seg for driving one :;
#X obj 54 268 move;
#X msg 357 202 coord 10 10 30 30;
#X msg 311 254 show;
#X obj 107 316 route coord xy1 xy2 show;
#X msg 357 65 5;
#X text 346 423 dh20020427;
#X obj 67 161 min;
#X obj 91 161 min;
#X obj 114 162 min;
#X obj 139 162 min;
#X obj 187 139 max;
#X obj 212 139 max;
#X obj 237 140 max;
#X obj 262 140 max;
#X obj 207 73 seg \$0-p2 \$1/p2;
#X obj 62 74 seg \$0-p1 \$1/p1;
#X obj 357 134 alias \$0-p1;
#X obj 357 157 alias \$0-l1;
#X obj 526 92 oname2l;
#X obj 526 115 unpack s s s;
#X obj 526 46 loadbang;
#X obj 526 207 s \$1-c;
#X obj 601 135 s \$1-o;
#X obj 526 138 pack s s;
#X obj 526 184 a2s;
#X msg 526 161 list \$1 / \$2;
#X obj 526 69 symbol \$2;
#X obj 111 224 rect \$0-l1 \$1/l1;
#X text 7 2 i-rect;
#X connect 0 0 23 0;
#X connect 0 0 43 0;
#X connect 0 0 44 0;
#X connect 1 0 23 0;
#X connect 1 0 43 0;
#X connect 2 0 42 0;
#X connect 3 0 41 0;
#X connect 4 0 37 1;
#X connect 4 0 38 0;
#X connect 4 0 33 1;
#X connect 4 0 34 0;
#X connect 4 1 36 0;
#X connect 4 1 35 1;
#X connect 4 1 39 1;
#X connect 4 1 40 0;
#X connect 5 0 33 0;
#X connect 5 0 37 0;
#X connect 5 0 38 1;
#X connect 5 0 34 1;
#X connect 5 1 35 0;
#X connect 5 1 36 1;
#X connect 5 1 39 0;
#X connect 5 1 40 1;
#X connect 6 0 30 0;
#X connect 8 0 21 0;
#X connect 9 0 22 0;
#X connect 10 0 20 0;
#X connect 11 0 21 0;
#X connect 11 0 22 0;
#X connect 12 0 22 0;
#X connect 13 0 20 0;
#X connect 14 0 20 0;
#X connect 14 0 21 0;
#X connect 15 0 7 0;
#X connect 15 0 54 0;
#X connect 16 0 7 0;
#X connect 16 0 54 0;
#X connect 17 0 41 0;
#X connect 18 0 42 0;
#X connect 19 0 1 0;
#X connect 19 0 31 0;
#X connect 19 0 28 0;
#X connect 27 0 30 0;
#X connect 28 0 30 0;
#X connect 29 0 22 0;
#X connect 29 0 21 0;
#X connect 29 0 20 0;
#X connect 29 0 19 0;
#X connect 30 0 9 0;
#X connect 30 0 8 0;
#X connect 30 0 10 0;
#X connect 30 1 11 0;
#X connect 30 1 12 0;
#X connect 30 2 13 0;
#X connect 30 2 14 0;
#X connect 30 3 29 0;
#X connect 30 4 20 0;
#X connect 30 4 21 0;
#X connect 30 4 22 0;
#X connect 31 0 0 0;
#X connect 33 0 15 0;
#X connect 34 0 15 0;
#X connect 35 0 15 1;
#X connect 36 0 15 1;
#X connect 37 0 16 0;
#X connect 38 0 16 0;
#X connect 39 0 16 1;
#X connect 40 0 16 1;
#X connect 41 0 3 0;
#X connect 41 0 4 0;
#X connect 41 0 17 0;
#X connect 42 0 2 0;
#X connect 42 0 5 0;
#X connect 42 0 18 0;
#X connect 45 0 46 0;
#X connect 46 0 50 0;
#X connect 46 1 50 1;
#X connect 46 2 49 0;
#X connect 47 0 53 0;
#X connect 50 0 52 0;
#X connect 51 0 48 0;
#X connect 52 0 51 0;
#X connect 53 0 45 0;
#X connect 54 0 7 0;
#X connect 54 0 27 0;
