#N canvas 115 125 610 479 10;
#X obj 14 8 inlet;
#X obj 245 414 outlet;
#X obj 303 144 xy2coord;
#X obj 135 154 + 200;
#X obj 279 214 move_y;
#X obj 160 336 xy2coord;
#X obj 347 243 light_over;
#X msg 59 393 color Blue;
#X obj 279 267 coord2xy;
#X obj 279 244 seg \$0-sld;
#X obj 67 332 s \$0-cadre;
#X obj 83 423 s \$0-sld;
#X obj 245 368 * -1;
#X obj 245 345 -;
#X obj 245 391 +;
#X obj 14 78 \$1;
#X obj 85 103 \$2;
#X obj 160 133 \$3;
#X text 47 86 x pos;
#X text 112 102 y pos;
#X text 185 134 y size;
#X msg 75 248 add;
#X obj 303 190 click2bxy;
#X obj 22 177 -;
#X obj 22 200 * -1;
#X msg 373 220 Blue;
#N canvas 489 354 249 191 check_min_max 0;
#X obj 51 110 max;
#X obj 51 86 min;
#X obj 51 34 inlet;
#X obj 51 134 outlet;
#X obj 75 57 r \$0-y_max;
#X obj 82 80 r \$0-y_min;
#X connect 0 0 3 0;
#X connect 1 0 0 0;
#X connect 2 0 1 0;
#X connect 4 0 1 1;
#X connect 5 0 0 1;
#X restore 245 299 pd check_min_max;
#X obj 85 127 s \$0-y_min;
#X obj 135 178 s \$0-y_max;
#X obj 317 100 r \$0-y_min;
#X obj 346 122 r \$0-y_max;
#X obj 15 101 s \$0-x_pos;
#X obj 35 154 r \$0-y_max;
#X obj 258 321 r \$0-y_max;
#X obj 192 248 r \$0-y_max;
#X obj 303 77 r \$0-x_pos;
#X obj 159 225 r \$0-x_pos;
#X obj 14 55 t b b b b b;
#X obj 351 266 r \$0-sld;
#X obj 368 144 r \$0-cadre;
#X obj 303 167 seg cadre;
#X msg 59 370 width 20;
#X msg 452 29 bang;
#X obj 456 91 t b b;
#X obj 456 139 s bangl;
#X obj 481 117 s bangm;
#X msg 486 29 stop;
#X obj 393 368 ma 100;
#X obj 456 65 metro 50;
#X text 95 7 my_slider3 mass;
#X obj 160 361 coord2xy;
#X obj 154 420 xy2coord;
#X msg 59 299 width 22;
#N canvas 489 354 249 191 check_min_max 0;
#X obj 51 110 max;
#X obj 51 86 min;
#X obj 51 34 inlet;
#X obj 51 134 outlet;
#X obj 75 57 r \$0-y_max;
#X obj 82 80 r \$0-y_min;
#X connect 0 0 3 0;
#X connect 1 0 0 0;
#X connect 2 0 1 0;
#X connect 4 0 1 1;
#X connect 5 0 0 1;
#X restore 354 296 pd check_min_max;
#X obj 520 30 loadbang;
#X text 364 420 dh20020210;
#X obj 319 397 lia 50 20 0 0 0 0 0;
#X msg 419 172 caps butt;
#X obj 14 31 route add float del;
#X msg 100 54 del;
#X connect 0 0 58 0;
#X connect 2 0 40 0;
#X connect 3 0 28 0;
#X connect 4 0 9 0;
#X connect 5 0 50 0;
#X connect 6 0 9 0;
#X connect 7 0 11 0;
#X connect 8 1 53 0;
#X connect 9 0 4 0;
#X connect 9 0 6 0;
#X connect 9 0 8 0;
#X connect 12 0 14 0;
#X connect 13 0 12 0;
#X connect 14 0 1 0;
#X connect 15 0 31 0;
#X connect 16 0 3 0;
#X connect 16 0 27 0;
#X connect 17 0 3 1;
#X connect 21 0 10 0;
#X connect 21 0 11 0;
#X connect 22 2 26 0;
#X connect 23 0 24 0;
#X connect 24 0 26 0;
#X connect 25 0 6 1;
#X connect 26 0 5 1;
#X connect 26 0 5 3;
#X connect 29 0 2 1;
#X connect 30 0 2 3;
#X connect 32 0 23 1;
#X connect 33 0 13 1;
#X connect 34 0 5 3;
#X connect 34 0 5 1;
#X connect 35 0 2 0;
#X connect 35 0 2 2;
#X connect 36 0 5 0;
#X connect 36 0 5 2;
#X connect 37 0 15 0;
#X connect 37 1 16 0;
#X connect 37 2 17 0;
#X connect 37 3 52 0;
#X connect 37 3 41 0;
#X connect 37 3 7 0;
#X connect 37 3 25 0;
#X connect 37 4 21 0;
#X connect 38 0 9 0;
#X connect 39 0 40 0;
#X connect 40 0 22 0;
#X connect 40 0 4 0;
#X connect 41 0 11 0;
#X connect 42 0 48 0;
#X connect 43 0 44 0;
#X connect 43 1 45 0;
#X connect 46 0 48 0;
#X connect 47 0 51 1;
#X connect 47 0 13 0;
#X connect 47 0 56 4;
#X connect 47 1 56 5;
#X connect 48 0 43 0;
#X connect 50 0 51 0;
#X connect 50 1 56 2;
#X connect 50 2 51 2;
#X connect 50 3 51 3;
#X connect 51 0 9 0;
#X connect 52 0 10 0;
#X connect 53 0 56 2;
#X connect 53 0 51 1;
#X connect 53 0 51 3;
#X connect 54 0 48 0;
#X connect 56 1 47 1;
#X connect 57 0 40 0;
#X connect 58 0 37 0;
#X connect 58 1 23 0;
#X connect 58 2 59 0;
#X connect 59 0 10 0;
#X connect 59 0 11 0;
