#N canvas 1 57 964 548 10;
#X obj 23 67 inlet~;
#X obj 108 290 tabread4~ \$1-x;
#X obj 18 290 tabread4~ \$1-w;
#X obj 200 290 tabread4~ \$1-y;
#X obj 507 22 inlet;
#X msg 20 258 set \$1;
#X msg 129 265 set \$1;
#X msg 237 262 set \$1;
#X obj 9 420 *~ 1.414;
#X obj 600 159 route tablename b_format;
#X obj 33 371 sel 1 0;
#X msg 28 399 1.414;
#X msg 70 399 1;
#X obj 642 89 loadbang;
#X obj 23 494 outlet~ w;
#X obj 113 494 outlet~ y;
#X obj 205 494 outlet~ y;
#X obj 645 115 tof/arguments comma;
#X obj 27 238 zexy/makesymbol %s-w;
#X obj 142 211 zexy/makesymbol %s-x;
#X obj 236 239 zexy/makesymbol %s-y;
#X connect 0 0 1 0;
#X connect 0 0 2 0;
#X connect 0 0 3 0;
#X connect 1 0 15 0;
#X connect 2 0 8 0;
#X connect 3 0 16 0;
#X connect 4 0 9 0;
#X connect 5 0 2 0;
#X connect 6 0 1 0;
#X connect 7 0 3 0;
#X connect 8 0 14 0;
#X connect 9 0 18 0;
#X connect 9 0 19 0;
#X connect 9 0 20 0;
#X connect 9 1 10 0;
#X connect 10 0 11 0;
#X connect 10 1 12 0;
#X connect 11 0 8 1;
#X connect 12 0 8 1;
#X connect 13 0 17 0;
#X connect 17 0 9 0;
#X connect 18 0 5 0;
#X connect 19 0 6 0;
#X connect 20 0 7 0;
