#N canvas 1 57 723 514 10;
#X obj 60 53 inlet~ w;
#X obj 123 54 inlet~ x;
#X obj 188 54 inlet~ y;
#X obj 69 405 outlet~;
#X obj 337 5 inlet;
#X obj 102 253 *~;
#X obj 320 191 line~;
#X obj 171 256 *~;
#X text 69 433 Decodes a first order Ambisonics horizontal B-Format
to a mono output channel.;
#X obj 321 146 cos;
#X obj 392 189 line~;
#X obj 393 144 sin;
#X obj 253 53 inlet~ z;
#X obj 274 332 *~;
#X obj 520 203 line~;
#X text 547 158 ??????;
#X obj 385 2 loadbang;
#X obj 386 23 t b b;
#X msg 459 28 directivity 0.5 \, elevation 0;
#X obj 521 158 sin;
#X obj 319 169 pack 0 15;
#X obj 391 167 pack 0 15;
#X obj 519 181 pack 0 15;
#X obj 330 92 route angle duration directivity elevation;
#X obj 377 48 tof/arguments comma;
#X obj 323 119 ./degreeToRadian;
#X obj 519 135 ./degreeToRadian;
#X connect 0 0 3 0;
#X connect 1 0 5 0;
#X connect 2 0 7 0;
#X connect 4 0 23 0;
#X connect 5 0 3 0;
#X connect 6 0 5 1;
#X connect 7 0 3 0;
#X connect 9 0 20 0;
#X connect 10 0 7 1;
#X connect 11 0 21 0;
#X connect 12 0 13 0;
#X connect 13 0 3 0;
#X connect 14 0 13 1;
#X connect 16 0 17 0;
#X connect 17 0 24 0;
#X connect 17 1 18 0;
#X connect 18 0 23 0;
#X connect 19 0 22 0;
#X connect 20 0 6 0;
#X connect 21 0 10 0;
#X connect 22 0 14 0;
#X connect 23 0 25 0;
#X connect 23 1 20 1;
#X connect 23 1 21 1;
#X connect 23 3 26 0;
#X connect 24 0 23 0;
#X connect 25 0 9 0;
#X connect 25 0 11 0;
#X connect 26 0 19 0;
