#N canvas 1 57 924 510 10;
#X msg 581 103 print;
#X obj 53 370 *~;
#X obj 84 370 *~;
#X obj 580 72 loadbang;
#X obj 25 72 inlet~ a;
#X obj 110 70 inlet~ b;
#X obj 174 73 inlet~ c;
#X obj 236 73 inlet~ d;
#X obj 141 370 *~;
#X obj 172 370 *~;
#X obj 52 408 outlet~ a;
#X obj 124 411 outlet~ b;
#X obj 197 411 outlet~ c;
#X obj 270 414 outlet~ d;
#X obj 246 250 zexy/limiter~ 1 2 3 4;
#X obj 173 348 zexy/z~ 9;
#X obj 141 350 zexy/z~ 9;
#X obj 88 340 zexy/z~ 9;
#X obj 53 350 zexy/z~ 9;
#X connect 0 0 14 0;
#X connect 1 0 10 0;
#X connect 2 0 11 0;
#X connect 3 0 0 0;
#X connect 4 0 14 0;
#X connect 4 0 18 0;
#X connect 5 0 14 1;
#X connect 5 0 17 0;
#X connect 6 0 14 2;
#X connect 6 0 16 0;
#X connect 7 0 14 3;
#X connect 7 0 15 0;
#X connect 8 0 12 0;
#X connect 9 0 13 0;
#X connect 14 0 1 1;
#X connect 14 0 2 1;
#X connect 14 0 8 1;
#X connect 14 0 9 1;
#X connect 15 0 9 0;
#X connect 16 0 8 0;
#X connect 17 0 2 0;
#X connect 18 0 1 0;
