#N canvas 609 320 452 302 10;
#X obj 130 52 inlet;
#X obj 130 112 /;
#X obj 130 138 * 60;
#X msg 130 89 1000 \$1;
#X obj 129 191 outlet;
#X connect 0 0 3 0;
#X connect 1 0 2 0;
#X connect 2 0 4 0;
#X connect 3 0 1 0;
