#N canvas 101 162 539 284 10;
#X obj 33 21 inlet~;
#X obj 31 231 outlet~;
#X obj 125 208 outlet~;
#X obj 95 22 inlet~;
#N canvas 289 236 786 441 lofidisto 0;
#X obj 80 261 outlet~;
#X obj 130 261 outlet~;
#X obj 97 -116 inlet~;
#X obj 148 -117 inlet~;
#X obj 246 -117 inlet;
#X obj 205 48 samphold~;
#X obj 126 45 samphold~;
#X obj 231 171 wrap~;
#X obj 296 142 pow;
#X obj 284 98 t b f;
#X msg 286 120 2;
#X obj 93 175 wrap~;
#X obj 248 -87 * 21550;
#X obj 248 -65 + 500;
#X obj 287 15 * 15;
#X obj 195 118 +~ 1e-11;
#X obj 78 122 +~ 1e-11;
#X obj 207 -14 phasor~ 5877.5;
#X obj 212 145 *~ 128;
#X obj 77 149 *~ 128;
#X obj 83 201 -~;
#X obj 80 224 /~ 128;
#X obj 211 222 /~ 128;
#X obj 218 197 -~;
#X text 249 -135 freq;
#X text 298 -133 bits;
#X obj 296 -117 inlet;
#X connect 2 0 6 0;
#X connect 3 0 5 0;
#X connect 4 0 12 0;
#X connect 5 0 15 0;
#X connect 6 0 16 0;
#X connect 7 0 23 1;
#X connect 8 0 18 1;
#X connect 8 0 19 1;
#X connect 8 0 21 1;
#X connect 8 0 22 1;
#X connect 9 0 10 0;
#X connect 9 1 8 1;
#X connect 10 0 8 0;
#X connect 11 0 20 1;
#X connect 12 0 13 0;
#X connect 13 0 17 0;
#X connect 14 0 9 0;
#X connect 15 0 18 0;
#X connect 16 0 19 0;
#X connect 17 0 5 1;
#X connect 17 0 6 1;
#X connect 18 0 7 0;
#X connect 18 0 23 0;
#X connect 19 0 11 0;
#X connect 19 0 20 0;
#X connect 20 0 21 0;
#X connect 21 0 0 0;
#X connect 22 0 1 0;
#X connect 23 0 22 0;
#X connect 26 0 14 0;
#X restore 81 107 pd lofidisto;
#X obj 414 -13 inlet params;
#X obj 165 130 tof/param /wet 0 /g slider 0 1;
#X obj 414 33 print PARAM_NOTFOUND;
#X obj 32 179 tof/crossfade~ 2;
#X obj 167 -5 tof/param /freq 0.5 /g slider 0 1;
#X obj 182 16 tof/param /bits 0.4 /g slider 0 1;
#X msg 215 200 \$1 5;
#X obj 215 224 line~;
#X obj 414 9 tof/param route;
#X obj 386 168 iemguts/propertybang;
#X obj 387 197 tof/param gui;
#X connect 0 0 4 0;
#X connect 0 0 8 0;
#X connect 3 0 4 1;
#X connect 3 0 8 1;
#X connect 4 0 8 2;
#X connect 4 1 8 3;
#X connect 5 0 13 0;
#X connect 6 0 11 0;
#X connect 8 0 1 0;
#X connect 8 1 2 0;
#X connect 9 0 4 2;
#X connect 10 0 4 3;
#X connect 11 0 12 0;
#X connect 12 0 8 4;
#X connect 13 0 7 0;
#X connect 14 0 15 0;
