#N canvas 0 0 450 300 10;
#X obj 125 104 timer;
#X obj 125 148 b;
#X obj 126 48 inlet;
#X obj 126 72 t b b;
#X obj 125 172 outlet;
#X obj 125 128 moses 175;
#X obj 241 34 loadbang;
#X obj 334 89 inlet;
#X obj 241 55 tof/argument 1 175;
#X connect 0 0 5 0;
#X connect 1 0 4 0;
#X connect 2 0 3 0;
#X connect 3 0 0 0;
#X connect 3 1 0 1;
#X connect 5 0 1 0;
#X connect 6 0 8 0;
#X connect 7 0 5 1;
#X connect 8 0 5 1;
