#N canvas 496 263 808 507 10;
#X obj 303 267 delay 2000;
#X obj 413 138 delay 4000;
#X msg 158 260 0;
#X obj 118 133 t b b;
#X msg 182 91 stop;
#X obj -49 213 *~;
#X obj 94 33 select 1 0;
#X obj -64 264 outlet~;
#X obj 95 0 inlet;
#X text 148 2 expects 0 or 1;
#X msg 128 176 1;
#X obj 17 265 outlet~;
#X obj 5 239 *~;
#X obj 303 87 t b b b;
#X obj -58 187 osc~ 440;
#X obj 7 192 osc~ 480;
#X msg 413 159 bang;
#X connect 0 0 2 0;
#X connect 0 0 1 0;
#X connect 1 0 16 0;
#X connect 2 0 5 1;
#X connect 2 0 12 1;
#X connect 3 0 10 0;
#X connect 3 1 0 0;
#X connect 4 0 2 0;
#X connect 4 0 1 0;
#X connect 4 0 0 0;
#X connect 5 0 7 0;
#X connect 6 0 3 0;
#X connect 6 1 4 0;
#X connect 6 1 13 0;
#X connect 8 0 6 0;
#X connect 10 0 5 1;
#X connect 10 0 12 1;
#X connect 12 0 11 0;
#X connect 14 0 5 0;
#X connect 15 0 12 0;
#X connect 16 0 3 0;
