#N canvas 0 25 1022 686 10;
#X obj 59 31 inlet;
#X obj 54 604 outlet;
#X obj 87 335 /;
#X obj 85 360 * 4;
#X obj 58 390 scaleXYZ 4 4 4;
#X text 411 163 gemwin width height (in pixels);
#X obj 500 242 t b b;
#X obj 505 395 pack;
#X obj 522 193 r GEMS;
#X obj 450 300 value GEMSW;
#X obj 568 301 value GEMSH;
#X connect 0 0 4 0;
#X connect 2 0 3 0;
#X connect 3 0 4 1;
#X connect 4 0 1 0;
#X connect 6 0 9 0;
#X connect 6 1 10 0;
#X connect 7 0 2 0;
#X connect 8 0 6 0;
#X connect 9 0 7 0;
#X connect 10 0 7 1;
