#N canvas 533 195 452 442 10;
#X msg 84 210 0 1 1;
#X msg 92 231 0.6 1 0.5;
#X floatatom 98 140 5 0 1 1 Value - -;
#X floatatom 61 120 5 0 1 1 Saturation - -;
#X floatatom 44 100 5 0 1 1 Hue - -;
#X obj 44 188 pack 0 0 0;
#X obj 61 162 t b f;
#X obj 98 162 t b f;
#X obj 44 310 unpack 0 0 0;
#X floatatom 113 336 5 0 0 1 Blue - -;
#X floatatom 78 362 5 0 0 1 Green - -;
#X floatatom 44 385 5 0 0 1 Red - -;
#X obj 213 259 unpack 0 0 0;
#X floatatom 282 281 5 0 0 1 Blue - -;
#X floatatom 247 301 5 0 0 1 Green - -;
#X floatatom 213 324 5 0 0 1 Red - -;
#X text 42 80 Float HSV input;
#X text 55 288 Float RGB output;
#X text 16 11 Description: convert from float HSV colorspace to float
RGB or 8bit(integer) RGB colorspace.;
#X text 233 237 8bit/int/integer RGB output;
#X text 211 120 Float HSV input;
#X obj 44 269 mtl/hsvToRgb;
#X text 15 45 tags: conversion;
#X obj 213 217 mtl/hsvToRgb 8bit;
#X obj 212 365 mtl/hsvToRgb int;
#X obj 213 386 mtl/hsvToRgb integer;
#X obj 213 141 mtl/hsv;
#X connect 0 0 21 0;
#X connect 1 0 21 0;
#X connect 2 0 7 0;
#X connect 3 0 6 0;
#X connect 4 0 5 0;
#X connect 5 0 21 0;
#X connect 6 0 5 0;
#X connect 6 1 5 1;
#X connect 7 0 5 0;
#X connect 7 1 5 2;
#X connect 8 0 11 0;
#X connect 8 1 10 0;
#X connect 8 2 9 0;
#X connect 12 0 15 0;
#X connect 12 1 14 0;
#X connect 12 2 13 0;
#X connect 21 0 8 0;
#X connect 23 0 12 0;
#X connect 26 0 21 0;
#X connect 26 0 23 0;
