#N canvas 645 50 790 663 10;
#N canvas 1191 53 886 636 guts 0;
#X obj 371 459 snapshot~;
#X obj 474 466 snapshot~;
#N canvas 1221 106 734 553 size&color 0;
#X obj 90 14 inlet;
#X obj 26 371 s \$0left;
#X obj 162 187 moses 50;
#X obj 88 121 t f f;
#X msg 157 213 0;
#X msg 213 230 1;
#X msg 193 315 color 14;
#X msg 260 318 color 13;
#X msg 120 312 color 16;
#X obj 195 285 sel 0 1 2;
#X obj 193 257 change -1;
#X msg 264 235 2;
#X obj 213 208 moses 90;
#X obj 87 96 + 1;
#X obj 85 34 change -1;
#X obj 86 53 clip 0 1;
#X obj 96 74 * 100;
#X obj 67 178 * 1.5;
#X msg 43 217 vis_size \$1 7;
#X connect 0 0 14 0;
#X connect 2 0 4 0;
#X connect 2 1 12 0;
#X connect 3 0 17 0;
#X connect 3 1 2 0;
#X connect 4 0 10 0;
#X connect 5 0 10 0;
#X connect 6 0 1 0;
#X connect 7 0 1 0;
#X connect 8 0 1 0;
#X connect 9 0 8 0;
#X connect 9 1 6 0;
#X connect 9 2 7 0;
#X connect 10 0 9 0;
#X connect 11 0 10 0;
#X connect 12 0 5 0;
#X connect 12 1 11 0;
#X connect 13 0 3 0;
#X connect 14 0 15 0;
#X connect 15 0 16 0;
#X connect 16 0 13 0;
#X connect 17 0 18 0;
#X connect 18 0 1 0;
#X restore 353 543 pd size&color;
#X obj 47 18 loadbang;
#X msg 52 44 0;
#X obj 241 85 inlet~;
#X obj 421 89 inlet~;
#X obj 493 184 line~;
#X obj 50 291 *~;
#X obj 173 309 *~;
#X obj 27 359 hip~ 10;
#X obj 102 369 hip~ 10;
#X obj 551 86 inlet vol;
#X obj 37 485 outlet~;
#X obj 144 490 outlet~;
#X msg 535 135 \$1 100;
#X obj 596 210 sel 0;
#X msg 558 243 0;
#X obj 647 260 metro 200;
#N canvas 0 0 734 553 size&color 0;
#X obj 90 14 inlet;
#X obj 162 187 moses 50;
#X obj 88 121 t f f;
#X msg 157 213 0;
#X msg 213 230 1;
#X msg 193 315 color 14;
#X msg 260 318 color 13;
#X msg 120 312 color 16;
#X obj 195 285 sel 0 1 2;
#X obj 193 257 change -1;
#X msg 264 235 2;
#X obj 213 208 moses 90;
#X obj 87 96 + 1;
#X obj 96 74 * 99;
#X obj 85 34 change -1;
#X obj 86 53 clip 0 1;
#X obj 26 371 s \$0right;
#X obj 83 178 * 1.5;
#X msg 44 224 vis_size \$1 7;
#X connect 0 0 14 0;
#X connect 1 0 3 0;
#X connect 1 1 11 0;
#X connect 2 0 17 0;
#X connect 2 1 1 0;
#X connect 3 0 9 0;
#X connect 4 0 9 0;
#X connect 5 0 16 0;
#X connect 6 0 16 0;
#X connect 7 0 16 0;
#X connect 8 0 7 0;
#X connect 8 1 5 0;
#X connect 8 2 6 0;
#X connect 9 0 8 0;
#X connect 10 0 9 0;
#X connect 11 0 4 0;
#X connect 11 1 10 0;
#X connect 12 0 2 0;
#X connect 13 0 12 0;
#X connect 14 0 15 0;
#X connect 15 0 13 0;
#X connect 17 0 18 0;
#X connect 18 0 16 0;
#X restore 485 536 pd size&color;
#X obj 566 166 != 0;
#X obj 367 426 iemlib/peakenv~ 1000;
#X obj 481 401 iemlib/peakenv~ 1000;
#X obj 654 547 outlet;
#X obj 663 172 r pd;
#X obj 670 224 route dsp;
#X obj 599 521 max;
#X obj 631 408 iemlib/peakenv~ 1000;
#X obj 766 404 iemlib/peakenv~ 1000;
#X obj 643 457 snapshot~;
#X obj 746 464 snapshot~;
#X obj 656 349 t b b;
#X connect 0 0 2 0;
#X connect 1 0 19 0;
#X connect 3 0 4 0;
#X connect 4 0 2 0;
#X connect 4 0 19 0;
#X connect 5 0 8 0;
#X connect 5 0 27 0;
#X connect 6 0 9 0;
#X connect 6 0 28 0;
#X connect 7 0 8 1;
#X connect 7 0 9 1;
#X connect 8 0 10 0;
#X connect 8 0 21 0;
#X connect 9 0 11 0;
#X connect 9 0 22 0;
#X connect 10 0 13 0;
#X connect 11 0 14 0;
#X connect 12 0 15 0;
#X connect 15 0 7 0;
#X connect 15 0 20 0;
#X connect 16 0 17 0;
#X connect 16 1 18 0;
#X connect 17 0 2 0;
#X connect 17 0 18 0;
#X connect 17 0 19 0;
#X connect 18 0 0 0;
#X connect 18 0 1 0;
#X connect 18 0 31 0;
#X connect 20 0 16 0;
#X connect 21 0 0 0;
#X connect 22 0 1 0;
#X connect 24 0 25 0;
#X connect 25 0 18 0;
#X connect 26 0 23 0;
#X connect 27 0 29 0;
#X connect 28 0 30 0;
#X connect 29 0 26 0;
#X connect 30 0 26 1;
#X connect 31 0 29 0;
#X connect 31 1 30 0;
#X restore 56 443 pd guts;
#X obj 244 401 / 100;
#X obj 244 425 pow 3;
#X obj 102 134 cnv 7 149 15 empty empty empty 20 12 0 14 -1 -66577
0;
#X obj 102 134 cnv 1 1 7 empty \$0left empty 20 12 0 14 -24198 -262144
0;
#X obj 102 142 cnv 1 1 7 empty \$0right empty 20 12 0 14 -24198 -262144
0;
#X obj 106 116 hsl 100 15 0 100 0 0 empty empty vol 104 8 0 9 -228856
-1 -1 0 1;
#X obj 99 51 iemlib/init 0;
#X obj 25 563 outlet~;
#X obj 143 562 outlet~;
#X obj 10 199 adc~ 1 2;
#X obj 234 116 cnv 15 15 15 empty \$0led empty 20 12 0 14 -237178 -262144
0;
#X obj 306 302 > 0;
#X msg 311 433 \; pd dsp 1;
#X obj 306 326 sel 1;
#X obj 306 351 value DSP;
#X obj 312 382 sel 0;
#X obj 310 406 t b b;
#X msg 365 408 1;
#X obj 244 273 t f f;
#X obj 356 493 delay 300;
#X obj 243 476 t f b;
#X obj 359 694 s \$0led;
#X msg 357 517 0;
#X obj 443 494 loadbang;
#X obj 372 592 change -1;
#X obj 285 530 moses 0.5;
#X msg 236 547 0;
#X msg 291 550 1;
#X msg 333 552 2;
#X msg 237 656 color -1.50666e+07;
#X msg 480 654 color -58625;
#X obj 370 619 sel 0 1 2;
#X msg 356 654 color -1.17242e+07;
#X obj 227 509 moses 0.001;
#X connect 0 0 8 0;
#X connect 0 1 9 0;
#X connect 0 2 21 0;
#X connect 1 0 2 0;
#X connect 2 0 0 2;
#X connect 6 0 19 0;
#X connect 7 0 6 0;
#X connect 10 0 0 0;
#X connect 10 1 0 1;
#X connect 12 0 14 0;
#X connect 14 0 15 0;
#X connect 15 0 16 0;
#X connect 16 0 17 0;
#X connect 17 0 13 0;
#X connect 17 1 18 0;
#X connect 18 0 15 0;
#X connect 19 0 1 0;
#X connect 19 1 12 0;
#X connect 20 0 23 0;
#X connect 21 0 34 0;
#X connect 21 1 20 0;
#X connect 23 0 25 0;
#X connect 24 0 23 0;
#X connect 25 0 32 0;
#X connect 26 0 28 0;
#X connect 26 1 29 0;
#X connect 27 0 25 0;
#X connect 28 0 25 0;
#X connect 29 0 25 0;
#X connect 30 0 22 0;
#X connect 31 0 22 0;
#X connect 32 0 30 0;
#X connect 32 1 33 0;
#X connect 32 2 31 0;
#X connect 33 0 22 0;
#X connect 34 0 27 0;
#X connect 34 1 26 0;
#X coords 0 -1 1 1 153 52 1 100 100;
