#N canvas 0 0 450 300 10;
#X obj 67 71 inlet;
#X obj 99 260 outlet;
#X obj 207 74 inlet;
#X obj 73 169 zexy/repack \$1;
#X obj 90 114 t b a;
#X obj 79 208 route bang;
#X connect 0 0 4 0;
#X connect 2 0 3 1;
#X connect 3 0 5 0;
#X connect 4 0 3 0;
#X connect 4 1 3 0;
#X connect 5 1 1 0;
