#N canvas 370 317 452 302 10;
#X obj 41 21 inlet;
#X obj 132 110 samplerate~;
#X obj 53 266 outlet;
#X obj 135 136 / 1000;
#X obj 52 204 * 44.1;
#X obj 52 83 t f b;
#X obj 60 48 route float;
#X obj 148 59 unpack f f;
#X connect 0 0 6 0;
#X connect 1 0 3 0;
#X connect 3 0 4 1;
#X connect 4 0 2 0;
#X connect 5 0 4 0;
#X connect 5 1 1 0;
#X connect 6 0 5 0;
#X connect 6 1 7 0;
#X connect 7 0 4 0;
#X connect 7 1 3 0;
