#N canvas 483 102 555 353 10;
#X obj 170 59 inlet;
#X obj 167 131 sel 0 1 2 3 4 5 6 7 8 9 10 11;
#X obj 270 295 symbol;
#X obj 273 319 outlet;
#X msg 111 191 C;
#X msg 172 192 D;
#X msg 142 192 C#;
#X msg 203 191 Eb;
#X msg 235 190 E;
#X msg 265 191 F;
#X msg 295 191 F#;
#X msg 326 190 G;
#X msg 356 192 Ab;
#X msg 387 193 A;
#X msg 417 193 Bb;
#X msg 448 192 B;
#X obj 311 80 % 12;
#X floatatom 316 111 5 0 0 0 - - -;
#X connect 0 0 16 0;
#X connect 1 0 4 0;
#X connect 1 1 6 0;
#X connect 1 2 5 0;
#X connect 1 3 7 0;
#X connect 1 4 8 0;
#X connect 1 5 9 0;
#X connect 1 6 10 0;
#X connect 1 7 11 0;
#X connect 1 8 12 0;
#X connect 1 9 13 0;
#X connect 1 10 14 0;
#X connect 1 11 15 0;
#X connect 2 0 3 0;
#X connect 4 0 2 0;
#X connect 5 0 2 0;
#X connect 6 0 2 0;
#X connect 7 0 2 0;
#X connect 8 0 2 0;
#X connect 9 0 2 0;
#X connect 10 0 2 0;
#X connect 11 0 2 0;
#X connect 12 0 2 0;
#X connect 13 0 2 0;
#X connect 14 0 2 0;
#X connect 15 0 2 0;
#X connect 16 0 17 0;
#X connect 16 0 1 0;
