#N canvas 263 342 446 296 10;
#X obj 93 21 inlet;
#X obj 93 162 outlet;
#X obj 148 80 sqrt;
#X msg 148 58 5;
#X obj 148 101 + 1;
#X obj 148 121 / 2;
#X obj 148 35 loadbang;
#X obj 93 125 f;
#X connect 0 0 7 0;
#X connect 2 0 4 0;
#X connect 3 0 2 0;
#X connect 4 0 5 0;
#X connect 5 0 7 1;
#X connect 6 0 3 0;
#X connect 7 0 1 0;
