#N canvas 56 298 464 314 10;
#X obj 109 76 inlet~;
#X obj 109 123 *~ 10;
#X obj 324 59 inlet;
#X text 365 59 punch power;
#X obj 93 242 outlet~;
#X text 46 27 NEEDS ZEXY;
#X text 48 16 PUNCH BOOSTS THE AMPLITUDE NEVER EXCEEDING 1 or -1;
#X obj 229 76 inlet~;
#X obj 229 123 *~ 10;
#X obj 213 242 outlet~;
#X obj 301 146 tof/argument 1 10;
#X obj 301 122 loadbang;
#X obj 114 187 ./limit~;
#X connect 0 0 1 0;
#X connect 1 0 12 0;
#X connect 2 0 1 1;
#X connect 2 0 8 1;
#X connect 7 0 8 0;
#X connect 8 0 12 1;
#X connect 10 0 1 1;
#X connect 10 0 8 1;
#X connect 11 0 10 0;
#X connect 12 0 4 0;
#X connect 12 1 9 0;
