#N canvas 170 114 720 484 10;
#X obj 121 105 *~ 0.2;
#X obj 121 68 osc~ 60;
#X text -20 11 Description: Boost the input signal to it's maximum
amplitude while never clipping.;
#X obj 181 68 osc~ 120;
#X obj 181 105 *~ 0.05;
#X obj 246 104 loadbang;
#X msg 246 124 10;
#X obj 10 178 cyclone/Scope~ 130 130 256 3 128 -1 1 0 0 0 0 102 255
51 135 135 135 0;
#X obj 152 178 cyclone/Scope~ 130 130 256 3 128 -1 1 0 0 0 0 102 255
51 135 135 135 0;
#X obj 151 149 mtl/punch~;
#X floatatom 244 145 5 0 0 0 - - -;
#X text -19 40 tags: mix~;
#X connect 0 0 7 0;
#X connect 0 0 9 0;
#X connect 1 0 0 0;
#X connect 3 0 4 0;
#X connect 4 0 9 1;
#X connect 5 0 6 0;
#X connect 6 0 9 2;
#X connect 9 0 8 0;
#X connect 10 0 9 2;
