#N canvas 167 187 1016 505 10;
#X obj 42 454 outlet~ left;
#X obj 134 454 outlet~ right;
#X obj 44 71 inlet~ left;
#X obj 131 71 inlet~ right;
#N canvas 2 89 1012 443 freeverb 0;
#X obj 43 16 inlet~;
#X obj 39 414 outlet~;
#X obj 154 412 outlet~;
#X obj 187 15 inlet~;
#X obj 283 8 inlet;
#X obj 350 7 inlet;
#X obj 410 8 inlet;
#X msg 110 63 roomsize \$1;
#X msg 110 108 damping \$1;
#X msg 110 152 width \$1;
#X msg 120 206 wet \$1;
#X msg 124 229 dry \$1;
#X msg 163 302 freeze \$1;
#X msg 209 346 bypass \$1;
#X obj 481 6 inlet;
#X msg 198 155 1;
#X msg 230 156 0;
#X obj 221 131 loadbang;
#X obj 94 381 freeverb/freeverb~;
#X connect 0 0 18 0;
#X connect 3 0 18 1;
#X connect 4 0 7 0;
#X connect 5 0 8 0;
#X connect 6 0 9 0;
#X connect 7 0 18 0;
#X connect 8 0 18 0;
#X connect 9 0 18 0;
#X connect 10 0 18 0;
#X connect 11 0 18 0;
#X connect 12 0 18 0;
#X connect 13 0 18 0;
#X connect 14 0 12 0;
#X connect 15 0 10 0;
#X connect 16 0 11 0;
#X connect 16 0 13 0;
#X connect 17 0 15 0;
#X connect 17 0 16 0;
#X connect 18 0 1 0;
#X connect 18 1 2 0;
#X restore 100 314 pd freeverb;
#X obj 43 382 tof/crossfade~ 2;
#X obj 742 130 inlet params;
#X obj 742 176 print PARAM_NOTFOUND;
#X obj 194 325 tof/param /wet 0 /g slider 0 1;
#X obj 194 368 line~;
#X msg 194 347 \$1 5;
#X obj 360 157 tof/param /width 1 /g slider 0 1;
#X obj 360 117 tof/param /roomsize 0.3 /g slider 0.11 1.6;
#X obj 360 177 tof/param /freeze 0 /g tgl;
#X obj 360 137 tof/param /damping 0.4 /g slider 0 2;
#X obj 741 152 tof/param route;
#X obj 742 233 iemguts/propertybang;
#X obj 743 262 tof/param gui;
#X connect 2 0 4 0;
#X connect 2 0 5 0;
#X connect 3 0 4 1;
#X connect 3 0 5 1;
#X connect 4 0 5 2;
#X connect 4 1 5 3;
#X connect 5 0 0 0;
#X connect 5 1 1 0;
#X connect 6 0 15 0;
#X connect 8 0 10 0;
#X connect 9 0 5 4;
#X connect 10 0 9 0;
#X connect 11 0 4 4;
#X connect 12 0 4 2;
#X connect 13 0 4 5;
#X connect 14 0 4 3;
#X connect 15 0 7 0;
#X connect 16 0 17 0;
