#N canvas 1200 39 637 654 10;
#X obj 30 19 inlet;
#X obj 104 621 outlet;
#X obj 355 33 inlet;
#X obj 228 259 list trim;
#X obj 172 579 cyclone/tosymbol;
#X obj 386 63 loadbang;
#X obj 174 453 list split;
#X obj 345 95 f \$1;
#X obj 345 122 int;
#X obj 338 405 zexy/length;
#X obj 302 203 != 0;
#X obj 111 237 zexy/demultiplex 0 1;
#X obj 179 414 zexy/demultiplex 0 1;
#X obj 364 250 < 0;
#X obj 367 465 +;
#X obj 212 315 moocow/any2string 0 -1;
#X obj 174 543 moocow/string2any 0 -1;
#X obj 314 498 list split;
#X obj 503 399 f;
#X obj 344 156 t f f f f f;
#X obj 503 427 abs;
#X obj 485 614 outlet 1_if_shrunk;
#X obj 209 345 t l b l;
#X obj 342 431 t f f;
#X obj 507 472 <;
#X obj 82 431 t s b;
#X msg 116 465 0;
#X connect 0 0 11 0;
#X connect 2 0 7 0;
#X connect 3 0 15 0;
#X connect 4 0 1 0;
#X connect 5 0 7 0;
#X connect 6 0 16 0;
#X connect 6 2 16 0;
#X connect 7 0 8 0;
#X connect 8 0 19 0;
#X connect 9 0 23 0;
#X connect 10 0 11 1;
#X connect 11 0 25 0;
#X connect 11 1 3 0;
#X connect 12 0 6 0;
#X connect 12 1 17 0;
#X connect 13 0 12 1;
#X connect 14 0 17 1;
#X connect 15 0 22 0;
#X connect 16 0 4 0;
#X connect 17 1 16 0;
#X connect 18 0 20 0;
#X connect 19 0 10 0;
#X connect 19 1 13 0;
#X connect 19 2 6 1;
#X connect 19 3 14 1;
#X connect 19 4 18 1;
#X connect 20 0 24 0;
#X connect 22 0 12 0;
#X connect 22 1 18 0;
#X connect 22 2 9 0;
#X connect 23 0 14 0;
#X connect 23 1 24 1;
#X connect 24 0 21 0;
#X connect 25 0 1 0;
#X connect 25 1 26 0;
#X connect 26 0 21 0;
