#N canvas 500 433 173 77 10;
#X obj 0 14 cnv 15 175 55 empty \$0-background-cnv empty 20 12 1 14
-261681 -66577 0;
#X obj 693 2 inlet OSC;
#N canvas 0 0 981 424 saves 0;
#X obj 45 160 originator \$1 \$0;
#X obj 152 132 inlet OSC;
#X obj 507 86 r \$0-s1;
#X obj 507 110 commun /s1 \$0;
#X obj 606 86 r \$0-s2;
#X obj 606 110 commun /s2 \$0;
#X obj 47 55 r \$0-substate;
#X obj 15 13 inlet substate;
#X obj 15 35 route substate;
#X obj 159 55 r \$0-copy;
#X msg 159 76 copy;
#X obj 243 50 r \$0-paste;
#X msg 241 71 paste;
#X text 154 15 This is the originator \, including some ready to use
standard functionality.;
#X text 507 56 Put your commun sends here \, if you like.;
#X msg 15 91 setsub \$1;
#X msg 249 184 svdir \$1;
#X obj 250 139 bng 15 250 50 0 empty empty empty 0 -6 0 8 -262144 -1
-1;
#X obj 250 163 savepanel;
#X msg 108 214 svdir /tmp/svdir.dat;
#X msg 78 241 lddir /tmp/svdir.dat;
#X obj 152 189 outlet OSC;
#X obj 606 135 s \$0-s2;
#X obj 507 135 s \$0-s1;
#X obj 707 85 r \$0-s3;
#X obj 707 109 commun /s3 \$0;
#X obj 707 134 s \$0-s3;
#X obj 814 82 r \$0-s4;
#X obj 814 106 commun /s4 \$0;
#X obj 814 131 s \$0-s4;
#X obj 509 168 r \$0-s5;
#X obj 509 217 s \$0-s5;
#X obj 509 192 commun /s5 \$0;
#X obj 617 165 r \$0-s6;
#X obj 617 189 commun /s6 \$0;
#X obj 617 214 s \$0-s6;
#X obj 552 294 commun /fade \$0;
#X obj 554 273 r \$0-fade;
#X obj 551 317 s \$0-fade;
#X obj 483 276 loadbang;
#X msg 483 299 100;
#X connect 0 2 21 0;
#X connect 1 0 0 1;
#X connect 2 0 3 0;
#X connect 3 0 23 0;
#X connect 4 0 5 0;
#X connect 5 0 22 0;
#X connect 6 0 15 0;
#X connect 7 0 8 0;
#X connect 8 0 15 0;
#X connect 8 1 0 0;
#X connect 9 0 10 0;
#X connect 10 0 0 0;
#X connect 11 0 12 0;
#X connect 12 0 0 0;
#X connect 15 0 0 0;
#X connect 16 0 0 0;
#X connect 17 0 18 0;
#X connect 18 0 16 0;
#X connect 19 0 0 0;
#X connect 20 0 0 0;
#X connect 24 0 25 0;
#X connect 25 0 26 0;
#X connect 27 0 28 0;
#X connect 28 0 29 0;
#X connect 30 0 32 0;
#X connect 32 0 31 0;
#X connect 33 0 34 0;
#X connect 34 0 35 0;
#X connect 36 0 38 0;
#X connect 37 0 36 0;
#X connect 39 0 40 0;
#X connect 40 0 38 0;
#X restore 652 34 pd saves;
#N canvas 569 61 450 300 cnv.ctl 0;
#X obj 90 188 s \$0-background-cnv;
#X floatatom 108 59 5 100 1000 0 width - -;
#X floatatom 112 83 4 50 500 0 height - -;
#X obj 92 132 pack 0 0;
#X msg 92 159 vis_size \$1 \$2;
#X obj 110 106 t b f;
#X connect 1 0 3 0;
#X connect 2 0 5 0;
#X connect 3 0 4 0;
#X connect 4 0 0 0;
#X connect 5 0 3 0;
#X connect 5 1 3 1;
#X restore 341 1 pd cnv.ctl;
#X text 107 -2 look! ==>;
#X obj 652 59 outlet OSC;
#X obj 290 2 inlet~;
#N canvas 731 258 450 300 matrix 0;
#X obj 41 248 outlet~;
#X obj 99 249 outlet~;
#X obj 109 188 inlet~;
#X obj 63 107 r \$0-matrix;
#X obj 82 157 s \$0-matrix-out;
#N canvas 0 0 1131 346 set_elements 0;
#X obj 236 116 t b f;
#X obj 65 118 t b f;
#X obj 67 88 * 0.00781;
#X obj 236 91 * 0.00781;
#X obj 62 62 r \$0-s1;
#X obj 235 67 r \$0-s2;
#X obj 66 161 s \$0-matrix;
#X obj 223 181 s \$0-matrix;
#X obj 418 119 t b f;
#X obj 418 94 * 0.00781;
#X obj 405 184 s \$0-matrix;
#X obj 593 128 t b f;
#X obj 593 103 * 0.00781;
#X obj 580 193 s \$0-matrix;
#X obj 758 134 t b f;
#X obj 758 109 * 0.00781;
#X obj 745 199 s \$0-matrix;
#X obj 912 135 t b f;
#X obj 912 110 * 0.00781;
#X obj 899 200 s \$0-matrix;
#X obj 911 86 r \$0-s6;
#X obj 757 85 r \$0-s5;
#X obj 592 79 r \$0-s4;
#X obj 417 70 r \$0-s3;
#X msg 102 137 element 1 1 \$1;
#X msg 265 148 element 2 1 \$1;
#X msg 446 151 element 3 1 \$1;
#X msg 621 161 element 4 1 \$1;
#X msg 787 166 element 5 1 \$1;
#X msg 941 166 element 6 1 \$1;
#X connect 0 0 7 0;
#X connect 0 1 25 0;
#X connect 1 0 6 0;
#X connect 1 1 24 0;
#X connect 2 0 1 0;
#X connect 3 0 0 0;
#X connect 4 0 2 0;
#X connect 5 0 3 0;
#X connect 8 0 10 0;
#X connect 8 1 26 0;
#X connect 9 0 8 0;
#X connect 11 0 13 0;
#X connect 11 1 27 0;
#X connect 12 0 11 0;
#X connect 14 0 16 0;
#X connect 14 1 28 0;
#X connect 15 0 14 0;
#X connect 17 0 19 0;
#X connect 17 1 29 0;
#X connect 18 0 17 0;
#X connect 20 0 18 0;
#X connect 21 0 15 0;
#X connect 22 0 12 0;
#X connect 23 0 9 0;
#X connect 24 0 6 0;
#X connect 25 0 7 0;
#X connect 26 0 10 0;
#X connect 27 0 13 0;
#X connect 28 0 16 0;
#X connect 29 0 19 0;
#X restore 144 21 pd set_elements;
#X obj 158 249 outlet~;
#X obj 216 250 outlet~;
#X obj 278 252 outlet~;
#X obj 336 253 outlet~;
#X obj 158 186 r \$0-fade;
#X obj 63 209 matrix_mul~ 6 1 100;
#X obj 63 135 mtx 6 1;
#X connect 2 0 11 1;
#X connect 3 0 12 0;
#X connect 10 0 11 2;
#X connect 11 0 0 0;
#X connect 11 1 1 0;
#X connect 11 2 6 0;
#X connect 11 3 7 0;
#X connect 11 4 8 0;
#X connect 11 5 9 0;
#X connect 12 0 4 0;
#X connect 12 0 11 0;
#X restore 335 26 pd matrix;
#X obj 274 60 outlet~;
#X obj 332 61 outlet~;
#X obj 14 29 vsl 15 32 0 127 0 0 \$0-s1 \$0-s1 main 0 -8 0 8 -262144
-1 -1 0 1;
#X obj 42 29 vsl 15 32 0 127 0 0 \$0-s2 \$0-s2 del 0 -8 0 8 -262144
-1 -1 0 1;
#X obj 71 29 vsl 15 32 0 127 0 0 \$0-s3 \$0-s3 rev 0 -8 0 8 -262144
-1 -1 0 1;
#X obj 100 29 vsl 15 32 0 127 0 0 \$0-s4 \$0-s4 chor 0 -8 0 8 -262144
-1 -1 0 1;
#X obj 403 63 outlet~;
#X obj 461 64 outlet~;
#X obj 523 66 outlet~;
#X obj 581 67 outlet~;
#X obj 126 41 nbx 3 12 0 1e+37 0 0 \$0-fade \$0-fade fade 0 -6 0 8
-233017 -1 -1 100 256;
#X connect 1 0 2 1;
#X connect 2 0 5 0;
#X connect 6 0 7 0;
#X connect 7 0 8 0;
#X connect 7 1 9 0;
#X connect 7 2 14 0;
#X connect 7 3 15 0;
#X connect 7 4 16 0;
#X connect 7 5 17 0;
#X coords 0 0 1 1 177 70 1;
