#N canvas 0 0 450 300 10;
#X obj 24 28 inlet;
#X obj 24 51 change;
#X obj 54 98 delay;
#X obj 24 73 t b b;
#X msg 24 98 0;
#X obj 24 146 outlet;
#X msg 54 125 1;
#X obj 96 98 loadbang;
#X obj 84 28 inlet;
#X text 23 4 args: time;
#X obj 84 77 \$1;
#X obj 126 28 loadbang;
#X connect 0 0 1 0;
#X connect 1 0 3 0;
#X connect 2 0 6 0;
#X connect 3 0 4 0;
#X connect 3 1 2 0;
#X connect 4 0 5 0;
#X connect 6 0 5 0;
#X connect 7 0 6 0;
#X connect 8 0 10 0;
#X connect 10 0 2 1;
#X connect 11 0 10 0;
