#N canvas 363 281 450 300 10;
#X obj 82 249 outlet;
#X obj 82 45 notein \$1;
#X obj 166 249 s \$2;
#X obj 82 77 pack f f;
#X connect 1 0 3 0;
#X connect 1 1 3 1;
#X connect 3 0 0 0;
#X connect 3 0 2 0;
