#N canvas 25 36 611 620 10;
#X obj 356 296 clip~ -0.1 0.1;
#N canvas 0 0 1251 846 noizy 0;
#X obj 49 173 wrap~;
#X obj 44 148 -~ 0.5;
#X obj 49 195 -~ 0.5;
#X obj 26 217 -~;
#X obj 69 363 wrap~;
#X obj 62 336 -~ 0.5;
#X obj 69 389 -~ 0.5;
#X obj 52 417 -~;
#X obj 26 447 *~;
#X obj 62 314 phasor~;
#X obj 60 -2 inlet;
#X obj 25 476 outlet~;
#X obj 52 95 unpack 1 2 3;
#X obj 45 126 phasor~;
#X obj 63 270 *~;
#X obj 63 291 +~;
#X connect 0 0 2 0;
#X connect 1 0 0 0;
#X connect 1 0 3 0;
#X connect 2 0 3 1;
#X connect 3 0 8 0;
#X connect 3 0 14 0;
#X connect 4 0 6 0;
#X connect 5 0 4 0;
#X connect 5 0 7 0;
#X connect 6 0 7 1;
#X connect 7 0 8 1;
#X connect 8 0 11 0;
#X connect 9 0 5 0;
#X connect 10 0 12 0;
#X connect 12 0 13 0;
#X connect 12 1 14 1;
#X connect 12 2 15 1;
#X connect 13 0 1 0;
#X connect 14 0 15 0;
#X connect 15 0 9 0;
#X restore 415 253 pd noizy;
#X obj 341 436 outlet~;
#X obj 397 39 loadbang;
#X obj 341 345 *~;
#X obj 236 255 line~;
#X obj 98 174 del 3;
#X obj 74 147 t;
#X msg 63 175 1 3;
#X obj 303 319 *~;
#X msg 97 200 0 200;
#X msg 455 118 1478 1765 1249;
#X msg 300 122 893 2348 3256;
#N canvas 0 0 1251 846 noizy 0;
#X obj 49 173 wrap~;
#X obj 44 148 -~ 0.5;
#X obj 49 195 -~ 0.5;
#X obj 26 217 -~;
#X obj 69 363 wrap~;
#X obj 62 336 -~ 0.5;
#X obj 69 389 -~ 0.5;
#X obj 52 417 -~;
#X obj 26 447 *~;
#X obj 62 314 phasor~;
#X obj 60 -2 inlet;
#X obj 25 476 outlet~;
#X obj 52 95 unpack 1 2 3;
#X obj 45 126 phasor~;
#X obj 63 270 *~;
#X obj 63 291 +~;
#X connect 0 0 2 0;
#X connect 1 0 0 0;
#X connect 1 0 3 0;
#X connect 2 0 3 1;
#X connect 3 0 8 0;
#X connect 3 0 14 0;
#X connect 4 0 6 0;
#X connect 5 0 4 0;
#X connect 5 0 7 0;
#X connect 6 0 7 1;
#X connect 7 0 8 1;
#X connect 8 0 11 0;
#X connect 9 0 5 0;
#X connect 10 0 12 0;
#X connect 12 0 13 0;
#X connect 12 1 14 1;
#X connect 12 2 15 1;
#X connect 13 0 1 0;
#X connect 14 0 15 0;
#X connect 15 0 9 0;
#X restore 326 231 pd noizy;
#X obj 341 410 *~ 0.55;
#X obj 242 177 del 3;
#X obj 218 150 t;
#X msg 207 177 1 3;
#X msg 242 202 0 725.714;
#X text 215 103 long;
#X text 66 102 short;
#X obj 340 377 hip~ 400;
#X obj 8 26 bng 16 250 50 0 \$0/short \$1/short short 0 -6 0 8 -260818
-1 -1;
#X obj 49 26 bng 16 250 50 0 \$0/long \$1/long long 0 -6 0 8 -260818
-1 -1;
#X obj 65 124 r \$0/short;
#X obj 209 127 r \$0/long;
#X obj 19 505 sssad/auto \$0/length \$1/length;
#X obj 9 58 hsl 64 16 0 127 0 1 \$0/length \$1/length length -2 -6
0 8 -260818 -1 -1 3000 1;
#X obj 261 33 r \$0/length;
#X msg 261 80 set 0 \$1;
#X obj 261 56 * 12;
#X connect 0 0 4 1;
#X connect 1 0 0 0;
#X connect 3 0 11 0;
#X connect 3 0 12 0;
#X connect 4 0 21 0;
#X connect 5 0 9 0;
#X connect 5 0 9 1;
#X connect 6 0 10 0;
#X connect 7 0 6 0;
#X connect 7 0 8 0;
#X connect 8 0 5 0;
#X connect 9 0 4 0;
#X connect 10 0 5 0;
#X connect 11 0 1 0;
#X connect 12 0 13 0;
#X connect 13 0 0 0;
#X connect 14 0 2 0;
#X connect 15 0 18 0;
#X connect 16 0 15 0;
#X connect 16 0 17 0;
#X connect 17 0 5 0;
#X connect 18 0 5 0;
#X connect 21 0 14 0;
#X connect 24 0 7 0;
#X connect 25 0 16 0;
#X connect 28 0 30 0;
#X connect 29 0 18 0;
#X connect 30 0 29 0;
#X coords 0 -1 1 1 120 80 1 0 0;
