#N canvas 408 244 450 300 10;
#X obj 100 262 writesf~ 2;
#X msg 294 158 stop;
#X msg 85 146 start;
#X obj 52 70 catch~ mainout-l;
#X obj 208 57 catch~ mainout-r;
#X obj 8 38 bng 16 250 50 0 \$0/open \$1/open open 18 8 0 8 -260818
-1 -1;
#X msg 193 145 open \$1;
#X obj 193 121 savepanel;
#X obj 13 222 s~ main-l;
#X obj 300 89 s~ main-r;
#X obj 206 211 outlet~;
#X obj 310 213 outlet~;
#X obj 193 97 r \$0/open;
#X obj 85 106 r \$0/record;
#X obj 8 18 tgl 16 0 \$0/record \$1/record record 18 8 0 8 -260818
-1 -1 0 1;
#X obj 294 119 r \$0/record;
#X obj 294 139 sel 0;
#X obj 85 126 sel 1;
#X obj 102 40 inlet~;
#X obj 268 33 inlet~;
#X obj 105 176 print a;
#X obj 323 185 print b;
#X msg 41 164 print;
#X connect 1 0 0 0;
#X connect 1 0 21 0;
#X connect 2 0 0 0;
#X connect 2 0 20 0;
#X connect 3 0 0 0;
#X connect 3 0 8 0;
#X connect 3 0 10 0;
#X connect 4 0 0 1;
#X connect 4 0 9 0;
#X connect 4 0 11 0;
#X connect 6 0 0 0;
#X connect 7 0 6 0;
#X connect 12 0 7 0;
#X connect 13 0 17 0;
#X connect 15 0 16 0;
#X connect 16 0 1 0;
#X connect 17 0 2 0;
#X connect 18 0 0 0;
#X connect 18 0 10 0;
#X connect 19 0 0 1;
#X connect 19 0 11 0;
#X connect 22 0 0 0;
#X coords 0 0 1 1 85 60 1 0 0;
