#N canvas 144 335 796 297 10;
#X obj 108 127 +;
#X obj 108 104 t b f;
#X obj 160 129 +;
#X obj 160 106 t b f;
#X obj 254 129 +;
#X obj 254 106 t b f;
#X obj 201 231 outlet;
#X obj 201 155 inlet;
#X obj 1 1 cnv 15 358 31 empty empty empty 20 12 0 14 -260818 -66577
0;
#X obj 271 4 s-togs 3;
#X obj 4 4 s-togs;
#X obj 182 4 s-togs 2;
#X obj 93 4 s-togs 1;
#X obj 265 157 outlet;
#X obj 201 201 s-mseq 2 16 0 \$1;
#X connect 0 0 2 0;
#X connect 1 0 0 0;
#X connect 1 1 0 1;
#X connect 2 0 4 0;
#X connect 3 0 2 0;
#X connect 3 1 2 1;
#X connect 4 0 13 0;
#X connect 4 0 14 1;
#X connect 5 0 4 0;
#X connect 5 1 4 1;
#X connect 7 0 14 0;
#X connect 9 0 5 0;
#X connect 10 0 0 0;
#X connect 11 0 3 0;
#X connect 12 0 1 0;
#X connect 14 0 6 0;
#X coords 0 0 1 1 360 33 1 0 0;
