#N canvas 158 174 450 300 10;
#X msg 21 159 \; \$1data \$2 \$3 \;;
#X obj 21 134 pack f f f;
#X obj 21 56 t b b f;
#X obj 21 106 \$1;
#X obj 21 11 r \$2;
#X obj 53 106 \$3;
#X obj 21 33 route color;
#X connect 1 0 0 0;
#X connect 2 0 3 0;
#X connect 2 1 5 0;
#X connect 2 2 1 2;
#X connect 3 0 1 0;
#X connect 4 0 6 0;
#X connect 5 0 1 1;
#X connect 6 1 2 0;
