#N canvas 475 4 450 300 10;
#X obj 119 63 repeat 3;
#X obj 119 176 repeat 3;
#X obj 119 269 cube 0.5;
#X obj 119 199 colorRGB 0.66 0.66 0.66;
#X obj 119 128 colorRGB 1 0.52 0.3;
#X obj 119 246 rotateXYZ 0 0 1;
#X obj 119 84 translateXYZ 0.2 0 0;
#X floatatom 282 33 5 0 0 0 - - -;
#X obj 119 105 rotateXYZ 0 90 0;
#X obj 275 61 * 2;
#X obj 119 153 cuboid 0.1 1 1;
#X obj 119 222 translateXYZ 0.33 0 0;
#X floatatom 315 102 5 0 0 0 - - -;
#X obj 264 147 / 60;
#X obj 315 136 / 360;
#X obj 292 171 / 120;
#X obj 6 30 nbx 4 14 -360 360 0 0 \$0/stretch \$1/stretch stretch 0
-6 0 8 -233017 -128992 -1 -251 256;
#X obj 7 59 nbx 4 14 -360 360 0 0 \$0/twist \$1/twist twist 0 -6 0
8 -233017 -128992 -1 180 256;
#X obj 119 0 inlet;
#X obj 282 13 r \$0/twist;
#X obj 315 81 r \$0/stretch;
#X obj 119 20 separator;
#X obj 119 40 scaleXYZ 0.5 0.5 0.5;
#X connect 0 0 6 0;
#X connect 1 0 3 0;
#X connect 3 0 11 0;
#X connect 4 0 10 0;
#X connect 5 0 2 0;
#X connect 6 0 8 0;
#X connect 7 0 8 3;
#X connect 7 0 9 0;
#X connect 7 0 5 1;
#X connect 7 0 5 2;
#X connect 8 0 4 0;
#X connect 9 0 8 2;
#X connect 10 0 1 0;
#X connect 11 0 5 0;
#X connect 12 0 13 0;
#X connect 12 0 14 0;
#X connect 12 0 15 0;
#X connect 13 0 11 1;
#X connect 14 0 6 1;
#X connect 14 0 6 3;
#X connect 15 0 5 3;
#X connect 15 0 8 1;
#X connect 18 0 21 0;
#X connect 19 0 7 0;
#X connect 20 0 12 0;
#X connect 21 0 22 0;
#X connect 22 0 0 0;
#X coords 0 -1 1 1 85 80 1 0 0;
