#N canvas 380 148 383 404 10;
#X obj 74 303 pix_texture;
#X obj 138 172 +~;
#X obj 74 234 pix_sig2pix~ 64 64;
#X msg 90 279 quality 0;
#X obj 149 48 block~ 4096;
#X obj 74 106 inlet;
#X obj 137 106 inlet~;
#X obj 155 142 inlet~;
#X obj 90 257 loadbang;
#X obj 74 336 outlet;
#X connect 0 0 9 0;
#X connect 1 0 2 2;
#X connect 1 0 2 1;
#X connect 1 0 2 0;
#X connect 1 0 2 3;
#X connect 2 0 0 0;
#X connect 3 0 0 0;
#X connect 5 0 2 0;
#X connect 6 0 1 0;
#X connect 7 0 1 1;
#X connect 8 0 3 0;
