#N canvas 415 240 552 487 10;
#X obj 79 44 tgl 15 0 empty empty empty 0 -6 0 8 -262144 -1 -1 1 1
;
#X obj 80 137 tgl 15 0 empty empty empty 0 -6 0 8 -262144 -1 -1 1 1
;
#X obj 80 230 tgl 15 0 empty empty empty 0 -6 0 8 -262144 -1 -1 1 1
;
#X obj 245 43 tgl 15 0 empty empty empty 0 -6 0 8 -262144 -1 -1 0 1
;
#X obj 269 139 tgl 15 0 empty empty empty 0 -6 0 8 -262144 -1 -1 0
1;
#X obj 295 230 tgl 15 0 empty empty empty 0 -6 0 8 -262144 -1 -1 0
1;
#X obj 75 339 tgl 15 0 empty empty empty 0 -6 0 8 -262144 -1 -1 1 1
;
#X obj 75 385 tgl 15 0 empty empty empty 0 -6 0 8 -262144 -1 -1 0 1
;
#X obj 80 117 singleton TABLE_X table x;
#X obj 80 211 singleton TABLE_Y table y 100;
#X obj 269 119 singleton TABLE_X table x;
#X obj 295 211 singleton TABLE_Y table y 100;
#X obj 75 320 singleton LIST list prepend 1 2 3 4 5 6 7 8;
#X obj 75 365 singleton LIST list prepend 1 2 3 4 5 6 7 8;
#X text 85 292 Up to 10 arguments supported;
#X obj 81 85 tgl 15 0 empty empty empty 0 -6 0 8 -262144 -1 -1 1 1
;
#X obj 247 84 tgl 15 0 empty empty empty 0 -6 0 8 -262144 -1 -1 0 1
;
#X obj 79 24 singleton MUL_A *;
#X obj 245 23 singleton MUL_A *;
#X obj 248 65 singleton MUL_B *;
#X obj 81 65 singleton MUL_B *;
#X connect 8 0 1 0;
#X connect 9 0 2 0;
#X connect 10 0 4 0;
#X connect 11 0 5 0;
#X connect 12 0 6 0;
#X connect 13 0 7 0;
#X connect 17 0 0 0;
#X connect 18 0 3 0;
#X connect 19 0 16 0;
#X connect 20 0 15 0;
