#N canvas 595 364 361 64 10;
#X obj 92 21 s \$0cats;
#X obj 105 14 s \$0abss;
#X obj 102 4 r \$0cat;
#X obj 181 4 r \$0abs;
#X obj 0 0 cnv 15 358 60 empty empty pdmtl 4 6 0 10 -1 -262144 0;
#X obj 2 20 popup 150 20 grey90 ...;
#X obj 155 20 popup 200 20 grey90 ...;
#N canvas 0 0 1012 734 patch 0;
#X msg 185 148 append \$1;
#X msg 177 454 append \$1;
#X obj 226 -20 loadbang;
#X obj 321 495 s \$0abs;
#X obj 305 178 s \$0cat;
#X obj 266 220 r \$0cats;
#X obj 708 140 r \$0abss;
#X obj 463 11 bng 15 250 50 0 empty empty empty 17 7 0 10 -262144 -1
-1;
#X obj 228 24 t b b b;
#X obj 929 595 loadbang;
#X obj 331 800 print pdmtl_help_popup;
#N canvas 0 0 581 461 DELAY_VS_POPUP_BUG 0;
#X obj 61 32 inlet;
#X obj 152 177 spigot 1;
#X msg 253 251 0;
#X obj 196 311 delay 10;
#X msg 287 133 1;
#X obj 132 316 outlet;
#X obj 154 262 t a b b;
#X connect 0 0 1 0;
#X connect 1 0 6 0;
#X connect 2 0 1 1;
#X connect 3 0 4 0;
#X connect 4 0 1 1;
#X connect 6 0 5 0;
#X connect 6 1 3 0;
#X connect 6 2 2 0;
#X restore 171 250 pd DELAY_VS_POPUP_BUG;
#X msg 81 658 Checking abstractions in folder \$1;
#X msg 19 43 dump.categories;
#X obj 309 -8 bng 15 250 50 0 empty empty empty 17 7 0 10 -262144 -1
-1;
#X msg 63 410 dump.category \$1;
#X obj 191 274 symbol;
#X msg 304 343 options \, name ...;
#X msg 518 244 name ...;
#X obj 272 292 t a b;
#N canvas 0 0 581 461 DELAY_VS_POPUP_BUG 0;
#X obj 61 32 inlet;
#X obj 152 177 spigot 1;
#X msg 253 251 0;
#X obj 196 311 delay 10;
#X msg 287 133 1;
#X obj 132 316 outlet;
#X obj 154 262 t a b b;
#X connect 0 0 1 0;
#X connect 1 0 6 0;
#X connect 2 0 1 1;
#X connect 3 0 4 0;
#X connect 4 0 1 1;
#X connect 6 0 5 0;
#X connect 6 1 3 0;
#X connect 6 2 2 0;
#X restore 607 246 pd DELAY_VS_POPUP_BUG;
#X msg 259 127 options \, name ...;
#X obj 187 387 symbol;
#X obj 66 167 pdmtl.lister;
#X msg 922 654 Version 12;
#X obj 567 334 t a b;
#X connect 0 0 4 0;
#X connect 1 0 3 0;
#X connect 2 0 8 0;
#X connect 5 0 11 0;
#X connect 6 0 20 0;
#X connect 7 0 21 0;
#X connect 7 0 17 0;
#X connect 8 0 13 0;
#X connect 8 1 21 0;
#X connect 8 2 17 0;
#X connect 9 0 24 0;
#X connect 11 0 16 0;
#X connect 12 0 10 0;
#X connect 13 0 23 0;
#X connect 14 0 8 0;
#X connect 15 0 23 0;
#X connect 16 0 19 0;
#X connect 17 0 3 0;
#X connect 18 0 4 0;
#X connect 19 0 15 0;
#X connect 19 1 17 0;
#X connect 20 0 25 0;
#X connect 21 0 4 0;
#X connect 22 0 1 0;
#X connect 23 1 0 0;
#X connect 23 2 22 0;
#X connect 24 0 10 0;
#X connect 25 0 23 1;
#X connect 25 1 18 0;
#X restore 3 41 pd patch;
#X connect 2 0 5 0;
#X connect 3 0 6 0;
#X connect 5 1 0 0;
#X connect 6 1 1 0;
#X coords 0 0 1 1 352 37 0;
