#N canvas 94 150 476 313 10;
#X obj 24 177 unpack f f f;
#X floatatom 24 202 5 0 0 0 - - -;
#X floatatom 63 202 5 0 0 0 - - -;
#X floatatom 103 202 5 0 0 0 - - -;
#X text 89 29 - computes the cross product of two vectors;
#X msg 9 89 1 0 0;
#X msg 50 67 0 1 0;
#X msg 62 92 0 0 1;
#X msg 128 96 1 0 0;
#X msg 131 118 0 0 1;
#X text 26 233 the outcoming vector is orthogonal to both incoming
vectors;
#X text 195 81 args: <X> <Y> <Z>;
#X text 193 111 1st inlet: accepts list of 3 floats;
#X text 193 131 2nd inlet: accepts list of 3 floats;
#X text 195 171 outlet: list of 3 floats;
#X obj 24 139 3d.cross 0 1 0;
#X text 279 263 Version: 2007-12-09;
#X text 280 282 Author: Roman Haefeli;
#X obj 22 27 3d.cross;
#X connect 0 0 1 0;
#X connect 0 1 2 0;
#X connect 0 2 3 0;
#X connect 5 0 15 0;
#X connect 6 0 15 0;
#X connect 7 0 15 0;
#X connect 8 0 15 1;
#X connect 9 0 15 1;
#X connect 15 0 0 0;
