#N canvas 602 287 705 355 10;
#X obj 60 53 inlet~ w;
#X obj 153 54 inlet~ x;
#X obj 239 57 inlet~ y;
#X obj 68 289 outlet~;
#X obj 337 5 inlet;
#X obj 384 51 init.post.dollarg;
#X obj 383 29 dollarg;
#X obj 385 5 loadbang;
#X obj 330 92 route angle duration;
#X obj 102 253 *~;
#X obj 320 191 line~;
#X obj 319 169 pack 0 50;
#X obj 171 256 *~;
#X text 296 278 todo: wxyz version with elevation;
#X obj 323 119 convert.degree2radian;
#X text 296 246 Decodes a first order Ambisonics horizontal B-Format
to a mono output channel.;
#X obj 321 146 cos;
#X obj 392 189 line~;
#X obj 391 167 pack 0 50;
#X obj 393 144 sin;
#X connect 0 0 3 0;
#X connect 1 0 9 0;
#X connect 2 0 12 0;
#X connect 4 0 8 0;
#X connect 5 0 8 0;
#X connect 6 0 5 0;
#X connect 6 1 5 1;
#X connect 7 0 6 0;
#X connect 8 0 14 0;
#X connect 8 1 11 1;
#X connect 8 1 18 1;
#X connect 9 0 3 0;
#X connect 10 0 9 1;
#X connect 11 0 10 0;
#X connect 12 0 3 0;
#X connect 14 0 16 0;
#X connect 14 0 19 0;
#X connect 16 0 11 0;
#X connect 17 0 12 1;
#X connect 18 0 17 0;
#X connect 19 0 18 0;
