#N canvas 472 136 587 468 10;
#X obj 63 126 noise~;
#X floatatom 410 164 5 0 0 0 - - -;
#X obj 64 381 dac~ 1 2;
#X obj 64 351 ambi.wxyuvpq2mono~ @angle 90;
#X obj 244 352 ambi.wxyuvpq2mono~ @angle 270;
#X obj 485 182 vu 15 120 empty empty -1 -8 0 10 -66577 -1 1 0;
#X obj 63 174 ambi.mono2wxyuvpq~ @angle 90;
#X obj 64 263 ambi.gain.7~ @gain -6;
#X msg 410 184 gain \$1;
#X obj 411 21 vsl 15 128 -100 6 0 0 empty empty empty 0 -9 0 10 -258113
-1 -1 11262 1;
#X obj 408 -22 loadbang;
#X msg 409 -3 -6;
#X text 3 -43 Description: Changes the gain (in dB) of 7 signals.;
#X text 5 -25 0dB is unity in RMS. -100dB is silence.;
#X text 5 -7 +6dB is twice as loud.;
#X connect 0 0 6 0;
#X connect 1 0 8 0;
#X connect 1 0 5 0;
#X connect 3 0 2 0;
#X connect 4 0 2 1;
#X connect 6 0 7 0;
#X connect 6 1 7 1;
#X connect 6 2 7 2;
#X connect 6 3 7 3;
#X connect 6 4 7 4;
#X connect 6 5 7 5;
#X connect 6 6 7 6;
#X connect 7 0 3 0;
#X connect 7 0 4 0;
#X connect 7 1 3 1;
#X connect 7 1 4 1;
#X connect 7 2 3 2;
#X connect 7 2 4 2;
#X connect 7 3 3 3;
#X connect 7 3 4 3;
#X connect 7 4 3 4;
#X connect 7 4 4 4;
#X connect 7 5 3 5;
#X connect 7 5 4 5;
#X connect 7 6 3 6;
#X connect 7 6 4 6;
#X connect 8 0 7 7;
#X connect 9 0 1 0;
#X connect 10 0 11 0;
#X connect 11 0 9 0;
