#N canvas 745 104 606 421 10;
#X obj 55 193 ambi.limiter.6~;
#X obj 89 254 dac~ 1 2 3 4 5 6;
#X obj 44 159 ambi.wxy2mono~ @angle 60;
#X obj 201 160 ambi.wxy2mono~ @angle 300;
#X obj 106 51 noise~;
#X text 25 13 Description: 6-channels limiter;
#X obj 104 113 ambi.gain.3~;
#X obj 105 74 ambi.mono2wxy~ @angle 30;
#X obj 303 45 vsl 15 50 -100 12 0 0 empty empty empty 0 -9 0 10 -258113
-1 -1 0 1;
#X obj 366 101 vu 15 120 empty empty -1 -8 0 10 -66577 -1 1 0;
#X obj 21 223 env~;
#X obj 20 245 - 100;
#X obj 23 270 vu 15 120 empty empty -1 -8 0 10 -66577 -1 1 0;
#X text 90 296 <-- Each speaker's level is never going to go over 0dB
;
#X text 341 37 <-- Make some very loud noise;
#X msg 299 19 12;
#X connect 0 0 1 0;
#X connect 0 0 10 0;
#X connect 0 1 1 1;
#X connect 0 2 1 2;
#X connect 0 3 1 3;
#X connect 0 4 1 4;
#X connect 0 5 1 5;
#X connect 2 0 0 0;
#X connect 3 0 0 1;
#X connect 4 0 7 0;
#X connect 6 0 2 0;
#X connect 6 0 3 0;
#X connect 6 1 2 1;
#X connect 6 1 3 1;
#X connect 6 2 2 2;
#X connect 6 2 3 2;
#X connect 7 0 6 0;
#X connect 7 1 6 1;
#X connect 7 2 6 2;
#X connect 8 0 9 0;
#X connect 8 0 6 3;
#X connect 10 0 11 0;
#X connect 11 0 12 0;
#X connect 15 0 8 0;
