#N canvas 135 114 596 379 10;
#X obj 375 102 inlet;
#X obj 415 165 init.post.dollarg;
#X obj 414 143 dollarg;
#X obj 428 92 loadbang;
#X obj 422 121 t b b;
#X obj 167 96 inlet~ x;
#X obj 236 96 inlet~ y;
#X obj 103 121 env~;
#X obj 103 143 - 100;
#X obj 367 188 route enable;
#X obj 368 226 switch~;
#X obj 105 224 vu 15 120 empty empty -1 -8 0 10 -66577 -1 1 0;
#X obj 102 97 inlet~ w;
#X obj 164 122 env~;
#X obj 164 144 - 100;
#X obj 154 224 vu 15 120 empty empty -1 -8 0 10 -66577 -1 1 0;
#X obj 232 123 env~;
#X obj 232 145 - 100;
#X obj 202 224 vu 15 120 empty empty -1 -8 0 10 -66577 -1 1 0;
#X obj 293 124 env~;
#X obj 293 146 - 100;
#X obj 249 225 vu 15 120 empty empty -1 -8 0 10 -66577 -1 1 0;
#X msg 472 130 enable 1;
#X obj 246 204 tgl 15 0 empty empty enable 17 7 0 10 -191407 -1 -1
1 1;
#X obj 301 95 inlet~ z;
#X connect 0 0 9 0;
#X connect 1 0 9 0;
#X connect 2 0 1 0;
#X connect 2 1 1 1;
#X connect 3 0 4 0;
#X connect 4 0 2 0;
#X connect 4 1 22 0;
#X connect 5 0 13 0;
#X connect 6 0 16 0;
#X connect 7 0 8 0;
#X connect 8 0 11 0;
#X connect 9 0 23 0;
#X connect 12 0 7 0;
#X connect 13 0 14 0;
#X connect 14 0 15 0;
#X connect 16 0 17 0;
#X connect 17 0 18 0;
#X connect 19 0 20 0;
#X connect 20 0 21 0;
#X connect 22 0 9 0;
#X connect 23 0 10 0;
#X connect 24 0 19 0;
#X coords 0 -1 1 1 200 150 1 100 200;
