#N canvas 123 273 507 118 10;
#X obj 23 59 outlet~;
#X obj 91 58 outlet~;
#X obj 162 58 outlet~;
#X obj 230 57 outlet~;
#X obj 286 55 outlet~;
#X obj 357 55 outlet~;
#X obj 407 53 outlet~;
#X obj 20 29 r~ \$1-1;
#X obj 90 29 r~ \$1-2;
#X obj 164 29 r~ \$1-3;
#X obj 233 27 r~ \$1-4;
#X obj 287 28 r~ \$1-5;
#X obj 339 29 r~ \$1-6;
#X obj 402 29 r~ \$1-7;
#X connect 7 0 0 0;
#X connect 8 0 1 0;
#X connect 9 0 2 0;
#X connect 10 0 3 0;
#X connect 11 0 4 0;
#X connect 12 0 5 0;
#X connect 13 0 6 0;
