#N canvas 21 225 831 395 10;
#X obj 47 22 inlet~;
#X obj 22 258 outlet~ w;
#X obj 111 255 outlet~ x;
#X obj 189 257 outlet~ y;
#X obj 242 4 inlet;
#X obj 289 50 init.post.dollarg;
#X obj 288 28 dollarg;
#X obj 290 4 loadbang;
#X obj 124 208 line~;
#X obj 235 91 route angle duration;
#X obj 114 231 *~;
#X obj 185 230 *~;
#X text 321 130 todo: dominance;
#X text 315 163 todo: wxyz version with elevation;
#X obj 184 119 convert.degree2radian;
#X text 296 246 Encodes a mono sound to first order Ambisonics horizontal
B-Format.;
#X text 471 30 XYZ is right-hand rule. (X: forward and Y:left);
#X text 469 49 Angles run anticlockwise starting on the right.;
#X obj 124 163 cos;
#X obj 204 203 line~;
#X obj 204 158 sin;
#X obj 123 186 pack 0 15;
#X obj 204 181 pack 0 15;
#X connect 0 0 10 0;
#X connect 0 0 11 0;
#X connect 0 0 1 0;
#X connect 4 0 9 0;
#X connect 5 0 9 0;
#X connect 6 0 5 0;
#X connect 6 1 5 1;
#X connect 7 0 6 0;
#X connect 8 0 10 1;
#X connect 9 0 14 0;
#X connect 9 1 21 1;
#X connect 9 1 22 1;
#X connect 10 0 2 0;
#X connect 11 0 3 0;
#X connect 14 0 18 0;
#X connect 14 0 20 0;
#X connect 18 0 21 0;
#X connect 19 0 11 1;
#X connect 20 0 22 0;
#X connect 21 0 8 0;
#X connect 22 0 19 0;
