#N canvas 533 532 299 207 10;
#X obj 44 41 inlet;
#X obj 44 155 outlet;
#X obj 97 55 loadbang;
#X obj 97 75 number.pi;
#X obj 44 104 /;
#X obj 44 130 * 180;
#X text 118 142 Version 2007-12-09;
#X connect 0 0 4 0;
#X connect 2 0 3 0;
#X connect 3 0 4 1;
#X connect 4 0 5 0;
#X connect 5 0 1 0;
