#N canvas 0 0 452 302 10;
#X obj 31 46 inlet;
#X obj 187 55 loadbang;
#X obj 132 110 samplerate~;
#X obj 53 266 outlet;
#X obj 135 136 / 1000;
#X obj 52 204 * 44.1;
#X obj 52 83 t f b;
#X connect 0 0 6 0;
#X connect 1 0 2 0;
#X connect 2 0 4 0;
#X connect 4 0 5 1;
#X connect 5 0 3 0;
#X connect 6 0 5 0;
#X connect 6 1 2 0;
