#N canvas 399 154 833 612 10;
#X text 45 42 Description: Converts a symbol (or anything) to a list.
;
#X obj 67 259 print;
#X obj 79 488 print;
#X msg 65 371 ae_b_c_d;
#X text 49 314 Through the second inlet \, change the list delimiter.
;
#X obj 68 399 t a b;
#X msg 172 412 _;
#X obj 286 495 print;
#X obj 275 406 t a b;
#X msg 379 419 /;
#X msg 221 113 space;
#X msg 238 153 bang;
#X text 283 120 spaces as a list delimiter (default);
#X text 323 154 split everything appart;
#X msg 57 130 abcd efg;
#X msg 281 154 none;
#X text 45 65 Comments: Wraps zexy's symbol2list and iem splitfilename.
;
#X msg 550 370 test-help.pd;
#X msg 679 424 -;
#X obj 609 508 list.split 1;
#X obj 551 542 print A;
#X obj 644 538 print B;
#X obj 113 224 t a a;
#X obj 148 252 list.length;
#X floatatom 151 278 5 0 0 0 - - -;
#X obj 277 453 convert.symbol2list;
#X obj 70 446 convert.symbol2list;
#X obj 89 187 convert.symbol2list;
#X obj 552 463 convert.symbol2list;
#X msg 271 378 1a/2b/3c/4d;
#X connect 3 0 5 0;
#X connect 5 0 26 0;
#X connect 5 1 6 0;
#X connect 6 0 26 1;
#X connect 8 0 25 0;
#X connect 8 1 9 0;
#X connect 9 0 25 1;
#X connect 10 0 27 1;
#X connect 11 0 27 1;
#X connect 14 0 27 0;
#X connect 15 0 27 1;
#X connect 17 0 28 0;
#X connect 18 0 28 1;
#X connect 19 0 20 0;
#X connect 19 1 21 0;
#X connect 22 0 1 0;
#X connect 22 1 23 0;
#X connect 23 0 24 0;
#X connect 25 0 7 0;
#X connect 26 0 2 0;
#X connect 27 0 22 0;
#X connect 28 0 19 0;
#X connect 29 0 8 0;
