#N canvas 494 135 647 720 10;
#X obj 79 50 inlet;
#X obj 74 635 outlet;
#X obj 79 160 list trim;
#X obj 86 194 convert.ascii2int;
#X obj 86 269 list.substitute 32 95;
#X obj 345 149 convert.ascii2int;
#X obj 383 40 inlet;
#X obj 83 586 symbol;
#X obj 86 401 convert.int2ascii;
#X obj 214 62 loadbang;
#X obj 214 87 dollarg;
#X connect 0 0 2 0;
#X connect 2 0 3 0;
#X connect 3 0 4 0;
#X connect 4 0 8 0;
#X connect 5 0 4 2;
#X connect 6 0 5 0;
#X connect 7 0 1 0;
#X connect 8 0 7 0;
#X connect 9 0 10 0;
#X connect 10 0 5 0;
