#N canvas 54 171 836 606 12;
#X obj 77 8 inlet;
#X obj 302 14 inlet;
#X obj 174 488 outlet;
#X obj 188 254 metro \$1;
#X text 353 12 interval;
#X obj 480 11 inlet;
#X text 531 11 Stop it;
#X msg 480 43 0;
#X text 128 8 Start it;
#X obj 395 209 loadbang;
#X obj 126 135 route float;
#X obj 130 178 change;
#X obj 228 158 t b b b;
#X msg 231 201 set 1;
#X obj 359 238 init.df \$1 1000;
#X obj 183 358 count.iter;
#X obj 54 96 route set;
#X connect 0 0 16 0;
#X connect 1 0 14 0;
#X connect 3 0 15 0;
#X connect 5 0 7 0;
#X connect 7 0 3 0;
#X connect 9 0 14 0;
#X connect 10 0 11 0;
#X connect 10 1 12 0;
#X connect 11 0 3 0;
#X connect 12 0 3 0;
#X connect 12 1 13 0;
#X connect 12 2 15 1;
#X connect 13 0 11 0;
#X connect 14 0 3 1;
#X connect 15 0 2 0;
#X connect 16 0 15 1;
#X connect 16 1 10 0;
