#N canvas 797 137 696 616 10;
#X obj 48 61 inlet;
#X obj 496 27 loadbang;
#X obj 59 351 outlet;
#X obj 574 113 inlet;
#X obj 555 338 outlet;
#X obj 225 124 t a a;
#X obj 116 94 route bang set;
#X obj 235 325 flow.till.done;
#X obj 234 348 flow.prepend set;
#X obj 256 145 flow.prepend set;
#X connect 0 0 6 0;
#X connect 1 0 4 0;
#X connect 3 0 2 0;
#X connect 5 0 2 0;
#X connect 5 1 9 0;
#X connect 6 0 4 0;
#X connect 6 1 7 0;
#X connect 6 2 5 0;
#X connect 7 0 8 0;
#X connect 8 0 4 0;
#X connect 9 0 4 0;
