#N canvas 0 25 1099 884 10;
#X msg 534 462 1;
#X obj 532 536 - 1;
#X obj 372 750 list trim;
#X obj 101 912 demultiplex 0 1;
#X obj 160 255 s \$0out;
#X obj 269 842 r \$0out;
#X msg 121 141 1;
#X obj 139 773 r \$0coll;
#X obj 7 272 s \$0coll;
#X msg 28 143 dump;
#X obj 38 105 t b b;
#X obj 115 830 coll;
#C restore;
#X obj 324 621 pack s f;
#X msg 496 137 clear;
#X obj 377 725 list append;
#X obj 591 226 t b b;
#X obj 277 877 t f f;
#X obj 509 -49 inlet folder;
#X obj 55 20 route print;
#X obj 501 159 s \$0coll;
#X obj 150 77 t a b;
#X msg 175 119 0;
#X obj 86 108 route float;
#X obj 949 961 outlet;
#X msg 75 780 open;
#X obj 458 94 t b a a b b b b;
#X obj 348 383 t a a b;
#X obj 372 952 pack s f;
#X msg 356 976 \$2 > \$1;
#X obj 183 437 file.path.split;
#X obj 249 483 convert.spaces2 /;
#X obj 452 200 file.folder.dump;
#X obj 519 64 convert.list2symbol;
#X obj 392 1018 print file.folder;
#X obj 36 1042 outlet full_path;
#X msg 330 691 list nstore \$2 \$1 \$1;
#X obj 250 1014 outlet file_name;
#X obj 99 945 list split 1;
#X obj 66 1017 symbol;
#X obj 201 974 t b s;
#X obj 622 1003 outlet index;
#X obj 394 909 t f f;
#X obj 99 994 convert.list2symbol;
#X obj 481 14 route bang;
#X obj 366 51 file.folder.panel;
#X obj 541 512 t f f;
#X obj 685 577 f;
#X msg 708 517 0;
#X obj 25 -29 inlet get;
#X obj 72 221 convert.spaces2 /;
#X obj 534 487 count.accum;
#X connect 0 0 50 0;
#X connect 1 0 12 1;
#X connect 2 0 11 0;
#X connect 3 0 37 0;
#X connect 3 1 27 0;
#X connect 5 0 16 0;
#X connect 6 0 4 0;
#X connect 7 0 11 0;
#X connect 9 0 8 0;
#X connect 10 0 9 0;
#X connect 10 1 6 0;
#X connect 11 0 3 0;
#X connect 11 1 41 0;
#X connect 12 0 35 0;
#X connect 13 0 19 0;
#X connect 14 0 2 0;
#X connect 15 0 47 0;
#X connect 15 1 50 1;
#X connect 16 0 3 1;
#X connect 17 0 43 0;
#X connect 18 0 10 0;
#X connect 18 1 20 0;
#X connect 20 0 22 0;
#X connect 20 1 21 0;
#X connect 21 0 4 0;
#X connect 22 0 8 0;
#X connect 22 1 49 0;
#X connect 24 0 11 0;
#X connect 25 1 31 0;
#X connect 25 3 13 0;
#X connect 25 4 15 0;
#X connect 26 0 29 0;
#X connect 26 1 14 1;
#X connect 26 2 0 0;
#X connect 27 0 28 0;
#X connect 28 0 33 0;
#X connect 29 1 30 0;
#X connect 30 0 12 0;
#X connect 31 0 26 0;
#X connect 31 1 46 0;
#X connect 32 0 25 0;
#X connect 35 0 14 0;
#X connect 37 0 39 0;
#X connect 37 1 42 0;
#X connect 38 0 34 0;
#X connect 39 0 38 0;
#X connect 39 1 36 0;
#X connect 41 0 40 0;
#X connect 41 1 27 1;
#X connect 42 0 38 1;
#X connect 43 0 44 0;
#X connect 43 1 32 0;
#X connect 44 0 25 0;
#X connect 45 0 1 0;
#X connect 45 1 46 1;
#X connect 46 0 23 0;
#X connect 47 0 46 1;
#X connect 48 0 18 0;
#X connect 49 0 8 0;
#X connect 50 0 45 0;
