#N canvas 334 43 911 893 10;
#X obj 215 168 convert.ascii2int;
#X obj 423 156 convert.ascii2int;
#X obj 678 366 table \$0table0;
#X obj 676 393 table \$0table1;
#X obj 242 245 s \$0table0;
#X obj 242 218 list prepend 0;
#X obj 442 217 list prepend 0;
#X obj 442 244 s \$0table1;
#X obj 215 279 list.length;
#X obj 414 275 list.length;
#X obj 215 327 min;
#X obj 233 479 tabread \$0table0;
#X obj 380 480 tabread \$0table1;
#X obj 235 440 t f f;
#X obj 233 525 ==;
#X obj 239 385 +;
#X msg 332 523 1;
#X msg 240 361 0 0;
#X obj 293 589 f;
#X obj 236 414 t f f f;
#X obj 234 549 sel 1 0;
#X obj 434 610 f;
#X obj 431 644 t f f;
#X obj 476 729 sel 47;
#X obj 419 782 list.build;
#X obj 293 614 t b b f f;
#X obj 485 670 moses;
#X obj 186 302 t f f;
#X obj 440 347 t f f;
#X obj 155 678 convert.int2ascii;
#X obj 414 195 t l l l;
#X obj 215 194 t l l l;
#X obj 475 698 tabread \$0table1;
#X obj 485 643 + 1;
#X obj 154 705 tosymbol;
#X obj 106 754 list prepend;
#X obj 208 41 inlet;
#X obj 545 6 inlet;
#X obj -3 816 outlet;
#X obj 249 650 - 0;
#X obj 78 605 list.split;
#X floatatom 365 574 5 0 0 0 - - -;
#X obj 111 786 convert.list2symbol /;
#X msg 475 754 ..;
#X obj 134 638 route bang;
#X obj 448 27 loadbang;
#X obj 447 63 file.path.top;
#X obj 545 29 route bang;
#X msg 452 119 \$1/;
#X obj 95 96 file.path.type;
#X connect 0 0 31 0;
#X connect 1 0 30 0;
#X connect 5 0 4 0;
#X connect 6 0 7 0;
#X connect 8 0 27 0;
#X connect 9 0 28 0;
#X connect 10 0 17 0;
#X connect 11 0 14 0;
#X connect 12 0 14 1;
#X connect 13 0 11 0;
#X connect 13 1 12 0;
#X connect 14 0 20 0;
#X connect 15 0 19 0;
#X connect 16 0 15 0;
#X connect 17 0 15 0;
#X connect 18 0 25 0;
#X connect 18 0 41 0;
#X connect 19 0 13 0;
#X connect 19 1 15 1;
#X connect 19 2 18 1;
#X connect 20 0 16 0;
#X connect 20 1 18 0;
#X connect 21 0 22 0;
#X connect 22 0 33 0;
#X connect 22 1 32 0;
#X connect 23 0 43 0;
#X connect 24 0 35 1;
#X connect 25 1 24 0;
#X connect 25 2 39 0;
#X connect 25 3 21 0;
#X connect 26 0 21 0;
#X connect 27 1 10 0;
#X connect 28 0 10 1;
#X connect 28 1 26 1;
#X connect 29 0 34 0;
#X connect 30 1 9 0;
#X connect 30 2 6 0;
#X connect 31 0 40 0;
#X connect 31 1 8 0;
#X connect 31 2 5 0;
#X connect 32 0 23 0;
#X connect 33 0 26 0;
#X connect 34 0 35 0;
#X connect 35 0 42 0;
#X connect 36 0 49 0;
#X connect 37 0 47 0;
#X connect 39 0 40 1;
#X connect 40 1 44 0;
#X connect 42 0 38 0;
#X connect 43 0 24 1;
#X connect 44 0 35 0;
#X connect 44 1 29 0;
#X connect 45 0 46 0;
#X connect 46 0 48 0;
#X connect 47 0 46 0;
#X connect 47 1 48 0;
#X connect 48 0 1 0;
#X connect 49 0 38 0;
#X connect 49 1 0 0;
