#N canvas 0 0 751 476 10;
#X obj 33 18 inlet;
#X obj 92 414 outlet;
#X obj 44 133 openpanel;
#X obj 92 342 t b a;
#X obj 57 173 l2s;
#X obj 94 292 list append;
#X obj 549 150 inlet;
#X obj 92 233 list prepend;
#X obj 328 47 loadbang;
#X obj 178 184 list append;
#X obj 217 24 inlet;
#X obj 214 58 t b a;
#X msg 193 141 set;
#X msg 357 111 open;
#X obj 327 69 t b b;
#X text 209 -1 List before filename;
#X text 540 107 List after filename;
#X obj 125 375 route list;
#X connect 0 0 2 0;
#X connect 2 0 4 0;
#X connect 3 0 1 0;
#X connect 3 1 17 0;
#X connect 4 0 7 0;
#X connect 5 0 3 0;
#X connect 6 0 5 1;
#X connect 7 0 5 0;
#X connect 8 0 14 0;
#X connect 9 0 7 1;
#X connect 10 0 11 0;
#X connect 11 0 12 0;
#X connect 11 1 9 1;
#X connect 12 0 9 0;
#X connect 13 0 9 1;
#X connect 14 0 12 0;
#X connect 14 1 13 0;
#X connect 17 0 1 0;
