#N canvas 708 331 512 537 10;
#X obj 55 -11 inlet;
#X obj 332 461 outlet;
#X obj 111 474 outlet;
#X obj 51 24 route bang;
#X obj 285 -2 inlet;
#X obj 263 44 symbol;
#X obj 358 31 loadbang;
#X obj 360 59 dollarg;
#X obj 364 88 route bang;
#X obj 108 87 tosymbol;
#X obj 166 251 file.path.split .;
#X connect 0 0 3 0;
#X connect 3 1 9 0;
#X connect 4 0 5 0;
#X connect 5 0 10 1;
#X connect 6 0 7 0;
#X connect 7 0 8 0;
#X connect 8 1 5 0;
#X connect 9 0 10 0;
#X connect 10 0 2 0;
#X connect 10 1 1 0;
