#N canvas 527 234 727 731 10;
#X obj 55 -5 inlet;
#X obj 29 698 outlet;
#X obj 83 162 pack s s;
#X obj 52 119 t a b;
#X obj 627 635 outlet;
#X obj 78 297 folder_list .;
#X obj 429 1 inlet;
#X obj 82 238 file.path.merge;
#X obj 81 190 t b l;
#X msg 114 132 symbol /*;
#X obj 77 375 demultiplex 0 1;
#X obj 429 50 route bang;
#X msg 355 110 0;
#X msg 525 116 1;
#N canvas 343 219 911 746 patterns 0;
#X obj 33 16 inlet;
#X obj 591 21 inlet;
#X obj 175 547 outlet;
#X obj 222 140 t a b a b;
#X obj 254 238 list.unfold;
#X obj 231 205 list;
#X obj 182 362 spigot;
#X msg 293 201 0;
#X obj 282 277 sel folders;
#X obj 289 329 list;
#X obj 288 356 file.type;
#X obj 288 378 sel folder;
#X msg 289 421 1;
#X obj 386 383 list.compare;
#X obj 590 246 convert.ascii2int;
#X obj 453 323 list;
#X obj 380 270 convert.ascii2int;
#X obj 562 310 list.length;
#X obj 380 292 t a b a;
#X obj 453 351 list.split;
#X obj 386 411 sel 1;
#X msg 386 439 1;
#X obj 530 336 * -1;
#X connect 0 0 3 0;
#X connect 1 0 5 1;
#X connect 3 0 6 0;
#X connect 3 1 5 0;
#X connect 3 2 9 1;
#X connect 3 2 14 0;
#X connect 3 3 7 0;
#X connect 4 0 8 0;
#X connect 5 0 4 0;
#X connect 6 0 2 0;
#X connect 7 0 6 1;
#X connect 8 0 9 0;
#X connect 8 1 16 0;
#X connect 9 0 10 0;
#X connect 10 0 11 0;
#X connect 11 0 12 0;
#X connect 12 0 6 1;
#X connect 13 0 20 0;
#X connect 14 0 15 1;
#X connect 15 0 19 0;
#X connect 16 0 18 0;
#X connect 17 0 22 0;
#X connect 18 0 13 0;
#X connect 18 1 15 0;
#X connect 18 2 17 0;
#X connect 19 1 13 1;
#X connect 20 0 21 0;
#X connect 21 0 6 1;
#X connect 22 0 19 1;
#X restore 182 500 pd patterns;
#X obj 502 176 route bang;
#X obj 496 88 t a b;
#X msg 493 204 0;
#X obj 53 58 file.path.top;
#X obj 593 9 loadbang;
#X obj 593 39 dollarg;
#X connect 0 0 18 0;
#X connect 2 0 8 0;
#X connect 3 0 2 0;
#X connect 3 1 9 0;
#X connect 5 0 10 0;
#X connect 6 0 11 0;
#X connect 7 0 5 0;
#X connect 8 0 4 0;
#X connect 8 1 7 0;
#X connect 9 0 2 1;
#X connect 10 0 1 0;
#X connect 10 1 14 0;
#X connect 11 0 12 0;
#X connect 11 1 16 0;
#X connect 12 0 10 1;
#X connect 13 0 10 1;
#X connect 14 0 1 0;
#X connect 15 0 17 0;
#X connect 15 1 14 1;
#X connect 16 0 15 0;
#X connect 16 1 13 0;
#X connect 17 0 10 1;
#X connect 18 0 3 0;
#X connect 19 0 20 0;
#X connect 20 0 11 0;
