#N canvas 119 75 556 395 10;
#X obj 180 284 file.audio.info;
#X obj 335 145 openpanel;
#X obj 335 117 bng 15 250 50 0 empty empty empty 0 -6 0 8 -262144 -1
-1;
#X obj 278 307 tgl 15 0 empty empty empty 0 -6 0 8 -262144 -1 -1 0
1;
#X obj 114 338 print info;
#X msg 16 235 samplerate;
#X msg 55 186 frames;
#X msg 92 242 filename;
#X msg 105 171 headersize;
#X msg 172 189 channels;
#X msg -2 284 resolution;
#X msg 9 310 endianness;
#X text 71 57 Description: Returns a lot of info about a particular
.wav file.;
#X obj 336 197 file.path.top;
#X obj 192 254 bng 15 250 50 0 empty empty empty 0 -6 0 8 -262144 -1
-1;
#X text 70 89 Comments: Wraps soundfile_info.;
#X text 299 305 1 = is a "proper" WAV soundfile;
#X text 300 322 0 = is not a "proper" soundfile;
#X text 374 111 STEP 1: Load a file;
#X text 94 148 STEP 2: Get the info;
#X msg 335 172 medias/sounds/loop1.wav;
#X connect 0 0 4 0;
#X connect 0 1 3 0;
#X connect 1 0 0 1;
#X connect 2 0 1 0;
#X connect 5 0 0 0;
#X connect 6 0 0 0;
#X connect 7 0 0 0;
#X connect 8 0 0 0;
#X connect 9 0 0 0;
#X connect 10 0 0 0;
#X connect 11 0 0 0;
#X connect 13 0 0 1;
#X connect 14 0 0 0;
#X connect 20 0 13 0;
