#N canvas 0 0 557 447 10;
#X obj 34 59 inlet;
#X obj 89 194 t a b;
#X obj 164 182 f 0;
#X obj 89 247 outlet;
#X obj 207 56 inlet;
#X obj 207 79 bang;
#X obj 207 102 f 1;
#X text 8 6 once;
#X text 64 7 only the first message passes through;
#X text 29 37 message in;
#X text 203 36 anything to init once;
#X obj 89 162 spigot 1;
#X connect 0 0 11 0;
#X connect 1 0 3 0;
#X connect 1 1 2 0;
#X connect 2 0 11 1;
#X connect 4 0 5 0;
#X connect 5 0 6 0;
#X connect 6 0 11 1;
#X connect 11 0 1 0;
