#N canvas 207 259 406 279 10;
#X obj 92 127 sig~;
#X obj 93 178 snapshot~;
#X floatatom 93 204 5 0 0 0 - - -;
#X obj 168 152 metro 100;
#X obj 168 130 tgl 15 0 empty empty empty 0 -6 0 8 -262144 -1 -1 1
1;
#X floatatom 92 105 5 0 0 0 - - -;
#X text 65 58 Comment: wrapper of abs~ from zexy;
#X text 67 43 Description: absolute value of a signal;
#X obj 92 152 flow.abs~;
#X connect 0 0 8 0;
#X connect 1 0 2 0;
#X connect 3 0 1 0;
#X connect 4 0 3 0;
#X connect 5 0 0 0;
#X connect 8 0 1 0;
