#N canvas 0 0 815 544 10;
#X obj 268 246 biquad~;
#X msg 281 225 1.84252 -0.866142 -0.0787402 -0.677165;
#X obj 322 356 bp~ 400 7;
#X obj 332 339 clip~ -0.1 0.2;
#X obj 265 356 hip~ 30;
#X obj 266 392 *~ 0.3;
#X obj 334 188 loadbang;
#X obj 267 267 *~ 0.1;
#X obj 195 294 bp~ 400 1;
#X obj 267 294 bp~ 800 1;
#X obj 350 295 bp~ 1600 1;
#X obj 218 357 *~ 0.9;
#X obj 175 501 outlet~;
#X obj 100 29 inlet~;
#X obj 270 120 env~;
#X obj 211 146 noise~;
#X obj 278 181 *~ 0;
#X obj 300 152 dbtorms;
#X obj 502 25 inlet wetness;
#X obj 218 452 mix.wet~;
#X connect 0 0 7 0;
#X connect 1 0 0 0;
#X connect 2 0 5 0;
#X connect 3 0 4 0;
#X connect 3 0 2 0;
#X connect 4 0 5 0;
#X connect 5 0 19 1;
#X connect 6 0 1 0;
#X connect 7 0 8 0;
#X connect 7 0 9 0;
#X connect 7 0 10 0;
#X connect 8 0 3 0;
#X connect 8 0 11 0;
#X connect 9 0 3 0;
#X connect 9 0 11 0;
#X connect 10 0 3 0;
#X connect 10 0 11 0;
#X connect 11 0 5 0;
#X connect 13 0 0 0;
#X connect 13 0 14 0;
#X connect 13 0 19 0;
#X connect 14 0 17 0;
#X connect 15 0 16 0;
#X connect 16 0 0 0;
#X connect 17 0 16 1;
#X connect 18 0 19 2;
#X connect 19 0 12 0;
