#N canvas 473 72 886 858 10;
#X obj 99 234 gemhead;
#X obj 98 280 color 0 1 0;
#X obj 101 541 rotateXYZ;
#X obj 98 258 alpha 1;
#X msg -9 477 draw line;
#X msg -9 432 draw fill;
#X msg -9 454 draw point;
#X msg -9 497 draw linestrip;
#X msg -9 517 draw tri;
#X msg -9 539 draw tristrip;
#X msg -10 562 draw trifan;
#X msg -10 583 draw quad;
#X msg -10 605 draw quadstrip;
#X obj 91 154 gems.win;
#X obj 91 130 tgl 15 0 empty empty empty 0 -6 0 8 -262144 -1 -1 1 1
;
#X text -1 2 Description: Creates a dynamic number of polygon objects.
;
#N canvas 0 0 885 674 animation 0;
#X obj 290 190 metro 50;
#X obj 282 217 t b b b b;
#X obj 111 339 pack;
#X obj 123 291 t f b;
#X obj 286 80 inlet;
#X obj 256 601 outlet;
#X obj 270 332 pack;
#X obj 282 284 t f b;
#X obj 439 335 pack;
#X obj 451 287 t f b;
#X obj 629 333 pack;
#X obj 641 285 t f b;
#X msg 94 363 3 \$1 \$2 0;
#X msg 266 384 2 \$1 \$2 0;
#X msg 475 391 1 \$1 \$2 0;
#X msg 605 391 0 \$1 \$2 0;
#X obj 672 304 random.drunk -4 -1;
#X obj 643 261 random.drunk -4 -1;
#X obj 453 263 random.drunk 1 4;
#X obj 482 306 random.drunk -4 -1;
#X obj 284 260 random.drunk 1 4;
#X obj 323 304 random.drunk 1 4;
#X obj 154 310 random.drunk 1 4;
#X obj 125 267 random.drunk -4 -1;
#X connect 0 0 1 0;
#X connect 1 0 23 0;
#X connect 1 1 20 0;
#X connect 1 2 18 0;
#X connect 1 3 17 0;
#X connect 2 0 12 0;
#X connect 3 0 2 0;
#X connect 3 1 22 0;
#X connect 4 0 0 0;
#X connect 6 0 13 0;
#X connect 7 0 6 0;
#X connect 7 1 21 0;
#X connect 8 0 14 0;
#X connect 9 0 8 0;
#X connect 9 1 19 0;
#X connect 10 0 15 0;
#X connect 11 0 10 0;
#X connect 11 1 16 0;
#X connect 12 0 5 0;
#X connect 13 0 5 0;
#X connect 14 0 5 0;
#X connect 15 0 5 0;
#X connect 16 0 10 1;
#X connect 17 0 11 0;
#X connect 18 0 9 0;
#X connect 19 0 8 1;
#X connect 20 0 7 0;
#X connect 21 0 6 1;
#X connect 22 0 2 1;
#X connect 23 0 3 0;
#X restore 318 577 pd animation;
#X obj 318 505 loadbang;
#X obj 318 538 tgl 15 0 empty empty empty 0 -6 0 8 -262144 -1 -1 1
1;
#X obj 98 365 pix_image;
#X obj 105 574 pix_texture;
#X obj 273 380 file.path.top;
#X msg 276 407 open \$1;
#X floatatom 132 488 5 0 0 0 - - -;
#X obj 259 175 input.color.grid_;
#X obj 105 631 gems.polygon.n 4;
#X msg 279 349 medias/images/img0.jpg;
#X connect 0 0 3 0;
#X connect 1 0 19 0;
#X connect 2 0 20 0;
#X connect 3 0 1 0;
#X connect 10 0 25 0;
#X connect 12 0 25 0;
#X connect 14 0 13 0;
#X connect 16 0 25 2;
#X connect 17 0 18 0;
#X connect 18 0 16 0;
#X connect 19 0 2 0;
#X connect 20 0 25 0;
#X connect 21 0 22 0;
#X connect 22 0 19 0;
#X connect 23 0 2 2;
#X connect 24 0 1 1;
#X connect 26 0 21 0;
