#N canvas 616 97 774 676 10;
#X text 53 -110 Description: FFT spectral graphical analysis;
#X obj 140 250 gems.fft~ @enable 1;
#X obj 24 55 gemhead;
#X msg 265 148 info;
#X obj -42 377 translateXYZ 0 0 0;
#X obj 65 185 t f f;
#X obj 126 451 unpack f f f;
#X msg 126 408 \$1 0.5 1;
#X obj 126 428 convert.hsv2rgb;
#X obj 11 -114 tgl 15 0 empty empty empty 0 -6 0 8 -262144 -1 -1 1
1;
#X floatatom 275 366 5 0 0 0 - - -;
#X obj 306 322 tgl 15 0 empty empty empty 0 -6 0 10 -262144 -1 -1 0
1;
#X obj 274 343 spigot 1;
#X obj 65 502 colorRGB 1 1 1 1;
#X obj 126 367 count.iter 0 1;
#X obj 126 388 / 128;
#X obj 63 162 count.iter 0 1;
#X obj 28 120 gems.duplicate 128;
#X obj 32 323 * 1;
#X obj 366 332 route table.size table.name;
#X obj 445 355 flow.prepend set;
#X msg 446 377 1123-fft;
#X floatatom 347 367 5 0 0 0 - - -;
#X floatatom 193 43 5 0 0 0 - - -;
#X obj 404 -118 adc~;
#X msg 248 18 \; pd dsp 1;
#X obj 33 345 - 3.5;
#X obj 25 78 gems.alpha.mode 6 7;
#X obj 9 -82 gems.win @dimen 600 300;
#X obj -5 346 + -7;
#X obj -5 322 * 0.1;
#X obj 64 526 rectangle 0.03 0.2;
#X obj 424 125 hsl 128 15 0 1 0 0 empty empty empty -2 -8 0 10 -262144
-1 -1 11022 1;
#X floatatom 421 143 5 0 0 0 - - -;
#X floatatom 472 149 5 0 0 0 - - -;
#X obj 381 126 tgl 15 0 empty empty empty 17 7 0 10 -262144 -1 -1 1
1;
#X msg 421 105 0.86;
#X obj 421 84 loadbang;
#X obj 380 179 gems.win.feedback;
#X msg 510 147 -0.22;
#X text 49 -60 Inlets_1: Table index to read [0 \, 127];
#X text 50 -45 Inlets_2: audio signal to analyze;
#X text 51 -30 Inlets_3: Arguments;
#X text 52 -9 Arguments: info \, enable [0 \, 1] \, lop [f];
#X text 53 8 Author: Alexandre Quessy;
#X text 301 256 Outlet_1: value read at table index;
#X text 304 271 Outlet_2: informations;
#X msg 275 191 enable \$1;
#X obj 276 172 tgl 15 0 empty empty empty 17 7 0 10 -262144 -1 -1 1
1;
#X obj 462 -56 phasor~;
#X obj 636 -84 mtof;
#X floatatom 636 -105 5 33 110 0 - - -;
#X obj 462 -77 mtof;
#X floatatom 462 -95 5 0 0 0 - - -;
#X obj 600 -133 noise~;
#X obj 600 -60 bp~ 2637 35;
#X obj 599 -37 *~ 5;
#X obj 271 -167 hradio 30 1 0 4 empty empty select_input 0 -6 0 10
-257985 -1 -1 0;
#X obj 462 -118 init.lf 48;
#X obj 373 18 multiplex~ 0 1 2 3;
#X obj 377 39 mix.out_~;
#X obj 523 -55 osc~ 1760;
#X msg 353 223 gain \$1;
#X obj 567 178 vsl 30 100 0 1 0 0 empty empty gain_RMS 0 -9 0 10 -257985
-1 -1 300 1;
#X floatatom 568 292 5 0 0 0 - - -;
#X connect 1 0 12 0;
#X connect 1 0 18 0;
#X connect 1 1 19 0;
#X connect 2 0 27 0;
#X connect 3 0 1 2;
#X connect 4 0 13 0;
#X connect 5 0 30 0;
#X connect 5 1 1 0;
#X connect 6 0 13 1;
#X connect 6 1 13 2;
#X connect 6 2 13 3;
#X connect 7 0 8 0;
#X connect 8 0 6 0;
#X connect 9 0 28 0;
#X connect 11 0 12 1;
#X connect 12 0 10 0;
#X connect 13 0 31 0;
#X connect 14 0 15 0;
#X connect 15 0 7 0;
#X connect 16 0 5 0;
#X connect 17 0 4 0;
#X connect 17 1 14 0;
#X connect 17 1 16 0;
#X connect 17 2 14 1;
#X connect 17 2 16 1;
#X connect 18 0 26 0;
#X connect 19 0 22 0;
#X connect 19 1 20 0;
#X connect 20 0 21 0;
#X connect 23 0 1 0;
#X connect 24 0 59 0;
#X connect 24 1 59 0;
#X connect 26 0 4 2;
#X connect 27 0 17 0;
#X connect 29 0 4 1;
#X connect 30 0 29 0;
#X connect 32 0 33 0;
#X connect 33 0 38 2;
#X connect 34 0 38 3;
#X connect 35 0 38 1;
#X connect 36 0 32 0;
#X connect 37 0 36 0;
#X connect 37 0 39 0;
#X connect 37 0 35 0;
#X connect 39 0 38 3;
#X connect 47 0 1 2;
#X connect 48 0 47 0;
#X connect 49 0 59 1;
#X connect 50 0 55 1;
#X connect 51 0 50 0;
#X connect 52 0 49 0;
#X connect 53 0 52 0;
#X connect 54 0 55 0;
#X connect 55 0 56 0;
#X connect 56 0 59 3;
#X connect 57 0 59 0;
#X connect 58 0 53 0;
#X connect 59 0 1 1;
#X connect 59 0 60 0;
#X connect 59 0 60 1;
#X connect 61 0 59 2;
#X connect 62 0 1 2;
#X connect 63 0 62 0;
#X connect 63 0 64 0;
