#N canvas 468 160 503 321 10;
#X obj 224 198 GLdefine;
#X obj 226 76 loadbang;
#X obj 224 134 symbol \$1;
#X obj 224 220 outlet;
#X obj 322 82 inlet;
#X connect 0 0 3 0;
#X connect 1 0 2 0;
#X connect 2 0 0 0;
#X connect 4 0 2 0;
