#N canvas 250 45 730 636 10;
#X obj 245 85 cnv 15 100 60 empty empty empty 20 12 0 14 -258699 -66577
0;
#X obj 3 321 color 0 1 0;
#X msg 163 537 0 0 0 0;
#X msg 177 561 1 1 1 1;
#X msg 158 584 2 1 2 1;
#X msg 72 524 48;
#X obj 374 89 adc~;
#X obj 4 449 rotateXYZ;
#X msg 266 109 \; pd dsp 1;
#X obj 3 299 alpha 1;
#X text 259 86 click here;
#X obj 87 104 tgl 15 0 empty empty empty 0 -6 0 8 -262144 -1 -1 0 1
;
#X obj 3 485 gems.alpha.mode 1;
#X obj 0 131 gemhead;
#X obj 3 168 t a b;
#X obj 119 511 r \$0curve_points;
#X obj 86 292 r \$0color;
#X obj 37 415 r \$0rotation;
#X obj 54 352 r \$0translation;
#X obj 4 384 translateXYZ;
#N canvas 0 43 1247 912 draw_audio_input 0;
#X obj 587 19 inlet~;
#X obj 373 424 image mandala.gif;
#X obj 400 266 tabread \$0-knots;
#X obj 338 266 t f f;
#X obj 337 332 pack f f f 0;
#X obj 339 290 t f f;
#X obj 339 229 until;
#X msg 370 170 0;
#X obj 338 247 f 0;
#X obj 366 247 + 1;
#X obj 339 147 t b b;
#X obj 366 314 expr (($f1/$f2)*12)-6;
#X obj 342 201 t f f;
#X msg 340 172 800;
#X obj 567 382 table \$0-knots 800;
#X obj 567 356 tabwrite~ \$0-knots;
#X obj 401 292 * 4;
#X obj 251 501 f 0;
#X obj 279 501 + 1;
#X msg 197 267 \$1 1 1;
#X obj 197 246 expr ($f1%100)/100;
#X obj 197 224 f 0;
#X obj 225 224 + 1;
#X msg 198 333 \$1 \$2 \$3 0.3;
#X obj 39 355 f 0;
#X obj 67 355 + 1;
#X obj 93 387 sel 0 100;
#X msg 92 410 1;
#X msg 136 410 -1;
#X obj 50 431 expr ($f1-50)/25;
#X obj 51 377 t f f;
#X obj 341 19 t b;
#X obj 363 386 s \$0curve_points;
#X obj 235 368 s \$0color;
#X obj 251 527 s \$0rotation;
#X obj 64 463 s \$0translation;
#X obj 223 -96 inlet;
#X obj 197 302 convert.hsv2rgb;
#X connect 0 0 15 0;
#X connect 2 0 16 0;
#X connect 3 0 5 0;
#X connect 3 1 2 0;
#X connect 4 0 32 0;
#X connect 5 0 4 0;
#X connect 5 1 11 0;
#X connect 6 0 8 0;
#X connect 7 0 8 1;
#X connect 8 0 9 0;
#X connect 8 0 3 0;
#X connect 9 0 8 1;
#X connect 10 0 13 0;
#X connect 10 1 7 0;
#X connect 11 0 4 1;
#X connect 12 0 6 0;
#X connect 12 1 11 1;
#X connect 13 0 12 0;
#X connect 16 0 4 2;
#X connect 17 0 18 0;
#X connect 17 0 34 0;
#X connect 18 0 17 1;
#X connect 19 0 37 0;
#X connect 20 0 19 0;
#X connect 21 0 22 0;
#X connect 21 0 20 0;
#X connect 22 0 21 1;
#X connect 23 0 33 0;
#X connect 24 0 25 0;
#X connect 24 0 30 0;
#X connect 25 0 24 1;
#X connect 26 0 27 0;
#X connect 26 1 28 0;
#X connect 27 0 25 1;
#X connect 28 0 25 1;
#X connect 29 0 35 0;
#X connect 30 0 29 0;
#X connect 30 1 26 0;
#X connect 31 0 10 0;
#X connect 31 0 15 0;
#X connect 31 0 17 0;
#X connect 31 0 24 0;
#X connect 31 0 21 0;
#X connect 36 0 31 0;
#X connect 37 0 23 0;
#X restore 189 195 pd draw_audio_input;
#X obj 381 145 *~ 1;
#X text 365 63 Volume boost;
#X text 6 9 Description: Creates a dynamic number of curve objects.
;
#X text 3 41 In this example \, we analyse the audio input to synth
the coordinates of the curve points.;
#X obj 3 251 repeat 1;
#X obj 74 222 hradio 15 1 0 3 empty empty empty 0 -6 0 8 -262144 -1
-1 0;
#X obj 73 247 + 1;
#X text 122 219 Repeat the gemchain (creates clones).;
#X obj 449 84 osc~ 110;
#X obj 408 83 vsl 15 50 0 4 0 0 empty empty empty 0 -8 0 8 -258699
-1 -1 0 1;
#X obj 510 86 vsl 15 50 0 1 0 0 empty empty empty 0 -8 0 8 -258699
-1 -1 0 1;
#X obj 456 152 *~ 0;
#X obj 611 89 vsl 15 50 0 1 0 0 empty empty empty 0 -8 0 8 -258699
-1 -1 0 1;
#X obj 568 154 *~ 0;
#X obj 561 86 noise~;
#X text 338 199 You can also try with other source types.;
#X obj 7 554 gems.curve.n 800;
#X obj 320 362 hsl 128 15 0 1 0 0 empty empty empty -2 -8 0 10 -262144
-1 -1 11913 1;
#X floatatom 317 380 5 0 0 0 - - -;
#X floatatom 368 386 5 0 0 0 - - -;
#X obj 469 439 tgl 15 0 empty empty empty 17 7 0 10 -262144 -1 -1 0
1;
#X obj 245 412 tgl 15 0 empty empty empty 17 7 0 10 -262144 -1 -1 1
1;
#X text 495 439 quality (high by default);
#X text 264 412 on/off;
#X obj 245 380 loadbang;
#X text 460 359 feedback amount;
#X obj 317 321 loadbang;
#X text 406 387 feedback direction (default to 0.1):;
#X text 404 401 positive value: feed outward;
#X text 403 417 nagative value: feed inward;
#X obj 250 488 gems.win.feedback;
#X msg 317 342 0.938;
#X obj 85 136 gems.win 320 240;
#X connect 1 0 19 0;
#X connect 2 0 37 2;
#X connect 3 0 37 2;
#X connect 4 0 37 2;
#X connect 5 0 37 1;
#X connect 6 0 21 0;
#X connect 7 0 12 0;
#X connect 9 0 1 0;
#X connect 11 0 53 0;
#X connect 12 0 37 0;
#X connect 13 0 14 0;
#X connect 14 0 25 0;
#X connect 14 1 20 0;
#X connect 15 0 37 2;
#X connect 16 0 1 1;
#X connect 17 0 7 1;
#X connect 17 0 7 2;
#X connect 17 0 7 3;
#X connect 18 0 19 1;
#X connect 18 0 19 2;
#X connect 18 0 19 3;
#X connect 19 0 7 0;
#X connect 21 0 20 1;
#X connect 25 0 9 0;
#X connect 26 0 27 0;
#X connect 27 0 25 1;
#X connect 29 0 32 0;
#X connect 30 0 21 1;
#X connect 31 0 32 1;
#X connect 32 0 20 1;
#X connect 33 0 34 1;
#X connect 34 0 20 1;
#X connect 35 0 34 0;
#X connect 38 0 39 0;
#X connect 39 0 51 2;
#X connect 40 0 51 3;
#X connect 41 0 51 4;
#X connect 42 0 51 1;
#X connect 45 0 42 0;
#X connect 47 0 52 0;
#X connect 52 0 38 0;
