#N canvas 677 59 734 781 10;
#X obj 66 95 gemhead 10;
#X obj 118 256 separator;
#X obj 118 279 colorRGB 1 0.8 0.2 1;
#X obj 118 324 square;
#X obj 4 291 colorRGB 0 0.6 1 1;
#X obj 80 40 tgl 15 0 empty empty empty 17 7 0 10 -262144 -1 -1 1 1
;
#X obj 398 251 gemhead 20;
#X text 192 20 Description: Renders what is after it as a texture and
creates a gems.texture.storage to store it;
#X obj 264 214 print;
#X obj 69 170 translateXYZ 0 0 -4;
#X obj 399 292 pix_texture;
#X obj 406 346 rotateXYZ 0 0 0;
#X obj 548 312 count.iter;
#X obj 550 283 metro 50;
#X obj 547 241 init.lf 1;
#X obj 550 264 tgl 15 0 empty empty empty 17 7 0 10 -262144 -1 -1 1
1;
#X text 333 119 <-- See how the texture ID is passed to a [pix_texture]
;
#X obj 398 316 translateXYZ 0 0 0;
#X obj 81 66 gems.win @dimen 320 240 @color 1 1 1 1;
#X text 100 397 Wraps;
#X obj 153 399 gemframebuffer;
#X floatatom 215 204 5 0 0 0 - - -;
#X floatatom 215 334 5 0 0 0 - - -;
#X obj 41 240 separator;
#X obj 4 313 circle;
#X obj 69 143 gems.frame.buffer @name bacon @mode 1 @dim 512 512;
#X obj 66 120 gems.alpha.mode 6 1;
#X floatatom 623 277 5 0 0 0 - - -;
#X obj 118 301 translateXYZ 1 1 0;
#X obj 69 210 t a a a;
#X obj 253 271 separator;
#X obj 264 436 gems.line @from -6 1 0 @to 6 1 0;
#X obj 265 413 gems.line @from -6 0.5 0 @to 6 0.5 0;
#X obj 267 459 gems.line @from -6 1.5 0 @to 6 1.5 0;
#X obj 264 481 gems.line @from -6 2 0 @to 6 2 0;
#X obj 264 507 gems.line @from -6 2.5 0 @to 6 2.5 0;
#X obj 266 335 gems.line.width 4;
#X obj 262 315 colorRGB 0 1 0 1;
#X obj 401 381 cube 1.5;
#X obj 267 567 gems.line @from 0.5 -6 0 @to 0.5 6 0;
#X obj 266 590 gems.line @from 1 -6 0 @to 1 6 0;
#X obj 269 613 gems.line @from 1.5 -6 0 @to 1.5 6 0;
#X obj 266 635 gems.line @from 2 -6 0 @to 2 6 0;
#X obj 266 661 gems.line @from 2.5 -6 0 @to 2.5 6 0;
#X obj 284 543 colorRGB 1 0 0 1;
#X connect 0 0 26 0;
#X connect 1 0 2 0;
#X connect 2 0 28 0;
#X connect 4 0 24 0;
#X connect 5 0 18 0;
#X connect 6 0 10 0;
#X connect 9 0 29 0;
#X connect 10 0 17 0;
#X connect 11 0 38 0;
#X connect 12 0 11 3;
#X connect 12 0 11 2;
#X connect 13 0 12 0;
#X connect 14 0 15 0;
#X connect 15 0 13 0;
#X connect 17 0 11 0;
#X connect 21 0 9 3;
#X connect 22 0 28 2;
#X connect 22 0 28 1;
#X connect 23 0 4 0;
#X connect 25 0 9 0;
#X connect 25 1 10 1;
#X connect 26 0 25 0;
#X connect 27 0 12 0;
#X connect 28 0 3 0;
#X connect 29 0 23 0;
#X connect 29 1 1 0;
#X connect 29 2 30 0;
#X connect 30 0 37 0;
#X connect 31 0 33 0;
#X connect 32 0 31 0;
#X connect 33 0 34 0;
#X connect 34 0 35 0;
#X connect 35 0 44 0;
#X connect 36 0 32 0;
#X connect 37 0 36 0;
#X connect 39 0 40 0;
#X connect 40 0 41 0;
#X connect 41 0 42 0;
#X connect 42 0 43 0;
#X connect 44 0 39 0;
