#N canvas 354 159 665 557 10;
#X obj 70 521 square 4;
#X obj 197 448 vsl 15 50 0 1 0 0 empty empty empty 0 -8 0 8 -258699
-262144 -1 4124 1;
#X floatatom 279 496 5 0 0 0 - - -;
#X obj 69 407 pix_image;
#X obj 71 498 pix_texture;
#X obj 185 281 pix_image;
#N canvas 0 0 450 300 auto 0;
#X obj 129 227 line;
#X obj 140 169 sel 0 1;
#X obj 139 60 inlet;
#X obj 163 108 metro 1000;
#X obj 138 266 outlet;
#X obj 158 137 tgl 15 0 empty empty empty 0 -6 0 8 -262144 -1 -1 1
1;
#X msg 123 194 0.01 \, 1 1000;
#X msg 230 196 1 \, 0.01 1000;
#X connect 0 0 4 0;
#X connect 1 0 6 0;
#X connect 1 1 7 0;
#X connect 2 0 3 0;
#X connect 3 0 5 0;
#X connect 5 0 1 0;
#X connect 6 0 0 0;
#X connect 7 0 0 0;
#X restore 197 417 pd auto;
#X obj 197 397 tgl 15 0 empty empty empty 0 -6 0 8 -258699 -262144
-1 1 1;
#X obj 197 375 loadbang;
#X obj 368 316 gems.win;
#X obj 368 291 tgl 15 0 empty empty empty 0 -6 0 8 -262144 -1 -1 1
1;
#X text 388 287 1) Create Gem window.;
#X obj 69 471 gems.mixmode;
#X text 321 497 mode;
#X text 194 520 4th inlet is only useful for the pix_mix mode;
#X text 68 336 Left image:;
#X text 184 202 Right image:;
#X text 58 -4 Description: Allows to easily change the mixing mode
for two pixes.;
#X text 54 69 Modes are : (0) none \, (1) pix_mix \, (2) pix_mask \,
(3) pix_add \, (4) pix_subtract \, (5) pix_multiply \, (6) pix_composite
\, (7) pix_takealpha;
#N canvas 0 0 450 300 loadimage 0;
#X obj 166 140 file.path.top;
#X msg 166 163 open \$1;
#X obj 166 91 loadbang;
#X obj 161 215 outlet;
#X msg 166 115 medias/images/img0.jpg;
#X connect 0 0 1 0;
#X connect 1 0 3 0;
#X connect 2 0 4 0;
#X connect 4 0 0 0;
#X restore 90 383 pd loadimage;
#N canvas 0 0 450 300 loadimage 0;
#X obj 166 140 file.path.top;
#X msg 166 163 open \$1;
#X obj 166 91 loadbang;
#X obj 161 215 outlet;
#X msg 166 115 medias/images/img1.jpg;
#X connect 0 0 1 0;
#X connect 1 0 3 0;
#X connect 2 0 4 0;
#X connect 4 0 0 0;
#X restore 200 252 pd loadimage;
#X text 277 352 2) Play with the control below:;
#X obj 310 213 gemhead;
#X obj 185 309 multiplex 0 1;
#X obj 305 317 tgl 15 0 empty empty empty 0 -6 0 8 -262144 -1 -1 1
1;
#N canvas 0 0 450 300 loadmovie 0;
#X obj 166 140 file.path.top;
#X obj 166 91 loadbang;
#X obj 166 166 outlet;
#X msg 166 115 medias/movies/mov0.mov;
#X connect 0 0 2 0;
#X connect 1 0 3 0;
#X connect 3 0 0 0;
#X restore 334 235 pd loadmovie;
#X obj 69 359 gemhead 50;
#X obj 185 223 gemhead 49;
#X text 55 119 Warning : Images are cropped to fit together properly.
You might synth temporary error messages when you switch to images
of different dimensions.;
#X text 49 30 Comments: This method is deprecated. Use gems.alpha.mode
instead as it is much more powerful!;
#X obj 279 373 vradio 15 1 0 8 empty empty empty 0 -6 0 8 -258699 -262144
-1 3;
#X text 304 373 none;
#X text 304 402 pix_mask;
#X text 304 387 pix_mix;
#X text 304 417 pix_add;
#X text 304 432 pix_subtract;
#X text 304 448 pix_multiply;
#X text 304 463 pix_composite;
#X text 304 478 pix_takealpha;
#X obj 310 257 gems.movies;
#X connect 1 0 12 3;
#X connect 2 0 12 2;
#X connect 3 0 12 0;
#X connect 4 0 0 0;
#X connect 5 0 23 0;
#X connect 6 0 1 0;
#X connect 7 0 6 0;
#X connect 8 0 7 0;
#X connect 10 0 9 0;
#X connect 12 0 4 0;
#X connect 19 0 3 0;
#X connect 20 0 5 0;
#X connect 22 0 39 0;
#X connect 23 0 12 1;
#X connect 24 0 23 2;
#X connect 25 0 39 1;
#X connect 26 0 3 0;
#X connect 27 0 5 0;
#X connect 30 0 2 0;
#X connect 39 0 23 1;
