#N canvas 347 103 677 542 10;
#X obj 134 325 comport;
#X obj 134 502 outlet;
#X obj 134 395 list.build;
#X obj 346 504 outlet debug;
#X obj 134 358 sel 13 10;
#X obj 134 440 convert.int2ascii;
#X obj 130 121 convert.ascii2int 13;
#X obj 85 29 inlet;
#X obj 343 29 inlet;
#X obj 494 61 dollarg;
#X obj 494 33 loadbang;
#X obj 494 94 init.post.dollarg;
#X obj 344 180 t a a;
#X obj 457 232 list;
#X obj 457 199 b;
#X obj 457 254 list trim;
#X obj 457 279 route bang;
#X obj 343 134 relay devicename open reopen;
#X connect 0 0 4 0;
#X connect 0 1 3 0;
#X connect 2 0 5 0;
#X connect 4 0 2 0;
#X connect 4 2 2 1;
#X connect 5 0 1 0;
#X connect 6 0 0 0;
#X connect 7 0 6 0;
#X connect 8 0 17 0;
#X connect 9 0 11 0;
#X connect 9 1 11 1;
#X connect 10 0 9 0;
#X connect 11 0 17 0;
#X connect 12 0 0 0;
#X connect 12 1 13 1;
#X connect 13 0 15 0;
#X connect 14 0 13 0;
#X connect 15 0 16 0;
#X connect 16 1 0 0;
#X connect 17 0 12 0;
#X connect 17 1 12 0;
#X connect 17 2 14 0;
#X connect 17 3 0 0;
