#N canvas 0 0 450 300 10;
#X obj 85 159 init.check.symbol \$1;
#X obj 85 117 loadbang;
#X obj 87 199 print isasymbol;
#X obj 237 199 print isnotasymbol;
#X text 25 23 Description: Verifies that a creation argument is in
fact a symbol.;
#X connect 0 0 2 0;
#X connect 0 1 3 0;
#X connect 1 0 0 0;
