#N canvas 0 0 450 300 10;
#X obj 90 125 input.key.name.learn;
#X obj 90 94 bng 15 250 50 0 empty empty empty 0 -6 0 8 -262144 -1
-1;
#X obj 90 167 tgl 15 0 empty empty empty 0 -6 0 8 -262144 -1 -1 0 1
;
#X symbolatom 211 170 10 0 0 0 - - -;
#X text 70 186 Key press.;
#X text 286 171 Key learned.;
#X text 109 92 Learn.;
#X connect 0 0 2 0;
#X connect 0 1 3 0;
#X connect 1 0 0 0;
