#N canvas 987 106 781 832 10;
#X msg 143 647 symbol;
#X obj 72 667 list2symbol;
#X obj 72 718 outlet;
#X obj 72 597 list.build;
#X obj 55 509 t b;
#X obj 122 296 demultiplex;
#X obj 187 57 loadbang;
#X obj 169 137 != 0;
#X obj 147 12 inlet;
#X obj 72 629 t a b;
#X obj 335 562 t b a;
#X obj 333 627 list append;
#X obj 335 652 t a a;
#X obj 505 674 list.delete;
#X obj 577 625 list.length;
#X obj 320 593 list;
#X obj 483 597 list;
#X obj 487 622 t a a;
#X obj -1 17 inlet;
#X obj 52 70 spigot \$1;
#X obj 180 92 f \$2;
#X obj 51 19 key;
#X obj 67 389 relay symbol float;
#X obj 24 148 convert.ascii2pd;
#X obj 186 498 t b;
#X obj 348 442 relay symbol float;
#X obj 410 545 b;
#X obj 160 433 route LF BS SPACE;
#X obj 468 492 route LF BS SPACE;
#X obj 543 558 makefilename %c;
#X msg 545 523 32;
#X obj 228 529 makefilename %c;
#X msg 230 494 32;
#X connect 0 0 1 1;
#X connect 1 0 2 0;
#X connect 3 0 9 0;
#X connect 4 0 3 0;
#X connect 5 0 22 0;
#X connect 5 1 25 0;
#X connect 6 0 20 0;
#X connect 7 0 5 1;
#X connect 8 0 20 0;
#X connect 9 0 1 0;
#X connect 9 1 0 0;
#X connect 10 0 15 0;
#X connect 10 1 11 1;
#X connect 11 0 12 0;
#X connect 12 0 9 0;
#X connect 12 1 15 1;
#X connect 12 1 16 1;
#X connect 13 0 12 0;
#X connect 14 0 13 1;
#X connect 15 0 11 0;
#X connect 16 0 17 0;
#X connect 17 0 13 0;
#X connect 17 1 14 0;
#X connect 18 0 19 1;
#X connect 19 0 23 0;
#X connect 20 0 7 0;
#X connect 21 0 19 0;
#X connect 22 0 3 1;
#X connect 22 1 3 1;
#X connect 22 2 27 0;
#X connect 23 0 5 0;
#X connect 24 0 3 1;
#X connect 25 0 10 0;
#X connect 25 1 10 0;
#X connect 25 2 28 0;
#X connect 26 0 12 0;
#X connect 27 0 4 0;
#X connect 27 1 24 0;
#X connect 27 2 32 0;
#X connect 28 0 26 0;
#X connect 28 1 16 0;
#X connect 28 2 30 0;
#X connect 29 0 10 0;
#X connect 30 0 29 0;
#X connect 31 0 3 1;
#X connect 32 0 31 0;
