#N canvas 0 0 458 308 10;
#X obj 69 32 inlet;
#X obj 123 140 list;
#X obj 124 57 t b a;
#X obj 238 32 inlet;
#X obj 200 104 delay \$1;
#X obj 127 185 outlet;
#X obj 246 65 route bang;
#X msg 188 69 stop;
#X connect 0 0 2 0;
#X connect 1 0 5 0;
#X connect 2 0 4 0;
#X connect 2 1 1 1;
#X connect 3 0 6 0;
#X connect 4 0 1 0;
#X connect 6 0 7 0;
#X connect 6 1 4 1;
#X connect 7 0 4 0;
