#N canvas 1572 125 739 777 10;
#X obj 56 72 inlet;
#X obj 56 651 outlet;
#X obj 386 79 inlet;
#X obj 183 652 outlet;
#X obj 75 390 sel;
#X obj 313 431 loadbang;
#X obj 89 314 list;
#X obj 126 262 t b f f;
#X obj 126 228 moses;
#X obj 56 116 t a b a b a;
#X obj 98 436 f;
#X obj 383 281 b;
#X obj 126 310 + 1;
#X obj 227 204 t f f;
#X obj 313 455 iemlib/dollarg;
#X obj 227 181 zexy/length;
#X obj 70 346 list.element;
#X obj 126 194 count.iter;
#X obj 114 532 list.split 1;
#X obj 56 488 list.split;
#X connect 0 0 9 0;
#X connect 2 0 4 1;
#X connect 4 0 10 0;
#X connect 4 1 11 0;
#X connect 5 0 14 0;
#X connect 6 0 16 0;
#X connect 7 0 6 0;
#X connect 7 1 12 0;
#X connect 7 2 10 1;
#X connect 8 0 7 0;
#X connect 9 0 19 0;
#X connect 9 1 17 0;
#X connect 9 2 6 1;
#X connect 9 3 17 1;
#X connect 9 4 15 0;
#X connect 10 0 19 1;
#X connect 11 0 17 0;
#X connect 12 0 16 1;
#X connect 13 0 8 1;
#X connect 13 1 19 1;
#X connect 14 0 4 1;
#X connect 15 0 13 0;
#X connect 16 0 4 0;
#X connect 17 0 8 0;
#X connect 18 1 3 0;
#X connect 19 0 1 0;
#X connect 19 1 18 0;
