#N canvas 402 297 520 293 10;
#X msg 62 144 1 0 1 0 1 1 0 1 0 1 0 1;
#X obj 61 118 loadbang;
#X obj 62 198 prepend set;
#X msg 62 223 1 3 5 6 8 10 12;
#X text 39 26 Description: Converts a list of boolean values to a list
containing the index of values that are TRUE (1) in the first list
;
#X obj 62 173 list.bool2pos;
#X msg 185 116 0 0 0 0 1 1 1 1;
#X connect 0 0 5 0;
#X connect 1 0 0 0;
#X connect 2 0 3 0;
#X connect 5 0 2 0;
#X connect 6 0 5 0;
