#N canvas 434 221 638 316 10;
#X obj 132 53 inlet;
#X obj 112 245 outlet;
#X obj 116 162 pow;
#X obj 132 90 t b f;
#X obj 102 122 f \$1;
#X text 177 124 <-- see how the dollar-1 is replaced by the first argument
of the abstraction.;
#X text 212 52 This abstraction works much like a subpatch :;
#N canvas 0 0 450 300 subpatch 0;
#X text 37 89 This is a subpatch. (nested in a patch);
#X text 38 109 Different than an abstraction \, which can be reused.
;
#X restore 542 52 pd subpatch;
#X obj 293 79 inlet;
#X connect 0 0 3 0;
#X connect 2 0 1 0;
#X connect 3 0 4 0;
#X connect 3 1 2 1;
#X connect 4 0 2 0;
#X connect 8 0 4 1;
