#N canvas 73 80 686 574 10;
#N canvas 0 0 450 300 graph2 0;
#X array \$0cf1 100 float 2;
#X array \$0cf2 100 float 2;
#X coords 0 1 100 0 200 140 1;
#X restore 438 239 graph;
#X obj 105 118 osc~ 440;
#X floatatom 152 185 5 0 1 0 - - -;
#X obj 53 375 mix.out_~;
#X obj 155 162 hsl 128 15 -1 1 0 0 empty empty empty -2 -6 0 8 -262144
-1 -1 12700 1;
#N canvas 0 0 454 304 tables 0;
#X obj 287 104 r \$0tables;
#X obj 123 137 inlet;
#X obj 182 136 inlet;
#X obj 107 179 tabwrite \$0cf1;
#X obj 217 181 tabwrite \$0cf2;
#X obj 326 136 + 100;
#X obj 342 165 / 2;
#X connect 0 0 5 0;
#X connect 1 0 3 0;
#X connect 2 0 4 0;
#X connect 5 0 6 0;
#X connect 6 0 4 1;
#X connect 6 0 3 1;
#X restore 350 322 pd tables;
#X text 256 44 Creation arguments.;
#X floatatom 135 282 5 0 0 0 - - -;
#X floatatom 156 245 5 0 0 0 - - -;
#X text 171 283 Left volume.;
#X text 193 245 Right volume.;
#X text 256 60 Arg 1: curve (defaults to 1). 1 == linear.;
#X text 257 78 Arg 2: start crossfade value (-1 to 1).;
#X text 150 144 -1(left) to 1(right);
#X obj 288 291 mix.crossfade~ 2 0;
#X text 43 18 Description: Crossfades 2 mono inputs along different
curves.;
#X text 361 170 Check out the curves:;
#X msg 366 191 0.25;
#X msg 407 190 1;
#X msg 446 189 3;
#X msg 486 189 10;
#X obj 366 236 t b f;
#N canvas 0 0 454 304 tableindices 0;
#X obj 184 142 t f f;
#N canvas 0 0 454 304 in_betweens 0;
#X obj 171 207 until;
#X obj 161 42 int;
#X obj 171 121 -;
#X obj 228 237 f;
#X obj 228 265 +;
#N canvas 0 0 454 304 sign 0;
#X obj 97 184 abs;
#X obj 105 79 inlet;
#X obj 105 143 t f f;
#X obj 160 186 moses 0;
#X msg 159 215 -1;
#X msg 209 217 1;
#X obj 101 249 outlet;
#X obj 190 260 outlet;
#X connect 0 0 6 0;
#X connect 1 0 2 0;
#X connect 2 0 0 0;
#X connect 2 1 3 0;
#X connect 3 0 4 0;
#X connect 3 1 5 0;
#X connect 4 0 7 0;
#X connect 5 0 7 0;
#X restore 171 147 pd sign;
#X obj 228 297 t f f f;
#X obj 163 177 sel 0;
#X obj 142 247 f;
#X obj 175 77 t f f;
#X obj 159 13 inlet;
#X text 40 -15 Spills values between integers.;
#X obj 320 15 inlet;
#X obj 228 328 outlet;
#X msg 274 133 -100;
#X connect 0 0 3 0;
#X connect 1 0 9 0;
#X connect 2 0 5 0;
#X connect 3 0 4 0;
#X connect 4 0 6 0;
#X connect 5 0 7 0;
#X connect 5 1 4 1;
#X connect 6 0 13 0;
#X connect 6 1 3 1;
#X connect 6 2 2 1;
#X connect 7 0 8 0;
#X connect 7 1 0 0;
#X connect 8 0 13 0;
#X connect 9 0 2 0;
#X connect 9 1 8 1;
#X connect 10 0 1 0;
#X connect 12 0 14 0;
#X connect 14 0 3 1;
#X restore 183 122 pd in_betweens;
#X obj 157 173 / 100;
#X obj 211 172 s \$0tables;
#X obj 176 226 outlet;
#X obj 182 25 inlet;
#X obj 184 50 t b b;
#X msg 185 74 -100 \, 100;
#X connect 0 0 2 0;
#X connect 0 1 3 0;
#X connect 1 0 0 0;
#X connect 2 0 4 0;
#X connect 5 0 6 0;
#X connect 6 0 7 0;
#X connect 6 1 1 1;
#X connect 7 0 1 0;
#X restore 297 261 pd tableindices;
#X msg 526 189 40;
#X obj 56 89 osc~ 100;
#X floatatom 256 191 5 0 0 0 curve - -;
#X obj 55 219 mix.crossfade.stereo~;
#X connect 1 0 26 2;
#X connect 1 0 26 3;
#X connect 2 0 26 4;
#X connect 4 0 2 0;
#X connect 14 1 5 0;
#X connect 14 2 5 1;
#X connect 17 0 21 0;
#X connect 18 0 21 0;
#X connect 19 0 21 0;
#X connect 20 0 21 0;
#X connect 21 0 22 0;
#X connect 21 1 14 3;
#X connect 22 0 14 2;
#X connect 23 0 21 0;
#X connect 24 0 26 0;
#X connect 24 0 26 1;
#X connect 25 0 26 5;
#X connect 26 0 3 0;
#X connect 26 1 3 1;
#X connect 26 2 7 0;
#X connect 26 3 8 0;
