#N canvas 245 252 783 520 10;
#X obj 178 417 outlet~;
#X obj 103 15 inlet~ dry;
#X obj 261 25 inlet~ fx;
#X obj 472 78 clip 0 127;
#X obj 381 26 inlet;
#X obj 382 46 route curve;
#X obj 482 119 scale.linear 0 127 -1 1;
#X obj 480 419 outlet switch;
#X obj 175 240 mix.crossfade~ 1 -1;
#X obj 584 173 loadbang;
#X obj 584 199 dollarg;
#X obj 360 341 mix.switch.nice 12;
#X connect 1 0 8 0;
#X connect 2 0 8 1;
#X connect 3 0 6 0;
#X connect 4 0 5 0;
#X connect 5 0 8 3;
#X connect 5 1 3 0;
#X connect 6 0 8 2;
#X connect 8 0 0 0;
#X connect 8 2 11 0;
#X connect 9 0 10 0;
#X connect 10 0 8 3;
#X connect 11 0 7 0;
