#N canvas 536 126 1071 785 10;
#X obj 191 419 list;
#X msg 771 504 1 0 1 0 1 1 0 1 0 1 0 1;
#X obj 774 480 loadbang;
#X obj 754 455 inlet;
#X obj 146 87 inlet;
#X text 797 535 The major;
#X obj 849 650 - 1;
#X text 776 428 Scale;
#X obj 224 174 t b f;
#X text 94 54 Offset (degree) of the chord to get;
#X obj 459 192 init.df \$1 3;
#X obj 412 179 inlet;
#X text 418 153 Number of notes in the chord;
#X obj 415 224 f;
#X obj 183 694 outlet;
#X obj 183 639 list.cycle 2 3;
#X obj 716 620 list.bool2pos;
#X obj 226 130 - 1;
#X obj 156 524 zl rot;
#X text 199 89 In music \, index 1 is the first degree. In computer
sciences \, it is index 0;
#X obj 717 653 list.op;
#X obj 218 464 expr 0-$f1;
#X text 302 464 The offset are the inverse (negative) than those in
list-rot;
#X connect 0 0 18 0;
#X connect 1 0 16 0;
#X connect 2 0 1 0;
#X connect 3 0 16 0;
#X connect 4 0 17 0;
#X connect 6 0 20 1;
#X connect 8 0 0 0;
#X connect 8 1 21 0;
#X connect 10 0 13 0;
#X connect 11 0 13 0;
#X connect 13 0 15 2;
#X connect 15 0 14 0;
#X connect 16 0 20 0;
#X connect 17 0 8 0;
#X connect 18 0 15 0;
#X connect 20 0 0 1;
#X connect 20 1 6 0;
#X connect 21 0 18 1;
