#N canvas 505 222 659 622 10;
#X obj 16 7 inlet;
#X obj 298 95 init.df \$1 8;
#X obj 298 68 loadbang;
#X obj 83 320 *;
#X obj 177 231 until;
#X obj 202 263 f 1;
#X obj 235 267 + 1;
#X obj 178 211 f;
#X msg 221 242 1;
#X obj 391 94 inlet;
#X obj 173 34 t b b f b b;
#X obj 60 347 ftom;
#X obj 63 204 mtof;
#X obj 200 415 list prepend;
#X obj 162 452 list append;
#X obj 126 492 list append;
#X obj 136 542 outlet;
#X connect 0 0 10 0;
#X connect 1 0 7 1;
#X connect 2 0 1 0;
#X connect 3 0 11 0;
#X connect 4 0 5 0;
#X connect 5 0 6 0;
#X connect 5 0 3 0;
#X connect 6 0 5 1;
#X connect 7 0 4 0;
#X connect 8 0 5 1;
#X connect 9 0 7 1;
#X connect 10 0 15 0;
#X connect 10 1 7 0;
#X connect 10 2 12 0;
#X connect 10 3 8 0;
#X connect 10 4 13 1;
#X connect 11 0 13 0;
#X connect 12 0 3 1;
#X connect 13 0 14 0;
#X connect 14 0 13 1;
#X connect 14 0 15 1;
#X connect 15 0 16 0;
