#N canvas 346 120 791 664 10;
#X declare -lib pdmtl;
#X obj 52 12 inlet;
#X obj 109 157 msgfile;
#X msg 109 113 clear \, read \$1 \, flush;
#X obj 109 207 list trim;
#X obj 345 569 pdmtl/flow.send;
#X obj 269 283 demultiplex 0 1;
#X msg 431 307 1;
#X msg 347 227 0;
#X obj 109 258 route @id END SUB;
#X obj 449 508 makesymbol %s@%s;
#X obj 348 189 t b b;
#X msg 406 239 END;
#X obj 460 410 t b a b;
#X msg 398 484 SUB;
#X obj 449 485 list prepend;
#X obj 109 76 file.path.top;
#X obj 52 46 route bang;
#X obj 29 86 openpanel;
#X obj 100 572 include/param.fill;
#X connect 0 0 16 0;
#X connect 1 0 3 0;
#X connect 2 0 1 0;
#X connect 3 0 8 0;
#X connect 5 0 18 0;
#X connect 5 1 4 0;
#X connect 6 0 5 1;
#X connect 7 0 5 1;
#X connect 8 0 14 1;
#X connect 8 0 18 1;
#X connect 8 1 10 0;
#X connect 8 2 12 0;
#X connect 8 3 5 0;
#X connect 9 0 4 1;
#X connect 10 0 7 0;
#X connect 10 1 11 0;
#X connect 11 0 4 0;
#X connect 12 0 13 0;
#X connect 12 1 14 0;
#X connect 12 2 6 0;
#X connect 13 0 4 0;
#X connect 14 0 9 0;
#X connect 15 0 2 0;
#X connect 16 0 17 0;
#X connect 16 1 15 0;
#X connect 17 0 2 0;
