#N canvas 193 0 867 664 10;
#X obj -15 23 inlet;
#X obj 19 351 s param.atom.global;
#X obj 194 -43 ctlin;
#X obj 392 403 list;
#X obj 404 172 t b a;
#X obj 384 264 &&;
#X msg 377 196 1;
#X obj 519 177 t b b a;
#X msg 509 206 1;
#X obj 385 292 sel 1;
#X msg 330 238 0 0;
#X obj 15 86 route bang;
#X msg 7 172 1;
#X obj 11 234 s \$0learn;
#X obj 450 367 list;
#X obj 5 129 t b b;
#X obj 19 293 r \$0learn;
#X obj 543 415 s \$0learn;
#X msg 543 392 0;
#X obj 471 555 print param.map.midi;
#X obj 284 586 sel f;
#X obj 208 668 demultiplex 0 1;
#X obj 168 812 pdmtl/flow.send;
#X obj 295 692 list.split 1;
#X obj 168 784 expr (($f1 / 127) * ($f3 - $f2)) + $f2;
#X obj 364 721 unpack f f;
#X msg 19 325 listen \$1;
#X obj 207 110 demultiplex 0 1;
#X obj 294 75 r \$0learn;
#X obj 82 117 spigot 1;
#X obj 126 72 r \$0learn;
#X obj 126 94 == 0;
#X obj 209 566 list.split -1;
#X obj 207 -10 pack;
#X obj 207 15 makesymbol ctl.%s.%s;
#X obj 209 464 t a b;
#X msg 237 495 0;
#X msg 284 613 1;
#X msg 319 613 0;
#X obj 284 639 t f f;
#X obj 81 668 demultiplex 0 1;
#X obj 391 488 list prepend store;
#X obj 391 513 list trim;
#X obj 168 503 symbol;
#X obj 392 431 list;
#X obj 392 462 list;
#X obj 448 423 t a a;
#X obj 393 538 t a a;
#X obj 209 540 param.map MIDIMAP;
#X obj 599 -22 loadbang;
#X obj 599 9 dollarg;
#X obj -142 78 param.bang learn;
#X obj -118 122 bng 15 250 50 0 empty empty empty 17 7 0 10 -262144
-1 -1;
#X obj 513 94 r DPL;
#X obj 386 331 t b b b b;
#X msg 458 291 0;
#X obj 555 98 r \$0learn;
#X obj 520 131 spigot;
#X obj 553 38 param.group MIDIMAP;
#X msg 544 511 \$1@\$2;
#X obj 451 394 list split 2;
#X obj 474 455 include/param.get.format;
#X connect 0 0 11 0;
#X connect 2 0 29 0;
#X connect 2 1 33 0;
#X connect 2 2 33 1;
#X connect 3 0 44 0;
#X connect 4 0 6 0;
#X connect 4 1 3 1;
#X connect 5 0 9 0;
#X connect 6 0 5 0;
#X connect 7 0 5 0;
#X connect 7 1 8 0;
#X connect 7 2 14 1;
#X connect 8 0 5 1;
#X connect 9 0 54 0;
#X connect 10 0 5 0;
#X connect 11 0 15 0;
#X connect 12 0 13 0;
#X connect 14 0 60 0;
#X connect 15 0 12 0;
#X connect 15 1 10 0;
#X connect 16 0 26 0;
#X connect 18 0 17 0;
#X connect 20 0 37 0;
#X connect 20 1 38 0;
#X connect 21 1 23 0;
#X connect 23 0 22 1;
#X connect 23 1 25 0;
#X connect 24 0 22 0;
#X connect 25 0 24 1;
#X connect 25 1 24 2;
#X connect 26 0 1 0;
#X connect 27 0 35 0;
#X connect 27 1 4 0;
#X connect 28 0 27 1;
#X connect 29 0 40 0;
#X connect 30 0 31 0;
#X connect 31 0 29 1;
#X connect 32 0 21 0;
#X connect 32 1 20 0;
#X connect 33 0 34 0;
#X connect 34 0 27 0;
#X connect 35 0 43 0;
#X connect 35 1 36 0;
#X connect 36 0 40 1;
#X connect 37 0 39 0;
#X connect 38 0 39 0;
#X connect 39 0 40 1;
#X connect 39 1 21 1;
#X connect 40 1 24 0;
#X connect 41 0 42 0;
#X connect 42 0 47 0;
#X connect 43 0 48 0;
#X connect 44 0 45 0;
#X connect 45 0 41 0;
#X connect 46 0 44 1;
#X connect 46 1 61 0;
#X connect 47 0 48 0;
#X connect 47 1 19 0;
#X connect 48 0 32 0;
#X connect 49 0 50 0;
#X connect 50 0 58 1;
#X connect 50 1 58 2;
#X connect 51 0 15 0;
#X connect 51 0 52 0;
#X connect 53 0 57 0;
#X connect 54 0 3 0;
#X connect 54 1 14 0;
#X connect 54 2 18 0;
#X connect 54 3 55 0;
#X connect 55 0 5 1;
#X connect 56 0 57 1;
#X connect 57 0 7 0;
#X connect 59 0 46 0;
#X connect 60 0 59 0;
#X connect 61 0 45 1;
