#N canvas 278 22 620 452 10;
#X obj 59 50 inlet;
#X obj 120 233 +;
#X obj 163 189 random;
#X obj 127 102 t f b f;
#X obj 171 218 -;
#X obj 258 74 inlet;
#X obj 174 131 * 0;
#X obj 110 299 outlet;
#X text 296 71 percent of difference;
#X obj 203 151 * 50000;
#X obj 164 249 / 50000;
#X obj 215 176 t f f;
#X obj 230 203 / 2;
#X text 100 50 VALUE;
#X obj 240 121 * 2;
#X text 296 84 (1 = 100%);
#X text 157 302 similar VALUE;
#X obj 294 151 loadbang;
#X obj 301 177 f \$1;
#X connect 0 0 3 0;
#X connect 1 0 7 0;
#X connect 2 0 4 0;
#X connect 3 0 1 0;
#X connect 3 1 2 0;
#X connect 3 2 6 0;
#X connect 4 0 10 0;
#X connect 5 0 14 0;
#X connect 6 0 9 0;
#X connect 9 0 11 0;
#X connect 10 0 1 1;
#X connect 11 0 2 1;
#X connect 11 1 12 0;
#X connect 12 0 4 1;
#X connect 14 0 6 1;
#X connect 17 0 18 0;
#X connect 18 0 14 0;
