#N canvas 519 153 761 505 10;
#X declare -stdpath extra/tof;
#X obj 68 123 sampler.bank~ @id sb5;
#X obj 68 73 bng 15 250 50 0 empty empty empty 17 7 0 10 -262144 -1
-1;
#X obj 95 455 dac~;
#X obj 68 170 dac~;
#X msg 40 244 0 62 89;
#X text 70 10 Description: A polyphonic (5 voices) version of sampler.play~
;
#X msg 124 247 0 51 89;
#X msg 230 249 0 70 89;
#X msg 51 266 0 62 0;
#X msg 140 269 0 51 0;
#X msg 244 271 0 70 0;
#X text 96 73 1) Load at least one sample in the first instrument slot
;
#X text 257 219 2) Rock!;
#X msg 317 272 loop \$1;
#X obj 318 249 tgl 15 0 empty empty empty 17 7 0 10 -262144 -1 -1 0
1;
#X obj 410 240 tgl 15 0 empty empty empty 17 7 0 10 -262144 -1 -1 0
1;
#X msg 409 263 steal \$1;
#X obj 495 229 bng 15 250 50 0 empty empty empty 17 7 0 10 -262144
-1 -1;
#X msg 495 258 flush;
#X obj 43 386 sampler.play.poly~ @id spp5 @bank sb5;
#X connect 0 0 3 0;
#X connect 0 1 3 1;
#X connect 1 0 0 0;
#X connect 4 0 19 0;
#X connect 6 0 19 0;
#X connect 7 0 19 0;
#X connect 8 0 19 0;
#X connect 9 0 19 0;
#X connect 10 0 19 0;
#X connect 13 0 19 0;
#X connect 14 0 13 0;
#X connect 15 0 16 0;
#X connect 16 0 19 0;
#X connect 17 0 18 0;
#X connect 18 0 19 0;
#X connect 19 0 2 0;
#X connect 19 1 2 1;
