#N canvas 1026 0 999 664 10;
#X obj 201 -22 inlet;
#X obj 268 620 outlet~;
#X obj 414 626 outlet~;
#X obj 593 624 outlet done;
#X obj 691 623 outlet~;
#X obj 206 115 param.group;
#X obj 327 67 loadbang;
#X obj 324 92 dollarg;
#X obj 468 59 param.atom bank SAMPLER;
#X obj 504 89 param.atom fit false;
#X obj 821 -8 inlet overridden;
#X obj 795 621 outlet override;
#X obj 532 121 param.atom timing TIMING;
#X obj 570 150 param.atom loop false;
#X obj 706 243 param.atom progress false;
#X obj 202 6 relay bank fit timing loop progress;
#X obj 421 388 include/sampler.play.guts~;
#X connect 0 0 15 0;
#X connect 6 0 7 0;
#X connect 7 0 5 1;
#X connect 7 1 5 2;
#X connect 8 0 16 1;
#X connect 9 0 16 2;
#X connect 10 0 16 5;
#X connect 12 0 16 3;
#X connect 13 0 16 4;
#X connect 14 0 16 6;
#X connect 15 0 5 0;
#X connect 15 1 5 0;
#X connect 15 2 5 0;
#X connect 15 3 5 0;
#X connect 15 4 5 0;
#X connect 15 5 16 0;
#X connect 16 0 1 0;
#X connect 16 1 2 0;
#X connect 16 2 3 0;
#X connect 16 3 4 0;
#X connect 16 4 11 0;
