#N canvas 0 50 1024 714 10;
#X obj 97 109 change -1;
#X obj 4 643 outlet status;
#X msg 225 136 set -1;
#X obj 113 9 t f b;
#X obj 121 -33 inlet sample;
#X obj 140 37 delay 100;
#X obj 168 609 outlet progress;
#X obj 400 618 outlet gadsr;
#X obj 874 620 outlet format;
#X obj 980 619 outlet playback;
#X obj 518 -19 inlet gadsr;
#X obj 1033 -3 inlet playback;
#X obj 291 -31 inlet;
#X obj 691 -32 inlet bounds;
#X obj 518 622 outlet bounds;
#X obj 621 622 outlet preview_state;
#X obj 405 546 flow.receive;
#X obj 546 540 flow.receive;
#X obj 930 549 flow.receive;
#X obj 741 502 flow.receive;
#X obj 176 571 flow.receive;
#X obj 22 403 flow.receive;
#X msg 22 380 \$1status;
#X msg 205 460 \$1progress;
#X msg 667 458 \$1table_id;
#X msg 401 502 \$1gadsr;
#X msg 550 482 \$1bounds;
#X msg 934 468 \$1playback;
#X obj 758 621 outlet table_id;
#N canvas 0 0 824 471 dump_sample_generator 0;
#X msg 354 228 0;
#X obj 129 18 inlet;
#X msg 506 228 0;
#X obj 128 272 tabdump;
#X obj 231 281 tabdump;
#X obj 364 272 tabread;
#X obj 508 272 tabread;
#X msg 396 234 set \$1ttable_id;
#X msg 552 225 set \$1tplayback;
#X msg 258 233 set \$1tbounds;
#X msg 166 221 set \$1tgadsr;
#X obj 129 99 t b b b b b f;
#X obj 115 376 outlet;
#X obj 245 362 outlet;
#X obj 364 358 outlet;
#X obj 452 354 outlet;
#X connect 0 0 5 0;
#X connect 1 0 11 0;
#X connect 2 0 6 0;
#X connect 3 0 12 0;
#X connect 4 0 13 0;
#X connect 5 0 14 0;
#X connect 6 0 15 0;
#X connect 7 0 5 0;
#X connect 8 0 6 0;
#X connect 9 0 4 0;
#X connect 10 0 3 0;
#X connect 11 1 3 0;
#X connect 11 2 4 0;
#X connect 11 3 0 0;
#X connect 11 4 2 0;
#X connect 11 5 10 0;
#X connect 11 5 9 0;
#X connect 11 5 7 0;
#X connect 11 5 8 0;
#X restore 489 403 pd dump_sample_generator;
#N canvas 0 0 711 558 dump_table_id 0;
#X obj 55 14 inlet;
#X obj 188 353 tabread;
#X msg 188 311 set \$1p_s \, 0;
#X obj 401 352 tabdump;
#X obj 136 172 sel 0 -1;
#X msg 276 307 -1 -1;
#X obj 273 350 unpack f f;
#X obj 180 418 outlet;
#X obj 324 421 outlet;
#X obj 401 396 outlet;
#X msg 392 325 set \$1format \, bang;
#X obj 214 204 t f f f f;
#X obj 107 200 t b b;
#X obj 10 408 outlet;
#X msg 94 237 -1;
#X connect 0 0 4 0;
#X connect 1 0 7 0;
#X connect 2 0 1 0;
#X connect 3 0 9 0;
#X connect 4 0 12 0;
#X connect 4 1 12 0;
#X connect 4 2 11 0;
#X connect 5 0 6 0;
#X connect 6 0 7 0;
#X connect 6 1 8 0;
#X connect 10 0 3 0;
#X connect 11 0 13 0;
#X connect 11 1 2 0;
#X connect 11 2 8 0;
#X connect 11 3 10 0;
#X connect 12 0 14 0;
#X connect 12 1 5 0;
#X connect 14 0 13 0;
#X restore 717 564 pd dump_table_id;
#X obj 436 387 f;
#X obj 517 86 flow.send;
#X msg 570 56 \$1rgadsr;
#X msg 767 38 \$1rbounds;
#X msg 965 95 \$1make_preview;
#X msg 1135 74 \$1rplayback;
#X obj 870 -2 inlet make_preview;
#X obj 852 108 flow.send;
#X obj 919 64 sel 0 -1;
#X obj 696 86 flow.send;
#X obj 1078 110 flow.send;
#X obj 220 220 send \$0id;
#X obj 13 508 t f f;
#X obj 44 581 f;
#N canvas 0 0 474 324 read_status 0;
#X msg 132 85 set \$1tstatus;
#X obj 85 129 tabread;
#X msg 86 69 0;
#X obj 95 17 inlet;
#X obj 101 44 t b f;
#X obj 87 178 outlet;
#X connect 0 0 1 0;
#X connect 1 0 5 0;
#X connect 2 0 1 0;
#X connect 3 0 4 0;
#X connect 4 0 2 0;
#X connect 4 1 0 0;
#X restore 168 272 pd read_status;
#X obj 388 41 spigot;
#X obj 165 316 sel 1;
#X msg 171 369 1;
#X msg 230 315 0;
#X obj 273 602 convert.list2symbol;
#N canvas 0 0 482 332 file 0;
#X obj 103 288 outlet;
#X obj 174 206 tabdump;
#X msg 173 176 set \$1file \, bang;
#X obj 106 19 inlet;
#X obj 108 74 f;
#X obj 106 47 b;
#X obj 309 27 inlet;
#X msg 29 159 symbol --none--;
#X obj 104 103 sel -1 0;
#X obj 174 236 convert.int2ascii;
#X connect 1 0 9 0;
#X connect 2 0 1 0;
#X connect 3 0 5 0;
#X connect 4 0 8 0;
#X connect 5 0 4 0;
#X connect 6 0 4 1;
#X connect 7 0 0 0;
#X connect 8 0 7 0;
#X connect 8 1 7 0;
#X connect 8 2 2 0;
#X connect 9 0 0 0;
#X restore 298 569 pd file;
#X obj 287 632 outlet file;
#X obj 403 -10 r \$0status;
#X obj 224 384 s \$0status;
#X obj 11 484 r \$0status;
#X obj 267 111 s \$0cut_top;
#X obj 273 137 s \$0cut_but;
#X obj 990 185 r \$0cut_top;
#X obj 714 192 r \$0set_top;
#X obj 218 495 r \$0cut_but;
#X obj 797 456 r \$0cut_but;
#X obj 110 542 r \$0id;
#X obj 486 358 r \$0id;
#X obj 206 244 s \$0set_but;
#X obj 234 418 r \$0set_but;
#X obj 747 405 r \$0set_but;
#X obj 71 586 s \$0cut_top;
#X obj 172 339 t b b;
#X obj 186 179 t f f f;
#X obj 22 449 s \$0status;
#X obj 23 425 == 1;
#X obj 195 69 t b b b b;
#X obj 43 614 send \$0set_top;
#X obj 894 299 flow.receive;
#X msg 962 225 \$1preview;
#X msg 96 191 -1;
#X obj 424 14 == 1;
#X obj 96 220 s \$0status;
#X obj 44 545 sel 1 0;
#X obj 57 518 == 1;
#X obj 716 534 t f f;
#X obj 393 78 route bang;
#X obj 306 2 route getfile;
#X connect 0 0 69 0;
#X connect 2 0 0 0;
#X connect 3 0 0 0;
#X connect 3 1 5 0;
#X connect 4 0 3 0;
#X connect 5 0 72 0;
#X connect 10 0 32 0;
#X connect 11 0 41 0;
#X connect 12 0 83 0;
#X connect 13 0 40 0;
#X connect 16 0 7 0;
#X connect 17 0 14 0;
#X connect 18 0 9 0;
#X connect 19 0 81 0;
#X connect 20 0 6 0;
#X connect 21 0 71 0;
#X connect 22 0 21 0;
#X connect 23 0 20 0;
#X connect 24 0 19 0;
#X connect 25 0 16 0;
#X connect 26 0 17 0;
#X connect 27 0 18 0;
#X connect 29 0 7 0;
#X connect 29 1 14 0;
#X connect 29 2 81 0;
#X connect 29 3 9 0;
#X connect 30 0 51 1;
#X connect 30 1 15 0;
#X connect 30 2 28 0;
#X connect 30 3 8 0;
#X connect 31 0 29 0;
#X connect 33 0 32 1;
#X connect 34 0 40 1;
#X connect 35 0 38 1;
#X connect 36 0 41 1;
#X connect 37 0 38 0;
#X connect 39 0 38 1;
#X connect 39 0 74 0;
#X connect 39 1 38 1;
#X connect 39 1 74 0;
#X connect 39 2 35 0;
#X connect 39 2 75 0;
#X connect 43 0 1 0;
#X connect 43 1 80 0;
#X connect 44 0 73 0;
#X connect 45 0 47 0;
#X connect 46 0 82 0;
#X connect 47 0 68 0;
#X connect 47 1 49 0;
#X connect 48 0 54 0;
#X connect 49 0 54 0;
#X connect 50 0 52 0;
#X connect 51 0 50 0;
#X connect 53 0 77 0;
#X connect 55 0 43 0;
#X connect 58 0 32 1;
#X connect 58 0 40 1;
#X connect 58 0 38 1;
#X connect 58 0 41 1;
#X connect 58 0 74 0;
#X connect 59 0 33 0;
#X connect 59 0 34 0;
#X connect 59 0 36 0;
#X connect 60 0 21 0;
#X connect 60 0 20 0;
#X connect 60 0 16 0;
#X connect 61 0 17 0;
#X connect 61 0 19 0;
#X connect 61 0 18 0;
#X connect 62 0 44 1;
#X connect 63 0 31 1;
#X connect 65 0 22 0;
#X connect 65 0 23 0;
#X connect 65 0 25 0;
#X connect 66 0 26 0;
#X connect 66 0 24 0;
#X connect 66 0 27 0;
#X connect 68 0 48 0;
#X connect 68 1 31 0;
#X connect 69 0 45 0;
#X connect 69 1 64 0;
#X connect 69 2 42 0;
#X connect 71 0 70 0;
#X connect 72 0 76 0;
#X connect 72 1 2 0;
#X connect 72 2 57 0;
#X connect 72 3 56 0;
#X connect 74 0 15 0;
#X connect 75 0 74 0;
#X connect 76 0 78 0;
#X connect 77 0 46 1;
#X connect 79 0 44 0;
#X connect 79 1 67 0;
#X connect 80 0 79 0;
#X connect 81 0 30 0;
#X connect 81 1 39 0;
#X connect 82 0 31 0;
#X connect 83 0 51 0;
#X connect 83 1 46 0;
