#N canvas 12 46 1016 687 12;
#N canvas 0 0 1012 718 scaler 0;
#X text 7 6 Made by Thomas Ouellet Fredericks for the ID collective
;
#X text 9 26 tom@danslchamp.org;
#X text 238 29 21 novembre 2004;
#X obj 56 76 inlet;
#X obj 329 625 outlet;
#X obj 325 455 *;
#X text 125 320 -------------------------;
#X text 307 517 -------------------------;
#X text 51 151 -------------------------;
#X text 238 58 max input;
#X text 134 56 min input;
#X text 431 56 max output;
#X text 333 56 min output;
#X text 367 482 min output;
#X obj 65 251 /;
#X obj 142 71 inlet;
#X obj 250 75 inlet;
#X obj 330 74 inlet;
#X obj 440 74 inlet;
#X obj 75 204 t f b;
#X obj 299 378 t f b;
#X obj 59 177 - \$2;
#X obj 164 206 f \$3;
#X obj 215 235 - \$2;
#X obj 380 395 f \$6;
#X obj 420 425 - \$5;
#X obj 327 483 + \$5;
#X connect 3 0 21 0;
#X connect 5 0 26 0;
#X connect 14 0 20 0;
#X connect 15 0 21 1;
#X connect 15 0 23 1;
#X connect 16 0 22 0;
#X connect 17 0 25 1;
#X connect 17 0 26 1;
#X connect 18 0 24 0;
#X connect 19 0 14 0;
#X connect 19 1 22 0;
#X connect 20 0 5 0;
#X connect 20 1 24 0;
#X connect 21 0 19 0;
#X connect 22 0 23 0;
#X connect 23 0 14 1;
#X connect 24 0 25 0;
#X connect 25 0 5 1;
#X connect 26 0 4 0;
#X restore 260 247 pd scaler;
#X obj 110 34 inlet;
#X obj 162 423 outlet;
#N canvas 0 0 1012 718 scaler 0;
#X text 7 6 Made by Thomas Ouellet Fredericks for the ID collective
;
#X text 9 26 tom@danslchamp.org;
#X text 238 29 21 novembre 2004;
#X obj 56 76 inlet;
#X obj 329 625 outlet;
#X obj 325 455 *;
#X text 125 320 -------------------------;
#X text 307 517 -------------------------;
#X text 51 151 -------------------------;
#X text 238 58 max input;
#X text 134 56 min input;
#X text 431 56 max output;
#X text 333 56 min output;
#X text 367 482 min output;
#X obj 65 251 /;
#X obj 142 71 inlet;
#X obj 250 75 inlet;
#X obj 330 74 inlet;
#X obj 440 74 inlet;
#X obj 75 204 t f b;
#X obj 299 378 t f b;
#X obj 59 177 - \$1;
#X obj 215 235 - \$1;
#X obj 164 206 f \$2;
#X obj 381 395 f \$5;
#X obj 420 425 - \$4;
#X obj 327 483 + \$4;
#X connect 3 0 21 0;
#X connect 5 0 26 0;
#X connect 14 0 20 0;
#X connect 15 0 21 1;
#X connect 15 0 22 1;
#X connect 16 0 23 0;
#X connect 17 0 25 1;
#X connect 17 0 26 1;
#X connect 18 0 24 0;
#X connect 19 0 14 0;
#X connect 19 1 23 0;
#X connect 20 0 5 0;
#X connect 20 1 24 0;
#X connect 21 0 19 0;
#X connect 22 0 14 1;
#X connect 23 0 22 0;
#X connect 24 0 25 0;
#X connect 25 0 5 1;
#X connect 26 0 4 0;
#X restore 46 243 pd scaler;
#X obj 196 35 inlet;
#X obj 265 35 inlet;
#X obj 314 36 inlet;
#X obj 362 33 inlet;
#X obj 419 29 inlet;
#X obj 467 26 inlet;
#X obj 63 122 flow.split \$1 \$2;
#X connect 0 0 2 0;
#X connect 1 0 10 0;
#X connect 3 0 2 0;
#X connect 4 0 3 1;
#X connect 4 0 10 1;
#X connect 5 0 0 1;
#X connect 5 0 3 2;
#X connect 5 0 10 2;
#X connect 6 0 0 2;
#X connect 7 0 3 3;
#X connect 8 0 0 3;
#X connect 8 0 3 4;
#X connect 9 0 0 4;
#X connect 10 0 3 0;
#X connect 10 1 0 0;
