#N canvas 375 49 1069 809 10;
#X obj 3 110 inlet;
#X obj 427 63 inlet;
#X obj 182 182 dollarg;
#X obj 182 206 init.post.dollarg;
#X obj 59 791 outlet;
#X obj 620 655 outlet;
#X msg 256 437 clear;
#X obj 10 282 symbol default;
#X obj 622 593 symbol;
#X msg 620 619 class \$1;
#X obj 622 549 t b;
#X text 656 549 info;
#X obj 198 730 s pd-\$0-dyn;
#X obj 684 76 cnv 15 100 100 empty empty empty 20 12 0 14 -258113 -66577
0;
#N canvas 0 22 538 388 \$0-dyn 0;
#X obj 100 100 receive 1064-in;
#X obj 100 200 lua_test foo 1 2 3;
#X obj 100 300 send 1064-out;
#X connect 0 0 1 0;
#X connect 1 0 2 0;
#X restore 686 80 pd \$0-dyn;
#X text 687 60 DYNAMIC PATCH;
#X obj 36 441 list append;
#X obj 39 490 list.trim;
#X obj 808 321 sel 0 1;
#X msg 841 344 1;
#X msg 806 343 0;
#X obj 807 401 s pd-\$0-dyn;
#X msg 810 376 vis \$1;
#X obj 829 283 tgl 15 0 empty empty empty 17 7 0 10 -262144 -1 -1 0
1;
#X obj 58 762 r \$0-out;
#X obj 4 165 s \$0-in;
#X obj 260 514 symbol \$0-out;
#X obj 260 465 symbol \$0-in;
#X obj 8 57 lua;
#X text 55 55 <-- created before the dynamic subpatch;
#X obj 62 420 flow.prepend luax;
#X obj 32 732 debug.print script.lua;
#X obj 165 87 loadbang;
#X obj 18 310 spigot;
#X msg 168 141 1;
#X text 16 216 lua class/file name;
#X text 115 442 args;
#X msg -26 524 connect 0 0 1 0 \, connect 1 0 2 0;
#X obj 35 699 t a;
#X obj 10 338 t b b s b b;
#X obj 392 272 t b;
#X msg 260 485 obj 100 100 receive \$1;
#X msg 261 534 obj 100 300 send \$1;
#X obj 38 468 flow.prepend obj 100 200;
#X text 472 232 leftover attributes go to lua;
#X obj 31 400 demultiplex 0 1;
#X obj 151 115 t b b b b;
#X msg 217 141 luax 1 \, verbose 0;
#X obj 179 236 route luax class info verbose args view reload;
#X connect 0 0 25 0;
#X connect 1 0 48 0;
#X connect 2 0 3 0;
#X connect 2 1 3 1;
#X connect 3 0 48 0;
#X connect 6 0 38 0;
#X connect 7 0 33 0;
#X connect 8 0 9 0;
#X connect 9 0 5 0;
#X connect 10 0 8 0;
#X connect 16 0 43 0;
#X connect 17 0 38 0;
#X connect 18 0 20 0;
#X connect 18 1 19 0;
#X connect 18 2 19 0;
#X connect 19 0 22 0;
#X connect 20 0 22 0;
#X connect 22 0 21 0;
#X connect 23 0 18 0;
#X connect 24 0 4 0;
#X connect 26 0 42 0;
#X connect 27 0 41 0;
#X connect 30 0 16 0;
#X connect 32 0 46 0;
#X connect 33 0 39 0;
#X connect 34 0 33 1;
#X connect 37 0 38 0;
#X connect 38 0 31 0;
#X connect 38 0 12 0;
#X connect 39 0 37 0;
#X connect 39 1 26 0;
#X connect 39 2 45 0;
#X connect 39 3 27 0;
#X connect 39 4 6 0;
#X connect 40 0 7 0;
#X connect 41 0 38 0;
#X connect 42 0 38 0;
#X connect 43 0 17 0;
#X connect 45 0 16 0;
#X connect 45 1 30 0;
#X connect 46 0 7 0;
#X connect 46 1 34 0;
#X connect 46 2 2 0;
#X connect 46 3 47 0;
#X connect 47 0 48 0;
#X connect 48 0 45 1;
#X connect 48 1 7 0;
#X connect 48 2 10 0;
#X connect 48 3 31 1;
#X connect 48 4 16 1;
#X connect 48 5 18 0;
#X connect 48 6 40 0;
#X connect 48 7 25 0;
