#N canvas 381 194 781 623 10;
#X obj 112 264 \$1;
#X obj -11 94 inlet;
#X obj 262 105 inlet;
#X obj 157 518 outlet~;
#X obj 144 266 \$1;
#X obj -12 151 pack f f f;
#X obj -21 246 \$1;
#X obj 9 250 \$1;
#X obj 41 254 \$1;
#X obj 78 261 \$1;
#X obj 240 206 t a;
#X obj -12 174 route 1 2 3 4 5 6 7 8 9 10;
#X obj 177 269 \$1;
#X obj 207 273 \$1;
#X obj 239 277 \$1;
#X obj 276 284 \$1;
#X obj -12 128 poly 10 \$2;
#X obj 159 475 *~ 1;
#X obj 395 178 loadbang;
#X obj 396 205 dollarg;
#X obj 396 227 init.post.dollarg;
#X obj 396 248 route adsr;
#X connect 0 0 17 0;
#X connect 1 0 16 0;
#X connect 2 0 10 0;
#X connect 4 0 17 0;
#X connect 5 0 11 0;
#X connect 6 0 17 0;
#X connect 7 0 17 0;
#X connect 8 0 17 0;
#X connect 9 0 17 0;
#X connect 10 0 9 1;
#X connect 10 0 8 1;
#X connect 10 0 7 1;
#X connect 10 0 6 1;
#X connect 10 0 14 1;
#X connect 10 0 15 1;
#X connect 10 0 13 1;
#X connect 10 0 12 1;
#X connect 10 0 4 1;
#X connect 10 0 0 1;
#X connect 11 0 6 0;
#X connect 11 1 7 0;
#X connect 11 2 8 0;
#X connect 11 3 9 0;
#X connect 11 4 0 0;
#X connect 11 5 4 0;
#X connect 11 6 12 0;
#X connect 11 7 13 0;
#X connect 11 8 14 0;
#X connect 11 9 15 0;
#X connect 12 0 17 0;
#X connect 13 0 17 0;
#X connect 14 0 17 0;
#X connect 15 0 17 0;
#X connect 16 0 5 0;
#X connect 16 1 5 1;
#X connect 16 2 5 2;
#X connect 17 0 3 0;
#X connect 18 0 19 0;
#X connect 19 0 20 0;
#X connect 19 1 20 1;
#X connect 20 0 21 0;
#X connect 21 0 10 0;
