#N canvas 594 40 579 375 10;
#X obj 175 292 mix.out_~;
#X msg 206 164 60;
#X obj 279 163 hsl 128 15 5 1000 0 0 empty empty empty -2 -6 0 8 -262144
-1 -1 0 1;
#X text 104 118 Useful for percussion;
#X text 106 55 Description: Self scaling time/amplitude blips without
redundancy.;
#X text 108 89 Comment: By ajf2006.;
#X msg 174 164 40;
#X msg 239 164 76;
#X msg 174 210 note \$1;
#X msg 276 184 decay \$1;
#X obj 350 244 param.gui;
#X msg 350 222 blip;
#X obj 174 240 synth.blip~ @id blip;
#X msg 113 164 trigger;
#X connect 1 0 8 0;
#X connect 2 0 9 0;
#X connect 6 0 8 0;
#X connect 7 0 8 0;
#X connect 8 0 12 0;
#X connect 9 0 12 0;
#X connect 11 0 10 0;
#X connect 12 0 0 0;
#X connect 12 0 0 1;
#X connect 13 0 12 0;
