#N canvas 244 501 570 498 10;
#X obj 172 89 inlet;
#X obj 172 114 mtof;
#X obj 172 333 outlet~;
#X obj 172 138 phasor~;
#X obj 173 199 wrap~;
#X obj 173 307 hip~ 100;
#X obj 173 281 *~ 1;
#X obj 276 149 samphold~;
#X obj 327 127 phasor~ 5700;
#X obj 172 224 tabread~ \$0_t;
#N canvas 0 0 450 300 (subpatch) 0;
#X array \$0_t 2 float 1;
#A 0 -1.86265e-08 1;
#X coords 0 1 1 0 200 140 1;
#X restore 328 271 graph;
#X obj 173 176 expr~ $v1 > $v2;
#X connect 0 0 1 0;
#X connect 1 0 3 0;
#X connect 3 0 11 0;
#X connect 4 0 9 0;
#X connect 5 0 2 0;
#X connect 6 0 5 0;
#X connect 8 0 7 1;
#X connect 9 0 6 0;
#X connect 11 0 4 0;
