#N canvas 583 110 583 535 10;
#N canvas 0 0 610 502 crackles 0;
#X obj 64 394 *~;
#X obj 77 104 env~;
#X msg 128 170 bang;
#X obj 77 127 moses 50;
#X obj 128 148 moses 51;
#X obj 128 237 line~;
#X msg 128 216 1 \, 0 \$1;
#X obj 128 265 *~;
#X obj 96 325 + 1500;
#X obj 64 349 bp~ 4000 1;
#X obj 95 303 * 500;
#X obj 65 490 outlet~;
#X obj 63 52 inlet~;
#X obj 77 80 lop~ 1;
#X obj 128 193 random 30;
#X obj 323 63 inlet;
#X obj 303 117 switch~;
#X obj 64 445 lop~ 2000;
#X obj 150 390 inlet;
#X connect 0 0 17 0;
#X connect 1 0 3 0;
#X connect 2 0 14 0;
#X connect 3 1 4 0;
#X connect 4 0 2 0;
#X connect 5 0 7 0;
#X connect 5 0 7 1;
#X connect 6 0 5 0;
#X connect 7 0 0 1;
#X connect 8 0 9 1;
#X connect 9 0 0 0;
#X connect 10 0 8 0;
#X connect 12 0 9 0;
#X connect 12 0 13 0;
#X connect 13 0 1 0;
#X connect 14 0 6 0;
#X connect 14 0 10 0;
#X connect 15 0 16 0;
#X connect 17 0 11 0;
#X connect 18 0 17 1;
#X restore 127 146 pd crackles;
#X obj 128 110 noise~;
#X obj 128 364 outlet~;
#X obj 310 134 param.group;
#X obj 347 85 loadbang;
#X obj 347 109 dollarg;
#X obj 251 85 inlet params;
#X obj 149 308 mix.fade~;
#X msg 228 280 _hann;
#X obj 178 258 line~;
#X msg 178 228 \$1 5;
#X obj 228 257 loadbang;
#X obj 225 59 param.atom lop 2000 500 20000;
#X obj 217 229 param.atom volume 1 0 1;
#X obj 228 162 param.atom switch true;
#X connect 0 0 7 0;
#X connect 1 0 0 0;
#X connect 4 0 5 0;
#X connect 5 0 3 1;
#X connect 5 1 3 2;
#X connect 6 0 3 0;
#X connect 7 0 2 0;
#X connect 8 0 7 2;
#X connect 9 0 7 1;
#X connect 10 0 9 0;
#X connect 11 0 8 0;
#X connect 12 0 0 1;
#X connect 13 0 10 0;
#X connect 14 0 0 2;
