#N canvas 581 66 549 496 10;
#N canvas 247 38 987 658 lightning 0;
#X obj 10 426 noise~;
#X obj 96 478 noise~;
#X obj 81 512 *~;
#X obj 80 562 bp~ 333 4;
#X obj 9 449 lop~ 3;
#X obj 81 535 clip~ -1 1;
#X obj 61 380 line;
#X obj 61 426 + 3;
#X obj 61 405 * 30;
#X obj 10 473 *~ 80;
#X obj 126 377 line;
#X obj 79 586 *~;
#X obj 399 334 noise~;
#X obj 561 454 bp~ 40 3;
#X obj 489 454 bp~ 360 5;
#X obj 489 480 *~ 2.5;
#X obj 302 483 *~ 2;
#X obj 420 481 *~ 1.2;
#X obj 419 454 bp~ 235 7;
#X obj 562 478 *~ 10;
#X obj 478 521 bp~ 2500 0.5;
#X obj 451 360 *~ 10;
#X obj 434 381 *~;
#X obj 435 402 clip~ -0.3 0.3;
#X obj 336 455 bp~ 3600 8;
#X obj 252 453 bp~ 2300 7;
#X obj 562 424 * 80;
#X obj 480 427 * 720;
#X obj 421 430 * 480;
#X obj 284 429 * 4600;
#X obj 198 426 * 3600;
#X obj 367 431 * 7200;
#X obj 531 289 /;
#X msg 524 263 1;
#X obj 530 239 t b f;
#X msg 603 72 bang;
#X obj 261 364 / 20;
#X obj 477 574 *~ 0.1;
#X msg 61 353 1 \, 0 600;
#X msg 126 353 1 \, 0 6000;
#X obj 261 386 + 0.01;
#X obj 79 608 *~ 0.9;
#X obj 162 454 bp~ 4700 7;
#X obj 690 480 biquad~;
#X obj 690 455 bandpass;
#X msg 690 433 80 20;
#X obj 692 528 lop~ 200;
#X obj 691 504 hip~ 5;
#X obj 639 453 noise~;
#X obj 689 414 loadbang;
#X obj 692 581 *~;
#X obj 693 551 *~ 20;
#X obj 758 469 *~;
#X obj 758 498 clip~ 0 0.77;
#X obj 758 441 ead~ 2000 20000;
#X obj 108 321 del 200;
#X obj 424 17 inlet;
#X obj 478 701 outlet~;
#X text 797 667 ajf2006;
#X text 61 49 very very frightening ...;
#X text 60 75 Galileo \, Figaro....;
#X obj 92 664 outlet~;
#X obj 693 672 outlet~;
#X obj 758 413 del 100;
#X obj 452 333 ead~ 0 5000;
#X msg 530 180 2;
#X connect 0 0 4 0;
#X connect 1 0 2 1;
#X connect 2 0 5 0;
#X connect 3 0 11 0;
#X connect 4 0 9 0;
#X connect 5 0 3 0;
#X connect 6 0 8 0;
#X connect 7 0 4 1;
#X connect 8 0 7 0;
#X connect 9 0 2 0;
#X connect 10 0 11 1;
#X connect 11 0 41 0;
#X connect 12 0 22 0;
#X connect 13 0 19 0;
#X connect 14 0 15 0;
#X connect 15 0 20 0;
#X connect 16 0 20 0;
#X connect 17 0 20 0;
#X connect 18 0 17 0;
#X connect 19 0 20 0;
#X connect 20 0 37 0;
#X connect 21 0 22 1;
#X connect 22 0 23 0;
#X connect 23 0 13 0;
#X connect 23 0 14 0;
#X connect 23 0 18 0;
#X connect 23 0 24 0;
#X connect 23 0 25 0;
#X connect 23 0 42 0;
#X connect 24 0 16 0;
#X connect 25 0 16 0;
#X connect 26 0 13 1;
#X connect 27 0 14 1;
#X connect 28 0 18 1;
#X connect 29 0 25 1;
#X connect 30 0 42 1;
#X connect 31 0 24 1;
#X connect 33 0 32 0;
#X connect 34 0 33 0;
#X connect 34 0 64 0;
#X connect 34 1 32 1;
#X connect 35 0 65 0;
#X connect 35 0 63 0;
#X connect 36 0 40 0;
#X connect 37 0 57 0;
#X connect 38 0 6 0;
#X connect 39 0 10 0;
#X connect 40 0 26 0;
#X connect 40 0 27 0;
#X connect 40 0 28 0;
#X connect 40 0 31 0;
#X connect 40 0 29 0;
#X connect 40 0 30 0;
#X connect 41 0 61 0;
#X connect 42 0 16 0;
#X connect 43 0 47 0;
#X connect 44 0 43 0;
#X connect 45 0 44 0;
#X connect 46 0 51 0;
#X connect 47 0 46 0;
#X connect 48 0 43 0;
#X connect 49 0 45 0;
#X connect 50 0 62 0;
#X connect 51 0 50 0;
#X connect 52 0 53 0;
#X connect 53 0 50 1;
#X connect 54 0 52 0;
#X connect 54 0 52 1;
#X connect 55 0 38 0;
#X connect 55 0 39 0;
#X connect 56 0 35 0;
#X connect 56 0 55 0;
#X connect 63 0 54 0;
#X connect 64 0 21 0;
#X connect 65 0 34 0;
#X connect 65 0 36 0;
#X restore 323 262 pd lightning;
#X obj 418 359 outlet~;
#X msg 315 228 40;
#X obj 350 353 outlet~;
#X obj 272 361 outlet~;
#X obj 308 176 inlet;
#X connect 0 0 4 0;
#X connect 0 1 3 0;
#X connect 0 2 1 0;
#X connect 2 0 0 0;
#X connect 5 0 2 0;
