#N canvas 0 0 450 300 10;
#X obj 73 157 synth.low.rumble~;
#X obj 73 195 mix.out_~;
#X obj 73 129 tgl 15 0 empty empty empty 0 -6 0 8 -262144 -1 -1 0 1
;
#X text 39 53 Comment: Taken from Andy Farnell's work.;
#X text 41 25 Description: Generates a distant rumble.;
#X connect 0 0 1 0;
#X connect 0 0 1 1;
#X connect 2 0 0 0;
