#N canvas 193 184 320 267 10;
#X obj 20 151 vline~;
#X obj 64 40 samplerate~;
#X msg 64 63 1000 \$1;
#X obj 64 85 /;
#X msg 20 129 1 \, 0 0 \$1;
#X obj 20 107 f;
#X text 104 86 1000 / sr = sampleperiod (ms);
#X obj 20 78 b;
#X obj 64 16 loadbang;
#X obj 20 17 inlet;
#X obj 21 215 outlet~;
#X text 130 180 Author: Roman Haefeli;
#X text 130 197 Version: 2007-11-18;
#X connect 0 0 10 0;
#X connect 1 0 2 0;
#X connect 2 0 3 0;
#X connect 3 0 5 1;
#X connect 4 0 0 0;
#X connect 5 0 4 0;
#X connect 7 0 5 0;
#X connect 8 0 1 0;
#X connect 9 0 7 0;
