#N canvas 171 119 720 522 10;
#X obj 124 187 tgl 15 0 empty empty empty 0 -6 0 8 -262144 -1 -1 1
1;
#X obj 83 356 bng 15 250 50 0 empty empty empty 0 -6 0 8 -262144 -1
-1;
#X floatatom 251 241 5 0 0 0 - - -;
#X floatatom 174 190 5 0 0 0 - - -;
#X obj 259 352 bng 15 250 50 0 empty empty empty 0 -6 0 8 -262144 -1
-1;
#X obj 116 94 loadbang;
#X msg 101 142 1;
#X obj 281 137 loadbang;
#X msg 294 172 0.1;
#X msg 172 152 1000;
#X obj 258 324 metro 1000;
#X obj 82 323 timing.shuffled 1000 0.1;
#X text 290 239 Shuffle percent.;
#X text 105 356 A;
#X text 278 350 B;
#X text 106 392 A will bang slighly before or after B.;
#X text 63 35 Description: A metro with shuffled(swing) output (a humanized
metronome).;
#X connect 0 0 10 0;
#X connect 0 0 11 0;
#X connect 2 0 11 2;
#X connect 3 0 10 1;
#X connect 3 0 11 1;
#X connect 5 0 6 0;
#X connect 5 0 9 0;
#X connect 6 0 0 0;
#X connect 7 0 8 0;
#X connect 8 0 2 0;
#X connect 9 0 3 0;
#X connect 10 0 4 0;
#X connect 11 0 1 0;
