#N canvas 45 115 689 578 10;
#X obj 163 -18 inlet;
#X obj 100 447 outlet;
#N canvas 0 0 454 304 bpm2ms 0;
#X obj 130 52 inlet;
#X obj 130 112 /;
#X obj 130 138 * 60;
#X msg 130 89 1000 \$1;
#X obj 129 191 outlet;
#X connect 0 0 3 0;
#X connect 1 0 2 0;
#X connect 2 0 4 0;
#X connect 3 0 1 0;
#X restore 113 161 pd bpm2ms;
#X obj 43 327 metro;
#X obj 174 69 f \$1;
#X obj 26 22 inlet;
#N canvas 0 0 587 427 countmodulo 0;
#X obj 62 164 float;
#X obj 102 163 + 1;
#X obj 63 9 inlet;
#X msg 62 126 bang;
#X obj 62 258 outlet;
#X obj 61 208 mod;
#X obj 133 10 inlet;
#X msg 134 113 0;
#X obj 360 9 inlet;
#X text 168 9 reset or set;
#X obj 133 51 route bang reset float;
#X obj 181 124 mod;
#X text 399 9 modulo value (max value);
#X connect 0 0 5 0;
#X connect 1 0 0 1;
#X connect 2 0 3 0;
#X connect 3 0 0 0;
#X connect 5 0 1 0;
#X connect 5 0 4 0;
#X connect 6 0 10 0;
#X connect 7 0 0 1;
#X connect 8 0 5 1;
#X connect 8 0 11 1;
#X connect 10 0 7 0;
#X connect 10 1 7 0;
#X connect 10 2 11 0;
#X connect 11 0 0 1;
#X restore 106 407 pd countmodulo;
#X obj 418 -59 loadbang;
#X msg 429 101 16;
#X obj 457 50 f \$3;
#X obj 136 283 / 4;
#X msg 143 372 reset;
#X obj 35 288 t b b;
#X obj 55 261 sel 1;
#X obj 8 209 route bang;
#X obj 548 -18 inlet;
#X obj 254 200 t b f;
#X obj 331 -89 inlet;
#X obj 263 162 / 1;
#X msg 109 131 120;
#X obj 342 34 f \$2;
#X msg 287 95 1;
#X obj 417 -8 t b b b;
#X obj 540 17 t b f;
#X obj 319 -51 t b f;
#X obj 193 23 t b f;
#X obj 325 67 moses 1;
#X obj 439 74 moses 1;
#X obj 121 105 moses 1;
#X obj 359 98 / 4;
#X connect 0 0 25 0;
#X connect 2 0 10 0;
#X connect 3 0 6 0;
#X connect 4 0 28 0;
#X connect 5 0 14 0;
#X connect 6 0 1 0;
#X connect 7 0 22 0;
#X connect 8 0 6 2;
#X connect 8 0 29 0;
#X connect 9 0 27 0;
#X connect 10 0 3 1;
#X connect 11 0 6 1;
#X connect 12 0 3 0;
#X connect 12 1 11 0;
#X connect 13 0 12 0;
#X connect 13 1 3 0;
#X connect 14 0 12 0;
#X connect 14 1 13 0;
#X connect 15 0 23 0;
#X connect 16 0 4 0;
#X connect 16 1 10 1;
#X connect 17 0 24 0;
#X connect 18 0 16 0;
#X connect 19 0 2 0;
#X connect 20 0 26 0;
#X connect 21 0 18 1;
#X connect 22 0 4 0;
#X connect 22 1 9 0;
#X connect 22 2 20 0;
#X connect 23 0 22 0;
#X connect 23 1 9 1;
#X connect 24 0 22 0;
#X connect 24 1 20 1;
#X connect 25 0 22 0;
#X connect 25 1 4 1;
#X connect 26 0 21 0;
#X connect 26 1 18 1;
#X connect 27 0 8 0;
#X connect 27 1 6 2;
#X connect 27 1 29 0;
#X connect 28 0 19 0;
#X connect 28 1 2 0;
#X connect 29 0 18 0;
