#N canvas 588 25 852 486 10;
#X obj 117 40 inlet~;
#X obj 97 440 outlet~;
#X obj 542 66 inlet;
#X obj 98 418 c_xfade;
#X msg 143 396 \$1 10;
#X obj 144 375 r \$0-dry;
#X obj 542 135 rjdispatch \$0 dry;
#X obj 542 91 rjdispatch \$0 freq;
#X obj 308 62 r \$0-freq;
#X obj 204 132 vcf~ 10;
#X obj 277 252 * 1;
#X obj 261 219 * 1;
#X obj 290 280 * 1;
#X obj 593 66 rjloader e_reslop-\$1 \$0;
#X obj 542 112 rjdispatch \$0 q;
#X obj 383 61 r \$0-q;
#X obj 209 244 lop~ \$2;
#X obj 221 278 lop~ \$2;
#X obj 237 312 lop~ \$2;
#X obj 227 109 sig~ \$2;
#X connect 0 0 3 1;
#X connect 0 0 9 0;
#X connect 2 0 7 0;
#X connect 3 0 1 0;
#X connect 4 0 3 2;
#X connect 5 0 4 0;
#X connect 7 0 14 0;
#X connect 8 0 10 0;
#X connect 8 0 11 0;
#X connect 8 0 12 0;
#X connect 8 0 19 0;
#X connect 9 0 16 0;
#X connect 10 0 17 1;
#X connect 11 0 16 1;
#X connect 12 0 18 1;
#X connect 14 0 6 0;
#X connect 15 0 9 2;
#X connect 16 0 17 0;
#X connect 17 0 18 0;
#X connect 18 0 3 0;
#X connect 19 0 9 1;
