#N canvas 303 130 782 642 10;
#X obj 141 494 e_vocoder myvocoder;
#X msg 271 462 squelch \$1;
#X floatatom 271 438 5 0 0 0 - - -;
#X text 298 497 inlets: <filter input~> <control source~> <methods>
;
#X obj 105 538 soundoutput;
#X text 45 23 e_vocoder / timbre stamp;
#N canvas 0 0 512 416 play 0;
#X obj 93 86 inlet;
#X obj 93 125 b;
#X obj 93 187 symbol;
#X obj 93 158 openpanel;
#X obj 223 103 inlet;
#X obj 93 258 readsf~;
#X obj 162 308 outlet;
#X obj 93 308 outlet~;
#X obj 170 133 b;
#X obj 170 154 spigot 1;
#X msg 93 216 open \$1 \, 1;
#X obj 156 87 inlet;
#X obj 129 126 b;
#X connect 0 0 1 0;
#X connect 1 0 3 0;
#X connect 2 0 10 0;
#X connect 3 0 2 0;
#X connect 4 0 9 1;
#X connect 5 0 7 0;
#X connect 5 1 6 0;
#X connect 5 1 8 0;
#X connect 8 0 9 0;
#X connect 9 0 2 0;
#X connect 10 0 5 0;
#X connect 11 0 12 0;
#X connect 12 0 2 0;
#X restore 207 283 pd play;
#X obj 253 262 tgl 15 0 empty empty loop 17 7 1 10 -262144 -1 -1 0
1;
#X obj 207 218 bng 15 250 50 0 empty empty load_sample 17 7 1 10 -4034
-1 -1;
#X obj 230 238 bng 15 250 50 0 empty empty play_it_again_Sam 17 7 1
10 -4034 -1 -1;
#N canvas 0 0 660 424 chord 0;
#X obj 92 147 -~ 0.5;
#X obj 92 196 clip~ -0.5 0.5;
#X obj 92 219 cos~;
#X obj 91 302 hip~ 5;
#X obj 91 365 outlet~;
#X obj 92 172 *~ 3;
#X obj 92 124 phasor~ 220;
#X obj 221 147 -~ 0.5;
#X obj 221 196 clip~ -0.5 0.5;
#X obj 221 219 cos~;
#X obj 221 172 *~ 3;
#X obj 356 150 -~ 0.5;
#X obj 356 199 clip~ -0.5 0.5;
#X obj 356 222 cos~;
#X obj 356 175 *~ 3;
#X obj 221 124 phasor~ 251;
#X obj 356 127 phasor~ 281;
#X obj 91 335 *~ 0.2;
#X msg 430 76 0;
#X obj 92 29 inlet;
#X obj 92 52 unpack 0 0 0;
#X text 204 32 test sound;
#X obj 92 79 mtof;
#X obj 132 81 mtof;
#X obj 173 81 mtof;
#X floatatom 237 50 5 0 0 0 - - -;
#X connect 0 0 5 0;
#X connect 1 0 2 0;
#X connect 2 0 3 0;
#X connect 3 0 17 0;
#X connect 5 0 1 0;
#X connect 6 0 0 0;
#X connect 7 0 10 0;
#X connect 8 0 9 0;
#X connect 9 0 3 0;
#X connect 10 0 8 0;
#X connect 11 0 14 0;
#X connect 12 0 13 0;
#X connect 13 0 3 0;
#X connect 14 0 12 0;
#X connect 15 0 7 0;
#X connect 16 0 11 0;
#X connect 17 0 4 0;
#X connect 18 0 16 1;
#X connect 18 0 15 1;
#X connect 18 0 6 1;
#X connect 19 0 20 0;
#X connect 20 0 22 0;
#X connect 20 1 23 0;
#X connect 20 2 24 0;
#X connect 22 0 6 0;
#X connect 23 0 15 0;
#X connect 24 0 16 0;
#X connect 25 0 24 0;
#X restore 142 452 pd chord;
#X msg 142 426 40 50 55;
#X msg 142 406 40 45 59;
#X msg 142 386 40 49 57;
#X obj 142 356 select 0 1 2;
#X obj 142 334 random 3;
#X text 49 58 This is a Fourier-based "vocoder" (perhaps better called
a "timbre stamp") like the one the Convolution brothers use. The "control
source" is analyzed to get its spectral envelope \, which is then stamped
onto the "filter input" by adjusting the amplitudes of its Fourier
transform. The "filter input" is first whitened. The best value of
"squelch" to use depends critically on what kind of sounds are used
for the filter input and the control source.;
#X obj 308 285 soundinput;
#X text 398 285 check with soundinput as well!;
#X obj 307 320 *~ 0;
#X obj 353 321 hsl 50 15 0 1 0 0 empty empty volume 5 8 1 10 -4034
-1 -1 0 1;
#X connect 0 0 4 0;
#X connect 0 0 4 1;
#X connect 1 0 0 2;
#X connect 2 0 1 0;
#X connect 6 0 0 1;
#X connect 6 1 15 0;
#X connect 7 0 6 2;
#X connect 8 0 6 0;
#X connect 9 0 6 1;
#X connect 10 0 0 0;
#X connect 11 0 10 0;
#X connect 12 0 10 0;
#X connect 13 0 10 0;
#X connect 14 0 13 0;
#X connect 14 1 12 0;
#X connect 14 2 11 0;
#X connect 15 0 14 0;
#X connect 17 0 19 0;
#X connect 17 1 19 0;
#X connect 19 0 0 1;
#X connect 20 0 19 1;
