#N canvas 461 160 618 519 10;
#X obj 19 103 readsf~ 2;
#X msg 19 79 open \$1 \, 1;
#X obj 19 57 symbol;
#X obj 20 7 r #transport;
#X obj 19 30 route playback;
#X obj 19 132 soundoutput;
#X connect 0 0 5 0;
#X connect 0 1 5 1;
#X connect 1 0 0 0;
#X connect 2 0 1 0;
#X connect 3 0 4 0;
#X connect 4 0 2 0;
