#N canvas 248 149 728 367 10;
#X obj 391 43 hradio 15 1 0 8 empty empty empty 0 -6 0 8 -262144 -1
-1 0;
#X msg 391 74 setsub \$1;
#X floatatom 509 97 5 0 0 0 - - -;
#X obj 94 122 rrad.angriff~ /snare snare.txt;
#X obj 454 229 careGUI;
#X msg 502 125 /snare/*level \$1;
#X connect 0 0 1 0;
#X connect 1 0 3 2;
#X connect 2 0 5 0;
#X connect 5 0 3 3;
