#N canvas 29 73 368 383 10;
#X obj 114 167 random;
#X obj 114 80 inlet;
#X obj 114 264 outlet;
#X obj 188 267 outlet;
#X obj 205 80 inlet;
#X obj 151 129 list-len;
#X obj 114 193 t a a;
#N canvas 415 244 450 300 nth 0;
#X obj 113 155 list-idx;
#X obj 113 129 list;
#X obj 113 101 t b a;
#X obj 113 80 inlet;
#X obj 157 79 inlet;
#X obj 113 178 outlet;
#X connect 0 0 5 0;
#X connect 1 0 0 0;
#X connect 2 0 1 0;
#X connect 2 1 0 1;
#X connect 3 0 2 0;
#X connect 4 0 1 1;
#X restore 114 230 pd nth;
#X msg 43 126 seed \$1;
#X obj 43 80 r RTC-rs;
#X text 83 309 1993-98 by Karlheinz Essel;
#X text 78 287 vs 1.1;
#X connect 0 0 6 0;
#X connect 1 0 0 0;
#X connect 4 0 5 0;
#X connect 4 0 7 1;
#X connect 5 0 0 1;
#X connect 6 0 7 0;
#X connect 6 1 3 0;
#X connect 7 0 2 0;
#X connect 8 0 0 0;
#X connect 9 0 8 0;
