#N canvas 479 57 596 543 10;
#X msg 49 88 seed \$1;
#X obj 49 41 r RTC-rs;
#X obj 119 373 outlet;
#X obj 330 41 inlet;
#X obj 255 41 inlet;
#X obj 119 41 inlet;
#X obj 119 105 random 65536;
#X obj 119 291 * 1;
#X obj 119 138 / 65536;
#X obj 119 324 + \$1;
#X obj 314 209 f \$1;
#X obj 407 208 f \$2;
#X obj 410 136 loadbang;
#X obj 314 239 expr $f2 - $f1;
#X obj 255 70 t a a;
#X obj 119 69 b;
#X obj 330 70 t b a;
#X obj 410 160 t b b b;
#X obj 219 316 f \$1;
#X obj 256 316 f \$2;
#X obj 219 293 loadbang;
#X obj 119 346 int-or-float \$3;
#X text 190 397 1992 by Gerhard Eckel;
#X text 189 420 vs 1.1;
#X connect 0 0 6 0;
#X connect 1 0 0 0;
#X connect 3 0 16 0;
#X connect 4 0 14 0;
#X connect 5 0 15 0;
#X connect 6 0 8 0;
#X connect 7 0 9 0;
#X connect 8 0 7 0;
#X connect 9 0 21 0;
#X connect 10 0 13 0;
#X connect 11 0 13 1;
#X connect 12 0 17 0;
#X connect 13 0 7 1;
#X connect 14 0 9 1;
#X connect 14 1 10 0;
#X connect 15 0 6 0;
#X connect 16 0 10 0;
#X connect 16 1 11 0;
#X connect 17 0 10 0;
#X connect 17 1 11 0;
#X connect 18 0 21 1;
#X connect 19 0 21 1;
#X connect 20 0 18 0;
#X connect 20 0 19 0;
#X connect 21 0 2 0;
