#N canvas 281 180 238 260 10;
#X text 56 231 1996 by Karlheinz Essl;
#X obj 80 37 inlet;
#X obj 86 210 outlet;
#X obj 33 208 outlet;
#X obj 33 174 sel 1;
#X obj 33 90 timer;
#X obj 33 39 inlet;
#X obj 33 149 > \$1;
#X obj 33 66 t b b;
#X obj 33 120 t a a;
#X connect 1 0 7 1;
#X connect 4 0 3 0;
#X connect 5 0 9 0;
#X connect 6 0 8 0;
#X connect 7 0 4 0;
#X connect 8 0 5 0;
#X connect 8 1 5 1;
#X connect 9 0 7 0;
#X connect 9 1 2 0;
