#N canvas 50 61 246 246 10;
#X obj 49 172 outlet;
#X obj 49 28 inlet;
#X obj 114 115 - 1;
#X obj 114 85 list-len;
#X obj 49 50 t a a;
#X obj 49 140 list split;
#X connect 1 0 4 0;
#X connect 2 0 5 1;
#X connect 3 0 2 0;
#X connect 4 0 5 0;
#X connect 4 1 3 0;
#X connect 5 0 0 0;
