#N canvas 485 348 490 395 10;
#X obj 73 102 t b b;
#X obj 38 206 first-bang;
#X obj 73 68 sel 1;
#X obj 73 40 inlet;
#X obj 219 264 delay;
#X msg 120 68 stop;
#X obj 298 41 inlet;
#X obj 258 41 inlet;
#X obj 377 347 outlet;
#X obj 298 326 outlet;
#X obj 258 346 outlet;
#X obj 38 346 outlet;
#X text 46 347 1995-2004 by Karlheinz
Essl;
#X obj 219 185 sel-princ \$1;
#X obj 189 306 t b b;
#X obj 219 216 t b a a;
#X obj 189 143 t b b;
#X connect 0 0 16 0;
#X connect 0 1 1 1;
#X connect 1 0 11 0;
#X connect 2 0 0 0;
#X connect 2 1 5 0;
#X connect 3 0 2 0;
#X connect 4 0 14 0;
#X connect 5 0 4 0;
#X connect 6 0 13 2;
#X connect 7 0 13 1;
#X connect 13 0 15 0;
#X connect 13 1 10 0;
#X connect 13 2 9 0;
#X connect 14 0 16 0;
#X connect 14 1 11 0;
#X connect 15 0 4 0;
#X connect 15 1 4 1;
#X connect 15 2 8 0;
#X connect 16 0 1 0;
#X connect 16 1 13 0;
