#N canvas 145 129 575 520 10;
#X obj 109 49 inlet;
#X obj 419 69 inlet;
#X obj 237 56 inlet;
#X obj 271 74 inlet;
#X obj 315 64 inlet;
#X obj 235 412 outlet;
#X text 127 269 index;
#X obj 109 354 metro 500;
#X obj 419 270 per2pass;
#X obj 375 341 pass 33;
#X obj 109 412 outlet;
#X obj 175 244 random;
#X obj 152 303 outlet;
#X obj 212 103 sel 1;
#X obj 131 147 sel 1;
#X obj 348 240 - 1;
#X text 108 468 vs. 2;
#X text 108 451 1993-94 by Karlheinz Essl;
#X obj 419 240 float \$4;
#X obj 212 193 int \$3;
#X obj 205 302 trans-log \$1 \$2;
#X obj 175 267 t a a;
#X obj 205 323 t a a;
#X obj 109 376 t b b;
#X obj 109 78 t a a a;
#X obj 212 218 t a a;
#X obj 212 126 t a a;
#X connect 0 0 24 0;
#X connect 1 0 18 0;
#X connect 2 0 20 1;
#X connect 3 0 20 2;
#X connect 4 0 19 0;
#X connect 7 0 23 0;
#X connect 8 0 9 1;
#X connect 9 0 11 0;
#X connect 11 0 21 0;
#X connect 13 0 26 0;
#X connect 14 0 19 0;
#X connect 15 0 20 3;
#X connect 18 0 8 0;
#X connect 19 0 25 0;
#X connect 20 0 22 0;
#X connect 21 0 12 0;
#X connect 21 1 20 0;
#X connect 22 0 7 1;
#X connect 22 1 5 0;
#X connect 23 0 10 0;
#X connect 23 1 9 0;
#X connect 24 0 7 0;
#X connect 24 1 14 0;
#X connect 24 2 13 0;
#X connect 25 0 11 1;
#X connect 25 1 15 0;
#X connect 26 0 19 0;
#X connect 26 1 18 0;
