#N canvas 228 124 313 345 10;
#X obj 53 56 inlet;
#X obj 96 56 inlet;
#X obj 155 56 inlet;
#X obj 53 267 outlet;
#X obj 53 231 + 0;
#X obj 53 118 int 1;
#X obj 96 118 int -1;
#X obj 185 116 int 0;
#X obj 53 154 + 1;
#X obj 215 57 loadbang;
#X text 84 268 1994 by Karlheinz
Essl;
#X obj 155 84 t a b;
#X obj 53 185 int;
#X obj 53 86 b;
#X obj 96 82 b;
#X connect 0 0 13 0;
#X connect 1 0 14 0;
#X connect 2 0 11 0;
#X connect 4 0 3 0;
#X connect 5 0 8 0;
#X connect 6 0 8 0;
#X connect 7 0 8 1;
#X connect 8 0 12 0;
#X connect 9 0 7 0;
#X connect 11 0 4 1;
#X connect 11 1 7 0;
#X connect 12 0 8 1;
#X connect 12 0 4 0;
#X connect 13 0 5 0;
#X connect 14 0 6 0;
