#N canvas 131 149 421 355 10;
#N canvas 298 92 349 267 boundaries 0;
#X obj 123 166 expr $i1 + ($i2/200. * $i1);
#X obj 48 138 expr $i1 - ($i2/200. * $i1);
#X obj 218 50 inlet;
#X obj 48 50 inlet;
#X obj 123 201 outlet;
#X obj 48 201 outlet;
#X obj 218 76 t b b a a;
#X obj 48 80 t a a;
#X connect 0 0 4 0;
#X connect 1 0 5 0;
#X connect 2 0 6 0;
#X connect 3 0 7 0;
#X connect 6 0 1 0;
#X connect 6 1 0 0;
#X connect 6 2 1 1;
#X connect 6 3 0 1;
#X connect 7 0 1 0;
#X connect 7 1 0 0;
#X restore 219 124 pd boundaries;
#X obj 148 189 between 450 550;
#X obj 75 251 metro 1000;
#X text 307 145 max.;
#X text 186 145 min.;
#X text 195 220 ED;
#X obj 75 306 outlet;
#X obj 290 40 inlet;
#X obj 219 40 inlet;
#X obj 75 40 inlet;
#X obj 178 251 outlet;
#X text 140 311 1993 by Karlheinz Essl;
#X obj 290 96 int \$2;
#X obj 219 97 int \$1;
#X obj 148 219 t a a;
#X obj 148 66 t b b b;
#X obj 75 280 t b b;
#X obj 148 39 loadbang;
#X connect 0 0 1 1;
#X connect 0 1 1 2;
#X connect 1 0 14 0;
#X connect 2 0 16 0;
#X connect 7 0 12 0;
#X connect 8 0 13 0;
#X connect 9 0 2 0;
#X connect 12 0 0 1;
#X connect 13 0 0 0;
#X connect 14 0 2 1;
#X connect 14 1 10 0;
#X connect 15 0 1 0;
#X connect 15 1 13 0;
#X connect 15 2 12 0;
#X connect 16 0 6 0;
#X connect 16 1 15 0;
#X connect 17 0 15 0;
