#N canvas 549 327 580 382 10;
#X obj 39 41 inlet;
#N canvas 43 143 716 227 choose-parameters 0;
#X obj 54 30 inlet;
#X obj 216 30 inlet;
#X obj 135 30 inlet;
#X obj 298 30 inlet;
#X obj 653 30 inlet;
#X obj 561 30 inlet;
#X obj 470 30 inlet;
#X obj 54 186 outlet;
#X obj 379 186 outlet;
#X obj 54 133 between-lin \$1 \$2 \$3;
#X obj 379 133 between-log \$4 \$5 \$6;
#X obj 54 59 t b b;
#X connect 0 0 11 0;
#X connect 1 0 9 2;
#X connect 2 0 9 1;
#X connect 3 0 9 3;
#X connect 4 0 10 3;
#X connect 5 0 10 2;
#X connect 6 0 10 1;
#X connect 9 0 7 0;
#X connect 10 0 8 0;
#X connect 11 0 9 0;
#X connect 11 1 10 0;
#X restore 163 157 pd choose-parameters;
#X obj 248 24 inlet;
#X obj 300 24 inlet;
#X obj 453 24 inlet;
#X obj 505 24 inlet;
#X obj 402 24 inlet;
#X obj 351 24 inlet;
#X obj 39 266 int;
#X obj 39 323 outlet;
#X obj 342 276 outlet;
#X msg 89 192 stop;
#X obj 289 276 outlet;
#X obj 39 129 route bang stop;
#X obj 142 25 first-bang;
#X text 241 323 1994 by Karlheinz Essl;
#X obj 214 127 i \$1;
#X obj 265 127 i \$2;
#X obj 316 127 i \$3;
#X obj 368 127 i \$4;
#X obj 419 127 i \$5;
#X obj 470 127 i \$6;
#X obj 39 295 change;
#X obj 163 298 line;
#X obj 163 244 pack 0 0;
#X obj 163 267 t a b;
#X obj 298 183 t a a a;
#X obj 209 269 del 30;
#X obj 163 199 t a a;
#X obj 142 59 t b b b b b b b;
#X obj 39 161 t a a;
#X connect 0 0 13 0;
#X connect 1 0 28 0;
#X connect 1 1 26 0;
#X connect 2 0 16 0;
#X connect 3 0 17 0;
#X connect 4 0 20 0;
#X connect 5 0 21 0;
#X connect 6 0 19 0;
#X connect 7 0 18 0;
#X connect 8 0 22 0;
#X connect 11 0 23 0;
#X connect 11 0 27 0;
#X connect 13 0 30 0;
#X connect 13 1 11 0;
#X connect 13 1 14 1;
#X connect 14 0 29 0;
#X connect 16 0 1 1;
#X connect 17 0 1 2;
#X connect 18 0 1 3;
#X connect 19 0 1 4;
#X connect 20 0 1 5;
#X connect 21 0 1 6;
#X connect 22 0 9 0;
#X connect 23 0 8 1;
#X connect 24 0 25 0;
#X connect 25 0 23 0;
#X connect 25 1 27 0;
#X connect 26 0 24 1;
#X connect 26 1 27 1;
#X connect 26 2 10 0;
#X connect 27 0 1 0;
#X connect 28 0 24 0;
#X connect 28 1 12 0;
#X connect 29 0 1 0;
#X connect 29 1 16 0;
#X connect 29 2 17 0;
#X connect 29 3 18 0;
#X connect 29 4 19 0;
#X connect 29 5 20 0;
#X connect 29 6 21 0;
#X connect 30 0 8 0;
#X connect 30 1 14 0;
