#N canvas 631 255 425 444 10;
#X obj 182 369 outlet;
#X obj 94 39 inlet;
#X obj 94 111 sel 1;
#X obj 337 39 inlet;
#X obj 241 39 inlet;
#X obj 94 160 count-bang;
#X obj 94 215 geom 50 1.1;
#X obj 31 368 outlet;
#X text 232 376 1993 by Karlheinz Essl;
#X obj 286 152 float \$2;
#X obj 190 152 float \$1;
#X obj 94 69 t f b b;
#X obj 31 347 t b b;
#X obj 138 257 t b a a;
#X msg 31 246 stop;
#X obj 124 134 t b b;
#X obj 31 318 del 500;
#X obj 94 235 moses 1;
#X text 160 236 don't try faster that 1 msec!;
#X connect 1 0 11 0;
#X connect 2 0 5 0;
#X connect 2 1 15 0;
#X connect 3 0 9 1;
#X connect 4 0 10 1;
#X connect 5 0 6 0;
#X connect 6 0 17 0;
#X connect 9 0 6 2;
#X connect 10 0 6 1;
#X connect 11 0 2 0;
#X connect 11 1 10 0;
#X connect 11 2 9 0;
#X connect 12 0 7 0;
#X connect 12 1 5 0;
#X connect 13 0 16 0;
#X connect 13 1 16 1;
#X connect 13 2 0 0;
#X connect 14 0 16 0;
#X connect 15 0 14 0;
#X connect 15 1 5 1;
#X connect 16 0 12 0;
#X connect 17 1 13 0;
