#N canvas 533 299 486 448 10;
#X obj 58 353 outlet;
#X obj 58 61 inlet;
#X obj 129 61 inlet;
#X text 122 355 1994-97 by Karlheinz Essl;
#X obj 58 90 t b a;
#X obj 58 123 list;
#X obj 129 90 t b a;
#X obj 58 151 list prepend 0;
#X obj 58 185 route 0 1 2 3;
#N canvas 0 0 450 300 retrograde 0;
#X obj 149 160 list-rev;
#X obj 149 89 inlet;
#X obj 149 215 outlet;
#X connect 0 0 2 0;
#X connect 1 0 0 0;
#X restore 79 298 pd retrograde;
#N canvas 0 0 522 479 inversion 0;
#X obj 95 39 inlet;
#X obj 95 253 list-map;
#X obj 95 369 outlet;
#X obj 204 235 t b a a;
#X obj 230 269 -;
#X obj 204 296 -;
#X obj 204 269 f;
#X obj 95 161 list split 1;
#X obj 95 229 list;
#X obj 95 338 list prepend;
#X obj 95 194 trigger bang anything anything anything;
#X connect 0 0 7 0;
#X connect 1 0 9 0;
#X connect 1 1 3 0;
#X connect 3 0 6 0;
#X connect 3 1 4 1;
#X connect 3 2 4 0;
#X connect 4 0 5 1;
#X connect 5 0 6 1;
#X connect 5 0 1 1;
#X connect 6 0 5 0;
#X connect 7 0 10 0;
#X connect 7 1 8 1;
#X connect 8 0 1 0;
#X connect 9 0 2 0;
#X connect 10 0 8 0;
#X connect 10 1 9 1;
#X connect 10 2 6 1;
#X connect 10 3 4 1;
#X restore 101 268 pd inversion;
#N canvas 0 0 450 300 retrograde 0;
#X obj 149 160 list-rev;
#X obj 149 89 inlet;
#X obj 149 215 outlet;
#X connect 0 0 2 0;
#X connect 1 0 0 0;
#X restore 122 207 pd retrograde;
#N canvas 0 0 522 479 inversion 0;
#X obj 95 39 inlet;
#X obj 95 253 list-map;
#X obj 95 369 outlet;
#X obj 204 235 t b a a;
#X obj 230 269 -;
#X obj 204 296 -;
#X obj 204 269 f;
#X obj 95 161 list split 1;
#X obj 95 229 list;
#X obj 95 338 list prepend;
#X obj 95 194 trigger bang anything anything anything;
#X connect 0 0 7 0;
#X connect 1 0 9 0;
#X connect 1 1 3 0;
#X connect 3 0 6 0;
#X connect 3 1 4 1;
#X connect 3 2 4 0;
#X connect 4 0 5 1;
#X connect 5 0 6 1;
#X connect 5 0 1 1;
#X connect 6 0 5 0;
#X connect 7 0 10 0;
#X connect 7 1 8 1;
#X connect 8 0 1 0;
#X connect 9 0 2 0;
#X connect 10 0 8 0;
#X connect 10 1 9 1;
#X connect 10 2 6 1;
#X connect 10 3 4 1;
#X restore 122 227 pd inversion;
#X text 123 377 2007 Frank Barknecht;
#X obj 58 326 normalize-row;
#X connect 1 0 4 0;
#X connect 2 0 6 0;
#X connect 4 0 5 0;
#X connect 4 1 5 1;
#X connect 5 0 7 0;
#X connect 6 0 5 0;
#X connect 6 1 7 1;
#X connect 7 0 8 0;
#X connect 8 0 14 0;
#X connect 8 1 9 0;
#X connect 8 2 10 0;
#X connect 8 3 11 0;
#X connect 9 0 14 0;
#X connect 10 0 14 0;
#X connect 11 0 12 0;
#X connect 12 0 14 0;
#X connect 14 0 0 0;
