#N canvas 63 44 338 388 10;
#X obj 227 258 rota;
#X obj 61 302 outlet;
#X obj 61 258 alea;
#X obj 161 258 sequence;
#X obj 61 89 t b b;
#X obj 61 60 inlet;
#X obj 119 61 inlet;
#X obj 238 60 inlet;
#X text 85 341 1993-97 by K@rlheinz Essl;
#X text 85 327 vs.4;
#X obj 148 299 outlet;
#X obj 212 302 outlet;
#X obj 119 139 int \$1;
#N canvas 712 460 407 355 gate_4 0;
#X obj 52 263 outlet;
#X obj 73 243 outlet;
#X obj 95 222 outlet;
#X obj 116 199 outlet;
#X obj 52 163 route 1 2 3 4;
#X obj 52 75 inlet;
#X obj 152 75 inlet;
#X obj 52 133 list prepend \$1;
#X connect 4 0 0 0;
#X connect 4 1 1 0;
#X connect 4 2 2 0;
#X connect 4 3 3 0;
#X connect 5 0 7 0;
#X connect 6 0 7 1;
#X connect 7 0 4 0;
#X restore 61 169 pd gate_4;
#X obj 111 258 series;
#X connect 0 0 1 0;
#X connect 0 1 10 0;
#X connect 2 0 1 0;
#X connect 2 1 10 0;
#X connect 3 0 1 0;
#X connect 3 1 11 0;
#X connect 4 0 13 0;
#X connect 4 1 12 0;
#X connect 5 0 4 0;
#X connect 6 0 12 0;
#X connect 7 0 2 1;
#X connect 7 0 3 1;
#X connect 7 0 0 1;
#X connect 7 0 14 1;
#X connect 12 0 13 1;
#X connect 13 0 2 0;
#X connect 13 1 14 0;
#X connect 13 2 3 0;
#X connect 13 3 0 0;
#X connect 14 0 1 0;
#X connect 14 1 11 0;
#X connect 14 2 10 0;
