#N canvas 451 340 460 352 10;
#X text 36 294 vs.2;
#X text 36 308 1993/94 by Karlheinz
Essl;
#X obj 39 260 outlet;
#X obj 180 258 outlet;
#X obj 39 38 inlet;
#X obj 173 37 inlet;
#X obj 217 91 list-len;
#X obj 39 139 f 0;
#X obj 70 138 + 1;
#X obj 99 138 mod 1;
#X msg 55 109 0;
#X obj 173 63 t b a a;
#X obj 180 216 select;
#X obj 217 193 - 1;
#X obj 39 171 t a a;
#N canvas 0 0 450 300 nth 0;
#X obj 113 155 list-idx;
#X obj 113 129 list;
#X obj 113 101 t b a;
#X obj 113 80 inlet;
#X obj 157 79 inlet;
#X obj 113 178 outlet;
#X connect 0 0 5 0;
#X connect 1 0 0 0;
#X connect 2 0 1 0;
#X connect 2 1 0 1;
#X connect 3 0 2 0;
#X connect 4 0 1 1;
#X restore 39 215 pd nth;
#X text 149 139 modulo-count up to list length;
#X text 246 261 bang on last element;
#X text 52 237 lookup element;
#X connect 4 0 7 0;
#X connect 5 0 11 0;
#X connect 6 0 9 1;
#X connect 6 0 13 0;
#X connect 7 0 8 0;
#X connect 7 0 14 0;
#X connect 8 0 9 0;
#X connect 9 0 7 1;
#X connect 10 0 7 1;
#X connect 11 0 10 0;
#X connect 11 1 15 1;
#X connect 11 2 6 0;
#X connect 12 0 3 0;
#X connect 13 0 12 1;
#X connect 14 0 15 0;
#X connect 14 1 12 0;
#X connect 15 0 2 0;
