#N canvas 242 134 694 561 10;
#X obj 121 69 inlet;
#X obj 290 98 loadbang;
#X floatatom 155 273 0 0 0 0 m - -;
#X text 323 270 q;
#X obj 234 180 sel 0;
#X msg 233 201 1;
#X obj 312 196 sel 0;
#X msg 312 219 1;
#X msg 390 218 1;
#X obj 390 196 sel 0;
#X obj 233 333 * 1;
#X obj 121 487 outlet;
#X obj 234 72 inlet;
#X obj 356 71 inlet;
#X obj 234 155 f \$1;
#X obj 312 171 f \$2;
#X obj 390 171 f \$3;
#X obj 432 69 inlet;
#X text 204 371 1993/94 by Karlheinz
Essl;
#X obj 290 125 t b b b;
#X obj 432 104 t b a;
#X obj 356 100 t b a;
#X obj 233 245 expr ln($f2/$f1) / $f3;
#X obj 233 302 expr exp(-$f2*$f1);
#X obj 233 221 t a a a;
#X floatatom 163 357 5 0 0 0 k - -;
#X text 371 431 y = k*exp(m*x);
#X obj 233 267 t a a;
#X msg 249 98 bang;
#X obj 121 432 expr $f2 * exp($f3*$f1);
#X connect 0 0 29 0;
#X connect 1 0 19 0;
#X connect 4 0 5 0;
#X connect 4 1 24 0;
#X connect 5 0 24 0;
#X connect 6 0 7 0;
#X connect 6 1 22 1;
#X connect 7 0 22 1;
#X connect 8 0 23 1;
#X connect 9 0 8 0;
#X connect 9 0 22 2;
#X connect 9 1 22 2;
#X connect 10 0 25 0;
#X connect 10 0 29 1;
#X connect 12 0 14 0;
#X connect 13 0 21 0;
#X connect 14 0 4 0;
#X connect 15 0 6 0;
#X connect 16 0 9 0;
#X connect 17 0 20 0;
#X connect 19 0 14 0;
#X connect 19 1 15 0;
#X connect 19 2 16 0;
#X connect 20 0 19 0;
#X connect 20 1 16 0;
#X connect 21 0 19 0;
#X connect 21 1 15 0;
#X connect 22 0 2 0;
#X connect 22 0 27 0;
#X connect 23 0 10 0;
#X connect 24 0 22 0;
#X connect 24 1 10 1;
#X connect 27 0 23 0;
#X connect 27 1 29 2;
#X connect 28 0 19 0;
#X connect 29 0 11 0;
