#N canvas 404 99 819 627 10;
#X text 43 390 2004 OSX port by Peter Elsea (UCSC);
#X msg 218 139 trans;
#X msg 264 139 geom;
#X msg 149 139 trans-log;
#X msg 83 139 trans-lin;
#X text 20 139 see also:;
#X text 43 376 1995/96 by Peter Elsea (UCSC);
#X text 17 21 trans-exp;
#X text 108 264 nth member of a exponential transition row;
#X floatatom 44 268 0 0 0 0 - - -;
#X text 188 169 end.value;
#X text 108 168 start.value;
#X text 256 169 steps;
#X floatatom 44 188 0 0 0 0 - - -;
#X text 40 167 row index;
#X floatatom 181 188 0 0 0 0 - - -;
#X floatatom 113 188 0 0 0 0 - - -;
#X floatatom 250 188 0 0 0 0 - - -;
#X text 29 53 Int in left inlet outputs the nth member of a exponential
transition between a start value <int \, float> and an end value <int
\, float> in n steps <int> \, whereas "steps" is the number of row
elements (between start and end value) minus one.;
#N canvas 0 0 450 300 graph2 0;
#X array \$0-exp 12 float 0;
#X coords 0 2000 11 500 200 140 1;
#X restore 505 199 graph;
#X msg 562 113 const 500;
#X obj 562 144 s \$0-exp;
#X obj 562 86 loadbang;
#X obj 44 307 tabwrite \$0-exp;
#X obj 44 207 t a a;
#X obj 312 237 trans-log 500 2000 12;
#X floatatom 310 192 0 0 0 0 - - -;
#X obj 310 211 t a a;
#X obj 44 228 trans-exp 500 2000 12;
#X connect 9 0 23 0;
#X connect 13 0 24 0;
#X connect 15 0 28 2;
#X connect 16 0 28 1;
#X connect 17 0 28 3;
#X connect 20 0 21 0;
#X connect 22 0 20 0;
#X connect 24 0 28 0;
#X connect 24 1 23 1;
#X connect 25 0 9 0;
#X connect 26 0 27 0;
#X connect 27 0 25 0;
#X connect 27 1 23 1;
#X connect 28 0 9 0;
