#N canvas 38 28 456 290 10;
#X msg 22 50 bang;
#X obj 22 120 datei-r;
#X obj 22 160 print Datei_R;
#X msg 32 80 filename.ext;
#X text 13 6 [datei-r] - Sends the message "read ../../";
#X text 310 50 Inlets;
#X text 310 100 Outlets;
#X text 310 150 GUI;
#X text 310 170 - Click on it;
#X text 310 70 - Bang / File name;
#X text 310 120 - Message;
#X text 120 80 Takes the file string;
#X text 60 50 Opens up dialog;
#X text 92 120 <- Or click on it;
#X text 111 160 Message;
#X text 12 237 (C) 2006 João Pais - jmmmpais@googlemail.com;
#X text 12 257 Released under the BSD License;
#X text 12 208 Related objects: [datei-o] [datei-w];
#N canvas 504 106 494 344 META 0;
#X text 12 55 AUTHOR João Pais <jmmmpais@googlemail.com>;
#X text 12 95 LICENSE BSD;
#X text 12 75 LIBRARY jmmmp;
#X text 13 115 WEBSITE http://puredata.info/Members/jmmmp;
#X text 12 135 VERSION 2006;
#X text 14 165 INLET_0 - Bang / File name;
#X text 14 185 OUTLET_0 - Message;
#X text 12 5 DESCRIPTION Sends the message "read ../../";
#X text 12 35 KEYWORDS read file;
#X restore 402 266 pd META;
#X connect 0 0 1 0;
#X connect 1 0 2 0;
#X connect 3 0 1 0;
#X coords 0 0 1 1 62 17 0;
