#N struct 1087-color float x float y float farbe;
#N struct 1087-color-display float x float y float farbe;
#N struct 1090-color float x float y float farbe;
#N struct 1090-color-display float x float y float farbe;
#N struct 1082-element float x float y symbol menu float lenght float
height float selection float ypos float col-back float col-lab;
#N struct 1183-color float x float y float farbe;
#N struct 1183-color-display float x float y float farbe;
#N struct 1186-color float x float y float farbe;
#N struct 1186-color-display float x float y float farbe;
#N struct 1178-element float x float y symbol menu float lenght float
height float selection float ypos float col-back float col-lab;
#N canvas 106 113 779 512 10;
#X floatatom 19 216 5 0 0 0 - - -;
#N canvas 0 0 393 422 license 0;
#X text 8 47 All rights reserved.;
#X text 8 227 The names of its contributors may not be used to endorse
or promote products derived from this software without specific prior
written permission.;
#X text 8 87 Redistribution and use in source and binary forms \, with
or without modification \, are permitted provided that the following
conditions are met:;
#X text 8 127 Redistributions of source code must retain the above
copyright notice \, this list of conditions and the following disclaimer.
;
#X text 8 297 THIS SOFTWARE IS PROVIDED BY THE COPYRIGHT HOLDERS AND
CONTRIBUTORS "AS IS" AND ANY EXPRESS OR IMPLIED WARRANTIES \, INCLUDING
\, BUT NOT LIMITED TO \, THE IMPLIED WARRANTIES OF MERCHANTABILITY
AND FITNESS FOR A PARTICULAR PURPOSE ARE DISCLAIMED. IN NO EVENT SHALL
THE COPYRIGHT OWNER OR CONTRIBUTORS BE LIABLE FOR ANY DIRECT \, INDIRECT
\, INCIDENTAL \, SPECIAL \, EXEMPLARY \, OR CONSEQUENTIAL DAMAGES (INCLUDING
\, BUT NOT LIMITED TO \, PROCUREMENT OF SUBSTITUTE GOODS OR SERVICES
;
#X text 8 167 Redistributions in binary form must reproduce the above
copyright notice \, this list of conditions and the following disclaimer
in the documentation and/or other materials provided with the distribution.
;
#X text 8 7 Copyright 2016 \, João Pais;
#X text 8 27 jmmmpais@gmail.com;
#X restore 421 486 pd license;
#X text 419 401 Outlets;
#X text 419 291 - bang - outputs current setting;
#N canvas 564 268 494 344 META 0;
#X text 12 95 LICENSE BSD;
#X text 12 75 LIBRARY jmmmp;
#X text 13 115 WEBSITE http://puredata.info/Members/jmmmp;
#X text 12 6 DESCRIPTION Dropdown menu programmed with data structures
;
#X text 12 36 KEYWORDS menu GOP data-structures;
#X text 12 55 AUTHOR João Pais <jmmmpais@gmail.com>;
#X text 12 135 VERSION 2016;
#X restore 511 486 pd META;
#X text 11 11 [jp.menu] - Dropdown menu programmed with data structures
;
#X text 419 61 - name of configuration file;
#N canvas 312 426 384 356 configuration 0;
#X text 9 7 HOW TO FORMAT THE CONFIGURATION FILE FOR [jp.menu];
#X text 9 77 Name;
#X text 9 157 Content;
#X text 9 37 The configuration file must be a .txt file \, stored in
the same folder as the main patch where [jp.menu] is being used.;
#X text 9 217 Load new file;
#X text 9 237 To load a new file \, send the message "load \$1" with
the symbol as argument.;
#X obj 9 327 s \$0-country-i;
#X msg 9 278 load audio;
#X msg 19 298 load country;
#X text 9 97 The file must be named jp.menu-NAME.txt.;
#X text 9 117 The NAME will be used as the first argument for [jp.menu].
;
#X text 9 177 The content consists of as many lines as items in the
menu. In each line is be the label that appears in the menu.;
#X connect 7 0 6 0;
#X connect 8 0 6 0;
#X restore 262 281 pd configuration;
#X text 420 466 (C) 2016 João Pais - jmmmpais@gmail.com;
#X text 419 211 - integer - select item number. From 0 upwards.;
#X obj 19 121 hradio 15 1 0 4 empty empty empty 0 -8 0 10 -262144 -1
-1 0;
#X text 439 121 - identifier for receive/send names;
#X text 419 421 - integer - chosen item number;
#X msg 29 141 open;
#X text 419 191 Input messages;
#X text 419 271 - open - opens full menu;
#X text 12 416 Limitations of data structures;
#X text 12 476 - the message "drawnumber_motion: symbol" appears in
the console when instead of clicking \, the user drags the menu;
#X text 12 41 [jp.menu] creates a dropdown menu based on a text file.
This abstraction is a development of the concept used by Gilberto Bernardes
in his earGram software.;
#X msg 299 171 open;
#X obj 289 191 s \$0-country-i;
#X obj 289 221 r \$0-country;
#X floatatom 289 151 5 0 0 0 - - -;
#X floatatom 289 241 5 0 0 0 - - -;
#X obj 269 171 bng 15 250 50 0 empty empty empty 17 7 0 10 -262144
-1 -1;
#X text 419 311 - color \$1 \$2 - change colors;
#X text 150 131 Use send/receive to control the menu;
#X text 439 141 - background color;
#X text 439 161 - label / border color;
#X text 419 351 - size x y - change menu size;
#X text 12 436 The following limitations are built in to Pure Data:
;
#X text 15 91 This menu has 4 items \, Click on it or send a number
or message.;
#X text 419 31 Arguments - Always use the first argument \, others
are facultative;
#X text 14 281 Formatting/loading a configuration file;
#N canvas 38 162 445 466 display 0;
#X msg 19 47 size 60 70;
#X msg 29 67 size 120 20;
#X msg 9 27 size 80 15;
#X text 9 7 Change menu size;
#X obj 9 87 s \$0-country-i;
#X text 9 107 !! Mind \, for "size" the object doesn't get saved with
the new parameters !! You must edit the object itself.;
#X msg 20 307 color 57 600;
#X text 9 167 Change colors:;
#X obj 372 227 pd-colors;
#X msg 10 387 color;
#X text 10 367 Or send only the message "color" to open a color selector.
;
#X text 10 227 The colors follow the data structures color scheme.
Look at;
#X text 10 241 for a complete palette.;
#X text 10 257 If both color arguments are 0 \, default colors will
be used.;
#X obj 10 347 s \$0-country-i;
#X obj 10 407 s \$0-country-i;
#X msg 10 287 color 999 0;
#X text 90 287 default values;
#X text 10 207 \$1 = background color \, \$2 = label+border color;
#X text 10 187 Send the message "color \$1 \$2" to set the menu colors.
;
#X msg 30 327 color 60 999;
#X text 10 427 !! Mind \, for "color" the object doesn't get saved
with the new parameters !! You must edit the object itself.;
#X connect 0 0 4 0;
#X connect 1 0 4 0;
#X connect 2 0 4 0;
#X connect 6 0 14 0;
#X connect 9 0 15 0;
#X connect 16 0 14 0;
#X connect 20 0 14 0;
#X restore 164 361 pd display;
#X text 14 361 Display configuration;
#N canvas 38 28 396 209 send/receive 0;
#X text 9 7 SEND/RECEIVE VARIABLES;
#X text 9 77 The variables are formated as:;
#X text 9 147 For example \, if the 3rd argument is "menusend" \, the
receive name will be "menusend-i". You can use also dollarsigns as
symbols: \$0 \, \$1 \, etc. \, as in the example in the main patch.
;
#X text 9 97 - the 4th argument gives the send name;
#X text 9 117 - the receive name adds "-i" to the 4th argument;
#X text 9 37 [jp.menu] lets you define an internal variable to use
with send and receive objects. You can send and receive any messages
to it.;
#X restore 164 341 pd send/receive;
#X text 14 341 Send/receive variables;
#X text 14 321 Select items;
#N canvas 500 61 386 239 select 0;
#X msg 22 91 next;
#X msg 32 111 previous;
#X floatatom 12 71 5 0 0 0 - - -;
#X text 12 7 To select an item;
#X text 12 27 You can send an integer to select an item. The strings
"next" and "previous" also move between the elements of the menu.;
#X text 12 167 The message "open" shows the full menu.;
#X msg 12 187 open;
#X obj 12 131 s \$0-country-i;
#X obj 12 207 s \$0-country-i;
#X connect 0 0 7 0;
#X connect 1 0 7 0;
#X connect 2 0 7 0;
#X connect 6 0 8 0;
#X restore 164 321 pd select;
#X text 12 456 - the size and font of the label can't be changed;
#X text 419 231 - next - outputs next item;
#X text 419 251 - previous - outputs previous item;
#X text 419 331 - color - open color selector;
#X text 419 371 - load \$1 - load other configuration from the same
folder;
#X obj 19 161 jp.menu audio;
#X text 438 81 - lenght (pixels) \, set to 100 if not used;
#X text 439 101 - height (pixels) \, set to 17 if not used;
#X obj 149 151 jp.menu country 100 22 \$0-country 89 9;
#N canvas 491 72 386 146 edit 0;
#X text 12 7 For now \, the only way to delete a preset is by editing
the text file with the data. At a later point \, it might be possible
to integrate editing features into this abstraction. For a more powerful
abstraction \, check out [jmmmp/jp.preset].;
#X restore 164 301 pd edit;
#X text 14 301 Edit presets;
#X connect 10 0 45 0;
#X connect 13 0 45 0;
#X connect 19 0 20 0;
#X connect 21 0 23 0;
#X connect 22 0 20 0;
#X connect 24 0 20 0;
#X connect 45 0 0 0;
