#N struct 1036-color float x float y float farbe;
#N struct 1036-color-display float x float y float farbe;
#N struct 1039-color float x float y float farbe;
#N struct 1039-color-display float x float y float farbe;
#N canvas 558 47 375 250 10;
#X declare -stdlib zexy;
#N canvas 156 50 442 365 \$0-element 0;
#X obj 8 94 route click;
#X obj 35 134 tgl 15 0 \$0-open/close \$0-open/close-i empty 17 7 0
10 -262144 -1 -1 1 1;
#X obj 8 182 unpack pointer f;
#X obj 8 242 / 1;
#X obj 23 222 r \$0-ypos;
#X obj 8 262 outlet;
#X obj 8 152 spigot;
#X obj 8 114 t l b;
#X text 8 14 Data structures template and click interaction;
#X obj 8 202 get \$0-element ypos;
#X obj 8 44 struct \$0-element float x float y symbol menu float lenght
float height float selection float ypos float col-back float col-lab
;
#X obj 8 313 filledpolygon -v selection col-back col-lab 1 0 0 0 height
lenght height lenght 0;
#X obj 8 293 drawsymbol -v selection menu 4 2 col-lab;
#X connect 0 0 7 0;
#X connect 1 0 6 1;
#X connect 2 0 9 0;
#X connect 3 0 5 0;
#X connect 4 0 3 1;
#X connect 6 0 2 0;
#X connect 7 0 6 0;
#X connect 7 1 1 0;
#X connect 9 0 3 0;
#X connect 10 0 0 0;
#X restore 128 40 pd \$0-element;
#X obj 128 20 namecanvas \$0-menu;
#N canvas 800 113 691 659 patch 0;
#X msg 408 90 clear;
#X obj 408 110 s pd-\$0-paint;
#X obj 309 590 s pd-\$0-paint;
#X obj 357 150 symbol \$0-element;
#X obj 352 360 l2s;
#X obj 183 440 + 0;
#X obj 155 630 s \$0-menu;
#X msg 165 560 donecanvasdialog 1 1 2 0 0 \$3 \$2 \$3 \$2 0 0 \, dirty
0;
#X msg 8 480 0 \$1;
#X obj 350 250 0;
#X obj 8 420 r \$0-open/close;
#X obj 90 440 r \$0-ypos;
#X obj 198 420 r \$0-ypos;
#X obj 8 460 expr if ($f1 == 1 \, $f2 \, $f3);
#X msg 155 610 donecanvasdialog 1 -1 2 0 -1 1 1 \$3 \$2 0 0 \, dirty
0;
#X obj 309 470 * 1;
#X obj 309 380 f+ 0 1;
#X obj 401 430 s \$0-sellist;
#X obj 401 410 f;
#X text 22 10 Reads configuration file and creates the menu scalars.
;
#X msg 309 510 scalar \$2 0 0 \$3 \$4 \$5 0 \$1 \$6 \$7;
#X obj 496 270 sel 1;
#X obj 496 300 999;
#X obj 524 300 0;
#X text 496 210 Sets default colors;
#X obj 350 270 outlet;
#X obj 212 490 r \$0-lenght;
#X obj 309 340 t b a;
#X text 317 530 scalar parameters: x y menu lenght height selection
ypos col-back col-lab;
#X obj 173 400 r \$0-gop-height;
#X text 124 380 New height after "size";
#X obj 330 50 t b b;
#X obj 357 70 t b b b b;
#X obj 261 150 r \$0-load;
#X obj 261 170 t b s b;
#N canvas 133 417 276 172 path+file 0;
#X obj 12 106 list;
#X obj 12 46 t b b;
#X obj 12 26 inlet;
#X text 12 6 Gets path of parent patch and opens file;
#X obj 12 66 symbol jp.preset-\$1.txt;
#X msg 12 126 symbol \$2/\$1;
#X obj 12 146 s \$0-load;
#X obj 33 86 ggee/getdir 3;
#X connect 0 0 5 0;
#X connect 1 0 4 0;
#X connect 1 1 7 0;
#X connect 2 0 1 0;
#X connect 4 0 0 0;
#X connect 5 0 6 0;
#X connect 7 0 0 1;
#X restore 280 90 pd path+file;
#X obj 280 300 list split 1;
#X obj 280 230 msgfile;
#X obj 261 210 until;
#X msg 280 190 read \$1 cr \, rewind;
#X obj 303 35 bng 15 250 50 0 empty empty empty 17 7 0 10 -262144 -1
-1;
#X obj 401 290 symbol NEW;
#X obj 350 230 t b b b b;
#X obj 411 270 r \$0-addNEW;
#X obj 401 310 t b s;
#X obj 330 30 loadbang;
#X obj 496 230 pack \$5 \$6;
#X obj 496 250 expr if($i1 + $i2 == 0 \, 1 \, 0);
#X text 436 491 pack f s s \$2 \$3 \$5 \$6;
#X obj 309 490 pack f s s f f \$5 \$6;
#X obj 155 510 pack f f f;
#X obj 337 440 r \$0-ypos;
#X obj 367 470 r \$0-lenght;
#N canvas 75 90 370 149 dimensions 0;
#X obj 11 109 s \$0-ypos;
#X obj 11 39 inlet;
#X obj 11 69 f \$3;
#X obj 11 89 expr if($i1 == 0 \, 17 \, $i1);
#X text 11 9 Checks if arguments for lenght and height are there. If
not \, takes 100 + 17 as default values.;
#X obj 181 69 f \$2;
#X obj 181 89 expr if($i1 == 0 \, 100 \, $i1);
#X obj 181 109 s \$0-lenght;
#X connect 1 0 2 0;
#X connect 1 0 5 0;
#X connect 2 0 3 0;
#X connect 3 0 0 0;
#X connect 5 0 6 0;
#X connect 6 0 7 0;
#X restore 391 130 pd dimensions;
#X connect 0 0 1 0;
#X connect 3 0 49 1;
#X connect 4 0 49 2;
#X connect 5 0 13 2;
#X connect 5 0 50 1;
#X connect 7 0 2 0;
#X connect 8 0 50 0;
#X connect 9 0 25 0;
#X connect 10 0 13 0;
#X connect 11 0 13 1;
#X connect 12 0 5 1;
#X connect 13 0 8 0;
#X connect 14 0 6 0;
#X connect 15 0 5 0;
#X connect 15 0 49 0;
#X connect 16 0 15 0;
#X connect 16 0 18 1;
#X connect 18 0 17 0;
#X connect 20 0 2 0;
#X connect 21 0 23 0;
#X connect 21 0 22 0;
#X connect 22 0 49 5;
#X connect 23 0 49 6;
#X connect 26 0 50 2;
#X connect 27 0 16 0;
#X connect 27 1 4 0;
#X connect 29 0 13 2;
#X connect 31 0 35 0;
#X connect 31 1 32 0;
#X connect 32 0 3 0;
#X connect 32 1 46 0;
#X connect 32 2 53 0;
#X connect 32 3 0 0;
#X connect 33 0 34 0;
#X connect 34 0 38 0;
#X connect 34 1 39 0;
#X connect 34 2 16 1;
#X connect 36 0 27 0;
#X connect 37 0 36 0;
#X connect 37 1 42 0;
#X connect 38 0 37 0;
#X connect 39 0 37 0;
#X connect 40 0 31 0;
#X connect 41 0 44 0;
#X connect 42 0 9 0;
#X connect 42 2 38 1;
#X connect 42 3 41 0;
#X connect 43 0 41 0;
#X connect 44 0 18 0;
#X connect 44 1 27 0;
#X connect 45 0 31 0;
#X connect 46 0 47 0;
#X connect 47 0 21 0;
#X connect 49 0 20 0;
#X connect 50 0 7 0;
#X connect 50 0 14 0;
#X connect 51 0 49 4;
#X connect 51 0 15 1;
#X connect 52 0 49 3;
#X restore 197 110 pd patch;
#X obj 138 70 inlet;
#X obj 128 180 outlet;
#N canvas 77 301 547 364 selection 0;
#X obj 234 22 inlet;
#X obj 301 212 symbol \$0-paint;
#X obj 301 272 pointer;
#X msg 252 252 next;
#X msg 301 232 traverse pd-\$1;
#X msg 265 102 1 0 0 0 0;
#X obj 364 122 * -1;
#X obj 225 232 t f b;
#X msg 158 212 1 1 1 1 1;
#X obj 297 62 outlet;
#X obj 265 82 t b f b b;
#X obj 225 332 set \$0-element selection y;
#X obj 396 162 s \$0-open/close-i;
#X obj 158 122 r \$0-open/close;
#X obj 158 182 t b b;
#X obj 158 142 t f f;
#X msg 396 142 1;
#X obj 301 312 expr if ($f2 == 0 \, $f1 \, 0);
#X obj 158 162 sel 0;
#X obj 14 48 r \$0-sellist;
#X msg 68 108 set \, add2 1;
#X obj 41 128 until;
#X msg 51 148 add2 1;
#X msg 41 168 add2 0;
#X obj 41 88 t f b;
#X obj 14 68 sel 0;
#N canvas 184 50 479 211 messages 0;
#X obj 11 27 inlet;
#X obj 11 107 outlet;
#X obj 170 177 outlet;
#X obj 11 87 0;
#N canvas 506 305 300 290 color 0;
#X obj 16 52 route bang;
#X obj 16 242 s pd-\$0-color-selector;
#X msg 16 222 vis 1;
#N canvas 423 741 518 243 \$0-color-selector 0;
#N canvas 298 464 528 328 color-sel-gui 0;
#X obj 12 59 ds-color-sel;
#X obj 12 154 ds-color-sel;
#X obj 425 25 bng 15 250 50 0 \$0-send-colors \$0-send-colors-i empty
17 7 0 10 -228856 -1 -1;
#X text 442 23 Send colors;
#X obj 12 258 pack s f f;
#X msg 12 238 symbol color;
#X obj 12 298 s \$0-color-reset;
#X msg 12 278 \$2 \$3;
#X text 12 41 Background color;
#X text 12 136 Label and border color;
#X text 12 13 Click the desired color for the fields \, and click the
"send" button when you're finished.;
#X connect 0 0 4 1;
#X connect 1 0 4 2;
#X connect 2 0 5 0;
#X connect 4 0 7 0;
#X connect 5 0 4 0;
#X connect 7 0 6 0;
#X coords 0 -1 1 1 506 217 2 10 10;
#X restore 5 14 pd color-sel-gui;
#X restore 16 262 pd \$0-color-selector;
#X obj 83 72 r \$0-color-reset;
#X obj 16 32 inlet;
#X msg 92 142 traverse \$1;
#X obj 92 122 symbol pd-\$0-paint;
#X obj 92 162 pointer \$0-element;
#X msg 54 142 next;
#X obj 54 122 until;
#X obj 92 202 set \$0-element col-back col-lab;
#X obj 92 182 list prepend;
#X obj 73 92 t b b a;
#X text 17 12 Sets color scheme;
#X connect 0 0 2 0;
#X connect 0 1 13 0;
#X connect 2 0 1 0;
#X connect 4 0 13 0;
#X connect 5 0 0 0;
#X connect 6 0 8 0;
#X connect 7 0 6 0;
#X connect 8 0 12 0;
#X connect 8 2 10 1;
#X connect 9 0 8 0;
#X connect 10 0 9 0;
#X connect 12 0 11 0;
#X connect 13 0 10 0;
#X connect 13 1 7 0;
#X connect 13 2 12 1;
#X restore 100 107 pd color;
#N canvas 471 174 426 490 size 0;
#X obj 99 74 s pd-\$0-paint;
#X obj 82 114 s \$0-menu;
#X obj 48 14 inlet;
#X msg 99 54 donecanvasdialog 1 1 2 0 0 \$1 \$2 \$1 \$2 0 0 \, dirty
0;
#X msg 82 94 donecanvasdialog 1 -1 2 0 -1 1 1 \$1 \$2 0 0 \, dirty
0;
#X msg 65 374 traverse \$1;
#X obj 65 234 symbol pd-\$0-paint;
#X obj 65 394 pointer \$0-element;
#X msg 27 374 next;
#X obj 27 234 until;
#X obj 65 464 set \$0-element lenght height ypos;
#X obj 122 154 s \$0-ypos;
#X obj 65 134 unpack f f;
#X obj 65 174 s \$0-lenght;
#X obj 103 304 r \$0-ypos;
#X obj 88 324 * 1;
#X obj 88 284 f+ 0 1;
#X obj 48 204 t b b b a;
#X obj 27 254 t b b;
#X obj 65 424 pack p f f f;
#X msg 65 444 \$3 \$4 \$2 \$1;
#X obj 48 34 t l l l l;
#X obj 111 254 unpack f f;
#X obj 98 344 s \$0-gop-height;
#X connect 2 0 21 0;
#X connect 3 0 0 0;
#X connect 4 0 1 0;
#X connect 5 0 7 0;
#X connect 6 0 5 0;
#X connect 7 0 19 0;
#X connect 7 2 9 1;
#X connect 8 0 7 0;
#X connect 9 0 18 0;
#X connect 12 0 13 0;
#X connect 12 1 11 0;
#X connect 14 0 15 1;
#X connect 15 0 19 1;
#X connect 15 0 23 0;
#X connect 16 0 15 0;
#X connect 17 0 9 0;
#X connect 17 1 6 0;
#X connect 17 2 16 1;
#X connect 17 3 22 0;
#X connect 18 0 8 0;
#X connect 18 1 16 0;
#X connect 19 0 20 0;
#X connect 20 0 10 0;
#X connect 21 0 17 0;
#X connect 21 1 12 0;
#X connect 21 2 4 0;
#X connect 21 3 3 0;
#X connect 22 0 19 2;
#X connect 22 1 19 3;
#X restore 126 87 pd size;
#N canvas 129 204 270 175 load 0;
#X obj 14 13 inlet;
#X msg 41 53 clear;
#X obj 41 73 s pd-\$0-paint;
#X obj 14 133 s \$0-load;
#X obj 14 33 t a b;
#X obj 14 93 symbol;
#X msg 14 113 symbol jp.preset-\$1.txt;
#X connect 0 0 4 0;
#X connect 1 0 2 0;
#X connect 4 0 5 0;
#X connect 4 1 1 0;
#X connect 5 0 6 0;
#X connect 6 0 3 0;
#X restore 162 107 pd load;
#X text 12 7 Messages accepted by [jp.preset];
#X obj 57 157 outlet;
#N canvas 347 312 450 300 store 0;
#X obj 16 28 inlet;
#X text 67 28 guarda um outro preset \, primeiro envia-se o nr;
#X restore 297 21 pd store;
#N canvas 517 402 493 387 input 0;
#X obj 10 50 inlet;
#X obj 10 70 i;
#X obj 10 180 moses 0;
#X obj 49 200 moses;
#X obj 96 170 r \$0-sellist;
#X obj 106 200 + 1;
#X obj 29 330 outlet;
#X text 9 11 Filters selection input. Selecting last element creates
new preset.;
#X obj 79 220 moses;
#X msg 106 240 Error - outside preset range;
#X obj 106 260 print jp.preset-\$1;
#X msg 98 320 vis 1;
#X obj 98 340 s pd-RENAME-\$0;
#X text 138 289 clicking on "NEW" selects it \, renames it and makes
a new "NEW" preset;
#X obj 79 290 t b b f;
#X obj 79 360 s \$0-addNEW;
#X obj 70 50 inlet;
#X obj 210 50 inlet;
#X obj 70 100 +;
#X obj 70 70 1;
#X obj 210 100 +;
#X obj 210 70 -1;
#X obj 210 120 moses 0;
#X obj 70 120 moses 0;
#X obj 109 100 r \$0-sellist;
#X connect 0 0 1 0;
#X connect 1 0 2 0;
#X connect 1 0 18 1;
#X connect 1 0 20 1;
#X connect 2 0 9 0;
#X connect 2 1 3 0;
#X connect 3 0 6 0;
#X connect 3 1 8 0;
#X connect 4 0 5 0;
#X connect 4 0 3 1;
#X connect 5 0 8 1;
#X connect 8 0 14 0;
#X connect 8 1 9 0;
#X connect 9 0 10 0;
#X connect 11 0 12 0;
#X connect 14 0 15 0;
#X connect 14 1 11 0;
#X connect 14 2 6 0;
#X connect 16 0 19 0;
#X connect 17 0 21 0;
#X connect 18 0 23 0;
#X connect 19 0 18 0;
#X connect 20 0 22 0;
#X connect 21 0 20 0;
#X connect 22 0 9 0;
#X connect 22 1 1 0;
#X connect 23 0 1 0;
#X connect 23 1 9 0;
#X connect 24 0 23 1;
#X restore 57 127 pd input;
#N canvas 56 193 582 437 edit 0;
#X obj 61 307 outlet;
#X obj 37 137 r \$0-load;
#X msg 37 157 read \$1 cr;
#X obj 27 267 list split 1;
#X obj 27 247 msgfile;
#X msg 27 117 goto \$1 \, this;
#X obj 206 117 list prepend;
#X obj 206 137 list prepend replace;
#X obj 206 157 list trim;
#X obj 179 177 symbol;
#X msg 179 197 write \$1 cr;
#X obj 179 97 t b l;
#X obj 61 287 demux 0 1;
#X obj 356 247 1;
#X msg 322 267 this;
#X obj 305 227 t b b s b;
#X obj 305 247 0;
#X obj 454 337 symbol \$0-paint;
#X obj 454 377 pointer;
#X msg 405 357 next;
#X msg 454 357 traverse pd-\$1;
#X obj 295 397 set -symbol \$0-element menu;
#X obj 405 337 until;
#X obj 405 317 + 1;
#X obj 405 297 t f b;
#N canvas 494 50 387 83 RENAME-\$0 0;
#X symbolatom 9 56 50 0 0 0 - #0-renamesymb-i #0-renamesymb;
#X text 8 6 Click on the field below to input the new name for the
current preset. Must be a symbol (in one word) \, with any characters.
To finish typing \, press return.;
#X restore 395 267 pd RENAME-\$0;
#X obj 295 197 r \$0-renamesymb;
#X msg 395 227 vis 1;
#X obj 395 247 s pd-RENAME-\$0;
#X msg 435 227 vis 0;
#X obj 27 357 s \$0-renamesymb-i;
#X msg 27 337 set \$1;
#X text 70 337 updates name window;
#X obj 27 57 inlet;
#X text 7 97 stores file for edition;
#X obj 179 57 inlet;
#X text 178 37 saves preset;
#X obj 395 197 inlet;
#X text 324 177 renames preset;
#X text 28 17 Commands for edition \, saving \, rename;
#X obj 179 77 list prepend list;
#X text 231 57 to make sure that lists beginning with symbols are read
;
#X msg 228 315 add \$1;
#X connect 1 0 2 0;
#X connect 1 0 9 1;
#X connect 2 0 4 0;
#X connect 3 0 6 1;
#X connect 3 0 31 0;
#X connect 3 1 12 0;
#X connect 4 0 3 0;
#X connect 5 0 4 0;
#X connect 6 0 7 0;
#X connect 7 0 8 0;
#X connect 8 0 4 0;
#X connect 9 0 10 0;
#X connect 10 0 4 0;
#X connect 11 0 9 0;
#X connect 11 1 6 0;
#X connect 12 0 0 0;
#X connect 12 1 11 0;
#X connect 13 0 12 1;
#X connect 14 0 4 0;
#X connect 15 0 16 0;
#X connect 15 1 14 0;
#X connect 15 2 6 1;
#X connect 15 3 13 0;
#X connect 16 0 12 1;
#X connect 17 0 20 0;
#X connect 18 0 21 1;
#X connect 19 0 18 0;
#X connect 20 0 18 0;
#X connect 22 0 19 0;
#X connect 23 0 22 0;
#X connect 24 0 23 0;
#X connect 24 1 17 0;
#X connect 26 0 15 0;
#X connect 26 0 21 0;
#X connect 26 0 29 0;
#X connect 27 0 28 0;
#X connect 29 0 28 0;
#X connect 31 0 30 0;
#X connect 33 0 5 0;
#X connect 33 0 24 0;
#X connect 35 0 40 0;
#X connect 37 0 27 0;
#X connect 40 0 11 0;
#X restore 170 157 pd edit;
#X obj 11 47 route open float bang color size load save rename store
next previous;
#X msg 338 80 Error: wrong command;
#X obj 338 100 print jp.preset-\$1;
#X connect 0 0 12 0;
#X connect 3 0 1 0;
#X connect 10 0 8 0;
#X connect 10 0 11 0;
#X connect 11 0 2 0;
#X connect 12 0 3 0;
#X connect 12 1 10 0;
#X connect 12 2 10 0;
#X connect 12 3 4 0;
#X connect 12 4 5 0;
#X connect 12 5 6 0;
#X connect 12 6 11 1;
#X connect 12 7 11 2;
#X connect 12 9 10 1;
#X connect 12 10 10 2;
#X connect 12 11 13 0;
#X connect 13 0 14 0;
#X restore 234 42 pd messages;
#X obj 301 292 get \$0-element ypos menu;
#X obj 314 22 inlet;
#X obj 265 142 list-abs/list-rot;
#X obj 265 162 list-abs/list-drip;
#X connect 0 0 26 0;
#X connect 1 0 4 0;
#X connect 2 0 11 2;
#X connect 2 0 27 0;
#X connect 3 0 2 0;
#X connect 4 0 2 0;
#X connect 5 0 29 0;
#X connect 6 0 29 1;
#X connect 7 0 11 0;
#X connect 7 1 3 0;
#X connect 8 0 30 0;
#X connect 10 0 5 0;
#X connect 10 1 6 0;
#X connect 10 2 1 0;
#X connect 10 3 16 0;
#X connect 13 0 15 0;
#X connect 14 0 8 0;
#X connect 14 1 1 0;
#X connect 15 0 18 0;
#X connect 15 1 17 1;
#X connect 16 0 12 0;
#X connect 17 0 11 1;
#X connect 18 0 14 0;
#X connect 19 0 25 0;
#X connect 20 0 5 0;
#X connect 20 0 8 0;
#X connect 21 0 22 0;
#X connect 21 0 23 0;
#X connect 22 0 8 0;
#X connect 23 0 5 0;
#X connect 24 0 21 0;
#X connect 24 1 20 0;
#X connect 25 1 24 0;
#X connect 26 0 12 0;
#X connect 26 1 10 0;
#X connect 26 2 9 0;
#X connect 27 0 17 0;
#X connect 28 0 10 0;
#X connect 29 0 30 0;
#X connect 30 0 7 0;
#X restore 128 130 pd selection;
#X obj 147 90 receive \$4-i;
#X obj 137 160 send \$4;
#N canvas 125 353 450 300 \$0-paint 0;
#X coords 0 0 100 17 100 17 2 0 0;
#X restore 0 0 pd \$0-paint;
#N canvas 322 55 450 240 zutun 0;
#X text 26 18 ## ver questoes em aberto em jp.menu;
#X text 28 48 suggestion for commands;
#X text 28 68 - reload;
#X text 28 108 - flush (right outlet);
#X text 28 88 - delete;
#X text 28 128 - close (oposto de open);
#X text 28 148 - enviar comandos através do ficheiro de config (tamanho
\, cor \, etc);
#X restore 248 180 pd zutun;
#X obj 128 201 declare -stdlib zexy;
#X connect 0 0 5 0;
#X connect 2 0 5 1;
#X connect 3 0 5 0;
#X connect 5 0 4 0;
#X connect 5 0 7 0;
#X connect 6 0 5 0;
#X coords 0 -1 1 1 100 17 2 0 0;
