#N canvas -9 18 452 479 10;
#X obj 105 408 osc~;
#X obj 105 332 mtof;
#X obj 105 459 dac~;
#X obj 105 432 /~ 100;
#X obj 122 91 random 127;
#X obj 106 30 r as_b;
#X obj 106 140 select 1;
#X obj 106 115 >;
#X obj 106 52 t f b;
#X obj 106 164 t b b;
#X obj 105 308 +;
#X obj 105 256 -;
#X obj 56 224 *;
#X obj 173 225 *;
#X obj 173 199 random 100000;
#X obj 56 198 random 100000;
#X obj 105 283 / 100000;
#X obj 155 262 r as_f;
#X obj 100 225 r as_bw;
#X obj 105 382 line~;
#X obj 105 357 pack f f;
#X obj 221 282 r as_sl;
#X obj 221 305 mtof;
#X text 12 7 This patch is to illustrate how to use contructions msg
for polyphonie;
#X connect 0 0 3 0;
#X connect 1 0 20 0;
#X connect 3 0 2 0;
#X connect 3 0 2 1;
#X connect 4 0 7 1;
#X connect 5 0 8 0;
#X connect 6 0 9 0;
#X connect 7 0 6 0;
#X connect 8 0 7 0;
#X connect 8 1 4 0;
#X connect 9 0 15 0;
#X connect 9 1 14 0;
#X connect 10 0 1 0;
#X connect 11 0 16 0;
#X connect 12 0 11 0;
#X connect 13 0 11 1;
#X connect 14 0 13 0;
#X connect 15 0 12 0;
#X connect 16 0 10 0;
#X connect 17 0 10 1;
#X connect 18 0 13 1;
#X connect 18 0 12 1;
#X connect 19 0 0 0;
#X connect 20 0 19 0;
#X connect 21 0 22 0;
#X connect 22 0 20 1;
