#N canvas 434 30 448 405 10;
#X obj 21 318 output~;
#X obj 22 290 *~;
#X obj 96 318 output~;
#X obj 97 291 *~;
#X obj 22 231 line;
#X obj 112 231 line~;
#N canvas 0 0 450 300 metro 0;
#X obj 88 39 loadbang;
#X msg 87 65 1;
#X obj 87 96 metro 500;
#X obj 87 131 tgl 15 0 empty empty empty 0 -6 0 8 -262144 -1 -1 1 1
;
#X obj 87 153 sel 0 1;
#X obj 87 190 outlet;
#X obj 151 192 outlet;
#X connect 0 0 1 0;
#X connect 1 0 2 0;
#X connect 2 0 3 0;
#X connect 3 0 4 0;
#X connect 4 0 5 0;
#X connect 4 1 6 0;
#X restore 22 139 pd metro;
#X obj 22 167 bng 15 250 50 0 empty empty empty 0 -6 0 8 -262144 -1
-1;
#X obj 112 167 bng 15 250 50 0 empty empty empty 0 -6 0 8 -262144 -1
-1;
#X msg 22 188 1 300;
#X msg 112 188 0 300;
#X obj 37 259 osc~ 880;
#X text 19 37 Here is a related issue: if we use a (control) line object
to change an amplitude \, it sends ramping control messages \, once
every 20 msec by default. At left we use this to control the amplitude
of a sinusoid. In effect we're multiplying the sinusoid by a staircase
signal (50 increments per second.) Using the signal version \, line~
\, fixes the problem. Line~ outputs a ramp that is incremented every
sample.;
#X obj 1 1 cnv 15 445 20 empty \$0-pddp.cnv.header zipper_noise 20
10 1 18 -261139 -33289 0;
#X obj 407 2 pddp/pddplink http://puredata.info/dev/pddp -text pddp
;
#X obj 1 383 cnv 15 445 20 empty \$0-pddp.cnv.footer empty 20 12 0
14 -233017 -33289 0;
#N canvas 44 246 494 284 META 0;
#X text 12 105 WEBSITE http://crca.ucsd.edu/~msp/;
#X text 12 85 AUTHOR Miller Puckette;
#X text 12 65 LIBRARY PDDP;
#X text 12 25 LICENSE SIBSD;
#X text 12 125 HELP_PATCH_AUTHORS Updated for release 0.34. Jonathan
Wilkes revised the patch to conform to the PDDP template for Pd version
0.42.;
#X text 12 45 DESCRIPTION zipper noise;
#X text 12 5 KEYWORDS signal tutorial;
#X restore 392 385 pd META;
#N canvas 13 202 428 190 References 0;
#X obj 1 1 cnv 15 425 20 empty \$0-pddp.cnv.subheading empty 3 12 0
14 -261139 -33289 0;
#X text 7 2 zipper noise- Related Help Documents;
#X text 19 37 links:;
#X restore 103 385 pd References;
#X obj 6 385 pddp/pddplink ../5.reference/pddp/help.pd -text help;
#X connect 1 0 0 0;
#X connect 1 0 0 1;
#X connect 3 0 2 0;
#X connect 3 0 2 1;
#X connect 4 0 1 0;
#X connect 5 0 3 1;
#X connect 6 0 7 0;
#X connect 6 1 8 0;
#X connect 7 0 9 0;
#X connect 8 0 10 0;
#X connect 9 0 4 0;
#X connect 9 0 5 0;
#X connect 10 0 4 0;
#X connect 10 0 5 0;
#X connect 11 0 1 1;
#X connect 11 0 3 0;
