#N canvas 405 31 448 504 10;
#X obj 23 151 +~;
#X obj 22 232 output~;
#X obj 158 197 / 100;
#X floatatom 158 174 5 0 500 0 - - -, f 5;
#X obj 22 204 clip~ -1 1;
#X floatatom 46 104 5 0 0 0 - - -, f 5;
#X obj 46 126 osc~ 200;
#X obj 22 178 *~;
#X obj 46 58 loadbang;
#X msg 158 150 50;
#X obj 158 126 loadbang;
#X text 88 103 <-- frequency of second tone;
#X text 195 174 <-- before clipping;
#X text 220 157 amplitude of sum;
#X obj 22 32 osc~ 300;
#X msg 46 81 225;
#X text 20 286 This patch demonstrates how nonlinear distortion (also
known as "waveshaping") can create difference tones from a pair of
sinusoids. The sinusoids are initially tuned to 225 and 300 Hz \, a
musical fourth \, and have amplitude of 50 percent (0.5) so that the
sum is always less than 1 in absolute value. At these settings the
"clip~" object passes its input through unchanged.;
#X text 21 382 If the amplitude rises above 50 percent \, the clip~
object starts altering the signal nonlinearly \, and the result is
no longer as if the two sinusoids had been processed separately. Instead
\, they "intermodulate" \, finding a common subharmonic if one exists.
At 300 and 225 Hz \, the subharmonic is at 75 \, two octaves below
the upper tone and a twelveth below the lower one. Change the frequency
of the second tone and you will hear a variety of effects.;
#X obj 1 1 cnv 15 445 20 empty \$0-pddp.cnv.header nonlinear_distortion_and_difference_tones
20 10 1 18 -261139 -33289 0;
#X obj 407 2 pddp/pddplink http://puredata.info/dev/pddp -text pddp
;
#X obj 1 492 cnv 15 445 20 empty \$0-pddp.cnv.footer empty 20 12 0
14 -233017 -33289 0;
#N canvas 44 246 494 284 META 0;
#X text 12 105 WEBSITE http://crca.ucsd.edu/~msp/;
#X text 12 85 AUTHOR Miller Puckette;
#X text 12 65 LIBRARY PDDP;
#X text 12 25 LICENSE SIBSD;
#X text 12 125 HELP_PATCH_AUTHORS Updated for release 0.37. Jonathan
Wilkes revised the patch to conform to the PDDP template for Pd version
0.42.;
#X text 12 45 DESCRIPTION nonlinear distortion and difference tones
;
#X text 12 5 KEYWORDS tutorial;
#X restore 392 494 pd META;
#N canvas 13 202 428 190 References 0;
#X obj 1 1 cnv 15 425 20 empty \$0-pddp.cnv.subheading empty 3 12 0
14 -261139 -33289 0;
#X text 7 2 difference tones- Related Help Documents;
#X text 19 37 links:;
#X restore 103 494 pd References;
#X obj 6 494 pddp/pddplink ../5.reference/pddp/help.pd -text help;
#X connect 0 0 7 0;
#X connect 2 0 7 1;
#X connect 3 0 2 0;
#X connect 4 0 1 0;
#X connect 4 0 1 1;
#X connect 5 0 6 0;
#X connect 6 0 0 1;
#X connect 7 0 4 0;
#X connect 8 0 15 0;
#X connect 9 0 3 0;
#X connect 10 0 9 0;
#X connect 14 0 0 0;
#X connect 15 0 5 0;
